<svg width="30" height="111" viewBox="0 0 30 111" fill="none" xmlns="http://www.w3.org/2000/svg">
<path fill-rule="evenodd" clip-rule="evenodd" d="M13.1554 104.348C13.1342 104.299 13.1147 104.247 13.0941 104.198C13.2774 103.968 14.7519 102.035 14.8494 101.706C24.5771 69.0996 33.0014 35.4798 20.1814 2.44096C19.127 -0.276008 14.7833 1.10125 15.8423 3.83027C27.7072 34.4071 19.9107 71.1082 10.9494 101.506C9.70783 97.9464 7.9381 90.2731 5.16426 87.3921C3.13989 85.2895 0.0880978 88.6853 2.10438 90.7785C6.87783 95.7353 7.32294 103.434 10.5278 109.356C11.2912 110.765 13.1198 110.574 14.1308 109.648C19.3946 104.834 24.2938 99.6957 28.8531 94.2085C30.7253 91.956 27.374 88.9014 25.4918 91.1662C21.6329 95.8095 17.515 100.189 13.1554 104.348Z" fill="#26A0D8" stroke="#26A0D8" stroke-linecap="round" stroke-linejoin="round"/>
</svg>
