<svg width="44" height="44" viewBox="0 0 44 44" fill="none" xmlns="http://www.w3.org/2000/svg">
<rect width="44" height="44" rx="22" fill="#94AFBF"/>
<path d="M26.3959 14.9675L19.7074 22.0288L26.4706 28.9126C26.5537 28.9972 26.595 29.1142 26.5834 29.2322C26.5717 29.3501 26.5084 29.4569 26.4104 29.5236L25.4895 30.1506C25.3297 30.2594 25.1148 30.2383 24.9792 30.1004L17.3147 22.307C17.2304 22.2213 17.1892 22.1022 17.2024 21.9826C17.2156 21.8631 17.2818 21.7559 17.3828 21.6906L17.4441 21.651L24.8798 13.8049C25.0129 13.6645 25.2274 13.6395 25.3892 13.7454L26.3246 14.3578C26.4238 14.4227 26.4891 14.5283 26.5028 14.646C26.5166 14.7637 26.4775 14.8815 26.3959 14.9675Z" fill="white" stroke="white" stroke-width="0.8" stroke-linejoin="round"/>
</svg>
