<svg width="44" height="44" viewBox="0 0 44 44" fill="none" xmlns="http://www.w3.org/2000/svg">
<rect width="44" height="44" rx="22" transform="matrix(-1 0 0 1 44 0)" fill="#1A75BB"/>
<path d="M17.6041 14.9675L24.2926 22.0288L17.5294 28.9126C17.4463 28.9972 17.405 29.1142 17.4166 29.2322C17.4283 29.3501 17.4916 29.4569 17.5896 29.5236L18.5105 30.1506C18.6703 30.2594 18.8852 30.2383 19.0208 30.1004L26.6853 22.307C26.7696 22.2213 26.8108 22.1022 26.7976 21.9826C26.7844 21.8631 26.7182 21.7559 26.6172 21.6906L26.5559 21.651L19.1202 13.8049C18.9871 13.6645 18.7726 13.6395 18.6108 13.7454L17.6754 14.3578C17.5762 14.4227 17.5109 14.5283 17.4972 14.646C17.4834 14.7637 17.5225 14.8815 17.6041 14.9675Z" fill="white" stroke="white" stroke-width="0.8" stroke-linejoin="round"/>
</svg>
