<svg xmlns="http://www.w3.org/2000/svg" width="131" height="149" viewBox="0 0 131 149">
    <g fill="#6C6368" fill-rule="nonzero">
        <path d="M117.964 75.276c.707-4.078 1.107-8.464 1.214-13.154.605-19.372-4.05-34.517-13.952-45.426C96.231 6.806 84.154 1.303 68.986.183 53.726-1.05 40.383 3.95 28.962 15.165c-12.229 11.934-18.347 27.53-18.347 46.807 0 3.666.253 7.444.753 11.318C3.788 77.774 0 82.16 0 86.446c0 1.43.502 2.85 1.517 4.277 1.617 1.94 3.587 2.905 5.912 2.905 2.323 0 4.9-.965 7.735-2.905.098.204.2.458.298.767 4.04 9.582 9.76 18.103 17.138 25.542 17.785 17.64 42.506 28.297 74.142 31.968-8.288-7.042-12.129-14.226-11.52-21.564 1.11-5.916 3.735-12.034 7.88-18.361 5.456-8.25 8.896-14.011 10.312-17.28 3.742 3.269 7.125 4.89 10.16 4.89 2.323 0 4.247-1.014 5.756-3.057 1.114-1.323 1.67-2.748 1.67-4.278 0-4.797-4.348-9.487-13.036-14.074zm-83.478-30.06c-2.3-2.311-3.46-5.094-3.46-8.335 0-3.244 1.16-6.031 3.46-8.323 2.3-2.32 5.07-3.483 8.318-3.483 3.4 0 6.26 1.164 8.561 3.483 2.31 2.292 3.46 5.08 3.46 8.323 0 3.241-1.15 6.024-3.46 8.336-2.3 2.308-5.161 3.457-8.561 3.457-3.247 0-6.017-1.149-8.318-3.457zm27.178 40.1C60.06 87.621 58.14 88.77 55.9 88.77c-2.249 0-4.17-1.149-5.765-3.455-1.596-2.302-2.39-5.171-2.39-8.596 0-3.24.794-6.024 2.39-8.337 1.594-2.306 3.516-3.456 5.765-3.456 2.24 0 4.161 1.15 5.764 3.456 1.593 2.313 2.391 5.097 2.391 8.337 0 3.424-.798 6.294-2.391 8.596zm31.46-34.407c-2.31 2.307-5.08 3.456-8.314 3.456-3.245 0-6.017-1.149-8.317-3.456-2.299-2.302-3.447-5.171-3.447-8.595 0-3.242 1.149-6.024 3.447-8.338 2.3-2.308 5.072-3.455 8.317-3.455 3.234 0 6.003 1.148 8.314 3.455 2.3 2.314 3.45 5.096 3.45 8.338 0 3.423-1.15 6.293-3.45 8.595z"/>
        <path d="M46.845 34.128c-1.258 0-2.333.442-3.224 1.329s-1.336 1.954-1.336 3.201c0 1.316.445 2.416 1.336 3.301.891.886 1.966 1.326 3.224 1.326 1.252 0 2.327-.44 3.222-1.326.893-.885 1.338-1.985 1.338-3.3 0-1.248-.445-2.316-1.338-3.202-.894-.887-1.97-1.329-3.222-1.329zM80.01 37.458c-1.257 0-2.333.442-3.225 1.327-.89.888-1.336 1.956-1.336 3.2 0 1.316.445 2.417 1.336 3.3.892.888 1.967 1.33 3.224 1.33 1.255 0 2.329-.443 3.223-1.33.893-.883 1.338-1.985 1.338-3.3 0-1.244-.445-2.312-1.338-3.2-.894-.886-1.968-1.327-3.223-1.327z"/>
    </g>
</svg>
