<svg xmlns="http://www.w3.org/2000/svg" width="21" height="30" viewBox="0 0 21 30">
    <g fill="none" fill-rule="evenodd" stroke="#FFF" stroke-linecap="round" stroke-linejoin="round" stroke-width="1.5">
        <path d="M4.23 13.94l-1.242.44c-1.812.64-2.073 2.583-1.65 3.714l.988 2.638c1.882 5.027 8.333 6.016 8.333 6.016l.486 1.299" transform="translate(0 .156)"/>
        <path d="M7.809 12.636L3.738 1.762C3.402.866 2.409.395 1.519.71h0C.63 1.025.18 2.006.516 2.902l5.647 15.084" transform="translate(0 .156)"/>
        <path d="M11.043 11.53l-1.76-4.7c-.323-.864-1.307-1.31-2.196-.995h0c-.89.314-1.349 1.27-1.025 2.136l1.093 2.92M14.655 11.433l-1.759-4.698c-.323-.865-1.307-1.311-2.197-.996h0c-.89.315-1.348 1.27-1.024 2.136l1.093 2.92M14.757 11.705l-1.084-2.896c-.321-.857.14-1.807 1.03-2.122h0c.89-.315 1.87.125 2.192.982l1.744 4.658.958 2.56c.424 1.133 1.769 5.647.393 8.557l.487 1.3" transform="translate(0 .156)"/>
    </g>
</svg>
