<svg width="38" height="49" viewBox="0 0 38 49" fill="none" xmlns="http://www.w3.org/2000/svg">
<path fill-rule="evenodd" clip-rule="evenodd" d="M33.9327 47.0227H4.31511C2.95211 47.0227 1.91095 46.241 1.97779 45.3938L3.98701 19.9339C4.05102 19.1217 5.09964 18.4604 6.32432 18.4604H31.5345C32.7468 18.4604 33.7948 19.115 33.8709 19.919L36.2691 45.3784C36.3488 46.2308 35.3068 47.0227 33.9327 47.0227ZM34.8102 19.8305C34.6862 18.5113 33.2776 17.5164 31.5344 17.5164H6.32421C4.58924 17.5164 3.1494 18.5457 3.04555 19.8598L1.03649 45.319C0.919809 46.7991 2.46215 47.9665 4.315 47.9665H33.9326C35.8119 47.9665 37.3485 46.7723 37.2084 45.2901L34.8102 19.8305Z" fill="#2CB9EC"/>
<path d="M1.97779 45.3938L1.77841 45.378L1.77841 45.378L1.97779 45.3938ZM3.98701 19.9339L4.18639 19.9497L4.18639 19.9497L3.98701 19.9339ZM33.8709 19.919L34.0701 19.9003L34.0701 19.9002L33.8709 19.919ZM36.2691 45.3784L36.4683 45.3598L36.4683 45.3597L36.2691 45.3784ZM34.8102 19.8305L34.6111 19.8493L34.6111 19.8493L34.8102 19.8305ZM3.04555 19.8598L2.84617 19.844L2.84617 19.8441L3.04555 19.8598ZM1.03649 45.319L0.837108 45.3033L0.837106 45.3033L1.03649 45.319ZM37.2084 45.2901L37.0093 45.3088L37.0093 45.3089L37.2084 45.2901ZM33.9327 46.8227H4.31511V47.2227H33.9327V46.8227ZM4.31511 46.8227C3.67 46.8227 3.11079 46.6374 2.72642 46.3631C2.33958 46.0871 2.15109 45.7401 2.17717 45.4095L1.77841 45.378C1.73765 45.8946 2.03632 46.3621 2.4941 46.6887C2.95435 47.0171 3.59722 47.2227 4.31511 47.2227V46.8227ZM2.17717 45.4095L4.18639 19.9497L3.78763 19.9182L1.77841 45.378L2.17717 45.4095ZM4.18639 19.9497C4.21173 19.628 4.43576 19.3085 4.82708 19.0617C5.21544 18.8169 5.74609 18.6604 6.32432 18.6604V18.2604C5.67787 18.2604 5.07187 18.4345 4.61374 18.7234C4.15858 19.0104 3.82629 19.4276 3.78762 19.9182L4.18639 19.9497ZM6.32432 18.6604H31.5345V18.2604H6.32432V18.6604ZM31.5345 18.6604C32.1065 18.6604 32.6343 18.8152 33.0229 19.0578C33.4146 19.3024 33.6417 19.6194 33.6718 19.9379L34.0701 19.9002C34.0241 19.4146 33.6891 19.0022 33.2347 18.7185C32.7772 18.4329 32.1748 18.2604 31.5345 18.2604V18.6604ZM33.6718 19.9378L36.07 45.3972L36.4683 45.3597L34.0701 19.9003L33.6718 19.9378ZM36.07 45.397C36.1011 45.7296 35.9155 46.0793 35.5291 46.358C35.145 46.6349 34.5832 46.8227 33.9327 46.8227V47.2227C34.6563 47.2227 35.3025 47.0145 35.763 46.6824C36.2212 46.352 36.5169 45.8796 36.4683 45.3598L36.07 45.397ZM35.0094 19.8118C34.8718 18.3486 33.3333 17.3164 31.5344 17.3164V17.7164C33.2218 17.7164 34.5007 18.674 34.6111 19.8493L35.0094 19.8118ZM31.5344 17.3164H6.32421V17.7164H31.5344V17.3164ZM6.32421 17.3164C4.53338 17.3164 2.96158 18.3838 2.84617 19.844L3.24493 19.8755C3.33722 18.7077 4.6451 17.7164 6.32421 17.7164V17.3164ZM2.84617 19.8441L0.837108 45.3033L1.23587 45.3347L3.24493 19.8755L2.84617 19.8441ZM0.837106 45.3033C0.772436 46.1237 1.17009 46.8458 1.81306 47.3546C2.4547 47.8624 3.34849 48.1665 4.315 48.1665V47.7665C3.42867 47.7665 2.62486 47.487 2.06128 47.041C1.49904 46.5961 1.18386 45.9945 1.23587 45.3347L0.837106 45.3033ZM4.315 48.1665H33.9326V47.7665H4.315V48.1665ZM33.9326 48.1665C34.9128 48.1665 35.8123 47.8554 36.4531 47.34C37.0953 46.8235 37.4852 46.093 37.4075 45.2712L37.0093 45.3089C37.0717 45.9693 36.7634 46.5771 36.2024 47.0283C35.6402 47.4805 34.8317 47.7665 33.9326 47.7665V48.1665ZM37.4076 45.2713L35.0094 19.8118L34.6111 19.8493L37.0093 45.3088L37.4076 45.2713Z" fill="#2CB9EC"/>
<path fill-rule="evenodd" clip-rule="evenodd" d="M28.0666 24.9763C28.0684 24.8696 28.072 24.7632 28.072 24.6558C28.072 24.395 27.861 24.1837 27.6 24.1837C27.3392 24.1837 27.1281 24.395 27.1281 24.6558C27.1281 24.7719 27.1245 24.8865 27.1226 25.0021C26.7787 24.8442 26.5759 24.5566 26.5108 24.2361C26.3915 23.6497 26.7703 23.0794 27.3552 22.9608C27.9555 22.8423 28.5145 23.2329 28.6306 23.8059C28.7285 24.2893 28.4832 24.7596 28.0666 24.9763ZM9.58112 24.2362C9.46265 23.6513 9.84194 23.0794 10.4261 22.9608C11.0257 22.8423 11.5848 23.2329 11.7009 23.8059C11.7944 24.2669 11.5853 24.7528 11.1248 24.9836C11.1229 24.8741 11.1197 24.7656 11.1197 24.6558C11.1197 24.395 10.9086 24.1837 10.6478 24.1837C10.3868 24.1837 10.1759 24.395 10.1759 24.6558C10.1759 24.7696 10.1794 24.8821 10.1814 24.9955C9.84194 24.8362 9.64424 24.5492 9.58112 24.2362ZM29.5561 23.6185C29.3335 22.5241 28.2643 21.8146 27.1682 22.036C26.0717 22.2579 25.3633 23.3254 25.5853 24.4235C25.7346 25.1601 26.2813 25.7842 27.0861 25.9843C26.6745 32.5188 23.2609 37.6346 19.1236 37.6346C14.9836 37.6346 11.5682 32.5115 11.1602 25.9704C12.2306 25.6856 12.8348 24.6459 12.6266 23.6185C12.4038 22.5239 11.3322 21.8129 10.239 22.036C9.14467 22.2576 8.43445 23.3284 8.65558 24.4236C8.80821 25.1744 9.37699 25.817 10.2182 25.9977C10.6533 33.0474 14.4807 38.5785 19.1236 38.5785C23.7688 38.5785 27.5972 33.0428 28.0302 25.9889C29.0901 25.7403 29.7732 24.6934 29.5561 23.6188V23.6185Z" fill="#2CB9EC"/>
<path d="M28.0666 24.9763L27.8666 24.9729C27.8655 25.0434 27.9015 25.1093 27.9614 25.1464C28.0213 25.1834 28.0964 25.1862 28.1589 25.1537L28.0666 24.9763ZM27.1226 25.0021L27.0392 25.1839C27.1005 25.212 27.172 25.2073 27.2291 25.1713C27.2863 25.1354 27.3214 25.073 27.3226 25.0054L27.1226 25.0021ZM26.5108 24.2361L26.7069 24.1963L26.7068 24.1962L26.5108 24.2361ZM27.3552 22.9608L27.3165 22.7646L27.3154 22.7648L27.3552 22.9608ZM28.6306 23.8059L28.8266 23.7662L28.8266 23.7662L28.6306 23.8059ZM9.58112 24.2362L9.77718 24.1967L9.77714 24.1965L9.58112 24.2362ZM10.4261 22.9608L10.3873 22.7646L10.3863 22.7648L10.4261 22.9608ZM11.7009 23.8059L11.5049 23.8456L11.5049 23.8457L11.7009 23.8059ZM11.1248 24.9836L10.9248 24.9871C10.9261 25.0558 10.9625 25.1191 11.0213 25.1547C11.0801 25.1903 11.153 25.1932 11.2144 25.1624L11.1248 24.9836ZM10.1814 24.9955L10.0964 25.1766C10.1589 25.2059 10.2321 25.2009 10.2901 25.1634C10.348 25.1259 10.3825 25.0611 10.3813 24.9921L10.1814 24.9955ZM29.5561 23.6185H29.7561C29.7561 23.6051 29.7548 23.5917 29.7521 23.5786L29.5561 23.6185ZM27.1682 22.036L27.1286 21.84L27.1285 21.84L27.1682 22.036ZM25.5853 24.4235L25.3892 24.4631L25.3893 24.4632L25.5853 24.4235ZM27.0861 25.9843L27.2857 25.9969C27.2918 25.9005 27.2281 25.8135 27.1344 25.7902L27.0861 25.9843ZM11.1602 25.9704L11.1087 25.7771C11.0166 25.8017 10.9546 25.8878 10.9605 25.9829L11.1602 25.9704ZM12.6266 23.6185L12.8226 23.5787L12.8225 23.5786L12.6266 23.6185ZM10.239 22.036L10.2786 22.232L10.2789 22.232L10.239 22.036ZM8.65558 24.4236L8.45953 24.4632L8.45959 24.4634L8.65558 24.4236ZM10.2182 25.9977L10.4178 25.9854C10.4123 25.8959 10.3479 25.821 10.2602 25.8022L10.2182 25.9977ZM28.0302 25.9889L27.9845 25.7942C27.8985 25.8144 27.836 25.8885 27.8305 25.9767L28.0302 25.9889ZM29.5561 23.6188H29.3561C29.3561 23.6321 29.3574 23.6453 29.3601 23.6584L29.5561 23.6188ZM28.2666 24.9796C28.2683 24.8777 28.272 24.7652 28.272 24.6558H27.872C27.872 24.7612 27.8685 24.8615 27.8666 24.9729L28.2666 24.9796ZM28.272 24.6558C28.272 24.2846 27.9716 23.9837 27.6 23.9837V24.3837C27.7504 24.3837 27.872 24.5053 27.872 24.6558H28.272ZM27.6 23.9837C27.2287 23.9837 26.9281 24.2846 26.9281 24.6558H27.3281C27.3281 24.5053 27.4498 24.3837 27.6 24.3837V23.9837ZM26.9281 24.6558C26.9281 24.7698 26.9246 24.8791 26.9226 24.9987L27.3226 25.0054C27.3244 24.8938 27.3281 24.774 27.3281 24.6558H26.9281ZM27.206 24.8203C26.9234 24.6906 26.7599 24.4578 26.7069 24.1963L26.3148 24.2758C26.3919 24.6553 26.6339 24.9978 27.0392 25.1839L27.206 24.8203ZM26.7068 24.1962C26.6095 23.7182 26.9182 23.2535 27.395 23.1568L27.3154 22.7648C26.6224 22.9053 26.1734 23.5811 26.3149 24.276L26.7068 24.1962ZM27.3939 23.157C27.8844 23.0602 28.34 23.3788 28.4346 23.8456L28.8266 23.7662C28.689 23.0871 28.0265 22.6244 27.3165 22.7646L27.3939 23.157ZM28.4346 23.8456C28.5139 24.2375 28.3155 24.6214 27.9743 24.7988L28.1589 25.1537C28.6509 24.8979 28.943 24.3411 28.8266 23.7662L28.4346 23.8456ZM9.77714 24.1965C9.68059 23.7198 9.98996 23.2534 10.4659 23.1568L10.3863 22.7648C9.69391 22.9054 9.24472 23.5828 9.3851 24.2759L9.77714 24.1965ZM10.4648 23.157C10.9547 23.0602 11.4103 23.3787 11.5049 23.8456L11.8969 23.7662C11.7593 23.0872 11.0968 22.6244 10.3873 22.7646L10.4648 23.157ZM11.5049 23.8457C11.5813 24.2221 11.4113 24.6162 11.0352 24.8048L11.2144 25.1624C11.7592 24.8893 12.0076 24.3117 11.8969 23.7661L11.5049 23.8457ZM11.3248 24.98C11.3228 24.8676 11.3197 24.7632 11.3197 24.6558H10.9197C10.9197 24.7679 10.923 24.8806 10.9248 24.9871L11.3248 24.98ZM11.3197 24.6558C11.3197 24.2846 11.0191 23.9837 10.6478 23.9837V24.3837C10.7981 24.3837 10.9197 24.5053 10.9197 24.6558H11.3197ZM10.6478 23.9837C10.2763 23.9837 9.97586 24.2846 9.97586 24.6558H10.3759C10.3759 24.5053 10.4974 24.3837 10.6478 24.3837V23.9837ZM9.97586 24.6558C9.97586 24.7718 9.97954 24.8896 9.98141 24.9989L10.3813 24.9921C10.3793 24.8747 10.3759 24.7675 10.3759 24.6558H9.97586ZM10.2664 24.8145C9.98796 24.6838 9.8286 24.4517 9.77718 24.1967L9.38507 24.2757C9.45987 24.6468 9.69591 24.9886 10.0964 25.1766L10.2664 24.8145ZM29.7521 23.5786C29.5075 22.3761 28.3329 21.5967 27.1286 21.84L27.2078 22.232C28.1957 22.0325 29.1595 22.672 29.3601 23.6583L29.7521 23.5786ZM27.1285 21.84C25.9237 22.0838 25.1453 23.2569 25.3892 24.4631L25.7813 24.3838C25.5812 23.394 26.2197 22.432 27.2079 22.232L27.1285 21.84ZM25.3893 24.4632C25.5533 25.2722 26.1549 25.9589 27.0379 26.1784L27.1344 25.7902C26.4077 25.6095 25.916 25.048 25.7813 24.3837L25.3893 24.4632ZM26.8865 25.9717C26.6825 29.2099 25.735 32.0865 24.3365 34.1476C22.9367 36.2107 21.1031 37.4346 19.1236 37.4346V37.8346C21.2814 37.8346 23.2233 36.5007 24.6675 34.3722C26.113 32.2418 27.0781 29.2932 27.2857 25.9969L26.8865 25.9717ZM19.1236 37.4346C17.1428 37.4346 15.3081 36.2089 13.9079 34.1432C12.5091 32.0794 11.562 29.1994 11.3598 25.958L10.9605 25.9829C11.1664 29.2825 12.131 32.2346 13.5768 34.3676C15.0214 36.4988 16.9643 37.8346 19.1236 37.8346V37.4346ZM11.2116 26.1637C12.3868 25.851 13.0514 24.7073 12.8226 23.5787L12.4305 23.6582C12.6183 24.5846 12.0743 25.5202 11.1087 25.7771L11.2116 26.1637ZM12.8225 23.5786C12.5778 22.3761 11.4009 21.5948 10.199 21.84L10.2789 22.232C11.2635 22.0311 12.2298 22.6717 12.4306 23.6584L12.8225 23.5786ZM10.1993 21.84C8.99665 22.0835 8.21658 23.2599 8.45953 24.4632L8.85162 24.384C8.65233 23.397 9.2927 22.4317 10.2786 22.232L10.1993 21.84ZM8.45959 24.4634C8.62715 25.2877 9.25293 25.995 10.1762 26.1933L10.2602 25.8022C9.50105 25.6391 8.98928 25.0611 8.85157 24.3838L8.45959 24.4634ZM10.0186 26.01C10.238 29.5655 11.3132 32.7478 12.9294 35.0468C14.5447 37.3446 16.7164 38.7785 19.1236 38.7785V38.3785C16.8879 38.3785 14.8244 37.0469 13.2566 34.8167C11.6896 32.5878 10.6335 29.4796 10.4178 25.9854L10.0186 26.01ZM19.1236 38.7785C21.532 38.7785 23.7045 37.3434 25.3201 35.0439C26.9366 32.7432 28.0114 29.5587 28.2298 26.0012L27.8305 25.9767C27.6159 29.473 26.5601 32.5833 24.9928 34.8139C23.4247 37.0458 21.3604 38.3785 19.1236 38.3785V38.7785ZM28.0758 26.1836C29.2398 25.9107 29.9909 24.7609 29.7521 23.5792L29.3601 23.6584C29.5555 24.6259 28.9405 25.57 27.9845 25.7942L28.0758 26.1836ZM29.7561 23.6188V23.6185H29.3561V23.6188H29.7561Z" fill="#2CB9EC"/>
<path fill-rule="evenodd" clip-rule="evenodd" d="M12.2057 16.4753C12.4122 16.3167 12.4513 16.0202 12.2924 15.8137C11.1323 14.303 10.5191 12.4925 10.5191 10.5785C10.5191 5.83357 14.3789 1.97375 19.1237 1.97375C23.868 1.97375 27.7276 5.83357 27.7276 10.5785C27.7276 12.5653 27.0719 14.4302 25.8309 15.9708C25.668 16.1737 25.6996 16.4711 25.903 16.6343C26.1062 16.7983 26.4034 16.7652 26.5667 16.563C27.9241 14.8771 28.6717 12.7515 28.6717 10.5785C28.6717 5.31329 24.3883 1.02972 19.1237 1.02972C13.8585 1.02972 9.5752 5.31329 9.5752 10.5785C9.5752 12.7026 10.256 14.7114 11.5437 16.3883C11.7029 16.5954 11.9988 16.6352 12.2057 16.4753Z" fill="#2CB9EC"/>
<path fill-rule="evenodd" clip-rule="evenodd" d="M12.2057 16.4753C12.4122 16.3167 12.4513 16.0202 12.2924 15.8137C11.1323 14.303 10.5191 12.4925 10.5191 10.5785C10.5191 5.83357 14.3789 1.97375 19.1237 1.97375C23.868 1.97375 27.7276 5.83357 27.7276 10.5785C27.7276 12.5653 27.0719 14.4302 25.8309 15.9708C25.668 16.1737 25.6996 16.4711 25.903 16.6343C26.1062 16.7983 26.4034 16.7652 26.5667 16.563C27.9241 14.8771 28.6717 12.7515 28.6717 10.5785C28.6717 5.31329 24.3883 1.02972 19.1237 1.02972C13.8585 1.02972 9.5752 5.31329 9.5752 10.5785C9.5752 12.7026 10.256 14.7114 11.5437 16.3883C11.7029 16.5954 11.9988 16.6352 12.2057 16.4753Z" stroke="#2CB9EC" stroke-width="0.4" stroke-linecap="round" stroke-linejoin="round"/>
<path fill-rule="evenodd" clip-rule="evenodd" d="M14.8959 7.18104C14.8959 6.42023 15.5148 5.80133 16.2759 5.80133C17.0365 5.80133 17.6555 6.42023 17.6555 7.18104C17.6555 7.94199 17.0365 8.5609 16.2759 8.5609C15.5148 8.5609 14.8959 7.94199 14.8959 7.18104ZM18.5995 7.18104C18.5995 5.89995 17.5574 4.8573 16.276 4.8573C14.9947 4.8573 13.9521 5.89995 13.9521 7.18104C13.9521 8.46242 14.9947 9.50478 16.276 9.50478C17.5574 9.50478 18.5995 8.46242 18.5995 7.18104Z" fill="#2CB9EC"/>
<path d="M15.0959 7.18104C15.0959 6.53072 15.6252 6.00133 16.2759 6.00133V5.60133C15.4044 5.60133 14.6959 6.30975 14.6959 7.18104H15.0959ZM16.2759 6.00133C16.9261 6.00133 17.4555 6.53068 17.4555 7.18104H17.8555C17.8555 6.30979 17.147 5.60133 16.2759 5.60133V6.00133ZM17.4555 7.18104C17.4555 7.83156 16.9261 8.3609 16.2759 8.3609V8.7609C17.147 8.7609 17.8555 8.05242 17.8555 7.18104H17.4555ZM16.2759 8.3609C15.6252 8.3609 15.0959 7.83152 15.0959 7.18104H14.6959C14.6959 8.05246 15.4043 8.7609 16.2759 8.7609V8.3609ZM18.7995 7.18104C18.7995 5.78955 17.6679 4.6573 16.276 4.6573V5.0573C17.4469 5.0573 18.3995 6.01036 18.3995 7.18104H18.7995ZM16.276 4.6573C14.8842 4.6573 13.7521 5.7895 13.7521 7.18104H14.1521C14.1521 6.01041 15.1051 5.0573 16.276 5.0573V4.6573ZM13.7521 7.18104C13.7521 8.5729 14.8842 9.70478 16.276 9.70478V9.30478C15.1051 9.30478 14.1521 8.35195 14.1521 7.18104H13.7521ZM16.276 9.70478C17.6679 9.70478 18.7995 8.57285 18.7995 7.18104H18.3995C18.3995 8.352 17.4469 9.30478 16.276 9.30478V9.70478Z" fill="#2CB9EC"/>
<path fill-rule="evenodd" clip-rule="evenodd" d="M21.9004 11.0999C22.6614 11.0999 23.2804 11.719 23.2804 12.4799C23.2804 13.2409 22.6614 13.8596 21.9004 13.8596C21.1398 13.8596 20.5209 13.2409 20.5209 12.4799C20.5209 11.719 21.1398 11.0999 21.9004 11.0999ZM21.9006 14.8037C23.182 14.8037 24.2245 13.761 24.2245 12.4799C24.2245 11.1982 23.182 10.1559 21.9006 10.1559C20.6192 10.1559 19.5771 11.1982 19.5771 12.4799C19.5771 13.761 20.6192 14.8037 21.9006 14.8037Z" fill="#2CB9EC"/>
<path d="M21.9004 11.2999C22.5509 11.2999 23.0804 11.8294 23.0804 12.4799H23.4804C23.4804 11.6085 22.7718 10.8999 21.9004 10.8999V11.2999ZM23.0804 12.4799C23.0804 13.1304 22.551 13.6596 21.9004 13.6596V14.0596C22.7718 14.0596 23.4804 13.3514 23.4804 12.4799H23.0804ZM21.9004 13.6596C21.2502 13.6596 20.7209 13.1304 20.7209 12.4799H20.3209C20.3209 13.3513 21.0293 14.0596 21.9004 14.0596V13.6596ZM20.7209 12.4799C20.7209 11.8294 21.2503 11.2999 21.9004 11.2999V10.8999C21.0293 10.8999 20.3209 11.6086 20.3209 12.4799H20.7209ZM21.9006 15.0037C23.2924 15.0037 24.4245 13.8715 24.4245 12.4799H24.0245C24.0245 13.6505 23.0715 14.6037 21.9006 14.6037V15.0037ZM24.4245 12.4799C24.4245 11.0878 23.2924 9.95588 21.9006 9.95588V10.3559C23.0715 10.3559 24.0245 11.3087 24.0245 12.4799H24.4245ZM21.9006 9.95588C20.5087 9.95588 19.3771 11.0878 19.3771 12.4799H19.7771C19.7771 11.3086 20.7297 10.3559 21.9006 10.3559V9.95588ZM19.3771 12.4799C19.3771 13.8714 20.5087 15.0037 21.9006 15.0037V14.6037C20.7297 14.6037 19.7771 13.6506 19.7771 12.4799H19.3771Z" fill="#2CB9EC"/>
<path fill-rule="evenodd" clip-rule="evenodd" d="M15.7061 13.8795L23.2089 6.37706C23.3934 6.19249 23.3934 5.89393 23.2089 5.70936C23.0247 5.52494 22.726 5.52494 22.5417 5.70936L15.0387 13.2119C14.8543 13.3968 14.8543 13.6955 15.0387 13.8795C15.2231 14.064 15.5214 14.0643 15.7061 13.8795Z" fill="#2CB9EC"/>
<path fill-rule="evenodd" clip-rule="evenodd" d="M15.7061 13.8795L23.2089 6.37706C23.3934 6.19249 23.3934 5.89393 23.2089 5.70936C23.0247 5.52494 22.726 5.52494 22.5417 5.70936L15.0387 13.2119C14.8543 13.3968 14.8543 13.6955 15.0387 13.8795C15.2231 14.064 15.5214 14.0643 15.7061 13.8795Z" stroke="#2CB9EC" stroke-width="0.4" stroke-linecap="round" stroke-linejoin="round"/>
</svg>
