<svg width="27" height="28" viewBox="0 0 27 28" fill="none" xmlns="http://www.w3.org/2000/svg">
<path fill-rule="evenodd" clip-rule="evenodd" d="M25.9981 6.13448C25.9981 4.34513 24.6504 2.88953 22.9934 2.88953H22.4592V2.10099C22.4592 1.49386 21.9653 1 21.3583 1H21.2108C20.6036 1 20.1099 1.49386 20.1099 2.10099V2.88998H14.6717V2.10099C14.6717 1.49386 14.1776 1 13.5707 1H13.4235C12.8162 1 12.3225 1.49386 12.3225 2.10099V2.88998H6.84296V2.10099C6.84296 1.49386 6.34892 1 5.7417 1H5.59458C4.98745 1 4.49341 1.49386 4.49341 2.10099V2.88953H4.00551C2.34856 2.88953 1.00072 4.34513 1.00072 6.13448L1 25.4531C1 26.3804 1.8713 27.1349 2.94215 27.1349H17.1177C22.014 27.1349 25.9973 23.7538 25.9973 19.5977L25.9981 6.13448ZM21.2115 1.52671H21.359C21.6755 1.52671 21.9331 1.78448 21.9331 2.10099V4.20568C21.9331 4.52229 21.6755 4.77996 21.359 4.77996H21.2115C20.895 4.77996 20.6372 4.52229 20.6372 4.20568V2.10099C20.6372 1.78448 20.895 1.52671 21.2115 1.52671ZM13.4234 1.52671H13.5706C13.8873 1.52671 14.1451 1.78448 14.1451 2.10099V4.20568C14.1451 4.52229 13.8873 4.77996 13.5706 4.77996H13.4234C13.1068 4.77996 12.8491 4.52229 12.8491 4.20568V2.10099C12.8491 1.78448 13.1068 1.52671 13.4234 1.52671ZM5.5937 1.52671H5.74081C6.05769 1.52671 6.31536 1.78448 6.31536 2.10099V4.20568C6.31536 4.52229 6.05769 4.77996 5.74081 4.77996H5.5937C5.27692 4.77996 5.01915 4.52229 5.01915 4.20568V2.10099C5.01915 1.78448 5.27692 1.52671 5.5937 1.52671ZM1.52766 6.13447C1.52766 4.63574 2.6394 3.41615 4.00573 3.41615H4.49364V4.20568C4.49364 4.8129 4.98768 5.30668 5.59481 5.30668H5.74192C6.34914 5.30668 6.84319 4.8129 6.84319 4.20568V3.41669H12.3227V4.20568C12.3227 4.8129 12.8165 5.30668 13.4237 5.30668H13.5709C14.1778 5.30668 14.6719 4.8129 14.6719 4.20568V3.41669H20.1102V4.20568C20.1102 4.8129 20.6038 5.30668 21.2111 5.30668H21.3585C21.9656 5.30668 22.4594 4.8129 22.4594 4.20568V3.41615H22.9936C24.3599 3.41615 25.4716 4.63574 25.4716 6.13447V7.72048H1.52766V6.13447ZM17.1171 26.6082H16.449C17.7521 25.835 20.0918 24.2281 20.1622 22.6184C20.1955 21.8719 20.2973 21.8731 21.2507 21.8972C22.0483 21.9159 23.3425 21.9454 25.2104 21.3341C24.2875 24.3625 21.0093 26.6082 17.1171 26.6082ZM25.4697 19.5977C25.4697 19.9819 25.4313 20.3586 25.3601 20.7261C23.4093 21.4195 22.1208 21.3915 21.263 21.3704C20.3184 21.3479 19.6922 21.3331 19.6358 22.5951C19.5677 24.1534 16.5343 26.0181 15.3656 26.6082H2.9413C2.1607 26.6082 1.52577 26.0901 1.52577 25.4531V8.2472H25.4697V19.5977Z" fill="#26A0D8"/>
<path d="M25.9981 6.13448L26.1981 6.13449V6.13448H25.9981ZM22.4592 2.88953H22.2592C22.2592 2.99999 22.3487 3.08953 22.4592 3.08953V2.88953ZM20.1099 2.88998V3.08998C20.2204 3.08998 20.3099 3.00044 20.3099 2.88998H20.1099ZM14.6717 2.88998H14.4717C14.4717 3.00044 14.5612 3.08998 14.6717 3.08998V2.88998ZM12.3225 2.88998V3.08998C12.4329 3.08998 12.5225 3.00044 12.5225 2.88998H12.3225ZM6.84296 2.88998H6.64296C6.64296 3.00044 6.7325 3.08998 6.84296 3.08998V2.88998ZM4.49341 2.88953V3.08953C4.60387 3.08953 4.69341 2.99999 4.69341 2.88953H4.49341ZM1.00072 6.13448L1.20072 6.13448V6.13448H1.00072ZM1 25.4531L0.8 25.4531V25.4531H1ZM25.9973 19.5977L25.7973 19.5977V19.5977H25.9973ZM21.2115 1.32671C21.101 1.32671 21.0115 1.41626 21.0115 1.52671C21.0115 1.63717 21.101 1.72671 21.2115 1.72671V1.32671ZM13.4234 1.32671C13.313 1.32671 13.2234 1.41626 13.2234 1.52671C13.2234 1.63717 13.313 1.72671 13.4234 1.72671V1.32671ZM5.5937 1.32671C5.48325 1.32671 5.3937 1.41626 5.3937 1.52671C5.3937 1.63717 5.48325 1.72671 5.5937 1.72671V1.32671ZM4.49364 3.41615H4.69364C4.69364 3.3057 4.6041 3.21615 4.49364 3.21615V3.41615ZM6.84319 3.41669V3.21669C6.73273 3.21669 6.64319 3.30624 6.64319 3.41669H6.84319ZM12.3227 3.41669H12.5227C12.5227 3.30624 12.4332 3.21669 12.3227 3.21669V3.41669ZM14.6719 3.41669V3.21669C14.5614 3.21669 14.4719 3.30624 14.4719 3.41669H14.6719ZM20.1102 3.41669H20.3102C20.3102 3.30624 20.2206 3.21669 20.1102 3.21669V3.41669ZM22.4594 3.41615V3.21615C22.349 3.21615 22.2594 3.3057 22.2594 3.41615H22.4594ZM25.4716 7.72048V7.92048C25.5821 7.92048 25.6716 7.83094 25.6716 7.72048H25.4716ZM1.52766 7.72048H1.32766C1.32766 7.83094 1.41721 7.92048 1.52766 7.92048V7.72048ZM16.449 26.6082L16.3469 26.4362C16.2694 26.4822 16.2323 26.5742 16.2561 26.6611C16.2799 26.748 16.3589 26.8082 16.449 26.8082V26.6082ZM20.1622 22.6184L19.9624 22.6095L19.9624 22.6097L20.1622 22.6184ZM21.2507 21.8972L21.2456 22.0971L21.246 22.0971L21.2507 21.8972ZM25.2104 21.3341L25.4017 21.3924C25.4235 21.321 25.4037 21.2435 25.3504 21.1913C25.2971 21.139 25.2192 21.1208 25.1482 21.144L25.2104 21.3341ZM17.1171 26.4082C17.0066 26.4082 16.9171 26.4977 16.9171 26.6082C16.9171 26.7187 17.0066 26.8082 17.1171 26.8082V26.4082ZM25.3601 20.7261L25.4271 20.9145C25.4938 20.8908 25.543 20.8336 25.5564 20.7641L25.3601 20.7261ZM21.263 21.3704L21.2679 21.1705L21.2677 21.1704L21.263 21.3704ZM19.6358 22.5951L19.436 22.5862L19.436 22.5864L19.6358 22.5951ZM15.3656 26.6082V26.8082C15.3969 26.8082 15.4278 26.8009 15.4557 26.7867L15.3656 26.6082ZM1.52577 8.2472V8.0472C1.41531 8.0472 1.32577 8.13674 1.32577 8.2472H1.52577ZM25.4697 8.2472H25.6697C25.6697 8.13674 25.5802 8.0472 25.4697 8.0472V8.2472ZM26.1981 6.13448C26.1981 4.24944 24.775 2.68953 22.9934 2.68953V3.08953C24.5257 3.08953 25.7981 4.44081 25.7981 6.13448H26.1981ZM22.9934 2.68953H22.4592V3.08953H22.9934V2.68953ZM22.6592 2.88953V2.10099H22.2592V2.88953H22.6592ZM22.6592 2.10099C22.6592 1.38342 22.0758 0.8 21.3583 0.8V1.2C21.8549 1.2 22.2592 1.60431 22.2592 2.10099H22.6592ZM21.3583 0.8H21.2108V1.2H21.3583V0.8ZM21.2108 0.8C20.4931 0.8 19.9099 1.38344 19.9099 2.10099H20.3099C20.3099 1.60429 20.7141 1.2 21.2108 1.2V0.8ZM19.9099 2.10099V2.88998H20.3099V2.10099H19.9099ZM20.1099 2.68998H14.6717V3.08998H20.1099V2.68998ZM14.8717 2.88998V2.10099H14.4717V2.88998H14.8717ZM14.8717 2.10099C14.8717 1.38338 14.2881 0.8 13.5707 0.8V1.2C14.0672 1.2 14.4717 1.60434 14.4717 2.10099H14.8717ZM13.5707 0.8H13.4235V1.2H13.5707V0.8ZM13.4235 0.8C12.7058 0.8 12.1225 1.38342 12.1225 2.10099H12.5225C12.5225 1.60431 12.9267 1.2 13.4235 1.2V0.8ZM12.1225 2.10099V2.88998H12.5225V2.10099H12.1225ZM12.3225 2.68998H6.84296V3.08998H12.3225V2.68998ZM7.04296 2.88998V2.10099H6.64296V2.88998H7.04296ZM7.04296 2.10099C7.04296 1.38335 6.45932 0.8 5.7417 0.8V1.2C6.23851 1.2 6.64296 1.60437 6.64296 2.10099H7.04296ZM5.7417 0.8H5.59458V1.2H5.7417V0.8ZM5.59458 0.8C4.87704 0.8 4.29341 1.38336 4.29341 2.10099H4.69341C4.69341 1.60436 5.09787 1.2 5.59458 1.2V0.8ZM4.29341 2.10099V2.88953H4.69341V2.10099H4.29341ZM4.49341 2.68953H4.00551V3.08953H4.49341V2.68953ZM4.00551 2.68953C2.22389 2.68953 0.800722 4.24943 0.800722 6.13448H1.20072C1.20072 4.44082 2.47322 3.08953 4.00551 3.08953V2.68953ZM0.800722 6.13447L0.8 25.4531L1.2 25.4531L1.20072 6.13448L0.800722 6.13447ZM0.8 25.4531C0.8 26.5169 1.78883 27.3349 2.94215 27.3349V26.9349C1.95377 26.9349 1.2 26.2439 1.2 25.4531H0.8ZM2.94215 27.3349H17.1177V26.9349H2.94215V27.3349ZM17.1177 27.3349C22.0925 27.3349 26.1973 23.8937 26.1973 19.5977H25.7973C25.7973 23.6139 21.9355 26.9349 17.1177 26.9349V27.3349ZM26.1973 19.5978L26.1981 6.13449L25.7981 6.13446L25.7973 19.5977L26.1973 19.5978ZM21.2115 1.72671H21.359V1.32671H21.2115V1.72671ZM21.359 1.72671C21.5649 1.72671 21.7331 1.89485 21.7331 2.10099H22.1331C22.1331 1.6741 21.786 1.32671 21.359 1.32671V1.72671ZM21.7331 2.10099V4.20568H22.1331V2.10099H21.7331ZM21.7331 4.20568C21.7331 4.41189 21.565 4.57996 21.359 4.57996V4.97996C21.786 4.97996 22.1331 4.63269 22.1331 4.20568H21.7331ZM21.359 4.57996H21.2115V4.97996H21.359V4.57996ZM21.2115 4.57996C21.0054 4.57996 20.8372 4.41181 20.8372 4.20568H20.4372C20.4372 4.63277 20.7845 4.97996 21.2115 4.97996V4.57996ZM20.8372 4.20568V2.10099H20.4372V4.20568H20.8372ZM20.8372 2.10099C20.8372 1.89493 21.0054 1.72671 21.2115 1.72671V1.32671C20.7845 1.32671 20.4372 1.67402 20.4372 2.10099H20.8372ZM13.4234 1.72671H13.5706V1.32671H13.4234V1.72671ZM13.5706 1.72671C13.7769 1.72671 13.9451 1.89497 13.9451 2.10099H14.3451C14.3451 1.67398 13.9977 1.32671 13.5706 1.32671V1.72671ZM13.9451 2.10099V4.20568H14.3451V2.10099H13.9451ZM13.9451 4.20568C13.9451 4.41177 13.7769 4.57996 13.5706 4.57996V4.97996C13.9977 4.97996 14.3451 4.63281 14.3451 4.20568H13.9451ZM13.5706 4.57996H13.4234V4.97996H13.5706V4.57996ZM13.4234 4.57996C13.2173 4.57996 13.0491 4.41183 13.0491 4.20568H12.6491C12.6491 4.63275 12.9963 4.97996 13.4234 4.97996V4.57996ZM13.0491 4.20568V2.10099H12.6491V4.20568H13.0491ZM13.0491 2.10099C13.0491 1.89491 13.2173 1.72671 13.4234 1.72671V1.32671C12.9963 1.32671 12.6491 1.67404 12.6491 2.10099H13.0491ZM5.5937 1.72671H5.74081V1.32671H5.5937V1.72671ZM5.74081 1.72671C5.94727 1.72671 6.11536 1.89497 6.11536 2.10099H6.51536C6.51536 1.67398 6.16811 1.32671 5.74081 1.32671V1.72671ZM6.11536 2.10099V4.20568H6.51536V2.10099H6.11536ZM6.11536 4.20568C6.11536 4.41177 5.94729 4.57996 5.74081 4.57996V4.97996C6.16809 4.97996 6.51536 4.63281 6.51536 4.20568H6.11536ZM5.74081 4.57996H5.5937V4.97996H5.74081V4.57996ZM5.5937 4.57996C5.38729 4.57996 5.21915 4.41175 5.21915 4.20568H4.81915C4.81915 4.63283 5.16654 4.97996 5.5937 4.97996V4.57996ZM5.21915 4.20568V2.10099H4.81915V4.20568H5.21915ZM5.21915 2.10099C5.21915 1.89499 5.38731 1.72671 5.5937 1.72671V1.32671C5.16652 1.32671 4.81915 1.67396 4.81915 2.10099H5.21915ZM1.72766 6.13447C1.72766 4.72837 2.76687 3.61615 4.00573 3.61615V3.21615C2.51192 3.21615 1.32766 4.5431 1.32766 6.13447H1.72766ZM4.00573 3.61615H4.49364V3.21615H4.00573V3.61615ZM4.29364 3.41615V4.20568H4.69364V3.41615H4.29364ZM4.29364 4.20568C4.29364 4.92341 4.87728 5.50668 5.59481 5.50668V5.10668C5.09809 5.10668 4.69364 4.70239 4.69364 4.20568H4.29364ZM5.59481 5.50668H5.74192V5.10668H5.59481V5.50668ZM5.74192 5.50668C6.45954 5.50668 7.04319 4.92342 7.04319 4.20568H6.64319C6.64319 4.70238 6.23875 5.10668 5.74192 5.10668V5.50668ZM7.04319 4.20568V3.41669H6.64319V4.20568H7.04319ZM6.84319 3.61669H12.3227V3.21669H6.84319V3.61669ZM12.1227 3.41669V4.20568H12.5227V3.41669H12.1227ZM12.1227 4.20568C12.1227 4.92336 12.706 5.50668 13.4237 5.50668V5.10668C12.9269 5.10668 12.5227 4.70245 12.5227 4.20568H12.1227ZM13.4237 5.50668H13.5709V5.10668H13.4237V5.50668ZM13.5709 5.50668C14.2883 5.50668 14.8719 4.92339 14.8719 4.20568H14.4719C14.4719 4.70241 14.0674 5.10668 13.5709 5.10668V5.50668ZM14.8719 4.20568V3.41669H14.4719V4.20568H14.8719ZM14.6719 3.61669H20.1102V3.21669H14.6719V3.61669ZM19.9102 3.41669V4.20568H20.3102V3.41669H19.9102ZM19.9102 4.20568C19.9102 4.92334 20.4934 5.50668 21.2111 5.50668V5.10668C20.7143 5.10668 20.3102 4.70247 20.3102 4.20568H19.9102ZM21.2111 5.50668H21.3585V5.10668H21.2111V5.50668ZM21.3585 5.50668C22.076 5.50668 22.6594 4.92336 22.6594 4.20568H22.2594C22.2594 4.70245 21.8551 5.10668 21.3585 5.10668V5.50668ZM22.6594 4.20568V3.41615H22.2594V4.20568H22.6594ZM22.4594 3.61615H22.9936V3.21615H22.4594V3.61615ZM22.9936 3.61615C24.2324 3.61615 25.2716 4.72837 25.2716 6.13447H25.6716C25.6716 4.54311 24.4874 3.21615 22.9936 3.21615V3.61615ZM25.2716 6.13447V7.72048H25.6716V6.13447H25.2716ZM25.4716 7.52048H1.52766V7.92048H25.4716V7.52048ZM1.72766 7.72048V6.13447H1.32766V7.72048H1.72766ZM17.1171 26.4082H16.449V26.8082H17.1171V26.4082ZM16.551 26.7802C17.2077 26.3906 18.1321 25.7872 18.9037 25.0738C19.6655 24.3694 20.3231 23.5173 20.362 22.6271L19.9624 22.6097C19.931 23.3292 19.3835 24.0853 18.6321 24.7801C17.8904 25.4659 16.9934 26.0526 16.3469 26.4362L16.551 26.7802ZM20.362 22.6273C20.3704 22.4399 20.3827 22.3211 20.4049 22.2411C20.4248 22.1697 20.4465 22.1511 20.465 22.14C20.4956 22.1214 20.5573 22.1022 20.6944 22.0944C20.8285 22.0868 21.004 22.091 21.2456 22.0971L21.2557 21.6973C21.0207 21.6913 20.826 21.6863 20.6718 21.6951C20.5206 21.7036 20.3761 21.7262 20.2579 21.7977C20.1276 21.8766 20.058 21.9961 20.0196 22.1337C19.9837 22.2627 19.9707 22.4236 19.9624 22.6095L20.362 22.6273ZM21.246 22.0971C22.0525 22.116 23.373 22.1458 25.2726 21.5242L25.1482 21.144C23.3119 21.745 22.0442 21.7157 21.2554 21.6973L21.246 22.0971ZM25.0191 21.2758C24.1268 24.2038 20.9395 26.4082 17.1171 26.4082V26.8082C21.079 26.8082 24.4482 24.5213 25.4017 21.3924L25.0191 21.2758ZM25.2697 19.5977C25.2697 19.9685 25.2326 20.3324 25.1637 20.688L25.5564 20.7641C25.6299 20.3847 25.6697 19.9953 25.6697 19.5977H25.2697ZM25.2931 20.5376C23.3753 21.2193 22.1148 21.1913 21.2679 21.1705L21.258 21.5703C22.1268 21.5917 23.4432 21.6197 25.4271 20.9145L25.2931 20.5376ZM21.2677 21.1704C21.0344 21.1649 20.8071 21.1593 20.6024 21.1754C20.3972 21.1916 20.1973 21.2306 20.0217 21.3249C19.6474 21.5258 19.4654 21.9282 19.436 22.5862L19.8356 22.6041C19.8626 22.0001 20.0219 21.7788 20.2109 21.6773C20.317 21.6203 20.4542 21.5884 20.6339 21.5742C20.814 21.56 21.0193 21.5647 21.2582 21.5703L21.2677 21.1704ZM19.436 22.5864C19.4216 22.9159 19.2476 23.2847 18.9461 23.6741C18.647 24.0604 18.2379 24.4469 17.788 24.8089C16.8884 25.5329 15.8504 26.1394 15.2754 26.4297L15.4557 26.7867C16.0494 26.487 17.1125 25.866 18.0388 25.1206C18.5019 24.7479 18.937 24.3392 19.2623 23.9191C19.5852 23.5021 19.816 23.0535 19.8356 22.6038L19.436 22.5864ZM15.3656 26.4082H2.9413V26.8082H15.3656V26.4082ZM2.9413 26.4082C2.23123 26.4082 1.72577 25.9435 1.72577 25.4531H1.32577C1.32577 26.2366 2.09017 26.8082 2.9413 26.8082V26.4082ZM1.72577 25.4531V8.2472H1.32577V25.4531H1.72577ZM1.52577 8.4472H25.4697V8.0472H1.52577V8.4472ZM25.2697 8.2472V19.5977H25.6697V8.2472H25.2697Z" fill="#26A0D8"/>
</svg>
