<svg width="46" height="48" viewBox="0 0 46 48" fill="none" xmlns="http://www.w3.org/2000/svg">
<path fill-rule="evenodd" clip-rule="evenodd" d="M26.5631 43.842C26.5498 43.824 26.5371 43.805 26.524 43.7867C26.5769 43.6763 26.9945 42.7534 27.0031 42.6105C27.8846 28.4566 28.14 14.0125 19.805 1.78794C19.1195 0.782654 17.4819 1.74769 18.1704 2.75744C25.8843 14.071 26.1752 29.7082 25.3972 42.8937C24.556 41.5634 23.1117 38.6115 21.711 37.7001C20.6888 37.0349 19.7673 38.6993 20.7854 39.3614C23.1957 40.9294 24.1034 44.0154 25.9664 46.1218C26.4101 46.623 27.1362 46.3744 27.4603 45.9042C29.148 43.457 30.6567 40.9122 31.9942 38.2575C32.5435 37.1676 30.8915 36.2396 30.3393 37.3354C29.2072 39.5819 27.9447 41.7456 26.5631 43.842Z" fill="#26A0D8" stroke="#26A0D8" stroke-linecap="round" stroke-linejoin="round"/>
</svg>
