<svg width="33" height="31" viewBox="0 0 33 31" fill="none" xmlns="http://www.w3.org/2000/svg">
<path fill-rule="evenodd" clip-rule="evenodd" d="M31.1096 13.3557C31.1096 13.4958 30.9954 13.6098 30.8557 13.6098H2.11048C1.97036 13.6098 1.85616 13.4958 1.85616 13.3557V11.3896H31.1096V13.3557ZM6.66214 2.33975C6.82629 2.04174 7.13961 1.85665 7.47965 1.85665H25.4856C25.8261 1.85665 26.139 2.04174 26.303 2.33975L30.8133 10.5329H2.15236L6.66214 2.33975ZM29.2859 28.7006C29.2859 29.0142 29.0308 29.2694 28.7179 29.2694H4.42072C4.10718 29.2694 3.85206 29.0142 3.85206 28.7006V14.5215H29.2859V28.7006ZM31.9136 10.7546L27.0539 1.92668C26.7389 1.35508 26.1387 1 25.4858 1H7.4798C6.82751 1 6.22663 1.35487 5.91186 1.92647L1.05262 10.7546C1.00347 10.8439 0.999512 11.0761 0.999512 11.0987V13.3557C0.999512 13.9681 1.49792 14.4665 2.11048 14.4665H2.99497V28.7006C2.99497 29.4865 3.6343 30.1261 4.42027 30.1261H28.7174C29.503 30.1261 30.1421 29.4865 30.1421 28.7006V14.4665H30.8557C31.4681 14.4665 31.9663 13.9681 31.9663 13.3557V11.0163C31.9663 11.0029 31.9524 10.8259 31.9136 10.7546Z" fill="#26A0D8"/>
<path d="M1.85616 11.3896V11.1896H1.65616V11.3896H1.85616ZM31.1096 11.3896H31.3096V11.1896H31.1096V11.3896ZM6.66214 2.33975L6.48696 2.24325L6.48693 2.2433L6.66214 2.33975ZM26.303 2.33975L26.1277 2.43617L26.1278 2.4362L26.303 2.33975ZM30.8133 10.5329V10.7329H31.1517L30.9885 10.4365L30.8133 10.5329ZM2.15236 10.5329L1.97715 10.4365L1.81398 10.7329H2.15236V10.5329ZM3.85206 14.5215V14.3215H3.65206V14.5215H3.85206ZM29.2859 14.5215H29.4859V14.3215H29.2859V14.5215ZM27.0539 1.92668L27.2291 1.83023L27.2291 1.83016L27.0539 1.92668ZM5.91186 1.92647L5.73667 1.82999L5.73665 1.83003L5.91186 1.92647ZM1.05262 10.7546L0.877412 10.6582L0.877407 10.6582L1.05262 10.7546ZM2.99497 14.4665H3.19497V14.2665H2.99497V14.4665ZM30.1421 14.4665V14.2665H29.9421V14.4665H30.1421ZM30.9096 13.3557C30.9096 13.3854 30.885 13.4098 30.8557 13.4098V13.8098C31.1059 13.8098 31.3096 13.6063 31.3096 13.3557H30.9096ZM30.8557 13.4098H2.11048V13.8098H30.8557V13.4098ZM2.11048 13.4098C2.0806 13.4098 2.05616 13.3852 2.05616 13.3557H1.65616C1.65616 13.6065 1.86012 13.8098 2.11048 13.8098V13.4098ZM2.05616 13.3557V11.3896H1.65616V13.3557H2.05616ZM1.85616 11.5896H31.1096V11.1896H1.85616V11.5896ZM30.9096 11.3896V13.3557H31.3096V11.3896H30.9096ZM6.83732 2.43624C6.96631 2.20207 7.21252 2.05665 7.47965 2.05665V1.65665C7.06671 1.65665 6.68628 1.8814 6.48696 2.24325L6.83732 2.43624ZM7.47965 2.05665H25.4856V1.65665H7.47965V2.05665ZM25.4856 2.05665C25.7531 2.05665 25.9989 2.20204 26.1277 2.43617L26.4782 2.24332C26.279 1.88144 25.899 1.65665 25.4856 1.65665V2.05665ZM26.1278 2.4362L30.6381 10.6294L30.9885 10.4365L26.4782 2.24329L26.1278 2.4362ZM30.8133 10.3329H2.15236V10.7329H30.8133V10.3329ZM2.32757 10.6293L6.83735 2.43619L6.48693 2.2433L1.97715 10.4365L2.32757 10.6293ZM29.0859 28.7006C29.0859 28.904 28.9201 29.0694 28.7179 29.0694V29.4694C29.1414 29.4694 29.4859 29.1245 29.4859 28.7006H29.0859ZM28.7179 29.0694H4.42072V29.4694H28.7179V29.0694ZM4.42072 29.0694C4.2177 29.0694 4.05206 28.9038 4.05206 28.7006H3.65206C3.65206 29.1246 3.99667 29.4694 4.42072 29.4694V29.0694ZM4.05206 28.7006V14.5215H3.65206V28.7006H4.05206ZM3.85206 14.7215H29.2859V14.3215H3.85206V14.7215ZM29.0859 14.5215V28.7006H29.4859V14.5215H29.0859ZM32.0888 10.6582L27.2291 1.83023L26.8787 2.02313L31.7384 10.8511L32.0888 10.6582ZM27.2291 1.83016C26.879 1.1948 26.2117 0.8 25.4858 0.8V1.2C26.0657 1.2 26.5989 1.51536 26.8787 2.02321L27.2291 1.83016ZM25.4858 0.8H7.4798V1.2H25.4858V0.8ZM7.4798 0.8C6.75464 0.8 6.08661 1.19451 5.73667 1.82999L6.08705 2.02294C6.36664 1.51523 6.90038 1.2 7.4798 1.2V0.8ZM5.73665 1.83003L0.877412 10.6582L1.22784 10.8511L6.08707 2.02291L5.73665 1.83003ZM0.877407 10.6582C0.850761 10.7066 0.836451 10.7609 0.827861 10.8018C0.818573 10.846 0.812586 10.8918 0.80861 10.932C0.800676 11.0121 0.799512 11.0825 0.799512 11.0987H1.19951C1.19951 11.0987 1.19951 11.0986 1.19951 11.0984C1.19951 11.0982 1.19952 11.0979 1.19952 11.0976C1.19952 11.0969 1.19953 11.096 1.19955 11.0948C1.19958 11.0926 1.19963 11.0895 1.19972 11.0858C1.1999 11.0783 1.2002 11.0684 1.20071 11.0566C1.20174 11.0329 1.20355 11.0028 1.20666 10.9714C1.20982 10.9395 1.21404 10.9091 1.21932 10.884C1.2253 10.8555 1.22991 10.8473 1.22784 10.8511L0.877407 10.6582ZM0.799512 11.0987V13.3557H1.19951V11.0987H0.799512ZM0.799512 13.3557C0.799512 14.0786 1.3875 14.6665 2.11048 14.6665V14.2665C1.60835 14.2665 1.19951 13.8576 1.19951 13.3557H0.799512ZM2.11048 14.6665H2.99497V14.2665H2.11048V14.6665ZM2.79497 14.4665V28.7006H3.19497V14.4665H2.79497ZM2.79497 28.7006C2.79497 29.5969 3.5238 30.3261 4.42027 30.3261V29.9261C3.7448 29.9261 3.19497 29.3761 3.19497 28.7006H2.79497ZM4.42027 30.3261H28.7174V29.9261H4.42027V30.3261ZM28.7174 30.3261C29.6135 30.3261 30.3421 29.5969 30.3421 28.7006H29.9421C29.9421 29.3762 29.3924 29.9261 28.7174 29.9261V30.3261ZM30.3421 28.7006V14.4665H29.9421V28.7006H30.3421ZM30.1421 14.6665H30.8557V14.2665H30.1421V14.6665ZM30.8557 14.6665C31.5786 14.6665 32.1663 14.0785 32.1663 13.3557H31.7663C31.7663 13.8577 31.3576 14.2665 30.8557 14.2665V14.6665ZM32.1663 13.3557V11.0163H31.7663V13.3557H32.1663ZM32.1663 11.0163C32.1663 10.9946 32.1611 10.9354 32.1522 10.8772C32.1443 10.8248 32.1276 10.7294 32.0892 10.6589L31.738 10.8503C31.7357 10.8461 31.7389 10.8514 31.7443 10.8726C31.7489 10.8911 31.7532 10.9136 31.7568 10.9372C31.7603 10.9604 31.7628 10.9823 31.7644 10.9991C31.7652 11.0075 31.7658 11.0141 31.7661 11.0186C31.7667 11.0259 31.7663 11.023 31.7663 11.0163H32.1663Z" fill="#26A0D8"/>
<path fill-rule="evenodd" clip-rule="evenodd" d="M13.908 5.8389C13.908 4.5399 14.9648 3.48312 16.2638 3.48312C17.56 3.48312 18.615 4.5399 18.615 5.8389C18.615 5.92066 18.6087 6.00161 18.5999 6.08235H13.9235C13.9147 6.00161 13.908 5.92044 13.908 5.8389ZM9.72422 6.939H18.9535C18.9552 6.939 18.9569 6.93964 18.9585 6.93964C18.9598 6.93964 18.9606 6.939 18.9623 6.939H22.8013C23.0381 6.939 23.2296 6.74722 23.2296 6.51068C23.2296 6.27413 23.0381 6.08235 22.8013 6.08235H19.4563C19.4626 6.00118 19.4713 5.92044 19.4713 5.8389C19.4713 4.06746 18.0324 2.62646 16.2635 2.62646C14.4921 2.62646 13.0511 4.06746 13.0511 5.8389C13.0511 5.92044 13.0601 6.00118 13.0665 6.08235H9.72422C9.48768 6.08235 9.2959 6.27413 9.2959 6.51068C9.2959 6.74722 9.48768 6.939 9.72422 6.939Z" fill="#26A0D8"/>
<path d="M18.5999 6.08235V6.28235H18.7793L18.7987 6.10397L18.5999 6.08235ZM13.9235 6.08235L13.7246 6.10397L13.744 6.28235H13.9235V6.08235ZM19.4563 6.08235L19.2569 6.06696L19.2403 6.28235H19.4563V6.08235ZM13.0665 6.08235V6.28235H13.2831L13.2659 6.06644L13.0665 6.08235ZM14.108 5.8389C14.108 4.65036 15.0752 3.68312 16.2638 3.68312V3.28312C14.8543 3.28312 13.708 4.42944 13.708 5.8389H14.108ZM16.2638 3.68312C17.4492 3.68312 18.415 4.65 18.415 5.8389H18.815C18.815 4.4298 17.6709 3.28312 16.2638 3.28312V3.68312ZM18.415 5.8389C18.415 5.9107 18.4095 5.98381 18.4011 6.06072L18.7987 6.10397C18.8079 6.0194 18.815 5.93061 18.815 5.8389H18.415ZM18.5999 5.88235H13.9235V6.28235H18.5999V5.88235ZM14.1223 6.06072C14.1138 5.98297 14.108 5.90996 14.108 5.8389H13.708C13.708 5.93092 13.7155 6.02025 13.7246 6.10397L14.1223 6.06072ZM9.72422 7.139H18.9535V6.739H9.72422V7.139ZM18.9535 7.139C18.9413 7.139 18.9317 7.13784 18.9264 7.13707C18.9236 7.13668 18.9214 7.1363 18.9202 7.13608C18.9191 7.13589 18.9182 7.13571 18.9186 7.13579C18.9186 7.13579 18.9199 7.13605 18.9215 7.13632C18.9231 7.13661 18.9257 7.13706 18.9289 7.13752C18.9351 7.1384 18.9455 7.13964 18.9585 7.13964V6.73964C18.9707 6.73964 18.9803 6.7408 18.9857 6.74157C18.9884 6.74197 18.9906 6.74234 18.9918 6.74256C18.9929 6.74276 18.9938 6.74293 18.9934 6.74285C18.9934 6.74285 18.9921 6.74259 18.9906 6.74232C18.9889 6.74203 18.9863 6.74158 18.9831 6.74113C18.977 6.74024 18.9665 6.739 18.9535 6.739V7.139ZM18.9585 7.13964C18.9767 7.13964 18.9916 7.1372 19.0016 7.13505C19.0063 7.13403 19.01 7.13305 19.0119 7.13253C19.0129 7.13226 19.0137 7.13205 19.014 7.13197C19.0141 7.13194 19.0141 7.13192 19.0142 7.13191C19.0142 7.13191 19.0142 7.1319 19.0142 7.1319C19.0142 7.13189 19.0142 7.13189 19.0142 7.13189C19.0143 7.13189 19.0142 7.13192 19.014 7.13196C19.0131 7.13221 19.006 7.13423 18.9968 7.13591C18.9868 7.13771 18.9752 7.139 18.9623 7.139V6.739C18.9485 6.739 18.9362 6.74037 18.9256 6.7423C18.9156 6.74409 18.908 6.74627 18.9065 6.74669C18.9064 6.74669 18.9054 6.74698 18.9061 6.7468C18.9062 6.74676 18.9069 6.74658 18.9077 6.74635C18.9093 6.74591 18.9128 6.745 18.9172 6.74404C18.9267 6.742 18.941 6.73964 18.9585 6.73964V7.13964ZM18.9623 7.139H22.8013V6.739H18.9623V7.139ZM22.8013 7.139C23.1486 7.139 23.4296 6.85761 23.4296 6.51068H23.0296C23.0296 6.63683 22.9275 6.739 22.8013 6.739V7.139ZM23.4296 6.51068C23.4296 6.16374 23.1486 5.88235 22.8013 5.88235V6.28235C22.9275 6.28235 23.0296 6.38452 23.0296 6.51068H23.4296ZM22.8013 5.88235H19.4563V6.28235H22.8013V5.88235ZM19.6557 6.09774C19.6613 6.02491 19.6713 5.93067 19.6713 5.8389H19.2713C19.2713 5.91022 19.2638 5.97745 19.2569 6.06696L19.6557 6.09774ZM19.6713 5.8389C19.6713 3.95727 18.1432 2.42646 16.2635 2.42646V2.82646C17.9217 2.82646 19.2713 4.17764 19.2713 5.8389H19.6713ZM16.2635 2.42646C14.3816 2.42646 12.8511 3.957 12.8511 5.8389H13.2511C13.2511 4.17791 14.6025 2.82646 16.2635 2.82646V2.42646ZM12.8511 5.8389C12.8511 5.93101 12.8614 6.02546 12.8672 6.09826L13.2659 6.06644C13.2588 5.97691 13.2511 5.90988 13.2511 5.8389H12.8511ZM13.0665 5.88235H9.72422V6.28235H13.0665V5.88235ZM9.72422 5.88235C9.37722 5.88235 9.0959 6.16368 9.0959 6.51068H9.4959C9.4959 6.38459 9.59814 6.28235 9.72422 6.28235V5.88235ZM9.0959 6.51068C9.0959 6.85768 9.37722 7.139 9.72422 7.139V6.739C9.59814 6.739 9.4959 6.63676 9.4959 6.51068H9.0959Z" fill="#26A0D8"/>
<path fill-rule="evenodd" clip-rule="evenodd" d="M26.6197 22.6597C26.8565 22.6597 27.0481 22.4679 27.0481 22.2314V16.7345C27.0481 16.4979 26.8565 16.3062 26.6197 16.3062C26.3834 16.3062 26.1914 16.4979 26.1914 16.7345V22.2314C26.1914 22.4679 26.3834 22.6597 26.6197 22.6597Z" fill="#26A0D8"/>
<path d="M26.6197 22.6597C26.8565 22.6597 27.0481 22.4679 27.0481 22.2314V16.7345C27.0481 16.4979 26.8565 16.3062 26.6197 16.3062C26.3834 16.3062 26.1914 16.4979 26.1914 16.7345V22.2314C26.1914 22.4679 26.3834 22.6597 26.6197 22.6597" stroke="#26A0D8" stroke-width="0.4"/>
<path fill-rule="evenodd" clip-rule="evenodd" d="M26.6197 26.336C26.8565 26.336 27.0481 26.1442 27.0481 25.9077V24.2479C27.0481 24.0114 26.8565 23.8196 26.6197 23.8196C26.3834 23.8196 26.1914 24.0114 26.1914 24.2479V25.9077C26.1914 26.1442 26.3834 26.336 26.6197 26.336Z" fill="#26A0D8"/>
<path d="M26.6197 26.336C26.8565 26.336 27.0481 26.1442 27.0481 25.9077V24.2479C27.0481 24.0114 26.8565 23.8196 26.6197 23.8196C26.3834 23.8196 26.1914 24.0114 26.1914 24.2479V25.9077C26.1914 26.1442 26.3834 26.336 26.6197 26.336" stroke="#26A0D8" stroke-width="0.4"/>
<path fill-rule="evenodd" clip-rule="evenodd" d="M10.1388 25.2463C10.4834 25.2463 10.8141 25.2934 11.1125 25.3716C11.3541 25.636 11.6494 25.8913 11.9933 26.1226C12.0154 26.1375 12.0376 26.1473 12.0596 26.1618C11.8734 26.4522 11.1533 26.7925 10.1388 26.7925C8.95169 26.7925 8.16427 26.3285 8.16427 26.0216C8.16427 25.7129 8.95169 25.2463 10.1388 25.2463ZM11.267 23.6709C11.5489 23.2515 12.8437 23.8018 13.3337 24.1314C14.3171 24.7931 14.7103 25.6174 14.539 25.8725C14.3673 26.1266 13.4553 26.0731 12.472 25.412C11.4887 24.7502 11.0955 23.9258 11.267 23.6709ZM10.1388 27.6492C11.4169 27.6492 12.4433 27.2081 12.8144 26.5633C13.2691 26.7584 13.7101 26.8689 14.0956 26.8689C14.6017 26.8689 15.0152 26.6982 15.249 26.3506C15.7673 25.5803 15.149 24.3207 13.8112 23.4207C12.4734 22.5204 11.0737 22.4225 10.5556 23.1928C10.3289 23.5297 10.3197 23.9603 10.4931 24.4135C10.3751 24.4054 10.2607 24.3897 10.1388 24.3897C8.52481 24.3897 7.30762 25.0913 7.30762 26.0216C7.30762 26.9494 8.52481 27.6492 10.1388 27.6492Z" fill="#26A0D8"/>
<path d="M11.1125 25.3716L11.2602 25.2367L11.2203 25.1931L11.1632 25.1782L11.1125 25.3716ZM11.9933 26.1226L11.8816 26.2886L11.8818 26.2887L11.9933 26.1226ZM12.0596 26.1618L12.2279 26.2697L12.3345 26.1034L12.1696 25.9947L12.0596 26.1618ZM13.3337 24.1314L13.4454 23.9655L13.4453 23.9655L13.3337 24.1314ZM14.539 25.8725L14.7047 25.9845L14.7051 25.984L14.539 25.8725ZM12.472 25.412L12.3604 25.5779L12.3605 25.578L12.472 25.412ZM12.8144 26.5633L12.8933 26.3795L12.7298 26.3094L12.641 26.4636L12.8144 26.5633ZM15.249 26.3506L15.083 26.239L15.083 26.239L15.249 26.3506ZM13.8112 23.4207L13.6995 23.5866L13.6995 23.5867L13.8112 23.4207ZM10.5556 23.1928L10.7215 23.3044L10.7216 23.3044L10.5556 23.1928ZM10.4931 24.4135L10.4793 24.613L10.7918 24.6346L10.6799 24.3421L10.4931 24.4135ZM10.1388 25.4463C10.4655 25.4463 10.7791 25.491 11.0618 25.5651L11.1632 25.1782C10.8491 25.0958 10.5014 25.0463 10.1388 25.0463V25.4463ZM10.9649 25.5066C11.2178 25.7833 11.5254 26.0489 11.8816 26.2886L12.1049 25.9567C11.7735 25.7337 11.4904 25.4886 11.2602 25.2367L10.9649 25.5066ZM11.8818 26.2887C11.9009 26.3015 11.9191 26.3115 11.9297 26.3174C11.9421 26.3243 11.9462 26.3266 11.9496 26.3288L12.1696 25.9947C12.151 25.9825 12.133 25.9727 12.1233 25.9674C12.1118 25.961 12.1078 25.9586 12.1048 25.9566L11.8818 26.2887ZM11.8912 26.0539C11.8335 26.1439 11.657 26.2821 11.3408 26.3984C11.0345 26.511 10.6244 26.5925 10.1388 26.5925V26.9925C10.6677 26.9925 11.1249 26.9039 11.4788 26.7738C11.8229 26.6473 12.0995 26.4701 12.2279 26.2697L11.8912 26.0539ZM10.1388 26.5925C9.56994 26.5925 9.1046 26.4811 8.78801 26.3396C8.62901 26.2685 8.51423 26.1928 8.44269 26.1257C8.36513 26.0529 8.36427 26.0158 8.36427 26.0216H7.96427C7.96427 26.1808 8.06183 26.3168 8.16901 26.4174C8.28221 26.5236 8.43848 26.6214 8.62472 26.7047C8.99861 26.8719 9.52054 26.9925 10.1388 26.9925V26.5925ZM8.36427 26.0216C8.36427 26.0265 8.36564 25.9888 8.4431 25.9157C8.51467 25.8482 8.62944 25.7721 8.78838 25.7006C9.10488 25.5583 9.57009 25.4463 10.1388 25.4463V25.0463C9.52039 25.0463 8.99833 25.1677 8.62435 25.3358C8.43805 25.4196 8.28177 25.518 8.1686 25.6248C8.06132 25.726 7.96427 25.8624 7.96427 26.0216H8.36427ZM11.433 23.7824C11.448 23.7601 11.4965 23.7215 11.6426 23.7196C11.782 23.7177 11.9633 23.7513 12.1647 23.8118C12.5666 23.9327 12.9944 24.1442 13.2221 24.2974L13.4453 23.9655C13.183 23.789 12.7184 23.5606 12.2799 23.4288C12.0611 23.363 11.8353 23.317 11.6373 23.3196C11.446 23.3221 11.2269 23.372 11.101 23.5593L11.433 23.7824ZM13.2221 24.2974C13.6932 24.6144 14.0164 24.9662 14.1996 25.2602C14.2916 25.4078 14.3444 25.5347 14.3662 25.6303C14.3899 25.7339 14.37 25.7655 14.373 25.761L14.7051 25.984C14.7937 25.8519 14.7889 25.6848 14.7562 25.5414C14.7218 25.3901 14.6469 25.2217 14.5391 25.0487C14.3227 24.7013 13.9576 24.3102 13.4454 23.9655L13.2221 24.2974ZM14.3733 25.7605C14.3764 25.7559 14.3547 25.7862 14.2497 25.8033C14.1528 25.8191 14.0153 25.8179 13.8439 25.7884C13.5024 25.7294 13.0547 25.5627 12.5836 25.246L12.3605 25.578C12.8726 25.9223 13.3725 26.1129 13.7758 26.1825C13.9767 26.2172 14.1609 26.2231 14.3141 26.1981C14.4591 26.1745 14.6158 26.1162 14.7047 25.9845L14.3733 25.7605ZM12.5837 25.2461C12.1126 24.929 11.7893 24.5771 11.6062 24.2831C11.5142 24.1355 11.4614 24.0087 11.4397 23.913C11.4161 23.8094 11.436 23.778 11.4329 23.7825L11.1011 23.5592C11.0122 23.6912 11.017 23.8584 11.0496 24.0018C11.0841 24.1531 11.1589 24.3216 11.2667 24.4946C11.4831 24.842 11.8482 25.2332 12.3604 25.5779L12.5837 25.2461ZM10.1388 27.8492C10.7997 27.8492 11.4024 27.7353 11.893 27.533C12.3812 27.3316 12.7731 27.0361 12.9877 26.6631L12.641 26.4636C12.4847 26.7353 12.1778 26.9828 11.7405 27.1632C11.3055 27.3426 10.7559 27.4492 10.1388 27.4492V27.8492ZM12.7355 26.7471C13.2058 26.9489 13.6744 27.0689 14.0956 27.0689V26.6689C13.7458 26.6689 13.3323 26.5679 12.8933 26.3795L12.7355 26.7471ZM14.0956 27.0689C14.644 27.0689 15.1322 26.8826 15.4149 26.4622L15.083 26.239C14.8981 26.5139 14.5594 26.6689 14.0956 26.6689V27.0689ZM15.4149 26.4623C15.7287 25.996 15.6806 25.4064 15.4057 24.8462C15.1298 24.284 14.6135 23.7194 13.9228 23.2548L13.6995 23.5867C14.3467 24.022 14.8085 24.5372 15.0466 25.0224C15.2857 25.5096 15.2876 25.935 15.083 26.239L15.4149 26.4623ZM13.9228 23.2548C13.2322 22.79 12.5147 22.5245 11.89 22.4808C11.2675 22.4372 10.7033 22.6149 10.3897 23.0812L10.7216 23.3044C10.926 23.0004 11.3207 22.8419 11.862 22.8798C12.4012 22.9175 13.0524 23.1511 13.6995 23.5866L13.9228 23.2548ZM10.3897 23.0811C10.1157 23.4883 10.1177 23.9919 10.3063 24.485L10.6799 24.3421C10.5217 23.9287 10.5421 23.571 10.7215 23.3044L10.3897 23.0811ZM10.5068 24.214C10.407 24.2071 10.269 24.1897 10.1388 24.1897V24.5897C10.2524 24.5897 10.3432 24.6037 10.4793 24.613L10.5068 24.214ZM10.1388 24.1897C9.30555 24.1897 8.56132 24.3704 8.01808 24.6835C7.47674 24.9956 7.10762 25.4588 7.10762 26.0216H7.50762C7.50762 25.6542 7.74709 25.3014 8.21784 25.0301C8.6867 24.7598 9.35806 24.5897 10.1388 24.5897V24.1897ZM7.10762 26.0216C7.10762 26.5835 7.47706 27.0456 8.01828 27.3567C8.56147 27.669 9.30563 27.8492 10.1388 27.8492V27.4492C9.35798 27.4492 8.68654 27.2795 8.21764 27.0099C7.74677 26.7392 7.50762 26.3875 7.50762 26.0216H7.10762Z" fill="#26A0D8"/>
<path fill-rule="evenodd" clip-rule="evenodd" d="M22.1232 25.1365C23.3019 25.0922 24.11 25.5261 24.1221 25.8346C24.1343 26.21 23.1923 26.6412 22.18 26.6787C20.9871 26.7224 20.1923 26.2876 20.1807 25.9806C20.1673 25.5732 21.1975 25.1706 22.1232 25.1365ZM22.2112 27.5349C23.3808 27.4916 25.0209 26.9602 24.9774 25.8028C24.9431 24.8753 23.6957 24.2196 22.0912 24.2803C20.9208 24.3239 19.2816 24.855 19.3251 26.0124C19.3644 27.0845 20.8698 27.5843 22.2112 27.5349Z" fill="#26A0D8"/>
<path d="M24.1221 25.8346L24.322 25.8281L24.322 25.8267L24.1221 25.8346ZM22.18 26.6787L22.1873 26.8786L22.1874 26.8786L22.18 26.6787ZM20.1807 25.9806L19.9808 25.9872L19.9808 25.9882L20.1807 25.9806ZM24.9774 25.8028L24.7775 25.8102L24.7775 25.8103L24.9774 25.8028ZM22.0912 24.2803L22.0987 24.4801L22.0987 24.4801L22.0912 24.2803ZM19.3251 26.0124L19.5249 26.005L19.5249 26.0048L19.3251 26.0124ZM22.1307 25.3363C22.6952 25.3151 23.1635 25.4089 23.4853 25.5387C23.647 25.6039 23.7648 25.6754 23.8392 25.7401C23.9198 25.8101 23.9225 25.8476 23.9223 25.8425L24.322 25.8267C24.3157 25.6674 24.2129 25.5349 24.1017 25.4382C23.9843 25.3361 23.8242 25.2441 23.6349 25.1677C23.255 25.0145 22.7299 24.9135 22.1156 24.9366L22.1307 25.3363ZM23.9223 25.8411C23.9225 25.8485 23.9168 25.8936 23.8311 25.9721C23.7502 26.0462 23.6229 26.1259 23.4544 26.2005C23.1187 26.3489 22.6552 26.461 22.1726 26.4789L22.1874 26.8786C22.7171 26.859 23.2308 26.7367 23.6161 26.5663C23.8081 26.4814 23.9773 26.3806 24.1013 26.2671C24.2204 26.158 24.3279 26.0084 24.322 25.8281L23.9223 25.8411ZM22.1727 26.4789C21.6007 26.4998 21.1324 26.4055 20.8125 26.2758C20.6519 26.2107 20.5354 26.1394 20.4622 26.0751C20.3831 26.0056 20.3803 25.9683 20.3805 25.973L19.9808 25.9882C19.9868 26.1464 20.0878 26.2786 20.1982 26.3756C20.3146 26.4778 20.4736 26.57 20.6622 26.6465C21.0409 26.8 21.5664 26.9013 22.1873 26.8786L22.1727 26.4789ZM20.3805 25.974C20.3801 25.9609 20.3885 25.9122 20.4801 25.8321C20.5671 25.7559 20.7023 25.6763 20.8771 25.603C21.2254 25.4569 21.6906 25.3526 22.1305 25.3364L22.1158 24.9366C21.6301 24.9545 21.1173 25.0685 20.7224 25.2341C20.5257 25.3166 20.3479 25.4162 20.2166 25.5311C20.0898 25.6421 19.9745 25.7966 19.9808 25.9872L20.3805 25.974ZM22.2186 27.7348C22.8249 27.7124 23.5576 27.564 24.1406 27.2646C24.7197 26.9671 25.2033 26.4889 25.1773 25.7953L24.7775 25.8103C24.795 26.2742 24.4803 26.6404 23.9578 26.9088C23.4392 27.1752 22.7671 27.3142 22.2038 27.3351L22.2186 27.7348ZM25.1773 25.7954C25.1565 25.2335 24.7687 24.7851 24.2164 24.494C23.6619 24.2018 22.9123 24.0491 22.0836 24.0804L22.0987 24.4801C22.8746 24.4508 23.551 24.5955 24.0299 24.8479C24.511 25.1014 24.764 25.4445 24.7775 25.8102L25.1773 25.7954ZM22.0837 24.0804C21.4771 24.103 20.7444 24.2513 20.1616 24.5508C19.5826 24.8482 19.0992 25.3263 19.1252 26.0199L19.5249 26.0048C19.5075 25.541 19.822 25.1749 20.3443 24.9066C20.8628 24.6402 21.5349 24.5012 22.0987 24.4801L22.0837 24.0804ZM19.1252 26.0197C19.1489 26.6643 19.6153 27.1083 20.1962 27.3759C20.7801 27.6448 21.5245 27.7604 22.2186 27.7348L22.2039 27.3351C21.5565 27.3589 20.8775 27.2492 20.3635 27.0125C19.8466 26.7745 19.5406 26.4326 19.5249 26.005L19.1252 26.0197Z" fill="#26A0D8"/>
</svg>
