<svg width="42" height="36" viewBox="0 0 42 36" fill="none" xmlns="http://www.w3.org/2000/svg">
<path fill-rule="evenodd" clip-rule="evenodd" d="M38.2408 21.9235C36.8105 23.7792 33.8897 25.7654 31.5425 27.3614C30.6481 27.9696 29.8757 28.4951 29.326 28.9177C29.281 28.9472 28.283 29.6303 27.963 31.6579H25.0704C25.2157 29.7475 26.0187 21.9776 29.5286 20.7256C30.6644 20.3206 31.7034 19.4209 32.6202 18.6271C34.1111 17.3365 34.8762 16.7929 35.4677 17.3741C35.6146 17.5188 35.6775 17.6906 35.6656 17.9147C35.5975 19.1776 33.3355 21.2344 32.4693 21.9203C32.2929 22.0602 32.2631 22.3166 32.4028 22.493C32.5422 22.6693 32.7981 22.6992 32.9757 22.5596C33.3236 22.2841 36.3797 19.814 36.4797 17.9589C36.4812 17.9318 36.4761 17.9071 36.4761 17.8805C36.7265 17.3204 38.1417 14.0644 37.9853 12.3743C37.8276 10.679 38.1107 9.30865 38.4634 9.13907C38.5804 9.08388 38.8201 9.21469 39.0952 9.4796C41.2587 11.5598 39.8065 19.8787 38.2408 21.9235ZM39.6604 8.89224C39.0939 8.34646 38.5721 8.18243 38.1102 8.40414C36.8889 8.99171 37.1405 12.0974 37.1731 12.4496C37.2707 13.5035 36.568 15.5218 36.0481 16.8036C36.0449 16.8003 36.0426 16.7962 36.0394 16.7929C34.8487 15.6215 33.4443 16.8353 32.0868 18.0108C31.2241 18.7577 30.2463 19.6042 29.2548 19.9577C25.1954 21.4054 24.3857 29.726 24.2515 31.6579H22.6003C22.0761 31.6579 21.6497 32.0843 21.6497 32.6084V35.0324C21.6497 35.2575 21.832 35.44 22.0573 35.44C22.2826 35.44 22.4649 35.2575 22.4649 35.0324V32.6084C22.4649 32.5339 22.5258 32.4732 22.6003 32.4732H28.2969C28.3045 32.4736 28.3121 32.4744 28.3193 32.4744C28.3213 32.4744 28.3232 32.4732 28.3256 32.4732H29.7906C29.865 32.4732 29.9255 32.5339 29.9255 32.6084V35.0324C29.9255 35.2575 30.1078 35.44 30.3332 35.44C30.5584 35.44 30.7408 35.2575 30.7408 35.0324V32.6084C30.7408 32.0843 30.3145 31.6579 29.7906 31.6579H28.7905C29.0672 30.117 29.7738 29.5992 29.7985 29.5815C30.3535 29.1561 31.117 28.6369 32.0011 28.0355C34.3961 26.4069 37.3769 24.3801 38.8873 22.4201C40.463 20.3626 42.3113 11.4406 39.6604 8.89224Z" fill="#26A0D8"/>
<path d="M31.5425 27.3614L31.4301 27.196L31.4301 27.196L31.5425 27.3614ZM29.326 28.9177L29.4356 29.085L29.4419 29.0809L29.4479 29.0763L29.326 28.9177ZM27.963 31.6579V31.8579H28.1339L28.1605 31.6891L27.963 31.6579ZM25.0704 31.6579L24.871 31.6428L24.8547 31.8579H25.0704V31.6579ZM29.5286 20.7256L29.4615 20.5372L29.4614 20.5372L29.5286 20.7256ZM32.6202 18.6271L32.4893 18.4759L32.4893 18.4759L32.6202 18.6271ZM35.4677 17.3741L35.6081 17.2317L35.6079 17.2315L35.4677 17.3741ZM35.6656 17.9147L35.8653 17.9255L35.8653 17.9254L35.6656 17.9147ZM32.4693 21.9203L32.3451 21.7635L32.345 21.7636L32.4693 21.9203ZM32.4028 22.493L32.5597 22.369L32.5596 22.3688L32.4028 22.493ZM32.9757 22.5596L33.0993 22.7168L33.0998 22.7164L32.9757 22.5596ZM36.4797 17.9589L36.28 17.9472L36.28 17.9481L36.4797 17.9589ZM36.4761 17.8805L36.2935 17.7988L36.2761 17.8378V17.8805H36.4761ZM37.9853 12.3743L38.1844 12.3559L38.1844 12.3558L37.9853 12.3743ZM38.4634 9.13907L38.3781 8.95816L38.3767 8.95882L38.4634 9.13907ZM39.0952 9.4796L38.9564 9.62367L38.9565 9.62378L39.0952 9.4796ZM38.1102 8.40414L38.0237 8.22384L38.0235 8.22391L38.1102 8.40414ZM37.1731 12.4496L37.3723 12.4312L37.3723 12.4311L37.1731 12.4496ZM36.0481 16.8036L35.9035 16.9417L36.1171 17.1656L36.2335 16.8788L36.0481 16.8036ZM36.0394 16.7929L36.1841 16.6547L36.1796 16.6503L36.0394 16.7929ZM32.0868 18.0108L32.2177 18.162L32.2177 18.162L32.0868 18.0108ZM29.2548 19.9577L29.1876 19.7693L29.1876 19.7693L29.2548 19.9577ZM24.2515 31.6579V31.8579H24.4381L24.4511 31.6718L24.2515 31.6579ZM28.2969 32.4732L28.3077 32.2732H28.2969V32.4732ZM28.7905 31.6579L28.5937 31.6226L28.5514 31.8579H28.7905V31.6579ZM29.7985 29.5815L29.9152 29.7441L29.9202 29.7402L29.7985 29.5815ZM32.0011 28.0355L31.8887 27.8701L31.8887 27.8702L32.0011 28.0355ZM38.8873 22.4201L39.0457 22.5422L39.0461 22.5417L38.8873 22.4201ZM38.0824 21.8014C37.3833 22.7084 36.3121 23.6563 35.1133 24.5815C33.9165 25.5052 32.6045 26.3974 31.4301 27.196L31.655 27.5268C32.8277 26.7294 34.1497 25.8305 35.3577 24.8982C36.5637 23.9674 37.668 22.9943 38.3992 22.0456L38.0824 21.8014ZM31.4301 27.196C30.5376 27.8029 29.7596 28.3322 29.2041 28.7591L29.4479 29.0763C29.9919 28.6581 30.7586 28.1364 31.655 27.5268L31.4301 27.196ZM29.2164 28.7504C29.1318 28.8058 28.0956 29.535 27.7654 31.6268L28.1605 31.6891C28.3159 30.7046 28.6343 30.0551 28.9123 29.6521C29.0515 29.4501 29.1814 29.309 29.277 29.218C29.3248 29.1725 29.364 29.1395 29.3916 29.1177C29.4054 29.1068 29.4163 29.0987 29.4239 29.0932C29.4276 29.0905 29.4306 29.0885 29.4326 29.0871C29.4347 29.0856 29.4357 29.085 29.4356 29.085L29.2164 28.7504ZM27.963 31.4579H25.0704V31.8579H27.963V31.4579ZM25.2699 31.6731C25.3422 30.7225 25.578 28.3179 26.2303 25.999C26.5565 24.8393 26.9845 23.7103 27.5424 22.7976C28.1012 21.8834 28.7784 21.2055 29.5958 20.914L29.4614 20.5372C28.5238 20.8717 27.7845 21.6345 27.2011 22.589C26.6167 23.545 26.1767 24.7126 25.8453 25.8907C25.1823 28.2474 24.944 30.6829 24.871 31.6428L25.2699 31.6731ZM29.5958 20.914C30.7736 20.494 31.8414 19.5659 32.7511 18.7783L32.4893 18.4759C31.5653 19.2759 30.5552 20.1472 29.4615 20.5372L29.5958 20.914ZM32.7511 18.7783C33.5013 18.1289 34.0457 17.6889 34.4703 17.4777C34.6798 17.3736 34.8412 17.3351 34.971 17.3428C35.0939 17.3502 35.2087 17.4 35.3276 17.5168L35.6079 17.2315C35.431 17.0576 35.2283 16.9575 34.9948 16.9435C34.7681 16.9301 34.5342 16.9992 34.2921 17.1196C33.8136 17.3576 33.23 17.8347 32.4893 18.4759L32.7511 18.7783ZM35.3274 17.5166C35.4296 17.6173 35.4751 17.7315 35.4658 17.904L35.8653 17.9254C35.88 17.6497 35.7996 17.4204 35.6081 17.2317L35.3274 17.5166ZM35.4658 17.904C35.4515 18.1696 35.3183 18.5004 35.089 18.8719C34.8625 19.2391 34.5548 19.6261 34.2181 20.0001C33.5448 20.7479 32.7714 21.426 32.3451 21.7635L32.5934 22.0771C33.0334 21.7287 33.8241 21.0355 34.5154 20.2677C34.861 19.8839 35.1857 19.477 35.4295 19.0819C35.6706 18.6912 35.8456 18.2913 35.8653 17.9255L35.4658 17.904ZM32.345 21.7636C32.0823 21.9721 32.0377 22.3541 32.2461 22.6172L32.5596 22.3688C32.4886 22.2791 32.5036 22.1484 32.5936 22.077L32.345 21.7636ZM32.2459 22.617C32.4541 22.8804 32.8357 22.9241 33.0993 22.7168L32.8521 22.4024C32.7606 22.4743 32.6303 22.4582 32.5597 22.369L32.2459 22.617ZM33.0998 22.7164C33.2771 22.5761 34.1372 21.8824 34.9673 20.9876C35.3823 20.5403 35.7939 20.0384 36.1092 19.5265C36.4227 19.0176 36.6518 18.4817 36.6794 17.9696L36.28 17.9481C36.2576 18.3637 36.0672 18.8322 35.7687 19.3168C35.472 19.7984 35.0791 20.279 34.6741 20.7156C33.8642 21.5885 33.0223 22.2676 32.8515 22.4028L33.0998 22.7164ZM36.6793 17.9705C36.681 17.9417 36.6789 17.9166 36.6778 17.9027C36.6763 17.8853 36.6761 17.8832 36.6761 17.8805H36.2761C36.2761 17.9044 36.2785 17.9279 36.2792 17.9364C36.2802 17.9483 36.2799 17.949 36.28 17.9472L36.6793 17.9705ZM36.6587 17.9621C36.7851 17.6793 37.2044 16.7186 37.573 15.6145C37.9379 14.5211 38.2669 13.2477 38.1844 12.3559L37.7861 12.3928C37.86 13.1911 37.5597 14.3907 37.1935 15.4878C36.8309 16.5742 36.4175 17.5215 36.2935 17.7988L36.6587 17.9621ZM38.1844 12.3558C38.1069 11.5228 38.1383 10.7737 38.2302 10.2172C38.2763 9.93823 38.3366 9.714 38.4026 9.55391C38.4356 9.47387 38.468 9.41485 38.4972 9.37436C38.5275 9.33241 38.5469 9.32082 38.55 9.31932L38.3767 8.95882C38.2917 8.99971 38.225 9.06804 38.173 9.14012C38.1198 9.21365 38.0735 9.30276 38.0328 9.40153C37.9514 9.59906 37.8846 9.85518 37.8356 10.1519C37.7373 10.7468 37.7059 11.5306 37.7861 12.3928L38.1844 12.3558ZM38.5487 9.31997C38.5259 9.33068 38.5154 9.32423 38.5336 9.32786C38.5508 9.33132 38.5811 9.34154 38.6248 9.36522C38.7122 9.41246 38.8262 9.4983 38.9564 9.62367L39.2339 9.33554C39.089 9.19599 38.9456 9.08397 38.8151 9.01338C38.75 8.97814 38.6812 8.94945 38.612 8.93562C38.5437 8.92197 38.4593 8.91987 38.3781 8.95817L38.5487 9.31997ZM38.9565 9.62378C39.4468 10.0952 39.7542 10.9476 39.8963 12.0398C40.0372 13.1233 40.0107 14.405 39.8677 15.6927C39.7247 16.9795 39.4662 18.2646 39.1472 19.3527C38.8263 20.4472 38.4502 21.3211 38.082 21.8019L38.3996 22.0451C38.8143 21.5035 39.2069 20.5707 39.531 19.4653C39.857 18.3535 40.1199 17.0455 40.2652 15.7369C40.4105 14.4292 40.4393 13.1135 40.2929 11.9882C40.1477 10.8716 39.8253 9.90414 39.2338 9.33543L38.9565 9.62378ZM39.7992 8.74821C39.2099 8.18051 38.5988 7.94776 38.0237 8.22384L38.1968 8.58444C38.5454 8.4171 38.9779 8.51241 39.5217 9.03627L39.7992 8.74821ZM38.0235 8.22391C37.6525 8.40242 37.4135 8.76145 37.2576 9.16204C37.1005 9.56555 37.016 10.0403 36.9723 10.4961C36.8848 11.4087 36.9573 12.2879 36.974 12.4681L37.3723 12.4311C37.3563 12.2591 37.2866 11.4094 37.3705 10.5342C37.4125 10.0961 37.4921 9.66223 37.6303 9.30715C37.7697 8.94917 37.9573 8.69964 38.1969 8.58437L38.0235 8.22391ZM36.974 12.468C37.019 12.9543 36.8781 13.6904 36.6499 14.486C36.4241 15.2735 36.1212 16.0914 35.8628 16.7285L36.2335 16.8788C36.495 16.234 36.8034 15.4019 37.0344 14.5963C37.2632 13.7988 37.4248 12.9988 37.3723 12.4312L36.974 12.468ZM36.1928 16.6655C36.1973 16.6702 36.2005 16.6741 36.2021 16.6762C36.2035 16.6779 36.2046 16.6794 36.2036 16.6781C36.2032 16.6775 36.2008 16.6742 36.1979 16.6707C36.1948 16.6668 36.1901 16.6611 36.184 16.6548L35.8947 16.931C35.8902 16.9263 35.887 16.9224 35.8854 16.9203C35.884 16.9186 35.8829 16.9171 35.8839 16.9184C35.8843 16.919 35.8867 16.9223 35.8896 16.9258C35.8927 16.9297 35.8974 16.9354 35.9035 16.9417L36.1928 16.6655ZM36.1796 16.6503C35.8536 16.3296 35.5016 16.1624 35.1306 16.1247C34.7637 16.0874 34.3977 16.1786 34.043 16.3396C33.3414 16.6581 32.6274 17.278 31.9558 17.8596L32.2177 18.162C32.9036 17.5681 33.5706 16.9933 34.2083 16.7039C34.5232 16.5609 34.8163 16.4948 35.0901 16.5227C35.3598 16.5501 35.6298 16.6705 35.8991 16.9355L36.1796 16.6503ZM31.9558 17.8596C31.0846 18.6139 30.1366 19.431 29.1876 19.7693L29.3219 20.1461C30.3561 19.7774 31.3637 18.9014 32.2177 18.162L31.9558 17.8596ZM29.1876 19.7693C28.1163 20.1514 27.2736 20.9817 26.6109 22.0171C25.9479 23.053 25.4554 24.3091 25.0892 25.5705C24.3567 28.0933 24.1195 30.673 24.052 31.6441L24.4511 31.6718C24.5178 30.711 24.7526 28.1643 25.4733 25.682C25.8337 24.4407 26.3131 23.2245 26.9478 22.2327C27.5828 21.2405 28.3636 20.4879 29.3219 20.1461L29.1876 19.7693ZM24.2515 31.4579H22.6003V31.8579H24.2515V31.4579ZM22.6003 31.4579C21.9656 31.4579 21.4497 31.9738 21.4497 32.6084H21.8497C21.8497 32.1948 22.1865 31.8579 22.6003 31.8579V31.4579ZM21.4497 32.6084V35.0324H21.8497V32.6084H21.4497ZM21.4497 35.0324C21.4497 35.3679 21.7215 35.64 22.0573 35.64V35.24C21.9425 35.24 21.8497 35.1471 21.8497 35.0324H21.4497ZM22.0573 35.64C22.3931 35.64 22.6649 35.3679 22.6649 35.0324H22.2649C22.2649 35.1471 22.1721 35.24 22.0573 35.24V35.64ZM22.6649 35.0324V32.6084H22.2649V35.0324H22.6649ZM22.6649 32.6084C22.6649 32.6448 22.6359 32.6732 22.6003 32.6732V32.2732C22.4158 32.2732 22.2649 32.4231 22.2649 32.6084H22.6649ZM22.6003 32.6732H28.2969V32.2732H22.6003V32.6732ZM28.2862 32.6729C28.2888 32.6731 28.2879 32.6731 28.2953 32.6736C28.3002 32.6739 28.3091 32.6744 28.3193 32.6744V32.2744C28.3223 32.2744 28.3237 32.2746 28.3212 32.2744C28.3198 32.2743 28.3189 32.2742 28.3163 32.2741C28.3141 32.2739 28.311 32.2737 28.3077 32.2735L28.2862 32.6729ZM28.3193 32.6744C28.3391 32.6744 28.3548 32.6715 28.3635 32.6696C28.3679 32.6686 28.3715 32.6677 28.3735 32.6672C28.3751 32.6667 28.377 32.6662 28.3764 32.6664C28.3763 32.6664 28.3759 32.6665 28.3753 32.6667C28.3747 32.6668 28.3738 32.6671 28.3727 32.6673C28.3705 32.6679 28.3671 32.6687 28.3628 32.6696C28.3543 32.6713 28.3414 32.6732 28.3256 32.6732V32.2732C28.3087 32.2732 28.2947 32.2753 28.285 32.2772C28.2802 32.2782 28.2762 32.2792 28.2735 32.2799C28.2708 32.2805 28.2687 32.2811 28.2682 32.2813C28.2671 32.2816 28.2684 32.2812 28.2696 32.2809C28.271 32.2805 28.2741 32.2797 28.2781 32.2788C28.2857 32.2772 28.3004 32.2744 28.3193 32.2744V32.6744ZM28.3256 32.6732H29.7906V32.2732H28.3256V32.6732ZM29.7906 32.6732C29.7542 32.6732 29.7255 32.644 29.7255 32.6084H30.1255C30.1255 32.4239 29.9759 32.2732 29.7906 32.2732V32.6732ZM29.7255 32.6084V35.0324H30.1255V32.6084H29.7255ZM29.7255 35.0324C29.7255 35.3679 29.9973 35.64 30.3332 35.64V35.24C30.2184 35.24 30.1255 35.1471 30.1255 35.0324H29.7255ZM30.3332 35.64C30.669 35.64 30.9408 35.3679 30.9408 35.0324H30.5408C30.5408 35.1471 30.4479 35.24 30.3332 35.24V35.64ZM30.9408 35.0324V32.6084H30.5408V35.0324H30.9408ZM30.9408 32.6084C30.9408 31.9739 30.425 31.4579 29.7906 31.4579V31.8579C30.204 31.8579 30.5408 32.1947 30.5408 32.6084H30.9408ZM29.7906 31.4579H28.7905V31.8579H29.7906V31.4579ZM28.9874 31.6933C29.2539 30.2093 29.9277 29.735 29.9151 29.744L29.682 29.419C29.62 29.4635 28.8806 30.0246 28.5937 31.6226L28.9874 31.6933ZM29.9202 29.7402C30.4696 29.3191 31.2276 28.8035 32.1136 28.2009L31.8887 27.8702C31.0064 28.4702 30.2373 28.9931 29.6769 29.4228L29.9202 29.7402ZM32.1136 28.2009C33.3102 27.3872 34.6593 26.4699 35.8984 25.5102C37.1358 24.5518 38.2748 23.5426 39.0457 22.5422L38.7289 22.298C37.9895 23.2575 36.8828 24.2418 35.6535 25.194C34.4258 26.1448 33.087 27.0553 31.8887 27.8701L32.1136 28.2009ZM39.0461 22.5417C39.4628 21.9975 39.882 21.0254 40.237 19.8547C40.5939 18.6776 40.8923 17.2782 41.0574 15.8634C41.2225 14.4497 41.2556 13.0129 41.0775 11.7635C40.9002 10.5197 40.5094 9.43094 39.799 8.74806L39.5218 9.03642C40.1369 9.62774 40.509 10.6099 40.6815 11.8199C40.8532 13.0244 40.8227 14.4246 40.6601 15.817C40.4977 17.2085 40.2041 18.5846 39.8542 19.7387C39.5023 20.8992 39.0996 21.8139 38.7285 22.2985L39.0461 22.5417Z" fill="#26A0D8"/>
<path fill-rule="evenodd" clip-rule="evenodd" d="M12.6899 28.9348C12.1151 28.4929 11.3376 27.964 10.4375 27.352C8.09515 25.7586 5.17993 23.7756 3.75716 21.9244C2.19069 19.8788 0.737693 11.5604 2.90167 9.4794C3.23013 9.16307 3.44307 9.0956 3.53183 9.13861C3.88174 9.3062 4.1648 10.6769 4.01158 12.3743C3.85469 14.07 5.27588 17.3432 5.51833 17.8872C5.51833 17.9115 5.51354 17.9342 5.51512 17.9589C5.61504 19.814 8.6712 22.2841 9.01912 22.5596C9.19665 22.6997 9.45265 22.6695 9.59201 22.4929C9.73168 22.3165 9.70182 22.0602 9.52546 21.9203C8.65922 21.2344 6.39726 19.1776 6.32918 17.9147C6.31731 17.6906 6.38014 17.5188 6.52709 17.3741C7.11823 16.7933 7.88373 17.3364 9.37464 18.6273C10.2914 19.4211 11.3304 20.3205 12.4658 20.7256C15.9793 21.9786 16.7802 29.8404 16.924 31.762H14.0486C13.746 29.6534 12.713 28.9487 12.6899 28.9348ZM19.2397 31.762H17.7432C17.6099 29.8173 16.8014 21.4063 12.7396 19.9577C11.7484 19.6042 10.7707 18.7576 9.90804 18.0108C8.55094 16.8357 7.14646 15.6201 5.95543 16.7928C5.95145 16.7966 5.949 16.8014 5.94508 16.8054C5.42676 15.5238 4.72577 13.5046 4.82365 12.4485C4.8555 12.0958 5.09912 8.98554 3.88419 8.40358C3.42472 8.18304 2.90248 8.34681 2.33637 8.89199C-0.314485 11.4412 1.53428 20.3629 3.11028 22.4206C4.61306 24.3761 7.58839 26.4 9.97932 28.0259C10.8686 28.631 11.637 29.1537 12.213 29.5954C12.221 29.601 12.9598 30.1402 13.2237 31.762H12.0494C11.5255 31.762 11.0991 32.1884 11.0991 32.7125V35.1364C11.0991 35.3615 11.2814 35.5441 11.5068 35.5441C11.7321 35.5441 11.9144 35.3615 11.9144 35.1364V32.7125C11.9144 32.638 11.9749 32.5773 12.0494 32.5773H19.2397C19.3141 32.5773 19.3746 32.638 19.3746 32.7125V35.1364C19.3746 35.3615 19.557 35.5441 19.7822 35.5441C20.0076 35.5441 20.1899 35.3615 20.1899 35.1364V32.7125C20.1899 32.1884 19.7635 31.762 19.2397 31.762Z" fill="#26A0D8"/>
<path d="M10.4375 27.352L10.325 27.5174L10.3251 27.5174L10.4375 27.352ZM3.75716 21.9244L3.59837 22.046L3.59859 22.0463L3.75716 21.9244ZM2.90167 9.4794L3.0403 9.62356L3.0404 9.62346L2.90167 9.4794ZM3.53183 9.13861L3.44463 9.3186L3.44544 9.31899L3.53183 9.13861ZM4.01158 12.3743L4.21073 12.3927L4.21077 12.3923L4.01158 12.3743ZM5.51833 17.8872H5.71833V17.8446L5.70101 17.8058L5.51833 17.8872ZM5.51512 17.9589L5.71484 17.9481L5.71471 17.9461L5.51512 17.9589ZM9.01912 22.5596L8.89496 22.7164L8.89521 22.7166L9.01912 22.5596ZM9.59201 22.4929L9.43522 22.3687L9.43502 22.369L9.59201 22.4929ZM9.52546 21.9203L9.64977 21.7636L9.64962 21.7635L9.52546 21.9203ZM6.32918 17.9147L6.12946 17.9252L6.12947 17.9254L6.32918 17.9147ZM6.52709 17.3741L6.38693 17.2314L6.38676 17.2316L6.52709 17.3741ZM9.37464 18.6273L9.50555 18.4761H9.50555L9.37464 18.6273ZM12.4658 20.7256L12.3986 20.914L12.3986 20.914L12.4658 20.7256ZM16.924 31.762V31.962H17.1395L17.1234 31.7471L16.924 31.762ZM14.0486 31.762L13.8506 31.7904L13.8752 31.962H14.0486V31.762ZM17.7432 31.762L17.5437 31.7757L17.5564 31.962H17.7432V31.762ZM12.7396 19.9577L12.8068 19.7693L12.8068 19.7693L12.7396 19.9577ZM9.90804 18.0108L9.77712 18.162L9.77714 18.162L9.90804 18.0108ZM5.95543 16.7928L6.09406 16.937L6.09575 16.9353L5.95543 16.7928ZM5.94508 16.8054L5.75967 16.8804L5.87451 17.1644L6.0883 16.945L5.94508 16.8054ZM4.82365 12.4485L5.0228 12.467L5.02284 12.4665L4.82365 12.4485ZM3.88419 8.40358L3.79765 8.58388L3.79779 8.58395L3.88419 8.40358ZM2.33637 8.89199L2.475 9.03614L2.4751 9.03605L2.33637 8.89199ZM3.11028 22.4206L2.9515 22.5423L2.9517 22.5425L3.11028 22.4206ZM9.97932 28.0259L10.0918 27.8606L10.0918 27.8606L9.97932 28.0259ZM12.213 29.5954L12.0911 29.7543L12.0989 29.7597L12.213 29.5954ZM13.2237 31.762V31.962H13.4589L13.4211 31.7299L13.2237 31.762ZM12.8118 28.7762C12.2313 28.33 11.4482 27.7974 10.55 27.1866L10.3251 27.5174C11.227 28.1307 11.9989 28.6558 12.568 29.0934L12.8118 28.7762ZM10.55 27.1866C9.37795 26.3894 8.0686 25.4986 6.87474 24.5766C5.67888 23.653 4.611 22.7072 3.91573 21.8026L3.59859 22.0463C4.32609 22.9928 5.4272 23.9641 6.63024 24.8932C7.83527 25.8238 9.15471 26.7213 10.325 27.5174L10.55 27.1866ZM3.91595 21.8028C3.54759 21.3218 3.17132 20.4478 2.85024 19.3533C2.53101 18.265 2.27234 16.9799 2.12927 15.6931C1.9861 14.4053 1.95956 13.1235 2.10046 12.04C2.24249 10.9477 2.5499 10.0951 3.0403 9.62356L2.76304 9.33524C2.17145 9.90414 1.849 10.8717 1.7038 11.9884C1.55747 13.1137 1.58633 14.4296 1.73172 15.7373C1.87721 17.0459 2.14026 18.354 2.46641 19.4658C2.79071 20.5714 3.18349 21.5043 3.59837 22.046L3.91595 21.8028ZM3.0404 9.62346C3.19578 9.47381 3.31395 9.39292 3.3938 9.35426C3.48609 9.30957 3.48678 9.33902 3.44463 9.3186L3.61904 8.95862C3.48812 8.89519 3.33796 8.93687 3.21947 8.99425C3.08854 9.05765 2.93601 9.16866 2.76293 9.33534L3.0404 9.62346ZM3.44544 9.31899C3.44783 9.32013 3.46678 9.3312 3.4969 9.37302C3.52591 9.41331 3.5581 9.47218 3.59095 9.55217C3.65665 9.71213 3.71685 9.93636 3.76307 10.2154C3.85527 10.7722 3.88769 11.5221 3.81239 12.3563L4.21077 12.3923C4.28869 11.5291 4.25619 10.7449 4.15769 10.1501C4.10856 9.85337 4.04196 9.59742 3.96096 9.4002C3.92047 9.3016 3.87433 9.21264 3.82149 9.13926C3.76975 9.06741 3.70332 8.99899 3.61823 8.95823L3.44544 9.31899ZM3.81243 12.3559C3.72966 13.2504 4.06011 14.5295 4.42546 15.6259C4.7944 16.733 5.21325 17.694 5.33565 17.9686L5.70101 17.8058C5.58097 17.5364 5.16799 16.5888 4.80494 15.4994C4.43831 14.3992 4.13661 13.1938 4.21073 12.3927L3.81243 12.3559ZM5.31833 17.8872C5.31833 17.8868 5.31835 17.8877 5.31812 17.8909C5.31781 17.8951 5.31754 17.8979 5.31685 17.906C5.31575 17.919 5.31372 17.9435 5.31553 17.9717L5.71471 17.9461C5.71494 17.9497 5.71451 17.9505 5.71542 17.9398C5.71573 17.9362 5.71655 17.9271 5.7171 17.9195C5.71771 17.9108 5.71833 17.8997 5.71833 17.8872H5.31833ZM5.31541 17.9696C5.34299 18.4817 5.57206 19.0176 5.88556 19.5265C6.20088 20.0384 6.6125 20.5403 7.0275 20.9876C7.85764 21.8824 8.71776 22.5761 8.89496 22.7164L9.14328 22.4028C8.97256 22.2676 8.13064 21.5885 7.32074 20.7156C6.91572 20.279 6.52282 19.7983 6.22613 19.3167C5.92763 18.8322 5.73721 18.3636 5.71483 17.9481L5.31541 17.9696ZM8.89521 22.7166C9.15922 22.925 9.54103 22.8803 9.749 22.6168L9.43502 22.369C9.36427 22.4586 9.23408 22.4745 9.14303 22.4026L8.89521 22.7166ZM9.7488 22.6171C9.95715 22.354 9.91241 21.972 9.64977 21.7636L9.40115 22.0769C9.49123 22.1484 9.50621 22.2791 9.43523 22.3687L9.7488 22.6171ZM9.64962 21.7635C9.22339 21.426 8.44996 20.7479 7.77664 20C7.43996 19.6261 7.13227 19.2391 6.90571 18.8719C6.67647 18.5003 6.54321 18.1695 6.52889 17.9039L6.12947 17.9254C6.14919 18.2913 6.32421 18.6912 6.5653 19.0819C6.80907 19.477 7.13378 19.8838 7.47938 20.2677C8.17062 21.0354 8.9613 21.7287 9.40131 22.0771L9.64962 21.7635ZM6.5289 17.9041C6.51976 17.7314 6.56518 17.6173 6.66742 17.5166L6.38676 17.2316C6.1951 17.4203 6.11487 17.6497 6.12946 17.9252L6.5289 17.9041ZM6.66726 17.5167C6.78595 17.4001 6.9007 17.3503 7.02361 17.343C7.15337 17.3353 7.31488 17.3737 7.52441 17.4779C7.94903 17.689 8.49357 18.129 9.24372 18.7785L9.50555 18.4761C8.7648 17.8347 8.18113 17.3577 7.70249 17.1197C7.4604 16.9994 7.22651 16.9302 6.99989 16.9437C6.76641 16.9576 6.56381 17.0576 6.38693 17.2314L6.66726 17.5167ZM9.24372 18.7785C10.1534 19.5661 11.2212 20.4939 12.3986 20.914L12.533 20.5372C11.4396 20.1471 10.4294 19.276 9.50555 18.4761L9.24372 18.7785ZM12.3986 20.914C13.2163 21.2056 13.8941 21.8888 14.4534 22.812C15.0117 23.7337 15.4397 24.8747 15.7659 26.0467C16.418 28.3902 16.653 30.8207 16.7245 31.7769L17.1234 31.7471C17.0512 30.7817 16.8139 28.3205 16.1512 25.9394C15.82 24.7492 15.38 23.5697 14.7955 22.6048C14.212 21.6415 13.4721 20.8721 12.533 20.5372L12.3986 20.914ZM16.924 31.562H14.0486V31.962H16.924V31.562ZM14.2465 31.7336C13.9351 29.5627 12.8651 28.8069 12.7931 28.7635L12.5867 29.1061C12.5608 29.0905 13.557 29.744 13.8506 31.7904L14.2465 31.7336ZM19.2397 31.562H17.7432V31.962H19.2397V31.562ZM17.9427 31.7483C17.8757 30.7709 17.6391 28.1656 16.9068 25.6186C16.5407 24.3452 16.0482 23.0773 15.3851 22.0326C14.7224 20.9885 13.8793 20.1518 12.8068 19.7693L12.6724 20.146C13.6309 20.4879 14.412 21.2458 15.0474 22.247C15.6824 23.2475 16.162 24.4756 16.5224 25.7291C17.2431 28.2359 17.4774 30.8084 17.5437 31.7757L17.9427 31.7483ZM12.8068 19.7693C11.8582 19.431 10.9103 18.6139 10.0389 17.8596L9.77714 18.162C10.6311 18.9013 11.6386 19.7774 12.6725 20.146L12.8068 19.7693ZM10.039 17.8596C9.3676 17.2783 8.65377 16.658 7.95218 16.3393C7.59744 16.1781 7.23135 16.0868 6.8644 16.1242C6.49332 16.1619 6.14118 16.3292 5.8151 16.6503L6.09575 16.9353C6.36519 16.67 6.63524 16.5495 6.90489 16.5221C7.17867 16.4943 7.47184 16.5604 7.78674 16.7035C8.42442 16.9931 9.09137 17.5682 9.77712 18.162L10.039 17.8596ZM5.8168 16.6487C5.80836 16.6568 5.80191 16.6642 5.79752 16.6697C5.79339 16.6747 5.7901 16.6792 5.78933 16.6803C5.78777 16.6824 5.78914 16.6805 5.7907 16.6785C5.79265 16.676 5.79646 16.6714 5.80186 16.6658L6.0883 16.945C6.09566 16.9375 6.10125 16.9307 6.10489 16.9261C6.10813 16.9219 6.1111 16.9179 6.11114 16.9178C6.11196 16.9167 6.11028 16.919 6.10785 16.922C6.10515 16.9253 6.10051 16.9308 6.09405 16.937L5.8168 16.6487ZM6.13049 16.7304C5.8729 16.0935 5.5708 15.2754 5.34559 14.4874C5.11808 13.6914 4.97762 12.9544 5.0228 12.467L4.62451 12.4301C4.5718 12.9987 4.7329 13.7993 4.96099 14.5974C5.19139 15.4034 5.49894 16.2357 5.75967 16.8804L6.13049 16.7304ZM5.02284 12.4665C5.03914 12.286 5.10932 11.4057 5.02052 10.4927C4.97618 10.0367 4.89128 9.56201 4.73438 9.15896C4.57868 8.75899 4.34045 8.40037 3.97059 8.2232L3.79779 8.58395C4.0354 8.69777 4.22231 8.94616 4.36163 9.30407C4.49976 9.65889 4.57976 10.0929 4.6224 10.5314C4.70757 11.4072 4.64002 12.2583 4.62446 12.4305L5.02284 12.4665ZM3.97073 8.22327C3.39795 7.94835 2.78639 8.18095 2.19764 8.74793L2.4751 9.03605C3.01857 8.51268 3.4515 8.41774 3.79765 8.58388L3.97073 8.22327ZM2.19774 8.74783C1.48742 9.4309 1.09657 10.5198 0.919337 11.7637C0.741308 13.0132 0.774444 14.45 0.939604 15.8638C1.10488 17.2786 1.40328 18.6781 1.76031 19.8552C2.11536 21.0259 2.53471 21.9981 2.9515 22.5423L3.26906 22.299C2.89785 21.8144 2.4951 20.8997 2.14309 19.7391C1.79307 18.5851 1.49946 17.2089 1.3369 15.8174C1.17423 14.4249 1.14371 13.0247 1.31534 11.8201C1.48776 10.61 1.85989 9.62767 2.475 9.03614L2.19774 8.74783ZM2.9517 22.5425C3.71892 23.5408 4.85466 24.5482 6.08923 25.5049C7.32551 26.463 8.67225 27.3789 9.86685 28.1913L10.0918 27.8606C8.89546 27.047 7.55908 26.138 6.33426 25.1887C5.10773 24.2382 4.00442 23.2559 3.26886 22.2988L2.9517 22.5425ZM9.86682 28.1913C10.7579 28.7976 11.5208 29.3167 12.0913 29.7541L12.3347 29.4367C11.7531 28.9908 10.9794 28.4645 10.0918 27.8606L9.86682 28.1913ZM12.0989 29.7597C12.0651 29.7362 12.7716 30.2291 13.0263 31.7941L13.4211 31.7299C13.148 30.0513 12.3768 29.4657 12.327 29.4311L12.0989 29.7597ZM13.2237 31.562H12.0494V31.962H13.2237V31.562ZM12.0494 31.562C11.415 31.562 10.8991 32.078 10.8991 32.7125H11.2991C11.2991 32.2988 11.636 31.962 12.0494 31.962V31.562ZM10.8991 32.7125V35.1364H11.2991V32.7125H10.8991ZM10.8991 35.1364C10.8991 35.4719 11.1709 35.7441 11.5068 35.7441V35.3441C11.392 35.3441 11.2991 35.2511 11.2991 35.1364H10.8991ZM11.5068 35.7441C11.8427 35.7441 12.1144 35.4719 12.1144 35.1364H11.7144C11.7144 35.2512 11.6216 35.3441 11.5068 35.3441V35.7441ZM12.1144 35.1364V32.7125H11.7144V35.1364H12.1144ZM12.1144 32.7125C12.1144 32.7481 12.0858 32.7773 12.0494 32.7773V32.3773C11.8641 32.3773 11.7144 32.528 11.7144 32.7125H12.1144ZM12.0494 32.7773H19.2397V32.3773H12.0494V32.7773ZM19.2397 32.7773C19.2032 32.7773 19.1746 32.748 19.1746 32.7125H19.5746C19.5746 32.5281 19.425 32.3773 19.2397 32.3773V32.7773ZM19.1746 32.7125V35.1364H19.5746V32.7125H19.1746ZM19.1746 35.1364C19.1746 35.472 19.4464 35.7441 19.7822 35.7441V35.3441C19.6675 35.3441 19.5746 35.2511 19.5746 35.1364H19.1746ZM19.7822 35.7441C20.1181 35.7441 20.3899 35.4719 20.3899 35.1364H19.9899C19.9899 35.2511 19.897 35.3441 19.7822 35.3441V35.7441ZM20.3899 35.1364V32.7125H19.9899V35.1364H20.3899ZM20.3899 32.7125C20.3899 32.078 19.874 31.562 19.2397 31.562V31.962C19.653 31.962 19.9899 32.2988 19.9899 32.7125H20.3899Z" fill="#26A0D8"/>
<path fill-rule="evenodd" clip-rule="evenodd" d="M17.9653 33.1415H17.3591C17.1337 33.1415 16.9514 33.324 16.9514 33.5491C16.9514 33.7742 17.1337 33.9568 17.3591 33.9568H17.9653C18.1907 33.9568 18.373 33.7742 18.373 33.5491C18.373 33.324 18.1907 33.1415 17.9653 33.1415Z" fill="#26A0D8"/>
<path d="M17.9653 33.1415H17.3591C17.1337 33.1415 16.9514 33.324 16.9514 33.5491C16.9514 33.7742 17.1337 33.9568 17.3591 33.9568H17.9653C18.1907 33.9568 18.373 33.7742 18.373 33.5491C18.373 33.324 18.1907 33.1415 17.9653 33.1415" stroke="#26A0D8" stroke-width="0.4"/>
<path fill-rule="evenodd" clip-rule="evenodd" d="M28.5164 33.0374H27.9101C27.6847 33.0374 27.5024 33.2199 27.5024 33.445C27.5024 33.6701 27.6847 33.8526 27.9101 33.8526H28.5164C28.7417 33.8526 28.924 33.6701 28.924 33.445C28.924 33.2199 28.7417 33.0374 28.5164 33.0374Z" fill="#26A0D8"/>
<path d="M28.5164 33.0374H27.9101C27.6847 33.0374 27.5024 33.2199 27.5024 33.445C27.5024 33.6701 27.6847 33.8526 27.9101 33.8526H28.5164C28.7417 33.8526 28.924 33.6701 28.924 33.445C28.924 33.2199 28.7417 33.0374 28.5164 33.0374" stroke="#26A0D8" stroke-width="0.4"/>
<path fill-rule="evenodd" clip-rule="evenodd" d="M20.8679 18.5925C20.801 18.6657 20.7155 18.6767 20.6701 18.6767H20.6697C20.6243 18.6767 20.5383 18.6653 20.4706 18.5911C20.0335 18.109 19.4074 17.4843 18.6824 16.7611C15.5511 13.6362 10.3098 8.40659 10.5562 4.86972C10.6183 3.97999 11.0264 3.26305 11.8038 2.67787C13.9432 1.06784 18.403 3.14962 20.1773 4.4179C20.4874 4.64001 20.8492 4.64302 21.1693 4.42666C22.2883 3.67227 26.4551 0.417338 29.3886 2.53617C30.1876 3.11313 30.6123 3.82992 30.6864 4.7274C30.9849 8.33708 25.6601 13.7165 22.479 16.9306C21.8317 17.5847 21.2728 18.1494 20.8679 18.5925ZM31.4989 4.6604C31.4054 3.52699 30.856 2.59008 29.8664 1.87533C26.9053 -0.262611 23.3516 1.96786 20.7131 3.7511C20.686 3.76924 20.6725 3.77184 20.6518 3.75492C20.592 3.71212 14.5403 -0.402178 11.3134 2.02661C10.3497 2.75191 9.82096 3.68959 9.74295 4.81306C9.47064 8.72088 14.6677 13.9068 18.1068 17.3381C18.8237 18.0539 19.4432 18.6717 19.8671 19.1389C20.0702 19.3626 20.362 19.4914 20.6681 19.4919H20.6701C20.9754 19.4919 21.2664 19.3645 21.4699 19.1424V19.1422C21.8636 18.7113 22.4173 18.152 23.0582 17.5043C26.3385 14.1904 31.8286 8.64384 31.4989 4.6604Z" fill="#26A0D8"/>
<path d="M20.4706 18.5911L20.3225 18.7254L20.3228 18.7258L20.4706 18.5911ZM18.6824 16.7611L18.5411 16.9027L18.5412 16.9027L18.6824 16.7611ZM10.5562 4.86972L10.3567 4.8558L10.3567 4.85582L10.5562 4.86972ZM11.8038 2.67787L11.6836 2.51807L11.6836 2.51808L11.8038 2.67787ZM20.1773 4.4179L20.2938 4.25531L20.2936 4.25519L20.1773 4.4179ZM21.1693 4.42666L21.0575 4.26083L21.0573 4.26097L21.1693 4.42666ZM29.3886 2.53617L29.2715 2.6983L29.2715 2.69831L29.3886 2.53617ZM30.6864 4.7274L30.4871 4.74385L30.4871 4.74389L30.6864 4.7274ZM22.479 16.9306L22.3369 16.7899L22.3368 16.7899L22.479 16.9306ZM29.8664 1.87533L29.9835 1.71319L29.9834 1.71317L29.8664 1.87533ZM20.7131 3.7511L20.8245 3.91722L20.8251 3.9168L20.7131 3.7511ZM20.6518 3.75492L20.7787 3.59978L20.7682 3.59231L20.6518 3.75492ZM11.3134 2.02661L11.4337 2.18641L11.4337 2.18641L11.3134 2.02661ZM9.74295 4.81306L9.94246 4.82696L9.94247 4.82691L9.74295 4.81306ZM18.1068 17.3381L18.2481 17.1965L18.2481 17.1965L18.1068 17.3381ZM19.8671 19.1389L19.719 19.2733L19.719 19.2733L19.8671 19.1389ZM20.6681 19.4919L20.6678 19.6919H20.6681V19.4919ZM21.4699 19.1424L21.6174 19.2775L21.6699 19.2202V19.1424H21.4699ZM21.4699 19.1422L21.3222 19.0073L21.2699 19.0646V19.1422H21.4699ZM23.0582 17.5043L22.9161 17.3636L22.9161 17.3636L23.0582 17.5043ZM20.7203 18.4576C20.7132 18.4654 20.7057 18.4696 20.6973 18.4724C20.6877 18.4756 20.6776 18.4767 20.6701 18.4767V18.8766C20.7423 18.8766 20.8947 18.8597 21.0156 18.7274L20.7203 18.4576ZM20.6701 18.4767H20.6697V18.8766H20.6701V18.4767ZM20.6697 18.4767C20.6627 18.4767 20.6526 18.4757 20.6429 18.4724C20.6343 18.4694 20.6263 18.465 20.6185 18.4564L20.3228 18.7258C20.444 18.8587 20.5963 18.8766 20.6697 18.8766V18.4767ZM20.6188 18.4568C20.1775 17.9701 19.5471 17.3413 18.8237 16.6195L18.5412 16.9027C19.2676 17.6274 19.8895 18.2479 20.3225 18.7254L20.6188 18.4568ZM18.8237 16.6195C17.2565 15.0556 15.1723 12.9756 13.5103 10.8468C12.6794 9.78265 11.9586 8.71196 11.4614 7.69274C10.963 6.67113 10.6976 5.71807 10.7558 4.88362L10.3567 4.85582C10.2917 5.7898 10.589 6.81678 11.1019 7.86812C11.616 8.92186 12.355 10.017 13.195 11.093C14.8748 13.2445 16.9769 15.3417 18.5411 16.9027L18.8237 16.6195ZM10.7558 4.88364C10.8134 4.05739 11.1882 3.39156 11.9241 2.83767L11.6836 2.51808C10.8645 3.13453 10.4232 3.90259 10.3567 4.8558L10.7558 4.88364ZM11.9241 2.83768C12.4146 2.46854 13.0485 2.30316 13.7683 2.29214C14.488 2.28113 15.2803 2.4249 16.0704 2.6602C17.6518 3.13114 19.1905 3.95835 20.061 4.58061L20.2936 4.25519C19.3898 3.60917 17.8115 2.76134 16.1845 2.27684C15.3705 2.03441 14.5358 1.88035 13.7622 1.89219C12.9885 1.90403 12.2628 2.08219 11.6836 2.51807L11.9241 2.83768ZM20.0608 4.58049C20.4402 4.85225 20.8933 4.85467 21.2813 4.59236L21.0573 4.26097C20.8052 4.43137 20.5345 4.42778 20.2938 4.25531L20.0608 4.58049ZM21.2811 4.5925C21.8519 4.20768 23.1508 3.22195 24.6752 2.58865C26.2033 1.95386 27.8911 1.70125 29.2715 2.6983L29.5057 2.37404C27.9526 1.25225 26.0902 1.5677 24.5218 2.21926C22.9497 2.87232 21.6057 3.89125 21.0575 4.26083L21.2811 4.5925ZM29.2715 2.69831C30.0282 3.24474 30.4183 3.9106 30.4871 4.74385L30.8857 4.71096C30.8064 3.74925 30.347 2.98153 29.5057 2.37402L29.2715 2.69831ZM30.4871 4.74389C30.5576 5.59618 30.2965 6.57179 29.7968 7.61886C29.2982 8.66353 28.5703 9.7624 27.7291 10.8554C26.0464 13.0417 23.9289 15.1814 22.3369 16.7899L22.6211 17.0713C24.2102 15.4657 26.3457 13.3087 28.0461 11.0993C28.8964 9.99447 29.6425 8.87078 30.1578 7.79115C30.6719 6.71391 30.9645 5.66346 30.8857 4.71092L30.4871 4.74389ZM22.3368 16.7899C21.6907 17.4429 21.1285 18.0109 20.7203 18.4576L21.0156 18.7274C21.4172 18.288 21.9727 17.7266 22.6212 17.0713L22.3368 16.7899ZM31.6982 4.64394C31.5995 3.44758 31.0165 2.45929 29.9835 1.71319L29.7493 2.03746C30.6955 2.72087 31.2112 3.6064 31.2996 4.67685L31.6982 4.64394ZM29.9834 1.71317C28.4343 0.594621 26.733 0.627102 25.1073 1.15246C23.4884 1.6756 21.9187 2.69491 20.6011 3.58539L20.8251 3.9168C22.146 3.02405 23.6724 2.03651 25.2303 1.53308C26.7813 1.03188 28.3375 1.01809 29.7493 2.03748L29.9834 1.71317ZM20.6017 3.58498C20.5985 3.58713 20.6022 3.58434 20.6101 3.58063C20.6186 3.57668 20.6371 3.5691 20.663 3.56689C20.7267 3.56142 20.7687 3.59216 20.7784 3.60009L20.5252 3.90974C20.5556 3.93459 20.6147 3.97249 20.6971 3.96542C20.7623 3.95983 20.8101 3.92682 20.8245 3.91722L20.6017 3.58498ZM20.7682 3.59231C20.7296 3.56462 19.1862 2.51532 17.2413 1.77694C16.2684 1.40762 15.1854 1.1123 14.1342 1.06619C13.082 1.02003 12.0481 1.22333 11.1931 1.86682L11.4337 2.18641C12.1922 1.6155 13.1248 1.42229 14.1167 1.4658C15.1096 1.50936 16.1483 1.78989 17.0993 2.1509C18.0489 2.51141 18.9024 2.94885 19.5229 3.29939C19.8328 3.47452 20.084 3.62758 20.2591 3.73795C20.3467 3.79313 20.4152 3.8376 20.4625 3.86877C20.4861 3.88436 20.5044 3.89659 20.5171 3.90515C20.5309 3.91446 20.5362 3.91814 20.5353 3.91752L20.7682 3.59231ZM11.1931 1.86681C10.1868 2.62414 9.62577 3.61336 9.54343 4.7992L9.94247 4.82691C10.0161 3.76582 10.5125 2.87968 11.4337 2.18641L11.1931 1.86681ZM9.54343 4.79916C9.47216 5.82192 9.75918 6.91363 10.2697 8.01997C10.7808 9.12751 11.5217 10.2623 12.3743 11.3758C14.0789 13.6021 16.2477 15.7657 17.9656 17.4796L18.2481 17.1965C16.5268 15.4791 14.3775 13.3341 12.6919 11.1327C11.8494 10.0323 11.1272 8.9235 10.6329 7.85238C10.1381 6.78006 9.87758 5.75811 9.94246 4.82696L9.54343 4.79916ZM17.9655 17.4796C18.684 18.197 19.2992 18.8107 19.719 19.2733L20.0152 19.0045C19.5872 18.5328 18.9634 17.9107 18.2481 17.1965L17.9655 17.4796ZM19.719 19.2733C19.9604 19.5392 20.306 19.6913 20.6678 19.6919L20.6685 19.2919C20.4179 19.2915 20.18 19.1859 20.0152 19.0044L19.719 19.2733ZM20.6681 19.6919H20.6701V19.2919H20.6681V19.6919ZM20.6701 19.6919C21.0308 19.6919 21.3755 19.5415 21.6174 19.2775L21.3224 19.0073C21.1573 19.1876 20.92 19.2919 20.6701 19.2919V19.6919ZM21.6699 19.1424V19.1422H21.2699V19.1424H21.6699ZM21.6175 19.2771C22.0079 18.8498 22.5583 18.2939 23.2004 17.645L22.9161 17.3636C22.2763 18.0101 21.7192 18.5728 21.3222 19.0073L21.6175 19.2771ZM23.2003 17.645C24.839 15.9896 27.0411 13.7653 28.7917 11.4542C29.6672 10.2984 30.4343 9.11517 30.9622 7.96519C31.4893 6.81686 31.7846 5.68729 31.6982 4.6439L31.2996 4.67689C31.3781 5.62522 31.1107 6.68277 30.5986 7.79832C30.0873 8.91223 29.3387 10.0697 28.4728 11.2127C26.7408 13.4992 24.5577 15.7052 22.9161 17.3636L23.2003 17.645Z" fill="#26A0D8"/>
<path fill-rule="evenodd" clip-rule="evenodd" d="M26.8821 4.30283C26.6882 4.18879 26.4382 4.25406 26.3243 4.44851C26.2109 4.64301 26.2762 4.89259 26.4704 5.00627C26.4744 5.00882 26.8984 5.27159 27.0167 5.86711C27.1544 6.55939 26.8268 7.4535 26.0692 8.45294C25.933 8.63226 25.9685 8.888 26.1476 9.02395C26.2212 9.0799 26.308 9.1068 26.3937 9.1068C26.517 9.1068 26.6389 9.05121 26.7189 8.94538C27.634 7.73809 28.0035 6.64897 27.8164 5.70813C27.6253 4.74752 26.9124 4.32056 26.8821 4.30283Z" fill="#26A0D8"/>
<path d="M26.8821 4.30283C26.6882 4.18879 26.4382 4.25406 26.3243 4.44851C26.2109 4.64301 26.2762 4.89259 26.4704 5.00627C26.4744 5.00882 26.8984 5.27159 27.0167 5.86711C27.1544 6.55939 26.8268 7.4535 26.0692 8.45294C25.933 8.63226 25.9685 8.888 26.1476 9.02395C26.2212 9.0799 26.308 9.1068 26.3937 9.1068C26.517 9.1068 26.6389 9.05121 26.7189 8.94538C27.634 7.73809 28.0035 6.64897 27.8164 5.70813C27.6253 4.74752 26.9124 4.32056 26.8821 4.30283" stroke="#26A0D8" stroke-width="0.4"/>
</svg>
