<svg width="146" height="101" viewBox="0 0 146 101" fill="none" xmlns="http://www.w3.org/2000/svg">
<path d="M118.846 21.7367C120.461 21.7367 121.77 20.4267 121.77 18.8106C121.77 17.1946 120.461 15.8845 118.846 15.8845C117.231 15.8845 115.922 17.1946 115.922 18.8106C115.922 20.4267 117.231 21.7367 118.846 21.7367Z" fill="#D1E3F1"/>
<path d="M61.4072 5.85219C63.0221 5.85219 64.3313 4.54213 64.3313 2.92609C64.3313 1.31006 63.0221 0 61.4072 0C59.7922 0 58.483 1.31006 58.483 2.92609C58.483 4.54213 59.7922 5.85219 61.4072 5.85219Z" fill="#5F9FCF"/>
<path d="M91.1708 9.40531C92.8435 9.40531 94.1994 8.04847 94.1994 6.37471C94.1994 4.70096 92.8435 3.34412 91.1708 3.34412C89.4982 3.34412 88.1422 4.70096 88.1422 6.37471C88.1422 8.04847 89.4982 9.40531 91.1708 9.40531Z" fill="#A5C8E4"/>
<path d="M27.7794 95.9341C30.3172 95.9341 32.3745 93.8754 32.3745 91.3359C32.3745 88.7965 30.3172 86.7378 27.7794 86.7378C25.2416 86.7378 23.1843 88.7965 23.1843 91.3359C23.1843 93.8754 25.2416 95.9341 27.7794 95.9341Z" fill="#5F9FCF"/>
<path d="M8.25034 71.6893C11.5379 71.6893 14.2031 69.0224 14.2031 65.7326C14.2031 62.4428 11.5379 59.7759 8.25034 59.7759C4.96274 59.7759 2.29761 62.4428 2.29761 65.7326C2.29761 69.0224 4.96274 71.6893 8.25034 71.6893Z" fill="#5F9FCF"/>
<path d="M15.5608 85.9018C18.733 85.9018 21.3046 83.3284 21.3046 80.1541C21.3046 76.9797 18.733 74.4064 15.5608 74.4064C12.3885 74.4064 9.81689 76.9797 9.81689 80.1541C9.81689 83.3284 12.3885 85.9018 15.5608 85.9018Z" fill="#5F9FCF"/>
<path d="M6.05717 55.3868C9.40245 55.3868 12.1143 52.6731 12.1143 49.3256C12.1143 45.9781 9.40245 43.2644 6.05717 43.2644C2.71189 43.2644 0 45.9781 0 49.3256C0 52.6731 2.71189 55.3868 6.05717 55.3868Z" fill="#5F9FCF"/>
<path d="M9.71224 38.6662C12.7691 38.6662 15.2472 36.1865 15.2472 33.1275C15.2472 30.0686 12.7691 27.5889 9.71224 27.5889C6.65535 27.5889 4.17725 30.0686 4.17725 33.1275C4.17725 36.1865 6.65535 38.6662 9.71224 38.6662Z" fill="#5F9FCF"/>
<path d="M18.5893 24.0358C21.0118 24.0358 22.9756 22.0707 22.9756 19.6466C22.9756 17.2226 21.0118 15.2575 18.5893 15.2575C16.1669 15.2575 14.2031 17.2226 14.2031 19.6466C14.2031 22.0707 16.1669 24.0358 18.5893 24.0358Z" fill="#5F9FCF"/>
<path d="M31.8523 12.3314C33.525 12.3314 34.8809 10.9746 34.8809 9.3008C34.8809 7.62705 33.525 6.2702 31.8523 6.2702C30.1797 6.2702 28.8237 7.62705 28.8237 9.3008C28.8237 10.9746 30.1797 12.3314 31.8523 12.3314Z" fill="#5F9FCF"/>
<path d="M40.4158 100.741C42.0884 100.741 43.4444 99.3844 43.4444 97.7106C43.4444 96.0369 42.0884 94.6801 40.4158 94.6801C38.7431 94.6801 37.3872 96.0369 37.3872 97.7106C37.3872 99.3844 38.7431 100.741 40.4158 100.741Z" fill="#609ECF"/>
<path d="M32.3744 84.2297C34.9122 84.2297 36.9695 82.1711 36.9695 79.6316C36.9695 77.0921 34.9122 75.0334 32.3744 75.0334C29.8366 75.0334 27.7793 77.0921 27.7793 79.6316C27.7793 82.1711 29.8366 84.2297 32.3744 84.2297Z" fill="#77ACD6"/>
<path d="M24.3331 70.8533C27.39 70.8533 29.8681 68.3735 29.8681 65.3146C29.8681 62.2557 27.39 59.7759 24.3331 59.7759C21.2762 59.7759 18.7981 62.2557 18.7981 65.3146C18.7981 68.3735 21.2762 70.8533 24.3331 70.8533Z" fill="#77ACD6"/>
<path d="M33.3143 24.4538C36.3712 24.4538 38.8493 21.974 38.8493 18.9151C38.8493 15.8562 36.3712 13.3764 33.3143 13.3764C30.2574 13.3764 27.7793 15.8562 27.7793 18.9151C27.7793 21.974 30.2574 24.4538 33.3143 24.4538Z" fill="#77ACD6"/>
<path d="M46.1597 13.3764C48.8128 13.3764 50.9636 11.2242 50.9636 8.56927C50.9636 5.91435 48.8128 3.76212 46.1597 3.76212C43.5065 3.76212 41.3557 5.91435 41.3557 8.56927C41.3557 11.2242 43.5065 13.3764 46.1597 13.3764Z" fill="#77ACD6"/>
<path d="M24.751 38.8752C28.1539 38.8752 30.9126 36.1148 30.9126 32.7095C30.9126 29.3043 28.1539 26.5439 24.751 26.5439C21.348 26.5439 18.5894 29.3043 18.5894 32.7095C18.5894 36.1148 21.348 38.8752 24.751 38.8752Z" fill="#77ACD6"/>
<path d="M21.7222 55.1777C25.0675 55.1777 27.7794 52.4641 27.7794 49.1166C27.7794 45.769 25.0675 43.0554 21.7222 43.0554C18.3769 43.0554 15.665 45.769 15.665 49.1166C15.665 52.4641 18.3769 55.1777 21.7222 55.1777Z" fill="#77ACD6"/>
<path d="M42.2957 92.59C43.9683 92.59 45.3242 91.2331 45.3242 89.5594C45.3242 87.8856 43.9683 86.5288 42.2957 86.5288C40.623 86.5288 39.2671 87.8856 39.2671 89.5594C39.2671 91.2331 40.623 92.59 42.2957 92.59Z" fill="#77ACD6"/>
<path d="M39.8937 74.4064C42.4315 74.4064 44.4888 72.3477 44.4888 69.8082C44.4888 67.2687 42.4315 65.2101 39.8937 65.2101C37.3559 65.2101 35.2986 67.2687 35.2986 69.8082C35.2986 72.3477 37.3559 74.4064 39.8937 74.4064Z" fill="#A5C8E4"/>
<path d="M36.8651 59.3579C39.922 59.3579 42.4001 56.8782 42.4001 53.8193C42.4001 50.7603 39.922 48.2806 36.8651 48.2806C33.8082 48.2806 31.3301 50.7603 31.3301 53.8193C31.3301 56.8782 33.8082 59.3579 36.8651 59.3579Z" fill="#A5C8E4"/>
<path d="M39.4761 43.8914C42.8214 43.8914 45.5333 41.1777 45.5333 37.8302C45.5333 34.4827 42.8214 31.769 39.4761 31.769C36.1308 31.769 33.4189 34.4827 33.4189 37.8302C33.4189 41.1777 36.1308 43.8914 39.4761 43.8914Z" fill="#A5C8E4"/>
<path d="M46.9952 29.261C50.3404 29.261 53.0523 26.5473 53.0523 23.1998C53.0523 19.8523 50.3404 17.1386 46.9952 17.1386C43.6499 17.1386 40.938 19.8523 40.938 23.1998C40.938 26.5473 43.6499 29.261 46.9952 29.261Z" fill="#A5C8E4"/>
<path d="M59.6318 17.7656C62.5733 17.7656 64.9579 15.3794 64.9579 12.4359C64.9579 9.49241 62.5733 7.10623 59.6318 7.10623C56.6903 7.10623 54.3057 9.49241 54.3057 12.4359C54.3057 15.3794 56.6903 17.7656 59.6318 17.7656Z" fill="#A5C8E4"/>
<path d="M74.8791 10.8684C77.3592 10.8684 79.3697 8.85649 79.3697 6.37472C79.3697 3.89295 77.3592 1.88107 74.8791 1.88107C72.399 1.88107 70.3884 3.89295 70.3884 6.37472C70.3884 8.85649 72.399 10.8684 74.8791 10.8684Z" fill="#A5C8E4"/>
<path d="M46.4732 85.6928C48.1458 85.6928 49.5018 84.3359 49.5018 82.6622C49.5018 80.9884 48.1458 79.6316 46.4732 79.6316C44.8005 79.6316 43.4446 80.9884 43.4446 82.6622C43.4446 84.3359 44.8005 85.6928 46.4732 85.6928Z" fill="#A5C8E4"/>
<path d="M49.815 67.9272C52.4105 67.9272 54.5145 65.8217 54.5145 63.2245C54.5145 60.6273 52.4105 58.5219 49.815 58.5219C47.2195 58.5219 45.1155 60.6273 45.1155 63.2245C45.1155 65.8217 47.2195 67.9272 49.815 67.9272Z" fill="#D1E3F1"/>
<path d="M102.972 18.3926C105.51 18.3926 107.567 16.3339 107.567 13.7944C107.567 11.255 105.51 9.19629 102.972 9.19629C100.434 9.19629 98.3767 11.255 98.3767 13.7944C98.3767 16.3339 100.434 18.3926 102.972 18.3926Z" fill="#D1E3F1"/>
<path d="M86.4713 20.0646C89.4706 20.0646 91.9019 17.6317 91.9019 14.6305C91.9019 11.6293 89.4706 9.19629 86.4713 9.19629C83.4721 9.19629 81.0408 11.6293 81.0408 14.6305C81.0408 17.6317 83.4721 20.0646 86.4713 20.0646Z" fill="#D1E3F1"/>
<path d="M71.6418 26.9619C74.8717 26.9619 77.4901 24.3418 77.4901 21.1097C77.4901 17.8776 74.8717 15.2575 71.6418 15.2575C68.4118 15.2575 65.7935 17.8776 65.7935 21.1097C65.7935 24.3418 68.4118 26.9619 71.6418 26.9619Z" fill="#D1E3F1"/>
<path d="M59.5273 38.2482C62.7572 38.2482 65.3755 35.6281 65.3755 32.396C65.3755 29.164 62.7572 26.5439 59.5273 26.5439C56.2973 26.5439 53.679 29.164 53.679 32.396C53.679 35.6281 56.2973 38.2482 59.5273 38.2482Z" fill="#D1E3F1"/>
<path d="M51.6947 52.0427C54.7516 52.0427 57.2297 49.5629 57.2297 46.504C57.2297 43.4451 54.7516 40.9653 51.6947 40.9653C48.6378 40.9653 46.1597 43.4451 46.1597 46.504C46.1597 49.5629 48.6378 52.0427 51.6947 52.0427Z" fill="#D1E3F1"/>
<path d="M52.739 79.8406C54.4117 79.8406 55.7676 78.4837 55.7676 76.81C55.7676 75.1362 54.4117 73.7794 52.739 73.7794C51.0664 73.7794 49.7104 75.1362 49.7104 76.81C49.7104 78.4837 51.0664 79.8406 52.739 79.8406Z" fill="white"/>
<path d="M142.866 45.1454C144.596 45.1454 145.999 43.7418 145.999 42.0103C145.999 40.2789 144.596 38.8752 142.866 38.8752C141.135 38.8752 139.733 40.2789 139.733 42.0103C139.733 43.7418 141.135 45.1454 142.866 45.1454Z" fill="white"/>
<path d="M130.02 36.9942C132.731 36.9942 134.929 34.7952 134.929 32.0826C134.929 29.3699 132.731 27.1709 130.02 27.1709C127.309 27.1709 125.112 29.3699 125.112 32.0826C125.112 34.7952 127.309 36.9942 130.02 36.9942Z" fill="white"/>
<path d="M114.355 32.396C117.412 32.396 119.89 29.9163 119.89 26.8573C119.89 23.7984 117.412 21.3187 114.355 21.3187C111.298 21.3187 108.82 23.7984 108.82 26.8573C108.82 29.9163 111.298 32.396 114.355 32.396Z" fill="white"/>
<path d="M98.0635 33.4411C101.466 33.4411 104.225 30.6806 104.225 27.2754C104.225 23.8702 101.466 21.1097 98.0635 21.1097C94.6605 21.1097 91.9019 23.8702 91.9019 27.2754C91.9019 30.6806 94.6605 33.4411 98.0635 33.4411Z" fill="white"/>
<path d="M82.816 39.5023C86.219 39.5023 88.9776 36.7418 88.9776 33.3366C88.9776 29.9314 86.219 27.1709 82.816 27.1709C79.4131 27.1709 76.6544 29.9314 76.6544 33.3366C76.6544 36.7418 79.4131 39.5023 82.816 39.5023Z" fill="white"/>
<path d="M70.7018 50.1616C73.9894 50.1616 76.6545 47.4947 76.6545 44.205C76.6545 40.9152 73.9894 38.2483 70.7018 38.2483C67.4142 38.2483 64.749 40.9152 64.749 44.205C64.749 47.4947 67.4142 50.1616 70.7018 50.1616Z" fill="white"/>
<path d="M62.6603 63.3291C65.3134 63.3291 67.4642 61.1768 67.4642 58.5219C67.4642 55.867 65.3134 53.7148 62.6603 53.7148C60.0071 53.7148 57.8563 55.867 57.8563 58.5219C57.8563 61.1768 60.0071 63.3291 62.6603 63.3291Z" fill="white"/>
<path d="M59.6317 75.0334C61.3044 75.0334 62.6603 73.6766 62.6603 72.0028C62.6603 70.329 61.3044 68.9722 59.6317 68.9722C57.9591 68.9722 56.6031 70.329 56.6031 72.0028C56.6031 73.6766 57.9591 75.0334 59.6317 75.0334Z" fill="white"/>
</svg>
