<svg width="38" height="33" viewBox="0 0 38 33" fill="none" xmlns="http://www.w3.org/2000/svg">
<path fill-rule="evenodd" clip-rule="evenodd" d="M29.7214 29.6583C29.7214 29.8401 29.8685 29.9871 30.0502 29.9871H33.2027C33.3844 29.9871 33.5315 29.8401 33.5315 29.6583C33.5315 29.4766 33.3844 29.3296 33.2027 29.3296H30.0502C29.8685 29.3296 29.7214 29.4766 29.7214 29.6583Z" fill="#2CB9EC"/>
<path d="M29.7214 29.6583C29.7214 29.8401 29.8685 29.9871 30.0502 29.9871H33.2027C33.3844 29.9871 33.5315 29.8401 33.5315 29.6583C33.5315 29.4766 33.3844 29.3296 33.2027 29.3296H30.0502C29.8685 29.3296 29.7214 29.4766 29.7214 29.6583" stroke="#2CB9EC" stroke-width="0.4"/>
<path fill-rule="evenodd" clip-rule="evenodd" d="M36.7523 31.3246H30.0502C29.8685 31.3246 29.7214 31.4717 29.7214 31.6534C29.7214 31.8351 29.8685 31.9822 30.0502 31.9822H36.7523C36.9341 31.9822 37.0811 31.8351 37.0811 31.6534C37.0811 31.4717 36.9341 31.3246 36.7523 31.3246Z" fill="#2CB9EC"/>
<path d="M36.7523 31.3246H30.0502C29.8685 31.3246 29.7214 31.4717 29.7214 31.6534C29.7214 31.8351 29.8685 31.9822 30.0502 31.9822H36.7523C36.9341 31.9822 37.0811 31.8351 37.0811 31.6534C37.0811 31.4717 36.9341 31.3246 36.7523 31.3246" stroke="#2CB9EC" stroke-width="0.4"/>
<path fill-rule="evenodd" clip-rule="evenodd" d="M8.03091 14.7531H1.32878C1.14706 14.7531 1 14.9001 1 15.0818C1 15.2635 1.14706 15.4106 1.32878 15.4106H8.03091C8.21263 15.4106 8.35967 15.2635 8.35967 15.0818C8.35967 14.9001 8.21263 14.7531 8.03091 14.7531Z" fill="#2CB9EC"/>
<path d="M8.03091 14.7531H1.32878C1.14706 14.7531 1 14.9001 1 15.0818C1 15.2635 1.14706 15.4106 1.32878 15.4106H8.03091C8.21263 15.4106 8.35967 15.2635 8.35967 15.0818C8.35967 14.9001 8.21263 14.7531 8.03091 14.7531" stroke="#2CB9EC" stroke-width="0.4"/>
<path fill-rule="evenodd" clip-rule="evenodd" d="M8.03111 13.0103H4.87846C4.69689 13.0103 4.54968 13.1575 4.54968 13.339C4.54968 13.5206 4.69689 13.6678 4.87846 13.6678H8.03111C8.21266 13.6678 8.35989 13.5206 8.35989 13.339C8.35989 13.1575 8.21266 13.0103 8.03111 13.0103Z" fill="#2CB9EC"/>
<path d="M8.03111 13.0103H4.87846C4.69689 13.0103 4.54968 13.1575 4.54968 13.339C4.54968 13.5206 4.69689 13.6678 4.87846 13.6678H8.03111C8.21266 13.6678 8.35989 13.5206 8.35989 13.339C8.35989 13.1575 8.21266 13.0103 8.03111 13.0103" stroke="#2CB9EC" stroke-width="0.4"/>
<path fill-rule="evenodd" clip-rule="evenodd" d="M10.6631 21.9109C9.86098 21.5481 9.36013 20.7737 9.35629 19.8901C9.35359 19.2878 9.59991 18.3531 10.7025 17.8536C13.2875 16.7079 13.6583 16.0445 15.2195 13.252C15.4641 12.8142 15.7391 12.3223 16.0581 11.7654C16.2753 11.3858 18.2561 8.08026 21.0444 8.32224C21.0445 8.32224 21.0445 8.32229 21.0446 8.32232C22.0514 8.61626 23.3912 8.58667 24.3561 8.03132C24.4425 8.10576 24.5365 8.17313 24.6455 8.22247L24.8648 8.32165C25.017 8.3906 25.1762 8.42254 25.3336 8.42672C25.5481 9.50633 26.3787 10.4817 27.185 11.0338C28.2464 14.1957 27.659 15.9317 27.3405 16.8673C27.1327 17.4748 26.9449 18.0065 26.778 18.4794C25.712 21.4954 25.4587 22.212 26.3057 24.9102C26.6591 26.0645 26.1212 26.8687 25.6658 27.2655C24.9996 27.8463 24.0875 27.9815 23.2855 27.6187L10.6631 21.9109ZM21.2936 2.93252C21.6728 2.4742 22.0487 2.27836 22.4478 2.33662C23.4691 2.48417 24.482 4.21557 24.9026 5.10683C24.7265 5.23078 24.583 5.3959 24.4923 5.59652L24.0358 6.60594C24.0119 6.65876 23.9975 6.71314 23.9816 6.76727C23.2699 6.39478 21.7985 5.74679 20.7285 6.09866C20.5006 6.1734 20.3057 6.29059 20.1389 6.44186C20.0247 5.3596 20.4723 3.92581 21.2936 2.93252ZM27.222 1.9289C27.3135 1.72736 27.5554 1.62026 27.7768 1.72164C27.9937 1.81749 28.0715 2.07887 27.981 2.2716L26.6207 5.27972C26.5336 5.20406 26.4386 5.13565 26.3282 5.0857L26.1089 4.98666C26.033 4.95237 25.9547 4.92672 25.8752 4.90868L27.222 1.9289ZM30.8734 6.10796C31.1794 6.3685 31.2821 6.78073 31.1884 7.36827C30.985 8.64075 30.2043 9.92336 29.3168 10.5526C29.3193 10.3307 29.2765 10.11 29.184 9.89181C28.7239 8.80738 27.1589 8.10114 26.4221 7.82053C26.4427 7.78498 26.464 7.75002 26.4813 7.71182L26.9378 6.70223C27.0213 6.51756 27.0494 6.32355 27.0389 6.13396C27.9197 5.86219 30.049 5.40488 30.8734 6.10796ZM24.6349 6.87675L25.0914 5.86733C25.2185 5.58625 25.5544 5.45733 25.8379 5.58576L26.0572 5.68479C26.3407 5.8129 26.4669 6.14794 26.3387 6.43144L25.8822 7.44101C25.7541 7.72416 25.4202 7.85116 25.1357 7.72258L24.9164 7.62337C24.633 7.49526 24.5068 7.16023 24.6349 6.87675ZM21.2291 7.69111C20.8286 7.57421 20.5163 7.3965 20.3678 7.20971C20.4974 6.9694 20.681 6.80629 20.9329 6.7236C21.8263 6.42902 23.3252 7.13489 23.9497 7.49927C23.1272 7.9327 21.9965 7.91516 21.2291 7.69111ZM27.6583 10.5598C26.9764 10.1273 26.2095 9.27783 25.9998 8.36477C26.7192 8.61483 28.2121 9.28535 28.5788 10.1487C28.6809 10.3896 28.6812 10.631 28.5909 10.8813C28.3521 10.8961 28.0148 10.7857 27.6583 10.5598ZM14.7777 29.3296C13.9771 29.3296 13.3257 28.6782 13.3257 27.8774C13.3257 27.077 13.9771 26.4256 14.7777 26.4256C15.5784 26.4256 16.2299 27.077 16.2299 27.8774C16.2299 28.6782 15.5784 29.3296 14.7777 29.3296ZM23.0145 28.2178C24.0535 28.6872 25.2347 28.514 26.0979 27.7612C26.879 27.0802 27.3228 25.9871 26.933 24.7128C26.1519 22.2242 26.3664 21.6171 27.3979 18.6983C27.5655 18.2235 27.7543 17.6899 27.9627 17.0796C28.2848 16.1339 28.8606 14.4311 28.0032 11.4498C28.3041 11.5475 28.6284 11.5926 28.9307 11.4899C30.2733 11.0356 31.5502 9.27073 31.8376 7.47198C31.9688 6.6504 31.7878 6.02305 31.2994 5.60711C30.2953 4.75183 28.2976 5.11967 27.2978 5.37816L28.5781 2.54662C28.8182 2.036 28.6049 1.36793 28.0464 1.12223C27.5125 0.875762 26.8719 1.11194 26.6232 1.65695L25.338 4.50093C24.8621 3.56987 23.8294 1.87246 22.5425 1.68599C21.9059 1.59225 21.3169 1.87254 20.787 2.51354C19.6262 3.91737 19.1443 6.04165 19.6899 7.34981C19.6901 7.35036 19.6905 7.3508 19.6907 7.35132C19.6912 7.35249 19.6919 7.3535 19.6924 7.35464C19.7487 7.48792 19.8382 7.61241 19.9522 7.72815C17.4625 8.21175 15.827 10.8455 15.4876 11.4385C15.1673 11.9976 14.8912 12.4916 14.6454 12.9311C13.1348 15.6333 12.8205 16.1957 10.4132 17.2629C9.22217 17.8064 8.69421 18.8614 8.69876 19.893C8.70373 21.0369 9.35258 22.0399 10.3922 22.51L15.9478 25.0222L15.4479 25.8791C15.2371 25.8081 15.0122 25.7681 14.7777 25.7681C13.6145 25.7681 12.6682 26.7142 12.6682 27.8774C12.6682 29.0407 13.6145 29.9871 14.7777 29.9871C15.9411 29.9871 16.8874 29.0407 16.8874 27.8774C16.8874 27.1838 16.5494 26.5692 16.031 26.1845L16.5502 25.2946L23.0145 28.2178Z" fill="#2CB9EC"/>
<path d="M10.6631 21.9109L10.5807 22.0931L10.5807 22.0931L10.6631 21.9109ZM9.35629 19.8901L9.55629 19.8892L9.55629 19.8892L9.35629 19.8901ZM10.7025 17.8536L10.6214 17.6708L10.6199 17.6714L10.7025 17.8536ZM15.2195 13.252L15.394 13.3496L15.3941 13.3496L15.2195 13.252ZM16.0581 11.7654L16.2316 11.8648L16.2317 11.8647L16.0581 11.7654ZM21.0444 8.32224L21.0271 8.5215L21.0357 8.52224H21.0444V8.32224ZM21.0446 8.32232L21.1007 8.13033L21.0924 8.1279L21.0838 8.1262L21.0446 8.32232ZM24.3561 8.03132L24.4867 7.87983L24.3793 7.78724L24.2564 7.85798L24.3561 8.03132ZM24.6455 8.22247L24.563 8.40467L24.5631 8.40469L24.6455 8.22247ZM24.8648 8.32165L24.9473 8.13947L24.9472 8.13942L24.8648 8.32165ZM25.3336 8.42672L25.5298 8.38775L25.4986 8.23104L25.3389 8.22679L25.3336 8.42672ZM27.185 11.0338L27.3746 10.9701L27.3533 10.9066L27.298 10.8687L27.185 11.0338ZM27.3405 16.8673L27.5297 16.9321L27.5298 16.9318L27.3405 16.8673ZM26.778 18.4794L26.9665 18.546L26.9666 18.546L26.778 18.4794ZM26.3057 24.9102L26.4969 24.8516L26.4965 24.8503L26.3057 24.9102ZM25.6658 27.2655L25.5344 27.1147L25.5344 27.1148L25.6658 27.2655ZM23.2855 27.6187L23.3679 27.4364L23.3679 27.4364L23.2855 27.6187ZM22.4478 2.33662L22.4189 2.53452L22.4192 2.53457L22.4478 2.33662ZM24.9026 5.10683L25.0177 5.2704L25.1553 5.1736L25.0835 5.02147L24.9026 5.10683ZM24.4923 5.59652L24.6746 5.67894L24.6746 5.67885L24.4923 5.59652ZM24.0358 6.60594L24.218 6.68838L24.218 6.68836L24.0358 6.60594ZM23.9816 6.76727L23.8889 6.94447L24.105 7.05756L24.1736 6.8235L23.9816 6.76727ZM20.7285 6.09866L20.7908 6.2887L20.791 6.28865L20.7285 6.09866ZM20.1389 6.44186L19.94 6.46283L19.9813 6.85474L20.2732 6.59001L20.1389 6.44186ZM27.222 1.9289L27.0399 1.84624L27.0397 1.84652L27.222 1.9289ZM27.7768 1.72164L27.6935 1.90349L27.696 1.90459L27.7768 1.72164ZM27.981 2.2716L27.7999 2.18659L27.7987 2.1892L27.981 2.2716ZM26.6207 5.27972L26.4896 5.43074L26.6923 5.60676L26.803 5.36212L26.6207 5.27972ZM26.3282 5.0857L26.4106 4.90349L26.4105 4.90343L26.3282 5.0857ZM26.1089 4.98666L26.0265 5.16893L26.0265 5.16894L26.1089 4.98666ZM25.8752 4.90868L25.693 4.82631L25.5921 5.04952L25.831 5.10372L25.8752 4.90868ZM31.1884 7.36827L31.3859 7.39983L31.3859 7.39978L31.1884 7.36827ZM29.3168 10.5526L29.1168 10.5503L29.1124 10.9426L29.4324 10.7157L29.3168 10.5526ZM29.184 9.89181L29.3681 9.81376L29.3681 9.8137L29.184 9.89181ZM26.4221 7.82053L26.249 7.72032L26.1312 7.92377L26.3509 8.00743L26.4221 7.82053ZM26.4813 7.71182L26.299 7.62941L26.299 7.62943L26.4813 7.71182ZM26.9378 6.70223L27.1201 6.78464L27.1201 6.78461L26.9378 6.70223ZM27.0389 6.13396L26.9799 5.94285L26.8305 5.98894L26.8392 6.14504L27.0389 6.13396ZM25.0914 5.86733L25.2737 5.94975L25.2737 5.94973L25.0914 5.86733ZM25.8379 5.58576L25.7554 5.76793L25.7556 5.76803L25.8379 5.58576ZM26.0572 5.68479L26.1395 5.50254L26.1395 5.50252L26.0572 5.68479ZM26.3387 6.43144L26.521 6.51385L26.521 6.5138L26.3387 6.43144ZM25.8822 7.44101L26.0644 7.52345L26.0644 7.52342L25.8822 7.44101ZM25.1357 7.72258L25.0533 7.9048L25.0534 7.90483L25.1357 7.72258ZM24.9164 7.62337L24.9989 7.44115L24.9988 7.44112L24.9164 7.62337ZM20.3678 7.20971L20.1918 7.1148L20.1292 7.23092L20.2113 7.33418L20.3678 7.20971ZM20.9329 6.7236L20.9953 6.91363L20.9955 6.91354L20.9329 6.7236ZM23.9497 7.49927L24.043 7.67621L24.3619 7.50817L24.0505 7.32652L23.9497 7.49927ZM25.9998 8.36477L26.0655 8.17586L25.724 8.05715L25.8049 8.40953L25.9998 8.36477ZM28.5788 10.1487L28.7629 10.0706L28.7629 10.0705L28.5788 10.1487ZM28.5909 10.8813L28.6033 11.0809L28.7345 11.0728L28.7791 10.9492L28.5909 10.8813ZM23.0145 28.2178L22.9321 28.4L22.9321 28.4L23.0145 28.2178ZM26.0979 27.7612L25.9665 27.6105L25.9665 27.6105L26.0979 27.7612ZM26.933 24.7128L27.1243 24.6543L27.1238 24.6529L26.933 24.7128ZM27.3979 18.6983L27.5865 18.765L27.5865 18.7649L27.3979 18.6983ZM27.9627 17.0796L28.1519 17.1442L28.152 17.144L27.9627 17.0796ZM28.0032 11.4498L28.065 11.2596L27.707 11.1434L27.811 11.5051L28.0032 11.4498ZM28.9307 11.4899L28.8666 11.3004L28.8663 11.3005L28.9307 11.4899ZM31.8376 7.47198L31.6401 7.44042L31.6401 7.44043L31.8376 7.47198ZM31.2994 5.60711L31.1698 5.75937L31.1698 5.75937L31.2994 5.60711ZM27.2978 5.37816L27.1156 5.29576L26.9435 5.67635L27.3479 5.57179L27.2978 5.37816ZM28.5781 2.54662L28.3971 2.46152L28.3959 2.46422L28.5781 2.54662ZM28.0464 1.12223L27.9626 1.30385L27.9659 1.30529L28.0464 1.12223ZM26.6232 1.65695L26.4413 1.57393L26.441 1.57459L26.6232 1.65695ZM25.338 4.50093L25.1599 4.59195L25.3491 4.96207L25.5203 4.58329L25.338 4.50093ZM22.5425 1.68599L22.5134 1.88386L22.5138 1.88393L22.5425 1.68599ZM20.787 2.51354L20.9411 2.64099L20.9411 2.64097L20.787 2.51354ZM19.6899 7.34981L19.875 7.27409L19.8745 7.27282L19.6899 7.34981ZM19.6907 7.35132L19.8747 7.27301L19.8745 7.27254L19.6907 7.35132ZM19.6924 7.35464L19.8766 7.27677L19.8758 7.27489L19.6924 7.35464ZM19.9522 7.72815L19.9904 7.92448L20.3565 7.85336L20.0947 7.58775L19.9522 7.72815ZM15.4876 11.4385L15.6611 11.5379L15.6611 11.5379L15.4876 11.4385ZM14.6454 12.9311L14.4709 12.8335L14.4708 12.8335L14.6454 12.9311ZM10.4132 17.2629L10.3321 17.08L10.3302 17.0809L10.4132 17.2629ZM8.69876 19.893L8.89876 19.8921L8.89876 19.8921L8.69876 19.893ZM10.3922 22.51L10.4746 22.3277L10.4746 22.3277L10.3922 22.51ZM15.9478 25.0222L16.1206 25.123L16.2324 24.9314L16.0302 24.84L15.9478 25.0222ZM15.4479 25.8791L15.3842 26.0686L15.5386 26.1206L15.6207 25.9798L15.4479 25.8791ZM16.031 26.1845L15.8582 26.0837L15.768 26.2384L15.9118 26.3451L16.031 26.1845ZM16.5502 25.2946L16.6326 25.1124L16.4683 25.0381L16.3774 25.1938L16.5502 25.2946ZM10.7456 21.7286C10.015 21.3982 9.55979 20.6949 9.55629 19.8892L9.15629 19.891C9.16047 20.8524 9.70693 21.6979 10.5807 22.0931L10.7456 21.7286ZM9.55629 19.8892C9.55383 19.3393 9.77557 18.4931 10.785 18.0358L10.6199 17.6714C9.42425 18.2131 9.15336 19.2363 9.15629 19.891L9.55629 19.8892ZM10.7835 18.0365C12.0848 17.4597 12.853 16.9942 13.4915 16.3064C14.1225 15.6268 14.6179 14.7379 15.394 13.3496L15.0449 13.1544C14.2599 14.5586 13.7893 15.3977 13.1983 16.0343C12.6149 16.6628 11.9052 17.1018 10.6214 17.6708L10.7835 18.0365ZM15.3941 13.3496C15.6387 12.9118 15.9133 12.4206 16.2316 11.8648L15.8845 11.666C15.565 12.2239 15.2895 12.7167 15.0449 13.1545L15.3941 13.3496ZM16.2317 11.8647C16.3361 11.6821 16.8747 10.7792 17.7262 9.95437C18.5814 9.12602 19.7189 8.40796 21.0271 8.5215L21.0617 8.12299C19.5816 7.99454 18.3345 8.80824 17.4479 9.66706C16.5576 10.5294 15.9972 11.469 15.8845 11.666L16.2317 11.8647ZM21.0444 8.52224C21.0211 8.52224 21.0017 8.51818 20.9876 8.51402C20.9811 8.51207 20.9758 8.51015 20.9727 8.50894C20.9697 8.5078 20.9674 8.50681 20.9674 8.50681C20.9661 8.50628 20.9718 8.50872 20.9784 8.51103C20.9859 8.51367 20.995 8.51635 21.0054 8.51843L21.0838 8.1262C21.0942 8.12828 21.1032 8.13094 21.1107 8.13356C21.1173 8.13586 21.1229 8.13828 21.1216 8.13774C21.1216 8.13773 21.1192 8.13673 21.1162 8.13558C21.1131 8.13436 21.1078 8.13244 21.1012 8.13049C21.0871 8.12631 21.0677 8.12224 21.0444 8.12224V8.52224ZM20.9886 8.5143C22.0329 8.8192 23.4318 8.79403 24.4559 8.20466L24.2564 7.85798C23.3505 8.37931 22.07 8.41333 21.1007 8.13033L20.9886 8.5143ZM24.2256 8.18281C24.3208 8.26493 24.4309 8.3449 24.563 8.40467L24.7279 8.04026C24.642 8.00136 24.5642 7.9466 24.4867 7.87983L24.2256 8.18281ZM24.5631 8.40469L24.7824 8.50388L24.9472 8.13942L24.7279 8.04024L24.5631 8.40469ZM24.7823 8.50383C24.9615 8.585 25.1473 8.62185 25.3283 8.62665L25.3389 8.22679C25.2051 8.22324 25.0725 8.1962 24.9473 8.13947L24.7823 8.50383ZM25.1374 8.46569C25.3652 9.61212 26.2377 10.6275 27.072 11.1988L27.298 10.8687C26.5197 10.3358 25.731 9.40054 25.5298 8.38775L25.1374 8.46569ZM26.9954 11.0974C27.5188 12.6566 27.6329 13.8556 27.5805 14.774C27.5281 15.692 27.3091 16.3388 27.1511 16.8029L27.5298 16.9318C27.6903 16.4602 27.9243 15.7712 27.9799 14.7968C28.0354 13.8228 27.9126 12.5729 27.3746 10.9701L26.9954 11.0974ZM27.1512 16.8026C26.9438 17.409 26.7563 17.9398 26.5894 18.4128L26.9666 18.546C27.1335 18.0731 27.3216 17.5405 27.5297 16.9321L27.1512 16.8026ZM26.5894 18.4127C26.0595 19.9122 25.7192 20.8711 25.6255 21.7938C25.5307 22.7274 25.6885 23.6118 26.1149 24.9701L26.4965 24.8503C26.0759 23.5104 25.9369 22.6874 26.0235 21.8342C26.1112 20.97 26.4306 20.0626 26.9665 18.546L26.5894 18.4127ZM26.1145 24.9687C26.4379 26.0252 25.9502 26.7525 25.5344 27.1147L25.7972 27.4163C26.2922 26.985 26.8803 26.1038 26.4969 24.8516L26.1145 24.9687ZM25.5344 27.1148C24.9269 27.6443 24.0983 27.7668 23.3679 27.4364L23.2031 27.8009C24.0767 28.1961 25.0723 28.0482 25.7972 27.4163L25.5344 27.1148ZM23.3679 27.4364L10.7455 21.7286L10.5807 22.0931L23.2031 27.8009L23.3679 27.4364ZM21.4477 3.06001C21.8059 2.62704 22.119 2.49073 22.4189 2.53452L22.4767 2.13872C21.9785 2.06598 21.5397 2.32136 21.1395 2.80504L21.4477 3.06001ZM22.4192 2.53457C22.6258 2.56442 22.8478 2.67744 23.0778 2.86228C23.3065 3.04603 23.5311 3.29105 23.742 3.56489C24.164 4.11266 24.5153 4.75477 24.7218 5.19219L25.0835 5.02147C24.8693 4.56763 24.5039 3.89842 24.0589 3.32078C23.8364 3.03192 23.59 2.76073 23.3284 2.55048C23.0681 2.34133 22.7804 2.1826 22.4764 2.13868L22.4192 2.53457ZM24.7875 4.94326C24.5847 5.086 24.4166 5.27824 24.3101 5.51419L24.6746 5.67885C24.7493 5.51355 24.8682 5.37556 25.0177 5.2704L24.7875 4.94326ZM24.3101 5.5141L23.8536 6.52352L24.218 6.68836L24.6746 5.67894L24.3101 5.5141ZM23.8536 6.52349C23.8224 6.59244 23.8034 6.66415 23.7897 6.71104L24.1736 6.8235C24.1915 6.76213 24.2014 6.72508 24.218 6.68838L23.8536 6.52349ZM24.0744 6.59007C23.7121 6.40045 23.1524 6.13848 22.5431 5.96867C21.9387 5.80023 21.257 5.71433 20.6661 5.90867L20.791 6.28865C21.27 6.13112 21.859 6.19328 22.4357 6.35399C23.0075 6.51333 23.5395 6.76159 23.8889 6.94447L24.0744 6.59007ZM20.6662 5.90861C20.4105 5.99244 20.1913 6.12431 20.0045 6.2937L20.2732 6.59001C20.42 6.45688 20.5906 6.35436 20.7908 6.2887L20.6662 5.90861ZM20.3378 6.42088C20.2299 5.39787 20.6568 4.01651 21.4478 3.05997L21.1395 2.80508C20.2878 3.83512 19.8196 5.32133 19.94 6.46283L20.3378 6.42088ZM27.4041 2.01155C27.4527 1.90453 27.579 1.85104 27.6935 1.90347L27.8601 1.53981C27.5319 1.38948 27.1742 1.55019 27.0399 1.84624L27.4041 2.01155ZM27.696 1.90459C27.8021 1.9515 27.8466 2.0873 27.7999 2.18659L28.162 2.35661C28.2964 2.07045 28.1853 1.68348 27.8576 1.5387L27.696 1.90459ZM27.7987 2.1892L26.4385 5.19731L26.803 5.36212L28.1632 2.35401L27.7987 2.1892ZM26.7518 5.1287C26.6557 5.04518 26.5443 4.96398 26.4106 4.90349L26.2457 5.26791C26.3328 5.30732 26.4115 5.36294 26.4896 5.43074L26.7518 5.1287ZM26.4105 4.90343L26.1912 4.80439L26.0265 5.16894L26.2458 5.26798L26.4105 4.90343ZM26.1912 4.8044C26.1024 4.76427 26.0113 4.73447 25.9195 4.71364L25.831 5.10372C25.8981 5.11897 25.9636 5.14048 26.0265 5.16893L26.1912 4.8044ZM26.0575 4.99105L27.4042 2.01127L27.0397 1.84652L25.693 4.82631L26.0575 4.99105ZM30.7437 6.26023C30.9737 6.45608 31.0793 6.78211 30.9909 7.33676L31.3859 7.39978C31.4848 6.77935 31.385 6.28092 31.0031 5.95569L30.7437 6.26023ZM30.9909 7.33671C30.795 8.56211 30.0401 9.79463 29.2011 10.3894L29.4324 10.7157C30.3686 10.0521 31.175 8.7194 31.3859 7.39983L30.9909 7.33671ZM29.5168 10.5548C29.5196 10.3049 29.4712 10.0569 29.3681 9.81376L28.9999 9.96987C29.0818 10.1631 29.119 10.3565 29.1168 10.5503L29.5168 10.5548ZM29.3681 9.8137C29.1144 9.21577 28.5671 8.74091 28.0149 8.38643C27.4578 8.02883 26.8682 7.77641 26.4933 7.63362L26.3509 8.00743C26.7128 8.14525 27.2741 8.38626 27.7988 8.72304C28.3283 9.06294 28.7935 9.48343 28.9999 9.96993L29.3681 9.8137ZM26.5952 7.92074C26.6126 7.89073 26.641 7.84411 26.6635 7.79421L26.299 7.62943C26.2871 7.65592 26.2728 7.67922 26.249 7.72032L26.5952 7.92074ZM26.6635 7.79423L27.1201 6.78464L26.7556 6.61982L26.299 7.62941L26.6635 7.79423ZM27.1201 6.78461C27.2186 6.56658 27.2506 6.3398 27.2386 6.12289L26.8392 6.14504C26.8482 6.3073 26.824 6.46855 26.7556 6.61985L27.1201 6.78461ZM27.0978 6.32507C27.5286 6.19218 28.2663 6.01366 28.9935 5.95474C29.357 5.92528 29.7109 5.92631 30.0193 5.97477C30.3298 6.02356 30.5767 6.11774 30.7436 6.26014L31.0032 5.95578C30.7579 5.74663 30.4295 5.63432 30.0814 5.57962C29.7311 5.52457 29.3431 5.52509 28.9612 5.55604C28.1973 5.61794 27.43 5.80397 26.9799 5.94285L27.0978 6.32507ZM24.8171 6.95917L25.2737 5.94975L24.9092 5.78491L24.4527 6.79433L24.8171 6.95917ZM25.2737 5.94973C25.3556 5.76862 25.5733 5.68544 25.7554 5.76793L25.9204 5.40358C25.5356 5.22922 25.0815 5.40389 24.9092 5.78493L25.2737 5.94973ZM25.7556 5.76803L25.9749 5.86707L26.1395 5.50252L25.9202 5.40349L25.7556 5.76803ZM25.9748 5.86705C26.1575 5.9496 26.2392 6.16607 26.1565 6.34909L26.521 6.5138C26.6945 6.12981 26.5239 5.67621 26.1395 5.50254L25.9748 5.86705ZM26.1565 6.34903L25.7 7.3586L26.0644 7.52342L26.521 6.51385L26.1565 6.34903ZM25.7 7.35857C25.6173 7.5414 25.4017 7.6233 25.2181 7.54033L25.0534 7.90483C25.4387 8.07902 25.8909 7.90693 26.0644 7.52345L25.7 7.35857ZM25.2182 7.54036L24.9989 7.44115L24.834 7.80559L25.0533 7.9048L25.2182 7.54036ZM24.9988 7.44112C24.8161 7.35857 24.7344 7.1421 24.8171 6.95911L24.4526 6.79439C24.2791 7.17835 24.4498 7.63196 24.8341 7.80562L24.9988 7.44112ZM21.2851 7.49912C20.9002 7.38677 20.635 7.22442 20.5244 7.08524L20.2113 7.33418C20.3976 7.56858 20.7569 7.76165 21.173 7.8831L21.2851 7.49912ZM20.5439 7.30461C20.6515 7.10487 20.7968 6.9788 20.9953 6.91363L20.8705 6.53358C20.5653 6.63378 20.3432 6.83393 20.1918 7.1148L20.5439 7.30461ZM20.9955 6.91354C21.3772 6.7877 21.9215 6.8712 22.4798 7.05436C23.0277 7.23413 23.5456 7.49504 23.849 7.67202L24.0505 7.32652C23.7293 7.13912 23.1855 6.86491 22.6045 6.67429C22.0338 6.48707 21.382 6.36492 20.8703 6.53366L20.9955 6.91354ZM23.8565 7.32233C23.0929 7.72467 22.0191 7.71338 21.2851 7.49912L21.173 7.8831C21.974 8.11694 23.1614 8.14074 24.043 7.67621L23.8565 7.32233ZM27.7654 10.3909C27.1131 9.97721 26.3892 9.16683 26.1948 8.32002L25.8049 8.40953C26.0297 9.38882 26.8396 10.2774 27.5512 10.7287L27.7654 10.3909ZM25.9342 8.55368C26.2846 8.67549 26.8242 8.90023 27.3183 9.19804C27.8213 9.50124 28.2377 9.85709 28.3947 10.2269L28.7629 10.0705C28.5533 9.57693 28.0398 9.16586 27.5248 8.85546C27.0009 8.53966 26.4344 8.30411 26.0655 8.17586L25.9342 8.55368ZM28.3946 10.2267C28.4755 10.4175 28.4774 10.6066 28.4028 10.8134L28.7791 10.9492C28.885 10.6555 28.8863 10.3618 28.7629 10.0706L28.3946 10.2267ZM28.5785 10.6817C28.4006 10.6927 28.1064 10.607 27.7654 10.3909L27.5512 10.7287C27.9231 10.9644 28.3036 11.0995 28.6033 11.0809L28.5785 10.6817ZM14.7777 29.1296C14.0876 29.1296 13.5257 28.5677 13.5257 27.8774H13.1257C13.1257 28.7886 13.8667 29.5296 14.7777 29.5296V29.1296ZM13.5257 27.8774C13.5257 27.1875 14.0876 26.6256 14.7777 26.6256V26.2256C13.8667 26.2256 13.1257 26.9665 13.1257 27.8774H13.5257ZM14.7777 26.6256C15.468 26.6256 16.0299 27.1875 16.0299 27.8774H16.4299C16.4299 26.9665 15.6888 26.2256 14.7777 26.2256V26.6256ZM16.0299 27.8774C16.0299 28.5677 15.468 29.1296 14.7777 29.1296V29.5296C15.6889 29.5296 16.4299 28.7886 16.4299 27.8774H16.0299ZM22.9321 28.4C24.0425 28.9017 25.3072 28.7161 26.2294 27.912L25.9665 27.6105C25.1621 28.3118 24.0645 28.4727 23.0968 28.0355L22.9321 28.4ZM26.2294 27.912C27.0647 27.1836 27.539 26.0104 27.1243 24.6543L26.7418 24.7713C27.1065 25.9639 26.6932 26.9769 25.9665 27.6105L26.2294 27.912ZM27.1238 24.6529C26.7358 23.4166 26.604 22.674 26.6847 21.8873C26.7666 21.0888 27.0675 20.2333 27.5865 18.765L27.2094 18.6317C26.6967 20.0821 26.3747 20.9895 26.2868 21.8465C26.1976 22.7151 26.3491 23.5204 26.7422 24.7727L27.1238 24.6529ZM27.5865 18.7649C27.7541 18.2902 27.9432 17.7556 28.1519 17.1442L27.7734 17.0149C27.5654 17.6241 27.377 18.1568 27.2093 18.6318L27.5865 18.7649ZM28.152 17.144C28.4814 16.177 29.0682 14.4296 28.1955 11.3945L27.811 11.5051C28.6529 14.4325 28.0882 16.0908 27.7733 17.0151L28.152 17.144ZM27.9415 11.64C28.2611 11.7438 28.6343 11.8019 28.995 11.6792L28.8663 11.3005C28.6226 11.3834 28.347 11.3511 28.065 11.2596L27.9415 11.64ZM28.9947 11.6793C29.7183 11.4345 30.404 10.8458 30.9419 10.1023C31.4816 9.35637 31.886 8.4365 32.035 7.50353L31.6401 7.44043C31.5017 8.30621 31.1241 9.16814 30.6178 9.86787C30.1098 10.5701 29.4857 11.091 28.8666 11.3004L28.9947 11.6793ZM32.035 7.50354C32.1736 6.63634 31.9864 5.92947 31.4291 5.45485L31.1698 5.75937C31.5892 6.11662 31.7641 6.66446 31.6401 7.44042L32.035 7.50354ZM31.4291 5.45485C30.8696 4.97825 30.0563 4.85734 29.2923 4.87502C28.5206 4.89289 27.7544 5.05352 27.2477 5.18453L27.3479 5.57179C27.8409 5.44431 28.5736 5.29177 29.3016 5.27492C30.0375 5.25788 30.7252 5.38069 31.1698 5.75937L31.4291 5.45485ZM27.48 5.46056L28.7604 2.62902L28.3959 2.46422L27.1156 5.29576L27.48 5.46056ZM28.7591 2.63171C29.0443 2.02507 28.794 1.23263 28.127 0.939162L27.9659 1.30529C28.4158 1.50322 28.592 2.04692 28.3971 2.46153L28.7591 2.63171ZM28.1303 0.940638C27.4949 0.647373 26.7355 0.928908 26.4413 1.57393L26.8052 1.73996C27.0082 1.29496 27.53 1.10415 27.9626 1.30382L28.1303 0.940638ZM26.441 1.57459L25.1558 4.41857L25.5203 4.58329L26.8055 1.73931L26.441 1.57459ZM25.5161 4.40991C25.2749 3.93803 24.8896 3.26564 24.3969 2.68485C23.909 2.10979 23.2885 1.592 22.5712 1.48806L22.5138 1.88393C23.0834 1.96646 23.6227 2.39061 24.0919 2.94363C24.5562 3.49093 24.9252 4.13277 25.1599 4.59195L25.5161 4.40991ZM22.5717 1.48813C21.8447 1.38109 21.1918 1.70991 20.6328 2.38611L20.9411 2.64097C21.4419 2.03516 21.967 1.80341 22.5134 1.88386L22.5717 1.48813ZM20.6328 2.38609C20.0308 3.11423 19.6072 4.02542 19.4035 4.92331C19.2005 5.81825 19.2113 6.72184 19.5053 7.4268L19.8745 7.27282C19.6229 6.66963 19.6018 5.857 19.7936 5.0118C19.9846 4.16956 20.3824 3.31669 20.9411 2.64099L20.6328 2.38609ZM19.5048 7.42554C19.5081 7.43357 19.5113 7.43995 19.5135 7.44414C19.5156 7.44802 19.5174 7.45114 19.5175 7.4512C19.5181 7.45222 19.5165 7.44958 19.5149 7.4467C19.5131 7.44337 19.5101 7.43758 19.5069 7.43011L19.8745 7.27254C19.8712 7.2648 19.868 7.25877 19.8661 7.25519C19.8644 7.25206 19.8627 7.24918 19.8631 7.24996C19.8632 7.24997 19.8636 7.25072 19.8641 7.25168C19.8647 7.2527 19.8656 7.25429 19.8667 7.25627C19.8688 7.26021 19.8718 7.26633 19.875 7.27409L19.5048 7.42554ZM19.5067 7.42963C19.5095 7.43621 19.5121 7.44147 19.5139 7.44486C19.5155 7.44801 19.517 7.45063 19.517 7.4507C19.5175 7.45154 19.5164 7.44958 19.5152 7.44732C19.5138 7.44475 19.5115 7.44023 19.509 7.43438L19.8758 7.27489C19.873 7.26848 19.8704 7.26341 19.8688 7.26029C19.868 7.25871 19.8672 7.25742 19.8668 7.25662C19.8666 7.25621 19.8664 7.25588 19.8663 7.25566C19.8662 7.25555 19.8662 7.25546 19.8661 7.2554C19.8661 7.25537 19.8661 7.25534 19.8661 7.25532C19.8661 7.2553 19.8661 7.25529 19.8661 7.25528C19.8658 7.25481 19.867 7.25688 19.8683 7.25948C19.8698 7.26232 19.8722 7.26701 19.8747 7.27301L19.5067 7.42963ZM19.5082 7.43251C19.5766 7.59438 19.6825 7.73941 19.8098 7.86855L20.0947 7.58775C19.9938 7.48541 19.9209 7.38145 19.8766 7.27677L19.5082 7.43251ZM19.9141 7.53182C18.6119 7.78475 17.5456 8.59636 16.7694 9.40368C15.9913 10.2129 15.4881 11.0349 15.314 11.3392L15.6611 11.5379C15.8264 11.2491 16.3108 10.4577 17.0577 9.68092C17.8065 8.90221 18.8028 8.15515 19.9904 7.92448L19.9141 7.53182ZM15.314 11.3391C14.9932 11.8992 14.7166 12.3941 14.4709 12.8335L14.82 13.0287C15.0658 12.5892 15.3414 12.096 15.6611 11.5379L15.314 11.3391ZM14.4708 12.8335C13.7109 14.1929 13.2673 14.9839 12.719 15.574C12.1787 16.1556 11.5283 16.5497 10.3321 17.08L10.4942 17.4457C11.7053 16.9088 12.4158 16.4882 13.0121 15.8463C13.6005 15.2129 14.0693 14.3715 14.82 13.0287L14.4708 12.8335ZM10.3302 17.0809C9.06121 17.66 8.49389 18.7909 8.49876 19.8939L8.89876 19.8921C8.89452 18.9319 9.38313 17.9528 10.4962 17.4448L10.3302 17.0809ZM8.49876 19.8939C8.50407 21.1158 9.1986 22.1898 10.3098 22.6922L10.4746 22.3277C9.50656 21.8901 8.90339 20.9581 8.89876 19.8921L8.49876 19.8939ZM10.3098 22.6922L15.8654 25.2044L16.0302 24.84L10.4746 22.3277L10.3098 22.6922ZM15.7751 24.9214L15.2752 25.7783L15.6207 25.9798L16.1206 25.123L15.7751 24.9214ZM15.5117 25.6895C15.2816 25.6121 15.0352 25.5681 14.7777 25.5681V25.9681C14.9892 25.9681 15.1926 26.0042 15.3842 26.0686L15.5117 25.6895ZM14.7777 25.5681C13.5041 25.5681 12.4682 26.6037 12.4682 27.8774H12.8682C12.8682 26.8247 13.7249 25.9681 14.7777 25.9681V25.5681ZM12.4682 27.8774C12.4682 29.1511 13.504 30.1871 14.7777 30.1871V29.7871C13.725 29.7871 12.8682 28.9302 12.8682 27.8774H12.4682ZM14.7777 30.1871C16.0515 30.1871 17.0874 29.1511 17.0874 27.8774H16.6874C16.6874 28.9302 15.8306 29.7871 14.7777 29.7871V30.1871ZM17.0874 27.8774C17.0874 27.1171 16.7166 26.4443 16.1502 26.0239L15.9118 26.3451C16.3821 26.6941 16.6874 27.2505 16.6874 27.8774H17.0874ZM16.2037 26.2853L16.7229 25.3954L16.3774 25.1938L15.8582 26.0837L16.2037 26.2853ZM16.4678 25.4768L22.9321 28.4L23.0969 28.0355L16.6326 25.1124L16.4678 25.4768Z" fill="#2CB9EC"/>
</svg>
