<svg width="57" height="49" viewBox="0 0 57 49" fill="none" xmlns="http://www.w3.org/2000/svg">
<path fill-rule="evenodd" clip-rule="evenodd" d="M45.2466 45.1494C45.2466 45.4294 45.4731 45.6559 45.753 45.6559H50.6096C50.8895 45.6559 51.1161 45.4294 51.1161 45.1494C51.1161 44.8695 50.8895 44.6429 50.6096 44.6429H45.753C45.4731 44.6429 45.2466 44.8695 45.2466 45.1494Z" fill="white"/>
<path d="M45.2466 45.1494C45.2466 45.4294 45.4731 45.6559 45.753 45.6559H50.6096C50.8895 45.6559 51.1161 45.4294 51.1161 45.1494C51.1161 44.8695 50.8895 44.6429 50.6096 44.6429H45.753C45.4731 44.6429 45.2466 44.8695 45.2466 45.1494" stroke="white" stroke-width="0.4"/>
<path fill-rule="evenodd" clip-rule="evenodd" d="M56.078 47.7164H45.7531C45.4731 47.7164 45.2466 47.9429 45.2466 48.2229C45.2466 48.5028 45.4731 48.7294 45.7531 48.7294H56.078C56.3579 48.7294 56.5844 48.5028 56.5844 48.2229C56.5844 47.9429 56.3579 47.7164 56.078 47.7164Z" fill="white"/>
<path d="M56.078 47.7164H45.7531C45.4731 47.7164 45.2466 47.9429 45.2466 48.2229C45.2466 48.5028 45.4731 48.7294 45.7531 48.7294H56.078C56.3579 48.7294 56.5844 48.5028 56.5844 48.2229C56.5844 47.9429 56.3579 47.7164 56.078 47.7164" stroke="white" stroke-width="0.4"/>
<path fill-rule="evenodd" clip-rule="evenodd" d="M11.8315 19.5023H6.97476C6.69504 19.5023 6.46826 19.7291 6.46826 20.0088C6.46826 20.2885 6.69504 20.5153 6.97476 20.5153H11.8315C12.1112 20.5153 12.338 20.2885 12.338 20.0088C12.338 19.7291 12.1112 19.5023 11.8315 19.5023Z" fill="white"/>
<path d="M11.8315 19.5023H6.97476C6.69504 19.5023 6.46826 19.7291 6.46826 20.0088C6.46826 20.2885 6.69504 20.5153 6.97476 20.5153H11.8315C12.1112 20.5153 12.338 20.2885 12.338 20.0088C12.338 19.7291 12.1112 19.5023 11.8315 19.5023" stroke="white" stroke-width="0.4"/>
<path fill-rule="evenodd" clip-rule="evenodd" d="M15.8866 33.214C14.6508 32.6551 13.8793 31.4621 13.8734 30.101C13.8692 29.1731 14.2487 27.7332 15.9472 26.9637C19.9295 25.1987 20.5008 24.1766 22.9058 19.8748C23.2827 19.2003 23.7064 18.4424 24.1977 17.5845C24.5323 16.9997 27.5838 11.9074 31.8793 12.2802C31.8794 12.2802 31.8795 12.2803 31.8797 12.2803C33.4307 12.7332 35.4946 12.6876 36.9812 11.832C37.1143 11.9467 37.259 12.0505 37.427 12.1265L37.7648 12.2793C37.9993 12.3855 38.2446 12.4347 38.487 12.4412C38.8174 14.1044 40.097 15.6069 41.3392 16.4574C42.9743 21.3285 42.0694 24.0028 41.5787 25.4443C41.2587 26.38 40.9693 27.1992 40.7122 27.9277C39.0701 32.574 38.6798 33.678 39.9846 37.8346C40.5291 39.6129 39.7003 40.8518 38.9988 41.4631C37.9725 42.3578 36.5673 42.566 35.3318 42.0071L15.8866 33.214ZM32.2633 3.97714C32.8474 3.27108 33.4266 2.96937 34.0414 3.05912C35.6147 3.28644 37.1751 5.95373 37.8231 7.32674C37.5517 7.51769 37.3306 7.77206 37.191 8.08113L36.4877 9.63618C36.4509 9.71755 36.4287 9.80133 36.4043 9.88472C35.3078 9.31088 33.041 8.31263 31.3928 8.85469C31.0415 8.96983 30.7413 9.15038 30.4844 9.38341C30.3085 7.71615 30.998 5.50734 32.2633 3.97714ZM41.3962 2.43101C41.5371 2.12053 41.9099 1.95554 42.2509 2.11173C42.5851 2.25938 42.7049 2.66205 42.5654 2.95896L40.4699 7.59308C40.3357 7.47653 40.1893 7.37114 40.0192 7.29419L39.6814 7.14162C39.5644 7.0888 39.4439 7.04927 39.3214 7.02149L41.3962 2.43101ZM47.0213 8.86902C47.4927 9.2704 47.6509 9.90545 47.5065 10.8106C47.1932 12.7709 45.9906 14.7468 44.6233 15.7161C44.6271 15.3743 44.5612 15.0343 44.4187 14.6982C43.71 13.0276 41.299 11.9396 40.1639 11.5073C40.1956 11.4525 40.2285 11.3987 40.2551 11.3398L40.9584 9.78452C41.087 9.50004 41.1303 9.20115 41.1141 8.90908C42.4711 8.4904 45.7513 7.7859 47.0213 8.86902ZM37.4106 10.0534L38.114 8.49833C38.3098 8.06531 38.8272 7.8667 39.2639 8.06455L39.6017 8.21712C40.0385 8.41447 40.2329 8.93061 40.0355 9.36736L39.3322 10.9226C39.1348 11.3589 38.6205 11.5545 38.1822 11.3564L37.8444 11.2036C37.4077 11.0062 37.2133 10.4901 37.4106 10.0534ZM32.1638 11.3079C31.5469 11.1278 31.0659 10.8541 30.8371 10.5663C31.0366 10.1961 31.3196 9.94483 31.7076 9.81745C33.0839 9.36363 35.393 10.4511 36.3552 11.0124C35.0879 11.6801 33.3462 11.6531 32.1638 11.3079ZM42.0684 15.7272C41.0178 15.061 39.8363 13.7523 39.5134 12.3457C40.6216 12.731 42.9215 13.7639 43.4864 15.0939C43.6437 15.4651 43.6442 15.837 43.5051 16.2225C43.1371 16.2454 42.6175 16.0753 42.0684 15.7272ZM22.2253 44.6429C20.9919 44.6429 19.9884 43.6393 19.9884 42.4058C19.9884 41.1727 20.9919 40.1692 22.2253 40.1692C23.4588 40.1692 24.4624 41.1727 24.4624 42.4058C24.4624 43.6393 23.4588 44.6429 22.2253 44.6429ZM34.9143 42.9301C36.515 43.6532 38.3346 43.3864 39.6646 42.2268C40.8677 41.1777 41.5515 39.4937 40.951 37.5305C39.7477 33.6968 40.0781 32.7615 41.6672 28.265C41.9254 27.5335 42.2162 26.7115 42.5372 25.7712C43.0334 24.3144 43.9205 21.6911 42.5997 17.0984C43.0632 17.2488 43.5628 17.3183 44.0284 17.1601C46.0969 16.4602 48.0639 13.7414 48.5066 10.9704C48.7089 9.70467 48.43 8.73821 47.6777 8.09744C46.1307 6.77985 43.0531 7.34652 41.513 7.74474L43.4854 3.38264C43.8552 2.596 43.5266 1.56681 42.6663 1.1883C41.8437 0.808611 40.8568 1.17245 40.4737 2.01206L38.4938 6.39333C37.7607 4.95899 36.1698 2.34407 34.1873 2.0568C33.2065 1.91239 32.2991 2.34418 31.4828 3.33168C29.6945 5.49434 28.9521 8.76688 29.7927 10.7822C29.793 10.783 29.7936 10.7837 29.7939 10.7845C29.7947 10.7863 29.7958 10.7878 29.7966 10.7896C29.8833 10.9949 30.0211 11.1867 30.1968 11.365C26.3613 12.11 23.8417 16.1674 23.3188 17.081C22.8255 17.9423 22.4001 18.7033 22.0215 19.3804C19.6943 23.5433 19.2101 24.4096 15.5015 26.0536C13.6667 26.8909 12.8534 28.5163 12.8604 30.1054C12.8681 31.8677 13.8676 33.4129 15.4692 34.137L24.0279 38.0072L23.2578 39.3272C22.933 39.2179 22.5865 39.1562 22.2253 39.1562C20.4333 39.1562 18.9754 40.6138 18.9754 42.4058C18.9754 44.1978 20.4333 45.6558 22.2253 45.6558C24.0174 45.6558 25.4753 44.1978 25.4753 42.4058C25.4753 41.3372 24.9546 40.3904 24.156 39.7978L24.9558 38.4268L34.9143 42.9301Z" fill="white"/>
<path d="M15.8866 33.214L15.8042 33.3963L15.8042 33.3963L15.8866 33.214ZM13.8734 30.101L14.0733 30.1001L14.0733 30.1001L13.8734 30.101ZM15.9472 26.9637L15.8662 26.7808L15.8647 26.7815L15.9472 26.9637ZM22.9058 19.8748L23.0804 19.9724L23.0804 19.9723L22.9058 19.8748ZM24.1977 17.5845L24.3713 17.6839L24.3713 17.6838L24.1977 17.5845ZM31.8793 12.2802L31.862 12.4795L31.8707 12.4802H31.8793V12.2802ZM31.8797 12.2803L31.9358 12.0883L31.9274 12.0859L31.9189 12.0842L31.8797 12.2803ZM36.9812 11.832L37.1118 11.6805L37.0044 11.588L36.8815 11.6587L36.9812 11.832ZM37.427 12.1265L37.3445 12.3087L37.3445 12.3087L37.427 12.1265ZM37.7648 12.2793L37.8473 12.0971L37.8472 12.0971L37.7648 12.2793ZM38.487 12.4412L38.6832 12.4022L38.6521 12.2455L38.4923 12.2412L38.487 12.4412ZM41.3392 16.4574L41.5288 16.3938L41.5075 16.3303L41.4522 16.2924L41.3392 16.4574ZM41.5787 25.4443L41.7679 25.509L41.768 25.5087L41.5787 25.4443ZM40.7122 27.9277L40.9007 27.9943L40.9007 27.9943L40.7122 27.9277ZM39.9846 37.8346L40.1758 37.7761L40.1754 37.7747L39.9846 37.8346ZM38.9988 41.4631L38.8674 41.3123L38.8674 41.3124L38.9988 41.4631ZM35.3318 42.0071L35.4143 41.8249L35.4142 41.8249L35.3318 42.0071ZM34.0414 3.05912L34.0125 3.25703L34.0128 3.25707L34.0414 3.05912ZM37.8231 7.32674L37.9382 7.49031L38.0758 7.39352L38.004 7.24138L37.8231 7.32674ZM37.191 8.08113L37.3733 8.16355L37.3733 8.16346L37.191 8.08113ZM36.4877 9.63618L36.6699 9.71862L36.6699 9.7186L36.4877 9.63618ZM36.4043 9.88472L36.3116 10.0619L36.5276 10.175L36.5962 9.94095L36.4043 9.88472ZM31.3928 8.85469L31.4551 9.04474L31.4552 9.04468L31.3928 8.85469ZM30.4844 9.38341L30.2855 9.40438L30.3268 9.79629L30.6187 9.53156L30.4844 9.38341ZM41.3962 2.43101L41.2141 2.34835L41.2139 2.34864L41.3962 2.43101ZM42.2509 2.11173L42.1675 2.29357L42.17 2.29467L42.2509 2.11173ZM42.5654 2.95896L42.3844 2.87394L42.3832 2.87656L42.5654 2.95896ZM40.4699 7.59308L40.3388 7.7441L40.5415 7.92013L40.6521 7.67549L40.4699 7.59308ZM40.0192 7.29419L40.1017 7.11198L40.1015 7.11192L40.0192 7.29419ZM39.6814 7.14162L39.599 7.32389L39.599 7.3239L39.6814 7.14162ZM39.3214 7.02149L39.1392 6.93912L39.0383 7.16233L39.2772 7.21653L39.3214 7.02149ZM47.5065 10.8106L47.704 10.8421L47.704 10.8421L47.5065 10.8106ZM44.6233 15.7161L44.4233 15.7139L44.4189 16.1062L44.739 15.8793L44.6233 15.7161ZM44.4187 14.6982L44.6029 14.6201L44.6028 14.6201L44.4187 14.6982ZM40.1639 11.5073L39.9908 11.4071L39.873 11.6105L40.0927 11.6942L40.1639 11.5073ZM40.2551 11.3398L40.0729 11.2574L40.0728 11.2574L40.2551 11.3398ZM40.9584 9.78452L41.1407 9.86693L41.1407 9.8669L40.9584 9.78452ZM41.1141 8.90908L41.0551 8.71797L40.9057 8.76406L40.9144 8.92016L41.1141 8.90908ZM38.114 8.49833L38.2962 8.58075L38.2962 8.58073L38.114 8.49833ZM39.2639 8.06455L39.1814 8.24673L39.1816 8.24682L39.2639 8.06455ZM39.6017 8.21712L39.6841 8.03486L39.6841 8.03485L39.6017 8.21712ZM40.0355 9.36736L40.2177 9.44977L40.2178 9.44972L40.0355 9.36736ZM39.3322 10.9226L39.5144 11.0051L39.5144 11.005L39.3322 10.9226ZM38.1822 11.3564L38.0998 11.5386L38.0999 11.5387L38.1822 11.3564ZM37.8444 11.2036L37.9268 11.0214L37.9267 11.0213L37.8444 11.2036ZM30.8371 10.5663L30.661 10.4714L30.5984 10.5875L30.6805 10.6908L30.8371 10.5663ZM31.7076 9.81745L31.77 10.0075L31.7702 10.0074L31.7076 9.81745ZM36.3552 11.0124L36.4484 11.1893L36.7673 11.0213L36.4559 10.8396L36.3552 11.0124ZM39.5134 12.3457L39.5791 12.1568L39.2376 12.0381L39.3185 12.3905L39.5134 12.3457ZM43.4864 15.0939L43.6705 15.0159L43.6705 15.0157L43.4864 15.0939ZM43.5051 16.2225L43.5175 16.4221L43.6486 16.414L43.6932 16.2904L43.5051 16.2225ZM34.9143 42.9301L34.8319 43.1123L34.832 43.1123L34.9143 42.9301ZM39.6646 42.2268L39.5331 42.076L39.5331 42.076L39.6646 42.2268ZM40.951 37.5305L41.1423 37.472L41.1418 37.4706L40.951 37.5305ZM41.6672 28.265L41.8558 28.3317L41.8558 28.3316L41.6672 28.265ZM42.5372 25.7712L42.7265 25.8358L42.7265 25.8357L42.5372 25.7712ZM42.5997 17.0984L42.6615 16.9081L42.3035 16.7919L42.4075 17.1536L42.5997 17.0984ZM44.0284 17.1601L43.9643 16.9706L43.9641 16.9707L44.0284 17.1601ZM48.5066 10.9704L48.3091 10.9388V10.9388L48.5066 10.9704ZM47.6777 8.09744L47.548 8.2497L47.548 8.2497L47.6777 8.09744ZM41.513 7.74474L41.3307 7.66234L41.1586 8.04292L41.563 7.93837L41.513 7.74474ZM43.4854 3.38264L43.3043 3.29754L43.3031 3.30023L43.4854 3.38264ZM42.6663 1.1883L42.5825 1.36992L42.5858 1.37137L42.6663 1.1883ZM40.4737 2.01206L40.2918 1.92905L40.2915 1.9297L40.4737 2.01206ZM38.4938 6.39333L38.3158 6.48435L38.5049 6.85447L38.6761 6.47569L38.4938 6.39333ZM34.1873 2.0568L34.1581 2.25467L34.1586 2.25474L34.1873 2.0568ZM31.4828 3.33168L31.6369 3.45913L31.6369 3.45911L31.4828 3.33168ZM29.7927 10.7822L29.9778 10.7064L29.9773 10.7052L29.7927 10.7822ZM29.7939 10.7845L29.978 10.7062L29.9777 10.7057L29.7939 10.7845ZM29.7966 10.7896L29.9808 10.7117L29.98 10.7098L29.7966 10.7896ZM30.1968 11.365L30.235 11.5613L30.6011 11.4902L30.3393 11.2246L30.1968 11.365ZM23.3188 17.081L23.4924 17.1804L23.4924 17.1803L23.3188 17.081ZM22.0215 19.3804L21.8469 19.2828L21.8469 19.2828L22.0215 19.3804ZM15.5015 26.0536L15.4205 25.8708L15.4185 25.8717L15.5015 26.0536ZM12.8604 30.1054L13.0604 30.1045L13.0604 30.1045L12.8604 30.1054ZM15.4692 34.137L15.5516 33.9547L15.5516 33.9547L15.4692 34.137ZM24.0279 38.0072L24.2006 38.108L24.3124 37.9164L24.1103 37.825L24.0279 38.0072ZM23.2578 39.3272L23.194 39.5168L23.3484 39.5687L23.4305 39.428L23.2578 39.3272ZM24.156 39.7978L23.9832 39.697L23.893 39.8517L24.0368 39.9584L24.156 39.7978ZM24.9558 38.4268L25.0382 38.2446L24.8739 38.1703L24.7831 38.326L24.9558 38.4268ZM15.969 33.0318C14.8049 32.5053 14.0789 31.3834 14.0733 30.1001L13.6734 30.1018C13.6796 31.5409 14.4968 32.805 15.8042 33.3963L15.969 33.0318ZM14.0733 30.1001C14.0694 29.2247 14.4243 27.8732 16.0297 27.1459L15.8647 26.7815C14.073 27.5932 13.669 29.1216 13.6734 30.1019L14.0733 30.1001ZM16.0282 27.1465C18.0282 26.2602 19.1959 25.5501 20.1646 24.5066C21.1258 23.4712 21.8823 22.1154 23.0804 19.9724L22.7312 19.7772C21.5243 21.936 20.7927 23.2421 19.8714 24.2345C18.9577 25.2188 17.8486 25.9022 15.8662 26.7808L16.0282 27.1465ZM23.0804 19.9723C23.4573 19.2979 23.8805 18.5408 24.3713 17.6839L24.0242 17.4851C23.5322 18.344 23.1081 19.1028 22.7312 19.7772L23.0804 19.9723ZM24.3713 17.6838C24.5345 17.3986 25.3701 15.9977 26.6923 14.7169C28.0182 13.4326 29.8002 12.3005 31.862 12.4795L31.8966 12.081C29.6629 11.8871 27.7714 13.1148 26.414 14.4296C25.053 15.748 24.1956 17.1856 24.0241 17.4852L24.3713 17.6838ZM31.8793 12.4802C31.8561 12.4802 31.8367 12.4762 31.8228 12.4721C31.8163 12.4701 31.8111 12.4682 31.8079 12.467C31.805 12.4659 31.8027 12.4649 31.8027 12.4649C31.8014 12.4644 31.807 12.4668 31.8136 12.4691C31.821 12.4717 31.8301 12.4744 31.8405 12.4764L31.9189 12.0842C31.9402 12.0885 31.9563 12.0956 31.9563 12.0956C31.9563 12.0956 31.9539 12.0946 31.951 12.0935C31.9478 12.0923 31.9426 12.0903 31.936 12.0884C31.922 12.0843 31.9026 12.0802 31.8793 12.0802V12.4802ZM31.8237 12.4723C33.4122 12.9361 35.5353 12.8949 37.081 12.0054L36.8815 11.6587C35.454 12.4802 33.4493 12.5302 31.9358 12.0883L31.8237 12.4723ZM36.8506 11.9835C36.9926 12.1059 37.1535 12.2223 37.3445 12.3087L37.5094 11.9443C37.3646 11.8787 37.2359 11.7876 37.1118 11.6805L36.8506 11.9835ZM37.3445 12.3087L37.6824 12.4615L37.8472 12.0971L37.5094 11.9443L37.3445 12.3087ZM37.6823 12.4615C37.9438 12.5799 38.2157 12.634 38.4817 12.6411L38.4923 12.2412C38.2734 12.2354 38.0549 12.1911 37.8473 12.0971L37.6823 12.4615ZM38.2909 12.4801C38.6345 14.2101 39.956 15.7527 41.2262 16.6225L41.4522 16.2924C40.238 15.461 39.0003 13.9986 38.6832 12.4022L38.2909 12.4801ZM41.1496 16.5211C41.9598 18.9348 42.138 20.7957 42.0564 22.2256C41.9748 23.655 41.6334 24.6628 41.3894 25.3798L41.768 25.5087C42.0146 24.7843 42.371 23.7342 42.4558 22.2484C42.5405 20.7629 42.3537 18.8511 41.5288 16.3938L41.1496 16.5211ZM41.3895 25.3796C41.0698 26.3143 40.7808 27.1325 40.5236 27.8611L40.9007 27.9943C41.1579 27.2658 41.4475 26.4458 41.7679 25.509L41.3895 25.3796ZM40.5236 27.8611C39.7055 30.1757 39.187 31.639 39.0443 33.0446C38.9005 34.4611 39.1385 35.807 39.7938 37.8945L40.1754 37.7747C39.5259 35.7056 39.3066 34.4212 39.4423 33.085C39.579 31.7379 40.0767 30.326 40.9007 27.9943L40.5236 27.8611ZM39.7934 37.8932C40.3079 39.5736 39.5293 40.7356 38.8674 41.3123L39.1302 41.6139C39.8713 40.9681 40.7502 39.6521 40.1758 37.7761L39.7934 37.8932ZM38.8674 41.3124C37.8998 42.1558 36.5781 42.3514 35.4143 41.8249L35.2494 42.1894C36.5565 42.7807 38.0452 42.5597 39.1302 41.6139L38.8674 41.3124ZM35.4142 41.8249L15.969 33.0318L15.8042 33.3963L35.2494 42.1894L35.4142 41.8249ZM32.4174 4.10463C32.9805 3.42392 33.4968 3.18174 34.0125 3.25703L34.0703 2.86122C33.3563 2.75699 32.7143 3.11824 32.1092 3.84965L32.4174 4.10463ZM34.0128 3.25707C34.3574 3.30686 34.7171 3.49333 35.0796 3.78466C35.4408 4.07489 35.7927 4.45943 36.1208 4.88535C36.7771 5.73728 37.3221 6.73381 37.6422 7.4121L38.004 7.24138C37.6761 6.54666 37.117 5.52304 36.4377 4.64124C36.098 4.20029 35.7243 3.78958 35.3302 3.47285C34.9374 3.15722 34.512 2.92504 34.07 2.86118L34.0128 3.25707ZM37.708 7.16317C37.4099 7.37291 37.1643 7.65441 37.0088 7.9988L37.3733 8.16346C37.497 7.88972 37.6935 7.66247 37.9382 7.49031L37.708 7.16317ZM37.0088 7.99871L36.3055 9.55376L36.6699 9.7186L37.3733 8.16355L37.0088 7.99871ZM36.3055 9.55373C36.2614 9.65123 36.2347 9.75234 36.2124 9.82849L36.5962 9.94095C36.6228 9.85032 36.6404 9.78387 36.6699 9.71862L36.3055 9.55373ZM36.497 9.70752C35.9423 9.41723 35.0877 9.01735 34.1591 8.75858C33.2355 8.50119 32.2104 8.37527 31.3303 8.6647L31.4552 9.04468C32.2234 8.79206 33.1558 8.89423 34.0518 9.1439C34.9428 9.39221 35.7697 9.77837 36.3116 10.0619L36.497 9.70752ZM31.3305 8.66464C30.9515 8.78887 30.627 8.98409 30.35 9.23525L30.6187 9.53156C30.8557 9.31666 31.1316 9.15079 31.4551 9.04474L31.3305 8.66464ZM30.6833 9.36243C30.5137 7.75442 31.1825 5.59803 32.4174 4.10458L32.1092 3.84969C30.8135 5.41664 30.1034 7.67788 30.2855 9.40438L30.6833 9.36243ZM41.5783 2.51366C41.6763 2.2977 41.9335 2.18632 42.1676 2.29356L42.3341 1.9299C41.8863 1.72475 41.3979 1.94336 41.2141 2.34835L41.5783 2.51366ZM42.17 2.29467C42.3935 2.39339 42.48 2.67048 42.3844 2.87395L42.7465 3.04397C42.9298 2.65363 42.7767 2.12537 42.3317 1.92878L42.17 2.29467ZM42.3832 2.87656L40.2877 7.51068L40.6521 7.67549L42.7477 3.04137L42.3832 2.87656ZM40.601 7.44206C40.4577 7.31765 40.295 7.19948 40.1017 7.11198L39.9368 7.47641C40.0835 7.54281 40.2136 7.63541 40.3388 7.7441L40.601 7.44206ZM40.1015 7.11192L39.7637 6.95935L39.599 7.3239L39.9369 7.47647L40.1015 7.11192ZM39.7637 6.95936C39.6338 6.90069 39.5004 6.85702 39.3657 6.82644L39.2772 7.21653C39.3873 7.24152 39.495 7.2769 39.599 7.32389L39.7637 6.95936ZM39.5037 7.10386L41.5784 2.51338L41.2139 2.34864L39.1392 6.93912L39.5037 7.10386ZM46.8917 9.02129C47.2871 9.35798 47.4482 9.90684 47.309 10.7791L47.704 10.8421C47.8537 9.90407 47.6983 9.18282 47.151 8.71675L46.8917 9.02129ZM47.309 10.779C47.0033 12.6922 45.8264 14.6181 44.5076 15.553L44.739 15.8793C46.1549 14.8755 47.3832 12.8495 47.704 10.8421L47.309 10.779ZM44.8233 15.7184C44.8274 15.3485 44.7559 14.9812 44.6029 14.6201L44.2346 14.7763C44.3665 15.0874 44.4268 15.4002 44.4233 15.7139L44.8233 15.7184ZM44.6028 14.6201C44.2248 13.7291 43.4038 13.0122 42.5592 12.4701C41.7098 11.9248 40.8092 11.539 40.2351 11.3204L40.0927 11.6942C40.6538 11.9079 41.5262 12.2822 42.3432 12.8067C43.165 13.3343 43.9039 13.9967 44.2346 14.7763L44.6028 14.6201ZM40.337 11.6075C40.3655 11.5583 40.4054 11.4928 40.4373 11.4222L40.0728 11.2574C40.0515 11.3046 40.0258 11.3468 39.9908 11.4071L40.337 11.6075ZM40.4373 11.4222L41.1407 9.86693L40.7762 9.70211L40.0729 11.2574L40.4373 11.4222ZM41.1407 9.8669C41.2844 9.54905 41.3315 9.2174 41.3138 8.898L40.9144 8.92016C40.9291 9.18489 40.8897 9.45102 40.7762 9.70214L41.1407 9.8669ZM41.173 9.10019C41.8419 8.89384 42.9864 8.6168 44.1165 8.52522C44.6814 8.47944 45.2359 8.48061 45.7223 8.55704C46.2108 8.63381 46.6132 8.7838 46.8916 9.0212L47.1511 8.71685C46.7945 8.41269 46.3105 8.24457 45.7844 8.16189C45.2561 8.07887 44.6676 8.07924 44.0842 8.12653C42.9174 8.22109 41.7433 8.50564 41.0551 8.71797L41.173 9.10019ZM37.5929 10.1358L38.2962 8.58075L37.9318 8.4159L37.2284 9.97095L37.5929 10.1358ZM38.2962 8.58073C38.4468 8.24768 38.8461 8.09481 39.1814 8.24673L39.3465 7.88238C38.8084 7.63859 38.1728 7.88295 37.9318 8.41593L38.2962 8.58073ZM39.1816 8.24682L39.5194 8.39939L39.6841 8.03485L39.3463 7.88228L39.1816 8.24682ZM39.5194 8.39938C39.8553 8.55117 40.0052 8.94874 39.8533 9.285L40.2178 9.44972C40.4605 8.91249 40.2217 8.27778 39.6841 8.03486L39.5194 8.39938ZM39.8533 9.28495L39.15 10.8402L39.5144 11.005L40.2177 9.44977L39.8533 9.28495ZM39.15 10.8402C38.998 11.1761 38.6019 11.3266 38.2646 11.1742L38.0999 11.5387C38.639 11.7824 39.2717 11.5416 39.5144 11.0051L39.15 10.8402ZM38.2647 11.1742L37.9268 11.0214L37.7619 11.3858L38.0998 11.5386L38.2647 11.1742ZM37.9267 11.0213C37.5909 10.8695 37.441 10.472 37.5929 10.1357L37.2284 9.97101C36.9856 10.5082 37.2245 11.1429 37.762 11.3858L37.9267 11.0213ZM32.2199 11.1159C31.6185 10.9404 31.1846 10.682 30.9936 10.4418L30.6805 10.6908C30.9472 11.0261 31.4752 11.3153 32.1078 11.4999L32.2199 11.1159ZM31.0131 10.6612C31.1908 10.3316 31.4353 10.1173 31.77 10.0075L31.6452 9.62743C31.2039 9.77232 30.8824 10.0606 30.661 10.4714L31.0131 10.6612ZM31.7702 10.0074C32.3933 9.80193 33.2609 9.941 34.1243 10.2243C34.9774 10.5041 35.7822 10.9097 36.2544 11.1851L36.4559 10.8396C35.9659 10.5538 35.1351 10.1349 34.249 9.8442C33.3732 9.55687 32.3982 9.37914 31.645 9.62751L31.7702 10.0074ZM36.2619 10.8355C35.0537 11.4721 33.3687 11.4513 32.2199 11.1159L32.1078 11.4999C33.3237 11.8549 35.1222 11.8881 36.4484 11.1893L36.2619 10.8355ZM42.1755 15.5583C41.1545 14.9109 40.0161 13.6413 39.7083 12.301L39.3185 12.3905C39.6566 13.8633 40.881 15.2111 41.9613 15.8961L42.1755 15.5583ZM39.4477 12.5346C39.9925 12.724 40.8312 13.0732 41.6004 13.5368C42.3785 14.0059 43.0462 14.569 43.3023 15.1721L43.6705 15.0157C43.3618 14.2888 42.597 13.6705 41.8069 13.1942C41.0078 12.7126 40.1424 12.3527 39.5791 12.1568L39.4477 12.5346ZM43.3022 15.1719C43.4383 15.493 43.4404 15.8126 43.317 16.1547L43.6932 16.2904C43.848 15.8615 43.8491 15.4373 43.6705 15.0159L43.3022 15.1719ZM43.4927 16.0229C43.1856 16.042 42.7091 15.8966 42.1754 15.5583L41.9613 15.8962C42.5258 16.254 43.0886 16.4488 43.5175 16.4221L43.4927 16.0229ZM22.2253 44.4429C21.1024 44.4429 20.1884 43.5289 20.1884 42.4058H19.7884C19.7884 43.7498 20.8815 44.8429 22.2253 44.8429V44.4429ZM20.1884 42.4058C20.1884 41.2832 21.1024 40.3692 22.2253 40.3692V39.9692C20.8815 39.9692 19.7884 41.0622 19.7884 42.4058H20.1884ZM22.2253 40.3692C23.3484 40.3692 24.2624 41.2832 24.2624 42.4058H24.6624C24.6624 41.0622 23.5692 39.9692 22.2253 39.9692V40.3692ZM24.2624 42.4058C24.2624 43.5289 23.3483 44.4429 22.2253 44.4429V44.8429C23.5692 44.8429 24.6624 43.7498 24.6624 42.4058H24.2624ZM34.832 43.1123C36.504 43.8677 38.4072 43.5885 39.796 42.3775L39.5331 42.076C38.2621 43.1843 36.526 43.4387 34.9967 42.7478L34.832 43.1123ZM39.796 42.3775C41.0535 41.281 41.7677 39.5169 41.1423 37.472L40.7598 37.589C41.3352 39.4704 40.682 41.0743 39.5331 42.076L39.796 42.3775ZM41.1418 37.4706C40.5427 35.5617 40.3343 34.4008 40.4609 33.1667C40.5887 31.9208 41.058 30.5888 41.8558 28.3317L41.4786 28.1984C40.6872 30.4376 40.1968 31.8215 40.063 33.1259C39.9279 34.4419 40.156 35.6655 40.7602 37.5904L41.1418 37.4706ZM41.8558 28.3316C42.1139 27.6002 42.4051 26.7772 42.7265 25.8358L42.3479 25.7066C42.0273 26.6457 41.7369 27.4668 41.4786 28.1984L41.8558 28.3316ZM42.7265 25.8357C43.23 24.3575 44.1281 21.6896 42.792 17.0431L42.4075 17.1536C43.7128 21.6926 42.8368 24.2713 42.3479 25.7067L42.7265 25.8357ZM42.538 17.2886C43.0202 17.4451 43.5687 17.5276 44.0928 17.3495L43.9641 16.9707C43.557 17.1091 43.1061 17.0525 42.6615 16.9081L42.538 17.2886ZM44.0925 17.3495C45.179 16.982 46.2187 16.0934 47.0393 14.9592C47.8616 13.8225 48.4774 12.421 48.7041 11.0019L48.3091 10.9388C48.0932 12.2907 47.5041 13.6342 46.7152 14.7247C45.9245 15.8176 44.9464 16.6384 43.9643 16.9706L44.0925 17.3495ZM48.7041 11.0019C48.9137 9.69061 48.6286 8.64464 47.8073 7.94518L47.548 8.2497C48.2314 8.83179 48.5041 9.71873 48.3091 10.9388L48.7041 11.0019ZM47.8074 7.94519C46.9764 7.23742 45.7575 7.05064 44.5882 7.07771C43.411 7.10497 42.2398 7.35024 41.4629 7.5511L41.563 7.93837C42.3263 7.74102 43.464 7.50385 44.5974 7.47761C45.7387 7.45119 46.832 7.63986 47.548 8.2497L47.8074 7.94519ZM41.6952 7.82714L43.6676 3.46504L43.3031 3.30023L41.3307 7.66234L41.6952 7.82714ZM43.6664 3.46773C44.0813 2.58508 43.7158 1.43152 42.7468 1.00524L42.5858 1.37137C43.3375 1.7021 43.629 2.60693 43.3044 3.29754L43.6664 3.46773ZM42.7501 1.00671C41.8261 0.580223 40.7205 0.989419 40.2918 1.92905L40.6557 2.09507C40.9931 1.35548 41.8613 1.037 42.5825 1.36989L42.7501 1.00671ZM40.2915 1.9297L38.3116 6.31097L38.6761 6.47569L40.656 2.09442L40.2915 1.9297ZM38.6719 6.30231C38.3021 5.57879 37.713 4.5512 36.9616 3.66553C36.215 2.78557 35.2811 2.01321 34.216 1.85887L34.1586 2.25474C35.076 2.38767 35.9287 3.06639 36.6566 3.9243C37.3796 4.77649 37.9524 5.77353 38.3158 6.48435L38.6719 6.30231ZM34.2164 1.85894C33.1454 1.70123 32.1741 2.18156 31.3286 3.20425L31.6369 3.45911C32.4242 2.50681 33.2676 2.12355 34.1581 2.25467L34.2164 1.85894ZM31.3287 3.20423C30.4128 4.31177 29.7673 5.69974 29.4569 7.06794C29.1472 8.43319 29.1666 9.80062 29.6081 10.8591L29.9773 10.7052C29.5782 9.74841 29.5486 8.47193 29.847 7.15643C30.1447 5.84388 30.7645 4.51424 31.6369 3.45913L31.3287 3.20423ZM29.6076 10.8579C29.6109 10.866 29.6142 10.8724 29.6164 10.8767C29.6185 10.8806 29.6204 10.8838 29.6205 10.8839C29.6211 10.885 29.6196 10.8825 29.618 10.8796C29.6163 10.8764 29.6133 10.8707 29.6101 10.8633L29.9777 10.7057C29.9744 10.6979 29.9712 10.6918 29.9692 10.6881C29.9675 10.685 29.9657 10.682 29.9662 10.6827C29.9662 10.6827 29.9663 10.6829 29.9664 10.6832C29.9666 10.6834 29.9668 10.6838 29.9671 10.6843C29.9677 10.6853 29.9685 10.6869 29.9696 10.6888C29.9716 10.6927 29.9747 10.6987 29.9778 10.7064L29.6076 10.8579ZM29.6099 10.8628C29.6128 10.8695 29.6155 10.8749 29.6173 10.8785C29.6191 10.8818 29.6206 10.8845 29.6207 10.8848C29.6213 10.8857 29.6203 10.8839 29.6191 10.8818C29.6179 10.8794 29.6156 10.875 29.6131 10.8693L29.98 10.7098C29.9771 10.7033 29.9744 10.698 29.9727 10.6948C29.9718 10.6931 29.9711 10.6918 29.9706 10.6909C29.9702 10.6901 29.9697 10.6893 29.9697 10.6893C29.9694 10.6887 29.9705 10.6906 29.9718 10.6931C29.9732 10.6958 29.9755 10.7003 29.978 10.7062L29.6099 10.8628ZM29.6123 10.8674C29.7112 11.1014 29.8654 11.3137 30.0544 11.5054L30.3393 11.2246C30.1767 11.0597 30.0555 10.8884 29.9808 10.7117L29.6123 10.8674ZM30.1587 11.1687C28.1836 11.5523 26.5599 12.7852 25.3714 14.0211C24.1811 15.259 23.4111 16.5171 23.1452 16.9816L23.4924 17.1803C23.7494 16.7313 24.5007 15.5038 25.6598 14.2984C26.8207 13.091 28.3745 11.9227 30.235 11.5613L30.1587 11.1687ZM23.1453 16.9816C22.6513 17.8439 22.2255 18.6057 21.8469 19.2828L22.196 19.478C22.5747 18.8008 22.9996 18.0407 23.4924 17.1804L23.1453 16.9816ZM21.8469 19.2828C20.6787 21.3725 19.9884 22.6046 19.133 23.5254C18.2855 24.4377 17.2673 25.052 15.4205 25.8708L15.5826 26.2364C17.4443 25.4111 18.5225 24.7703 19.4261 23.7977C20.3217 22.8336 21.0371 21.5511 22.196 19.478L21.8469 19.2828ZM15.4185 25.8717C13.5058 26.7445 12.6531 28.4458 12.6604 30.1063L13.0604 30.1045C13.0537 28.5868 13.8277 27.0373 15.5846 26.2356L15.4185 25.8717ZM12.6604 30.1063C12.6684 31.9466 13.7136 33.5627 15.3868 34.3192L15.5516 33.9547C14.0216 33.263 13.0677 31.7889 13.0604 30.1045L12.6604 30.1063ZM15.3868 34.3192L23.9455 38.1894L24.1103 37.825L15.5516 33.9547L15.3868 34.3192ZM23.8551 37.9064L23.085 39.2264L23.4305 39.428L24.2006 38.108L23.8551 37.9064ZM23.3215 39.1376C22.9774 39.0219 22.6094 38.9562 22.2253 38.9562V39.3562C22.5635 39.3562 22.8885 39.414 23.194 39.5168L23.3215 39.1376ZM22.2253 38.9562C20.3229 38.9562 18.7754 40.5033 18.7754 42.4058H19.1754C19.1754 40.7243 20.5437 39.3562 22.2253 39.3562V38.9562ZM18.7754 42.4058C18.7754 44.3082 20.3228 45.8558 22.2253 45.8558V45.4558C20.5438 45.4558 19.1754 44.0873 19.1754 42.4058H18.7754ZM22.2253 45.8558C24.1279 45.8558 25.6753 44.3082 25.6753 42.4058H25.2753C25.2753 44.0873 23.907 45.4558 22.2253 45.4558V45.8558ZM25.6753 42.4058C25.6753 41.2705 25.1218 40.2654 24.2752 39.6372L24.0368 39.9584C24.7873 40.5153 25.2753 41.4039 25.2753 42.4058H25.6753ZM24.3287 39.8986L25.1286 38.5276L24.7831 38.326L23.9832 39.697L24.3287 39.8986ZM24.8734 38.6091L34.8319 43.1123L34.9967 42.7478L25.0382 38.2446L24.8734 38.6091Z" fill="white"/>
<path fill-rule="evenodd" clip-rule="evenodd" d="M11.8316 22.5758H1.5065C1.22678 22.5758 1 22.8026 1 23.0823C1 23.362 1.22678 23.5888 1.5065 23.5888H11.8316C12.1113 23.5888 12.3381 23.362 12.3381 23.0823C12.3381 22.8026 12.1113 22.5758 11.8316 22.5758Z" fill="white"/>
<path d="M11.8316 22.5758H1.5065C1.22678 22.5758 1 22.8026 1 23.0823C1 23.362 1.22678 23.5888 1.5065 23.5888H11.8316C12.1113 23.5888 12.3381 23.362 12.3381 23.0823C12.3381 22.8026 12.1113 22.5758 11.8316 22.5758" stroke="white" stroke-width="0.4"/>
<path fill-rule="evenodd" clip-rule="evenodd" d="M1 22.5758H12.3381V23.5888H1V22.5758Z" stroke="white" stroke-width="0.4"/>
<mask id="mask0" style="mask-type:alpha" maskUnits="userSpaceOnUse" x="0" y="22" width="13" height="2">
<path fill-rule="evenodd" clip-rule="evenodd" d="M1 22.5758H12.3381V23.5888H1V22.5758Z" fill="white" stroke="white" stroke-width="0.4"/>
</mask>
<g mask="url(#mask0)">
</g>
</svg>
