<svg width="25" height="44" viewBox="0 0 25 44" fill="none" xmlns="http://www.w3.org/2000/svg">
<path fill-rule="evenodd" clip-rule="evenodd" d="M24.6726 10.53C22.728 10.3474 22.8132 11.5921 22.8132 11.5921C22.8132 11.5921 22.9236 32.5347 23.1434 33.1938C23.3643 33.8529 24.8682 33.2662 24.8682 33.2662V34.6075C24.8682 34.7702 24.7683 34.915 24.6158 34.9748L18.9472 37.16C18.6895 37.2597 18.4108 37.0697 18.4108 36.7937V35.6255C18.4108 35.444 18.5433 35.2928 18.719 35.2467C20.6614 34.7397 20.6614 33.4131 20.6614 33.4131V23.4561C20.6614 23.2399 20.4848 23.0636 20.2681 23.0636H9.85013C9.63349 23.0636 9.45786 23.2315 9.45681 23.4477C9.44208 25.5699 9.37162 35.8281 9.45996 37.0739C9.53253 38.1109 11.292 37.6973 12.1817 37.4182C12.4331 37.3405 12.6876 37.5326 12.6876 37.7949V39.3094C12.6876 39.4763 12.5824 39.6253 12.4247 39.6799L1.05702 43.6755C0.801458 43.7647 0.532227 43.5748 0.532227 43.305V41.3781C0.532227 41.1787 0.688927 41.017 0.887695 40.9918C4.43081 40.55 4.95666 37.8411 5.00503 37.5399C5.00714 37.5221 5.00819 37.5116 5.00819 37.4927C5.01134 36.6079 5.08076 7.60914 5.00819 5.70948C4.94614 4.06695 1.59758 2.84948 0.608999 2.52517C0.445988 2.47165 0.336613 2.32156 0.336613 2.15154V0.524752C0.336613 0.247673 0.615309 0.0577065 0.874023 0.158462L11.9966 4.48991C12.1481 4.54869 12.248 4.69352 12.248 4.8562V5.93828C12.248 6.15133 12.0713 6.31926 11.8578 6.32765C9.15182 6.4431 9.26435 7.76028 9.26435 7.76028V19.6631C9.26435 19.873 9.42841 20.0451 9.6377 20.0556L20.1997 20.5783C20.4238 20.5898 20.612 20.4104 20.612 20.1858V10.7378C20.612 9.48257 19.2648 8.77728 18.7032 8.53798C18.556 8.47501 18.4603 8.33437 18.4603 8.17589V6.71074L24.4117 8.76783C24.5684 8.82241 24.6736 8.96935 24.6757 9.13412L24.6967 10.5426" fill="#26A0D8"/>
<path fill-rule="evenodd" clip-rule="evenodd" d="M12.2967 37.5321C12.3504 37.5321 12.404 37.55 12.4492 37.5825C12.5176 37.6329 12.5565 37.7105 12.5565 37.7945V39.309C12.5565 39.4202 12.486 39.5199 12.3809 39.5567L1.01322 43.5512C0.933294 43.5827 0.84285 43.5691 0.77449 43.5176C0.704027 43.4673 0.663012 43.3907 0.663012 43.3046V41.3776C0.663012 41.2496 0.767128 41.1404 0.903847 41.1226C4.53426 40.6681 5.08429 37.8774 5.13371 37.5605C5.13792 37.5311 5.13897 37.5174 5.13897 37.4933C5.14002 37.2026 5.21469 7.65069 5.13897 5.70484C5.07482 3.98255 1.6863 2.74094 0.650391 2.39984C0.541016 2.36521 0.468451 2.26445 0.468451 2.1511V0.524315C0.468451 0.436153 0.509464 0.358487 0.582031 0.30811C0.6567 0.258781 0.745043 0.249335 0.827074 0.280822L11.9486 4.61227C12.0496 4.6511 12.1158 4.74871 12.1158 4.85576V5.93784C12.1158 6.07743 12.0012 6.19183 11.8529 6.19707C10.6834 6.2464 9.87049 6.52138 9.4372 7.01257C9.10487 7.38935 9.13116 7.75669 9.13221 7.77243V19.6637C9.13221 19.9429 9.35096 20.1727 9.63176 20.1874L20.1928 20.7101C20.3431 20.7175 20.4746 20.666 20.5798 20.5663C20.686 20.4656 20.7438 20.3312 20.7438 20.1864V10.7384C20.7438 9.40866 19.3525 8.67189 18.7551 8.41685C18.6552 8.37487 18.591 8.28041 18.591 8.17546V6.89607L24.369 8.89229C24.4731 8.92798 24.5436 9.02663 24.5446 9.13578L24.5636 10.39C23.8568 10.3438 23.3394 10.4781 23.0144 10.7941C22.6558 11.1436 22.681 11.5823 22.6821 11.6012C22.6937 13.738 22.7988 32.5751 23.0186 33.2353C23.067 33.3801 23.1659 33.4872 23.311 33.5554C23.7191 33.7464 24.4069 33.5628 24.7371 33.4526V34.6081C24.7371 34.7162 24.6708 34.8128 24.5678 34.8526L18.8992 37.0378C18.8172 37.0682 18.7288 37.0598 18.6562 37.0094C18.5847 36.9601 18.5427 36.8814 18.5427 36.7943V35.6262C18.5427 35.5097 18.6289 35.4058 18.753 35.3732C20.7701 34.8474 20.7933 33.4715 20.7933 33.4127V23.4567C20.7933 23.1671 20.5566 22.933 20.2674 22.933H9.85051C9.55814 22.933 9.32677 23.1587 9.32572 23.4463C9.30995 25.5044 9.24053 35.8361 9.32888 37.0829C9.34676 37.3411 9.45718 37.5405 9.6549 37.6759C10.2144 38.0579 11.3586 37.8144 12.221 37.5437C12.2462 37.5363 12.2715 37.5321 12.2967 37.5321ZM0.926983 43.8283C0.985878 43.8283 1.04372 43.8189 1.10051 43.8L12.4692 39.8044C12.6785 39.7309 12.8194 39.5315 12.8194 39.309V37.7945C12.8194 37.6266 12.7416 37.4712 12.6049 37.3715C12.4692 37.2729 12.2999 37.2445 12.1432 37.2928C11.021 37.6444 10.1671 37.7063 9.80319 37.4587C9.67278 37.3705 9.60336 37.2414 9.5918 37.0651C9.50346 35.8277 9.57287 25.5054 9.58864 23.4484C9.58969 23.3056 9.70433 23.1954 9.85051 23.1954H20.2674C20.4126 23.1954 20.5303 23.3119 20.5303 23.4567V33.4127C20.5293 33.462 20.4977 34.6469 18.6857 35.1192C18.447 35.1822 18.2797 35.39 18.2797 35.6262V36.7943C18.2797 36.9664 18.3649 37.128 18.508 37.2257C18.651 37.3233 18.8329 37.3432 18.9938 37.2823L24.6635 35.0972C24.8675 35.0174 25 34.8254 25 34.6081V33.2668C25 33.2238 24.9779 33.1818 24.9422 33.1576C24.9064 33.1356 24.8612 33.1272 24.8202 33.144C24.552 33.249 23.7769 33.4819 23.4225 33.3172C23.3425 33.2804 23.2942 33.228 23.2689 33.1513C23.0933 32.593 22.9755 17.3978 22.945 11.5907C22.944 11.5697 22.9282 11.2422 23.2027 10.9788C23.4845 10.7069 23.9672 10.6009 24.6351 10.6587C24.654 10.6681 24.675 10.6734 24.6971 10.6734H24.6982C24.7707 10.6723 24.8296 10.6135 24.8286 10.5401L24.8075 9.13159C24.8054 8.91223 24.6635 8.71702 24.4552 8.6446L18.5027 6.5875C18.4617 6.57176 18.4186 6.57911 18.3839 6.6043C18.3492 6.62948 18.3281 6.66937 18.3281 6.71135V8.17546C18.3281 8.38536 18.4554 8.57428 18.651 8.65824C19.201 8.89334 20.4809 9.5661 20.4809 10.7384V20.1864C20.4809 20.2588 20.4515 20.326 20.3989 20.3753C20.3463 20.4257 20.2832 20.4467 20.2064 20.4477L9.64438 19.925C9.50451 19.9177 9.39513 19.8023 9.39513 19.6637V7.76089C9.39408 7.73885 9.38041 7.46912 9.64228 7.17734C9.90835 6.88137 10.5089 6.51613 11.8634 6.45946C12.1516 6.44791 12.3788 6.21912 12.3788 5.93784V4.85576C12.3788 4.64166 12.2441 4.44539 12.0443 4.36773L0.922777 0.0362789C0.757664 -0.027743 0.577826 -0.0057027 0.433744 0.0919045C0.290716 0.189512 0.205528 0.351141 0.205528 0.524315V2.1511C0.205528 2.37885 0.351713 2.57931 0.568359 2.65068C2.62124 3.32239 4.82978 4.48108 4.87605 5.71534C4.95177 7.65698 4.8771 37.2015 4.87605 37.4933C4.82662 37.8165 4.3113 40.433 0.871244 40.8623C0.603065 40.8948 0.400089 41.1173 0.400089 41.3776V43.3046C0.400089 43.4767 0.482122 43.632 0.621996 43.7318C0.71139 43.7958 0.819712 43.8283 0.926983 43.8283Z" fill="#26A0D8"/>
<path fill-rule="evenodd" clip-rule="evenodd" d="M10.0126 21.7962C10.0126 23.4954 11.0674 24.8745 12.3694 24.8745C13.6714 24.8745 14.7273 23.4954 14.7273 21.7962C14.7273 20.097 13.6714 18.719 12.3694 18.719C11.0674 18.719 10.0126 20.097 10.0126 21.7962Z" fill="#26A0D8"/>
</svg>
