<svg width="34" height="30" viewBox="0 0 34 30" fill="none" xmlns="http://www.w3.org/2000/svg">
<path fill-rule="evenodd" clip-rule="evenodd" d="M3.4311 26.4096V25.7084C3.4311 25.544 3.29766 25.4106 3.13323 25.4106C2.96851 25.4106 2.83536 25.544 2.83536 25.7084V26.4096C2.83536 26.5743 2.96851 26.7075 3.13323 26.7075C3.29766 26.7075 3.4311 26.5743 3.4311 26.4096Z" fill="#2CB9EC"/>
<path d="M3.4311 26.4096V25.7084C3.4311 25.544 3.29766 25.4106 3.13323 25.4106C2.96851 25.4106 2.83536 25.544 2.83536 25.7084V26.4096C2.83536 26.5743 2.96851 26.7075 3.13323 26.7075C3.29766 26.7075 3.4311 26.5743 3.4311 26.4096" stroke="#2CB9EC" stroke-width="0.4"/>
<path fill-rule="evenodd" clip-rule="evenodd" d="M11.0252 13.033C10.7723 12.9451 10.6404 12.739 10.6404 12.5802C10.6404 12.464 10.711 12.3806 10.8519 12.3315C10.8572 12.3297 10.9904 12.2969 11.2239 12.459C11.3595 12.5528 11.5453 12.5188 11.6386 12.3836C11.7324 12.2484 11.6984 12.0631 11.5635 11.9693C11.3886 11.848 11.2311 11.7879 11.0964 11.7581V11.2392C11.0964 11.0745 10.9633 10.9413 10.7986 10.9413C10.6344 10.9413 10.5007 11.0745 10.5007 11.2392V11.8379C10.2126 11.9916 10.0446 12.2591 10.0446 12.5802C10.0446 13.0175 10.3675 13.4354 10.8295 13.5957C11.0652 13.6773 11.1694 13.8757 11.1688 14.0359C11.1682 14.1265 11.1346 14.2894 10.9043 14.3671C10.9025 14.3677 10.705 14.4348 10.5445 14.3302C10.4066 14.2405 10.2222 14.279 10.1319 14.4169C10.0423 14.5542 10.081 14.7392 10.2186 14.8288C10.3503 14.9149 10.484 14.956 10.6067 14.9742V15.2962C10.6067 15.4606 10.7402 15.5941 10.9046 15.5941C11.069 15.5941 11.2025 15.4606 11.2025 15.2962V14.8872C11.5492 14.7305 11.7631 14.4151 11.7646 14.0386C11.7666 13.5912 11.4694 13.1873 11.0252 13.033Z" fill="#2CB9EC"/>
<path d="M11.0252 13.033C10.7723 12.9451 10.6404 12.739 10.6404 12.5802C10.6404 12.464 10.711 12.3806 10.8519 12.3315C10.8572 12.3297 10.9904 12.2969 11.2239 12.459C11.3595 12.5528 11.5453 12.5188 11.6386 12.3836C11.7324 12.2484 11.6984 12.0631 11.5635 11.9693C11.3886 11.848 11.2311 11.7879 11.0964 11.7581V11.2392C11.0964 11.0745 10.9633 10.9413 10.7986 10.9413C10.6344 10.9413 10.5007 11.0745 10.5007 11.2392V11.8379C10.2126 11.9916 10.0446 12.2591 10.0446 12.5802C10.0446 13.0175 10.3675 13.4354 10.8295 13.5957C11.0652 13.6773 11.1694 13.8757 11.1688 14.0359C11.1682 14.1265 11.1346 14.2894 10.9043 14.3671C10.9025 14.3677 10.705 14.4348 10.5445 14.3302C10.4066 14.2405 10.2222 14.279 10.1319 14.4169C10.0423 14.5542 10.081 14.7392 10.2186 14.8288C10.3503 14.9149 10.484 14.956 10.6067 14.9742V15.2962C10.6067 15.4606 10.7402 15.5941 10.9046 15.5941C11.069 15.5941 11.2025 15.4606 11.2025 15.2962V14.8872C11.5492 14.7305 11.7631 14.4151 11.7646 14.0386C11.7666 13.5912 11.4694 13.1873 11.0252 13.033" stroke="#2CB9EC" stroke-width="0.4"/>
<path fill-rule="evenodd" clip-rule="evenodd" d="M17.3588 27.2983C13.9571 28.0817 6.68695 27.2539 5.02542 26.9283V20.7368C5.65154 20.3075 8.6392 18.4101 10.8724 19.6242C12.1398 20.3135 13.7814 20.2536 15.2302 20.2018C17.1533 20.1315 18.245 20.1431 18.3424 21.1752C18.3695 21.4627 18.2807 21.7114 18.071 21.9354C17.069 23.0069 13.7001 23.1552 12.4859 23.1218C12.3224 23.1203 12.1842 23.2466 12.1797 23.4114C12.1755 23.5758 12.3051 23.7128 12.4692 23.7176C12.4961 23.7179 12.6069 23.7206 12.782 23.7206C13.8517 23.7206 17.3112 23.619 18.5059 22.3426C18.5408 22.3051 18.5727 22.2666 18.6036 22.2279C19.1347 21.9604 22.6487 20.1523 23.6952 18.5876C24.7136 17.0655 25.9795 15.9389 26.5166 16.0685C26.7975 16.1376 26.8931 16.6565 26.925 16.9601C27.2887 20.4005 20.1448 26.6573 17.3588 27.2983ZM26.6596 15.4901C25.2971 15.1549 23.2853 18.1298 23.2001 18.2567C22.4384 19.3952 20.0951 20.7543 18.9372 21.3796C18.9426 21.2947 18.9435 21.2083 18.9352 21.1195C18.7806 19.4771 17.0452 19.5399 15.2088 19.6063C13.8362 19.6561 12.2813 19.7121 11.1568 19.1006C8.8921 17.8698 6.12188 19.3293 5.02542 20.0216V19.5703C5.02542 19.0601 4.61018 18.6448 4.10022 18.6448H1.29784C1.13342 18.6448 0.999969 18.778 0.999969 18.9427C0.999969 19.1074 1.13342 19.2406 1.29784 19.2406H4.10022C4.28193 19.2406 4.42967 19.3883 4.42967 19.5703V27.8824C4.42967 28.0641 4.28193 28.2119 4.10022 28.2119H1.29784C1.13342 28.2119 0.999969 28.3453 0.999969 28.5098C0.999969 28.6745 1.13342 28.8076 1.29784 28.8076H4.10022C4.61018 28.8076 5.02542 28.3927 5.02542 27.8824V27.5348C6.41588 27.7931 10.1098 28.2238 13.4072 28.2235C14.9493 28.2235 16.4038 28.1294 17.4926 27.8789C20.2258 27.2501 27.9473 20.9635 27.5175 16.8972C27.4314 16.0831 27.1427 15.6095 26.6596 15.4901Z" fill="#2CB9EC"/>
<path d="M5.02542 26.9283H4.82542V27.093L4.98696 27.1246L5.02542 26.9283ZM5.02542 20.7368L4.91233 20.5718L4.82542 20.6314V20.7368H5.02542ZM10.8724 19.6242L10.9679 19.4485L10.9679 19.4485L10.8724 19.6242ZM15.2302 20.2018L15.2374 20.4017L15.2375 20.4017L15.2302 20.2018ZM18.3424 21.1752L18.5415 21.1565L18.5415 21.1565L18.3424 21.1752ZM18.071 21.9354L17.925 21.7987L17.925 21.7988L18.071 21.9354ZM12.4859 23.1218L12.4914 22.9219L12.4877 22.9218L12.4859 23.1218ZM12.1797 23.4114L11.9798 23.4059L11.9798 23.4063L12.1797 23.4114ZM12.4692 23.7176L12.4634 23.9175L12.467 23.9176L12.4692 23.7176ZM18.5059 22.3426L18.6519 22.4793L18.6525 22.4787L18.5059 22.3426ZM18.6036 22.2279L18.5137 22.0493L18.4747 22.0689L18.4475 22.103L18.6036 22.2279ZM23.6952 18.5876L23.5289 18.4764L23.5289 18.4764L23.6952 18.5876ZM26.5166 16.0685L26.5644 15.8743L26.5635 15.8741L26.5166 16.0685ZM26.925 16.9601L26.7261 16.9809L26.7261 16.9811L26.925 16.9601ZM23.2001 18.2567L23.034 18.1452L23.0339 18.1455L23.2001 18.2567ZM18.9372 21.3796L18.7376 21.367L18.7149 21.7269L19.0323 21.5556L18.9372 21.3796ZM18.9352 21.1195L19.1343 21.1008L19.1343 21.1008L18.9352 21.1195ZM15.2088 19.6063L15.2015 19.4065L15.2015 19.4065L15.2088 19.6063ZM11.1568 19.1006L11.2524 18.9249L11.2523 18.9248L11.1568 19.1006ZM5.02542 20.0216H4.82542V20.3844L5.13219 20.1907L5.02542 20.0216ZM5.02542 27.5348L5.06194 27.3382L4.82542 27.2943V27.5348H5.02542ZM13.4072 28.2235V28.0235H13.4072L13.4072 28.2235ZM17.4926 27.8789L17.4477 27.684L17.4477 27.684L17.4926 27.8789ZM27.5175 16.8972L27.7164 16.8762L27.7163 16.8762L27.5175 16.8972ZM17.3139 27.1034C15.6442 27.4879 13.0023 27.4793 10.5518 27.3296C8.10632 27.1802 5.8829 26.8926 5.06387 26.7321L4.98696 27.1246C5.82947 27.2897 8.07189 27.5788 10.5274 27.7288C12.9777 27.8785 15.6718 27.8921 17.4037 27.4932L17.3139 27.1034ZM5.22542 26.9283V20.7368H4.82542V26.9283H5.22542ZM5.1385 20.9017C5.44493 20.6917 6.33117 20.1214 7.41075 19.7536C8.49546 19.384 9.73347 19.2327 10.7768 19.7999L10.9679 19.4485C9.77808 18.8016 8.40569 18.992 7.28175 19.3749C6.15269 19.7596 5.23203 20.3526 4.91233 20.5718L5.1385 20.9017ZM10.7768 19.7999C12.1015 20.5203 13.8033 20.453 15.2374 20.4017L15.2231 20.0019C13.7594 20.0543 12.1781 20.1067 10.9679 19.4485L10.7768 19.7999ZM15.2375 20.4017C16.208 20.3662 16.9315 20.3541 17.4253 20.4698C17.6678 20.5267 17.8342 20.6102 17.9445 20.7197C18.0512 20.8258 18.1224 20.9731 18.1433 21.194L18.5415 21.1565C18.5137 20.8613 18.4119 20.6202 18.2264 20.4359C18.0445 20.2552 17.7995 20.1467 17.5166 20.0804C16.9593 19.9498 16.1755 19.9671 15.2229 20.0019L15.2375 20.4017ZM18.1433 21.194C18.1646 21.4205 18.0983 21.6136 17.925 21.7987L18.217 22.0721C18.4631 21.8092 18.5744 21.5049 18.5415 21.1565L18.1433 21.194ZM17.925 21.7988C17.7074 22.0315 17.3452 22.2284 16.8812 22.3884C16.4212 22.5471 15.8812 22.6627 15.3285 22.7451C14.223 22.9099 13.0892 22.9383 12.4914 22.9219L12.4804 23.3218C13.0968 23.3387 14.2545 23.3096 15.3875 23.1407C15.954 23.0563 16.5201 22.9361 17.0116 22.7666C17.4989 22.5985 17.9337 22.3751 18.2171 22.072L17.925 21.7988ZM12.4877 22.9218C12.2209 22.9194 11.9874 23.1266 11.9798 23.4059L12.3796 23.4168C12.381 23.3667 12.4239 23.3213 12.4841 23.3218L12.4877 22.9218ZM11.9798 23.4063C11.9728 23.6806 12.1889 23.9095 12.4634 23.9175L12.4751 23.5177C12.4213 23.5161 12.3783 23.471 12.3797 23.4164L11.9798 23.4063ZM12.467 23.9176C12.491 23.9178 12.6055 23.9206 12.782 23.9206V23.5206C12.6082 23.5206 12.5011 23.5179 12.4715 23.5176L12.467 23.9176ZM12.782 23.9206C13.3214 23.9206 14.4658 23.8951 15.6289 23.7077C16.2104 23.614 16.8021 23.479 17.3276 23.2839C17.8507 23.0896 18.3233 22.8303 18.6519 22.4793L18.3599 22.2059C18.0911 22.4931 17.6833 22.7251 17.1883 22.9089C16.6957 23.0918 16.1316 23.2215 15.5652 23.3128C14.4325 23.4953 13.3123 23.5206 12.782 23.5206V23.9206ZM18.6525 22.4787C18.6921 22.436 18.7275 22.3933 18.7598 22.3529L18.4475 22.103C18.4178 22.14 18.3894 22.1742 18.3594 22.2065L18.6525 22.4787ZM18.6936 22.4065C18.9617 22.2715 19.9795 21.7493 21.0631 21.0632C21.6049 20.7202 22.1659 20.3345 22.6589 19.9342C23.1498 19.5356 23.5835 19.1144 23.8614 18.6988L23.5289 18.4764C23.2836 18.8432 22.8857 19.2348 22.4068 19.6237C21.93 20.0108 21.3831 20.3872 20.8492 20.7253C19.7814 21.4013 18.7766 21.9169 18.5137 22.0493L18.6936 22.4065ZM23.8614 18.6988C24.3629 17.9492 24.9233 17.3005 25.4195 16.8579C25.6681 16.6362 25.8951 16.4712 26.0859 16.3702C26.2857 16.2645 26.4095 16.2484 26.4697 16.2629L26.5635 15.8741C26.3552 15.8238 26.1193 15.9 25.8989 16.0166C25.6694 16.138 25.4156 16.3254 25.1533 16.5594C24.6276 17.0283 24.0458 17.7039 23.5289 18.4764L23.8614 18.6988ZM26.4688 16.2627C26.4825 16.2661 26.5057 16.2773 26.5364 16.3169C26.5677 16.3573 26.5983 16.4167 26.6258 16.4937C26.6809 16.6477 26.7107 16.8349 26.7261 16.9809L27.1239 16.9392C27.1074 16.7817 27.0735 16.5576 27.0025 16.3591C26.967 16.2597 26.9191 16.1575 26.8525 16.0717C26.7852 15.985 26.6912 15.9055 26.5644 15.8743L26.4688 16.2627ZM26.7261 16.9811C26.8099 17.774 26.4604 18.7627 25.805 19.8322C25.1537 20.8948 24.2193 22.007 23.1821 23.037C22.1456 24.0665 21.0118 25.0085 19.9662 25.7319C18.915 26.4592 17.9719 26.952 17.314 27.1034L17.4037 27.4932C18.1387 27.3241 19.1334 26.7945 20.1938 26.0608C21.26 25.3232 22.4118 24.3658 23.464 23.3209C24.5156 22.2765 25.473 21.1394 26.146 20.0412C26.8148 18.9499 27.2219 17.8663 27.1239 16.939L26.7261 16.9811ZM26.7074 15.2958C26.2888 15.1929 25.8493 15.349 25.4517 15.5926C25.049 15.8393 24.6534 16.1976 24.3061 16.5621C23.6103 17.2923 23.0786 18.0789 23.034 18.1452L23.3661 18.3682C23.4068 18.3076 23.9236 17.5433 24.5956 16.8381C24.9322 16.4849 25.3003 16.1544 25.6607 15.9337C26.0262 15.7097 26.3491 15.6196 26.6118 15.6843L26.7074 15.2958ZM23.0339 18.1455C22.6767 18.6793 21.9302 19.2852 21.1049 19.8451C20.287 20.4 19.4183 20.8925 18.8422 21.2036L19.0323 21.5556C19.614 21.2414 20.4959 20.7417 21.3295 20.1761C22.1558 19.6155 22.9618 18.9725 23.3663 18.3679L23.0339 18.1455ZM19.1368 21.3922C19.1427 21.3003 19.1439 21.2029 19.1343 21.1008L18.736 21.1383C18.7431 21.2137 18.7426 21.2891 18.7376 21.367L19.1368 21.3922ZM19.1343 21.1008C19.0921 20.6532 18.9398 20.3047 18.6908 20.043C18.4442 19.7838 18.1178 19.6254 17.754 19.5288C17.0361 19.3382 16.1092 19.3736 15.2015 19.4065L15.216 19.8062C16.1447 19.7726 17.0037 19.7434 17.6513 19.9154C17.9702 20.0001 18.2214 20.1299 18.401 20.3187C18.5783 20.5051 18.7009 20.7647 18.736 21.1383L19.1343 21.1008ZM15.2015 19.4065C14.5131 19.4314 13.793 19.4572 13.1057 19.4021C12.4182 19.3469 11.7798 19.2117 11.2524 18.9249L11.0613 19.2763C11.6583 19.6009 12.3596 19.7435 13.0738 19.8008C13.7882 19.8581 14.5318 19.831 15.216 19.8062L15.2015 19.4065ZM11.2523 18.9248C10.0577 18.2756 8.74062 18.342 7.60135 18.6467C6.4613 18.9516 5.4753 19.501 4.91865 19.8525L5.13219 20.1907C5.672 19.8499 6.61934 19.3234 7.70469 19.0331C8.79083 18.7427 9.9912 18.6947 11.0613 19.2763L11.2523 18.9248ZM5.22542 20.0216V19.5703H4.82542V20.0216H5.22542ZM5.22542 19.5703C5.22542 18.9496 4.72068 18.4448 4.10022 18.4448V18.8448C4.49968 18.8448 4.82542 19.1705 4.82542 19.5703H5.22542ZM4.10022 18.4448H1.29784V18.8448H4.10022V18.4448ZM1.29784 18.4448C1.02309 18.4448 0.799969 18.6674 0.799969 18.9427H1.19997C1.19997 18.8886 1.24374 18.8448 1.29784 18.8448V18.4448ZM0.799969 18.9427C0.799969 19.218 1.02309 19.4406 1.29784 19.4406V19.0406C1.24374 19.0406 1.19997 18.9968 1.19997 18.9427H0.799969ZM1.29784 19.4406H4.10022V19.0406H1.29784V19.4406ZM4.10022 19.4406C4.17135 19.4406 4.22967 19.4986 4.22967 19.5703H4.62967C4.62967 19.278 4.3925 19.0406 4.10022 19.0406V19.4406ZM4.22967 19.5703V27.8824H4.62967V19.5703H4.22967ZM4.22967 27.8824C4.22967 27.9537 4.17147 28.0119 4.10022 28.0119V28.4119C4.39238 28.4119 4.62967 28.1746 4.62967 27.8824H4.22967ZM4.10022 28.0119H1.29784V28.4119H4.10022V28.0119ZM1.29784 28.0119C1.02296 28.0119 0.799969 28.2349 0.799969 28.5098H1.19997C1.19997 28.4558 1.24387 28.4119 1.29784 28.4119V28.0119ZM0.799969 28.5098C0.799969 28.7851 1.02309 29.0076 1.29784 29.0076V28.6076C1.24374 28.6076 1.19997 28.5639 1.19997 28.5098H0.799969ZM1.29784 29.0076H4.10022V28.6076H1.29784V29.0076ZM4.10022 29.0076C4.7206 29.0076 5.22542 28.5032 5.22542 27.8824H4.82542C4.82542 28.2822 4.49977 28.6076 4.10022 28.6076V29.0076ZM5.22542 27.8824V27.5348H4.82542V27.8824H5.22542ZM4.98889 27.7315C6.39124 27.9919 10.0974 28.4238 13.4073 28.4235L13.4072 28.0235C10.1222 28.0238 6.44053 27.5942 5.06194 27.3382L4.98889 27.7315ZM13.4072 28.4235C14.9539 28.4235 16.4264 28.3294 17.5374 28.0738L17.4477 27.684C16.3813 27.9293 14.9447 28.0235 13.4072 28.0235V28.4235ZM17.5374 28.0738C18.2581 27.908 19.2784 27.3796 20.3842 26.6354C21.4958 25.8873 22.7131 24.9078 23.8307 23.8204C24.9475 22.7336 25.9703 21.5336 26.688 20.3434C27.403 19.1577 27.8306 17.9565 27.7164 16.8762L27.3186 16.9182C27.4193 17.871 27.0428 18.9805 26.3455 20.1368C25.651 21.2886 24.6531 22.462 23.5517 23.5337C22.451 24.6048 21.2522 25.5691 20.1608 26.3036C19.0635 27.0421 18.0937 27.5353 17.4477 27.684L17.5374 28.0738ZM27.7163 16.8762C27.6279 16.0396 27.3193 15.4471 26.7076 15.2959L26.6116 15.6842C26.9662 15.7719 27.2349 16.1266 27.3186 16.9182L27.7163 16.8762Z" fill="#2CB9EC"/>
<path fill-rule="evenodd" clip-rule="evenodd" d="M26.9579 10.3437C26.4486 11.1631 25.5034 11.8247 24.149 12.3105C23.0492 12.7052 21.895 12.6275 20.6812 12.6254C20.6812 12.6254 15.5938 12.8717 15.4866 12.8798C14.5867 12.9459 13.9674 12.875 13.8682 12.3198C13.8739 11.9707 14.0044 11.6665 14.2561 11.4157C14.8497 10.8239 15.5911 10.8069 16.3838 10.7116C20.9087 10.1694 21.1092 9.97374 21.1875 9.89719C21.8226 9.2654 21.7047 8.26812 21.2301 7.58093C20.7002 6.80259 19.54 6.00072 17.9223 5.90868C15.4064 5.766 13.5733 6.34804 12.4703 7.63842C12.4006 7.71438 12.2892 7.852 12.1474 8.02893C11.6318 8.66966 10.5595 10.0032 9.69146 10.4152C9.38406 10.5611 9.01112 10.4816 8.82346 10.2305C8.69895 10.0646 8.58725 9.76612 9.05074 9.09472L10.6867 6.72365C11.1895 5.99446 11.7703 5.36536 12.4122 4.85391C13.7136 3.81821 14.6564 3.53493 16.4481 3.63531C16.6098 3.64455 16.7534 3.51944 16.7624 3.35502C16.7719 3.19089 16.6465 3.05029 16.4821 3.04076C15.2206 2.96838 14.3231 3.08365 13.4595 3.48191C13.9653 2.54093 15.0439 2.04825 16.9941 1.83289C17.0695 1.82902 24.5425 1.42123 26.3565 3.1751C27.4497 4.23225 28.8327 3.92663 29.5286 3.66868V9.7131C28.8554 9.62731 27.4464 9.55702 26.9579 10.3437ZM10.9238 10.266C11.5925 9.66842 12.2168 8.89306 12.6115 8.40187C12.7426 8.23893 12.845 8.11144 12.9159 8.0334C13.8813 6.90506 15.5858 6.3811 17.871 6.50353C19.2204 6.57591 20.2695 7.22855 20.7384 7.91753C21.044 8.35957 21.1786 9.03157 20.795 9.44621C20.4551 9.57221 18.3682 9.87127 16.3477 10.1155C15.76 10.187 14.6492 10.1825 13.8355 10.9937C13.6555 11.173 13.5194 11.372 13.4253 11.5879C12.8739 10.7947 11.9592 10.2725 10.9238 10.266ZM10.9044 15.8082C9.54044 15.8082 8.43116 14.6983 8.43116 13.3343C8.43116 11.9704 9.54044 10.8605 10.9044 10.8605C12.2687 10.8605 13.3782 11.9704 13.3782 13.3343C13.3782 14.6983 12.2687 15.8082 10.9044 15.8082ZM32.7081 11.4327H30.5291C30.3179 11.4321 30.0975 11.2981 30.0978 11.1405V2.12302C30.0984 1.94757 30.3325 1.83348 30.516 1.83348H30.5178L32.7393 1.84063H32.7402C32.9044 1.84063 33.0375 1.70808 33.0381 1.54366C33.0387 1.37923 32.9058 1.24548 32.7411 1.24489L30.5196 1.23774H30.516C29.9617 1.23774 29.5298 1.64225 29.5286 2.12123V3.02527C29.0835 3.22157 27.7464 3.68983 26.7709 2.74676C24.7704 0.81357 17.2777 1.21987 16.9444 1.23953C15.1401 1.43851 13.2212 1.90527 12.669 3.85693C12.6618 3.88255 12.6636 3.90787 12.6633 3.93319C12.4608 4.06812 12.2552 4.21795 12.0414 4.38804C11.3533 4.93612 10.7322 5.60812 10.1961 6.38527L8.56044 8.75604C8.05584 9.48702 7.98376 10.1033 8.34627 10.5874C8.49253 10.7834 8.6921 10.9216 8.91372 11.0029C8.25482 11.5662 7.83542 12.4017 7.83542 13.3343C7.83542 15.0268 9.21218 16.4039 10.9044 16.4039C12.5969 16.4039 13.974 15.0268 13.974 13.3343C13.974 13.3287 13.9731 13.3227 13.9731 13.3168C14.2933 13.4609 14.6716 13.4979 15.0019 13.4979C15.2045 13.4979 20.6949 13.2208 20.6949 13.2208C21.9072 13.2256 23.1517 13.3013 24.3504 12.8711C25.8344 12.3388 26.8817 11.5945 27.464 10.6583C27.758 10.184 28.9152 10.2317 29.5286 10.3142V11.1387C29.5271 11.6278 29.984 12.0267 30.5273 12.0285H32.7063H32.7072C32.8713 12.0285 33.0044 11.8959 33.005 11.7315C33.0056 11.5671 32.8725 11.4333 32.7081 11.4327Z" fill="#2CB9EC"/>
<path d="M24.149 12.3105L24.0815 12.1223L24.0814 12.1223L24.149 12.3105ZM20.6812 12.6254L20.6815 12.4251L20.6715 12.4256L20.6812 12.6254ZM15.4866 12.8798L15.5012 13.0792L15.5015 13.0792L15.4866 12.8798ZM13.8682 12.3198L13.6683 12.3165L13.6679 12.3359L13.6713 12.355L13.8682 12.3198ZM14.2561 11.4157L14.3972 11.5574L14.3973 11.5574L14.2561 11.4157ZM16.3838 10.7116L16.36 10.513L16.3599 10.513L16.3838 10.7116ZM21.1875 9.89719L21.3273 10.0402L21.3286 10.039L21.1875 9.89719ZM21.2301 7.58093L21.0648 7.69349L21.0656 7.69457L21.2301 7.58093ZM17.9223 5.90868L17.9336 5.709L17.9336 5.709L17.9223 5.90868ZM12.4703 7.63842L12.6178 7.77373L12.6223 7.76837L12.4703 7.63842ZM12.1474 8.02893L12.3032 8.15432L12.3035 8.154L12.1474 8.02893ZM9.69146 10.4152L9.60571 10.2345L9.60568 10.2345L9.69146 10.4152ZM8.82346 10.2305L8.98367 10.1108L8.98343 10.1105L8.82346 10.2305ZM9.05074 9.09472L9.21533 9.20834L9.21536 9.2083L9.05074 9.09472ZM10.6867 6.72365L10.8513 6.83723L10.8513 6.83719L10.6867 6.72365ZM12.4122 4.85391L12.2877 4.69742L12.2876 4.69749L12.4122 4.85391ZM16.4481 3.63531L16.4595 3.43564L16.4593 3.43563L16.4481 3.63531ZM16.7624 3.35502L16.5627 3.34342L16.5626 3.34416L16.7624 3.35502ZM16.4821 3.04076L16.4936 2.8411L16.4935 2.84109L16.4821 3.04076ZM13.4595 3.48191L13.2834 3.38722L13.0002 3.91398L13.5433 3.66353L13.4595 3.48191ZM16.9941 1.83289L16.9838 1.63281L16.9721 1.6341L16.9941 1.83289ZM26.3565 3.1751L26.4956 3.03133L26.4955 3.03132L26.3565 3.1751ZM29.5286 3.66868H29.7286V3.38123L29.459 3.48115L29.5286 3.66868ZM29.5286 9.7131L29.5033 9.9115L29.7286 9.94021V9.7131H29.5286ZM12.6115 8.40187L12.4557 8.27651L12.4556 8.27659L12.6115 8.40187ZM12.9159 8.0334L13.064 8.16794L13.0679 8.16342L12.9159 8.0334ZM17.871 6.50353L17.8817 6.30381L17.8817 6.30381L17.871 6.50353ZM20.7384 7.91753L20.573 8.03005L20.5738 8.03127L20.7384 7.91753ZM20.795 9.44621L20.8645 9.63374L20.9093 9.61712L20.9417 9.58204L20.795 9.44621ZM16.3477 10.1155L16.3237 9.91697L16.3236 9.91699L16.3477 10.1155ZM13.8355 10.9937L13.9766 11.1353L13.9766 11.1353L13.8355 10.9937ZM13.4253 11.5879L13.2611 11.7021L13.4655 11.9962L13.6086 11.6678L13.4253 11.5879ZM30.5291 11.4327L30.5286 11.6327H30.5291V11.4327ZM30.0978 11.1405L30.2978 11.1409V11.1405H30.0978ZM30.0978 2.12302L29.8978 2.12234V2.12302H30.0978ZM30.5178 1.83348L30.5184 1.63348H30.5178V1.83348ZM32.7393 1.84063L32.7387 2.04063H32.7393V1.84063ZM32.7411 1.24489L32.7418 1.04489L32.7418 1.04489L32.7411 1.24489ZM30.5196 1.23774L30.5202 1.03774H30.5196V1.23774ZM29.5286 2.12123L29.3286 2.12073V2.12123H29.5286ZM29.5286 3.02527L29.6093 3.20826L29.7286 3.15565V3.02527H29.5286ZM26.7709 2.74676L26.9099 2.60297L26.9098 2.60294L26.7709 2.74676ZM16.9444 1.23953L16.9326 1.03962L16.9224 1.04073L16.9444 1.23953ZM12.669 3.85693L12.4765 3.80248L12.4764 3.80317L12.669 3.85693ZM12.6633 3.93319L12.7742 4.09963L12.8621 4.0411L12.8633 3.93554L12.6633 3.93319ZM12.0414 4.38804L11.9169 4.2315L11.9168 4.2316L12.0414 4.38804ZM10.1961 6.38527L10.0314 6.2717L10.0314 6.2717L10.1961 6.38527ZM8.56044 8.75604L8.72503 8.86966L8.72506 8.86961L8.56044 8.75604ZM8.34627 10.5874L8.50656 10.4677L8.50635 10.4675L8.34627 10.5874ZM8.91372 11.0029L9.04368 11.1549L9.30343 10.9328L8.98261 10.8151L8.91372 11.0029ZM13.9731 13.3168L14.0552 13.1344L13.7731 13.0074V13.3168H13.9731ZM20.6949 13.2208L20.6957 13.0206L20.6848 13.0211L20.6949 13.2208ZM24.3504 12.8711L24.2828 12.6829L24.2828 12.6829L24.3504 12.8711ZM27.464 10.6583L27.6338 10.7639L27.634 10.7636L27.464 10.6583ZM29.5286 10.3142H29.7286V10.1393L29.5552 10.116L29.5286 10.3142ZM29.5286 11.1387L29.7286 11.1393V11.1387H29.5286ZM30.5273 12.0285L30.5267 12.2285H30.5273V12.0285ZM26.7881 10.2381C26.3117 11.0044 25.4135 11.6445 24.0815 12.1223L24.2165 12.4988C25.5934 12.0049 26.5854 11.3219 27.1278 10.4493L26.7881 10.2381ZM24.0814 12.1223C23.0235 12.502 21.9158 12.4275 20.6815 12.4254L20.6808 12.8254C21.8742 12.8274 23.075 12.9085 24.2166 12.4988L24.0814 12.1223ZM20.6812 12.6254C20.6715 12.4256 20.6715 12.4256 20.6714 12.4256C20.6714 12.4256 20.6713 12.4256 20.6713 12.4256C20.6711 12.4257 20.6709 12.4257 20.6706 12.4257C20.6699 12.4257 20.669 12.4258 20.6678 12.4258C20.6654 12.4259 20.6617 12.4261 20.6569 12.4263C20.6473 12.4268 20.633 12.4275 20.6143 12.4284C20.577 12.4302 20.5223 12.4329 20.4527 12.4362C20.3134 12.443 20.1142 12.4526 19.8749 12.4643C19.3963 12.4875 18.757 12.5185 18.1144 12.5498C16.8323 12.6122 15.5287 12.6761 15.4716 12.6803L15.5015 13.0792C15.5014 13.0792 15.5029 13.0791 15.507 13.0789C15.5107 13.0787 15.5156 13.0784 15.5219 13.078C15.5344 13.0774 15.5515 13.0764 15.573 13.0753C15.6159 13.0731 15.676 13.07 15.7506 13.0663C15.8999 13.0588 16.1073 13.0485 16.3533 13.0364C16.8453 13.0122 17.4912 12.9806 18.1338 12.9493C18.7764 12.918 19.4157 12.887 19.8943 12.8638C20.1336 12.8522 20.3327 12.8425 20.472 12.8358C20.5417 12.8324 20.5964 12.8297 20.6337 12.8279C20.6523 12.827 20.6666 12.8263 20.6762 12.8259C20.6811 12.8256 20.6847 12.8255 20.6872 12.8253C20.6884 12.8253 20.6893 12.8252 20.6899 12.8252C20.6902 12.8252 20.6904 12.8252 20.6906 12.8252C20.6907 12.8252 20.6907 12.8252 20.6908 12.8252C20.6908 12.8252 20.6908 12.8252 20.6812 12.6254ZM15.4719 12.6803C15.0231 12.7133 14.6744 12.7088 14.4314 12.6403C14.3131 12.6069 14.2313 12.5614 14.1758 12.5074C14.1225 12.4556 14.0833 12.3862 14.0651 12.2846L13.6713 12.355C13.7028 12.531 13.7781 12.6786 13.897 12.7942C14.0136 12.9076 14.1615 12.9798 14.3229 13.0253C14.6393 13.1145 15.0501 13.1124 15.5012 13.0792L15.4719 12.6803ZM14.0682 12.323C14.073 12.027 14.1817 11.7722 14.3972 11.5574L14.1149 11.2741C13.827 11.5609 13.6748 11.9144 13.6683 12.3165L14.0682 12.323ZM14.3973 11.5574C14.9307 11.0255 15.5851 11.0091 16.4076 10.9101L16.3599 10.513C15.5971 10.6047 14.7687 10.6222 14.1148 11.2741L14.3973 11.5574ZM16.4076 10.9102C18.6709 10.639 19.8589 10.4538 20.4927 10.3258C21.1135 10.2005 21.2406 10.125 21.3273 10.0402L21.0478 9.75414C21.0414 9.76032 21.0416 9.76019 21.0377 9.76268C21.0308 9.76703 21.0121 9.7775 20.9702 9.79316C20.8847 9.82512 20.7232 9.87124 20.4136 9.93374C19.7963 10.0583 18.6216 10.242 16.36 10.513L16.4076 10.9102ZM21.3286 10.039C22.0585 9.31285 21.9001 8.19917 21.3947 7.46729L21.0656 7.69457C21.5092 8.33708 21.5867 9.21795 21.0465 9.7554L21.3286 10.039ZM21.3955 7.46838C20.829 6.63639 19.6107 5.80442 17.9336 5.709L17.9109 6.10835C19.4693 6.19702 20.5714 6.96879 21.0648 7.69349L21.3955 7.46838ZM17.9336 5.709C15.3867 5.56456 13.4786 6.151 12.3183 7.50847L12.6223 7.76837C13.668 6.54507 15.4262 5.96744 17.9109 6.10836L17.9336 5.709ZM12.323 7.5032C12.2476 7.58526 12.1314 7.72913 11.9913 7.90386L12.3035 8.154C12.447 7.97487 12.5536 7.8435 12.6177 7.77364L12.323 7.5032ZM11.9916 7.90354C11.7334 8.22435 11.3412 8.71192 10.9065 9.17021C10.4671 9.63344 10.0036 10.0456 9.60571 10.2345L9.77721 10.5959C10.2473 10.3728 10.754 9.91221 11.1967 9.44548C11.6441 8.97382 12.0458 8.47424 12.3032 8.15432L11.9916 7.90354ZM9.60568 10.2345C9.37382 10.3446 9.10762 10.2766 8.98367 10.1108L8.66326 10.3502C8.91462 10.6866 9.3943 10.7777 9.77724 10.5959L9.60568 10.2345ZM8.98343 10.1105C8.94287 10.0564 8.90634 9.98757 8.91595 9.86824C8.92645 9.738 8.99363 9.52949 9.21533 9.20834L8.88615 8.9811C8.64436 9.33135 8.53564 9.60778 8.51725 9.83611C8.49797 10.0753 8.57954 10.2387 8.6635 10.3506L8.98343 10.1105ZM9.21536 9.2083L10.8513 6.83723L10.522 6.61008L8.88612 8.98114L9.21536 9.2083ZM10.8513 6.83719C11.3438 6.12294 11.9115 5.50862 12.5369 5.01033L12.2876 4.69749C11.6292 5.22209 11.0351 5.86598 10.522 6.61012L10.8513 6.83719ZM12.5368 5.0104C13.1759 4.5018 13.7144 4.18795 14.3041 4.01006C14.895 3.83179 15.5525 3.78545 16.4369 3.835L16.4593 3.43563C15.552 3.38479 14.8423 3.4299 14.1885 3.6271C13.5336 3.82468 12.95 4.17032 12.2877 4.69742L12.5368 5.0104ZM16.4367 3.83499C16.707 3.85042 16.947 3.64268 16.9621 3.36587L16.5626 3.34416C16.5598 3.3962 16.5126 3.43867 16.4595 3.43564L16.4367 3.83499ZM16.962 3.36661C16.978 3.09186 16.768 2.857 16.4936 2.8411L16.4705 3.24043C16.525 3.24358 16.5658 3.28991 16.5627 3.34342L16.962 3.36661ZM16.4935 2.84109C15.2132 2.76763 14.2796 2.88346 13.3758 3.30029L13.5433 3.66353C14.3666 3.28385 15.2279 3.16913 16.4706 3.24043L16.4935 2.84109ZM13.6357 3.5766C14.0912 2.72924 15.0766 2.24586 17.0161 2.03168L16.9721 1.6341C15.0112 1.85065 13.8395 2.35262 13.2834 3.38722L13.6357 3.5766ZM17.0044 2.03263C17.0403 2.03078 18.9188 1.92834 21.0122 2.04453C22.0594 2.10266 23.1542 2.21518 24.0964 2.42034C25.0482 2.62759 25.8069 2.92194 26.2175 3.31889L26.4955 3.03132C25.9991 2.55133 25.1434 2.23895 24.1815 2.0295C23.21 1.81796 22.0916 1.70383 21.0344 1.64515C18.919 1.52773 17.0232 1.63113 16.9838 1.63315L17.0044 2.03263ZM26.2175 3.31887C27.3984 4.46085 28.8852 4.12048 29.5981 3.8562L29.459 3.48115C28.7802 3.73279 27.501 4.00365 26.4956 3.03133L26.2175 3.31887ZM29.3286 3.66868V9.7131H29.7286V3.66868H29.3286ZM29.5538 9.51471C29.2097 9.47085 28.669 9.42955 28.1461 9.50318C27.6312 9.57568 27.0803 9.76745 26.788 10.2382L27.1278 10.4492C27.324 10.1333 27.7219 9.96685 28.2019 9.89927C28.6738 9.83282 29.1742 9.86956 29.5033 9.9115L29.5538 9.51471ZM11.057 10.4151C11.74 9.80485 12.3741 9.01658 12.7674 8.52714L12.4556 8.27659C12.0595 8.76954 11.445 9.53199 10.7905 10.1168L11.057 10.4151ZM12.7673 8.52722C12.9005 8.36174 12.9982 8.2403 13.064 8.16788L12.7679 7.89892C12.6919 7.98258 12.5847 8.11612 12.4557 8.27651L12.7673 8.52722ZM13.0679 8.16342C13.9747 7.10361 15.6025 6.58229 17.8603 6.70324L17.8817 6.30381C15.569 6.17992 13.788 6.70651 12.764 7.90338L13.0679 8.16342ZM17.8603 6.70324C19.1559 6.77274 20.1438 7.39933 20.573 8.03005L20.9037 7.80501C20.3952 7.05776 19.2849 6.37908 17.8817 6.30381L17.8603 6.70324ZM20.5738 8.03127C20.7092 8.22711 20.8053 8.47288 20.8259 8.70946C20.8463 8.94445 20.792 9.15495 20.6482 9.31038L20.9417 9.58204C21.1816 9.32283 21.2518 8.99001 21.2244 8.67483C21.1971 8.36124 21.0731 8.04999 20.9029 7.80379L20.5738 8.03127ZM20.7254 9.25868C20.6604 9.2828 20.4851 9.32234 20.2053 9.37277C19.9332 9.42182 19.5797 9.4783 19.1722 9.53868C18.3577 9.6594 17.3327 9.795 16.3237 9.91697L16.3717 10.3141C17.3832 10.1918 18.4119 10.0557 19.2309 9.93436C19.6402 9.87369 19.9984 9.81652 20.2763 9.76643C20.5465 9.71771 20.7596 9.67262 20.8645 9.63374L20.7254 9.25868ZM16.3236 9.91699C15.7704 9.98428 14.5689 9.98021 13.6943 10.852L13.9766 11.1353C14.7296 10.3849 15.7496 10.3898 16.3719 10.3141L16.3236 9.91699ZM13.6943 10.852C13.4973 11.0483 13.3466 11.268 13.2419 11.508L13.6086 11.6678C13.6923 11.4759 13.8138 11.2977 13.9766 11.1353L13.6943 10.852ZM13.5895 11.4738C13.0028 10.6296 12.0285 10.0729 10.925 10.066L10.9225 10.4659C11.8898 10.4721 12.7451 10.9597 13.2611 11.7021L13.5895 11.4738ZM10.9044 15.6082C9.65096 15.6082 8.63116 14.5879 8.63116 13.3343H8.23116C8.23116 14.8087 9.42992 16.0082 10.9044 16.0082V15.6082ZM8.63116 13.3343C8.63116 12.0808 9.65096 11.0605 10.9044 11.0605V10.6605C9.42992 10.6605 8.23116 11.86 8.23116 13.3343H8.63116ZM10.9044 11.0605C12.1582 11.0605 13.1782 12.0808 13.1782 13.3343H13.5782C13.5782 11.8599 12.3791 10.6605 10.9044 10.6605V11.0605ZM13.1782 13.3343C13.1782 14.5879 12.1582 15.6082 10.9044 15.6082V16.0082C12.3791 16.0082 13.5782 14.8087 13.5782 13.3343H13.1782ZM32.7081 11.2327H30.5291V11.6327H32.7081V11.2327ZM30.5297 11.2327C30.4629 11.2325 30.3928 11.2103 30.3436 11.1781C30.2886 11.1421 30.2978 11.1225 30.2978 11.1409L29.8978 11.1401C29.8975 11.316 30.0168 11.4423 30.1247 11.5129C30.2384 11.5872 30.3841 11.6323 30.5286 11.6327L30.5297 11.2327ZM30.2978 11.1405V2.12302H29.8978V11.1405H30.2978ZM30.2978 2.1237C30.2978 2.13355 30.2915 2.11477 30.3436 2.08254C30.3928 2.05205 30.4607 2.03348 30.516 2.03348V1.63348C30.3879 1.63348 30.2469 1.67196 30.1331 1.74238C30.0221 1.81106 29.8984 1.93704 29.8978 2.12234L30.2978 2.1237ZM30.516 2.03348H30.5178V1.63348H30.516V2.03348ZM30.5172 2.03348L32.7387 2.04063L32.74 1.64063L30.5184 1.63349L30.5172 2.03348ZM32.7393 2.04063H32.7402V1.64063H32.7393V2.04063ZM32.7402 2.04063C33.0146 2.04063 33.2371 1.81895 33.2381 1.54438L32.8381 1.54293C32.8379 1.59721 32.7941 1.64063 32.7402 1.64063V2.04063ZM33.2381 1.54438C33.2391 1.26931 33.0168 1.04588 32.7418 1.04489L32.7404 1.44489C32.7949 1.44508 32.8383 1.48915 32.8381 1.54293L33.2381 1.54438ZM32.7418 1.04489L30.5202 1.03774L30.5189 1.43774L32.7405 1.44489L32.7418 1.04489ZM30.5196 1.03774H30.516V1.43774H30.5196V1.03774ZM30.516 1.03774C29.8696 1.03774 29.3301 1.51413 29.3286 2.12073L29.7286 2.12173C29.7294 1.77038 30.0537 1.43774 30.516 1.43774V1.03774ZM29.3286 2.12123V3.02527H29.7286V2.12123H29.3286ZM29.4479 2.84228C29.2365 2.93553 28.8166 3.09138 28.3394 3.11349C27.8661 3.13542 27.3476 3.02611 26.9099 2.60297L26.6319 2.89056C27.1697 3.41047 27.8075 3.53857 28.3579 3.51306C28.9044 3.48774 29.3757 3.31131 29.6093 3.20826L29.4479 2.84228ZM26.9098 2.60294C26.3693 2.08055 25.4811 1.73358 24.4843 1.49828C23.4801 1.26121 22.3331 1.13039 21.2451 1.06123C19.0684 0.922858 17.1026 1.02985 16.9326 1.03987L16.9561 1.43918C17.1194 1.42955 19.0667 1.32356 21.2197 1.46042C22.2966 1.52888 23.4188 1.65773 24.3924 1.88758C25.3736 2.11918 26.1722 2.44637 26.6319 2.89058L26.9098 2.60294ZM16.9224 1.04073C16.0153 1.14077 15.0553 1.31001 14.248 1.71194C13.4327 2.11791 12.7707 2.7631 12.4765 3.80248L12.8614 3.91139C13.1196 2.9991 13.6931 2.43508 14.4263 2.07001C15.1677 1.70089 16.0692 1.53726 16.9663 1.43832L16.9224 1.04073ZM12.4764 3.80317C12.46 3.86173 12.4634 3.92708 12.4633 3.93083L12.8633 3.93554C12.8634 3.92735 12.8633 3.91832 12.8633 3.91375C12.8633 3.908 12.8634 3.90495 12.8634 3.90279C12.8636 3.89871 12.8638 3.90295 12.8616 3.91069L12.4764 3.80317ZM12.5524 3.76674C12.3449 3.90498 12.1349 4.05814 11.9169 4.2315L12.1659 4.54457C12.3756 4.37776 12.5766 4.23127 12.7742 4.09963L12.5524 3.76674ZM11.9168 4.2316C11.2122 4.79278 10.578 5.47953 10.0314 6.2717L10.3607 6.49885C10.8865 5.73672 11.4943 5.07947 12.166 4.54448L11.9168 4.2316ZM10.0314 6.2717L8.39582 8.64246L8.72506 8.86961L10.3607 6.49885L10.0314 6.2717ZM8.39585 8.64242C8.13256 9.02383 7.97042 9.39159 7.92954 9.74107C7.88796 10.0966 7.97346 10.4232 8.18619 10.7072L8.50635 10.4675C8.35657 10.2675 8.29686 10.0439 8.32684 9.78753C8.35753 9.52511 8.48372 9.21923 8.72503 8.86966L8.39585 8.64242ZM8.18598 10.707C8.35794 10.9374 8.5909 11.0975 8.84482 11.1906L8.98261 10.8151C8.7933 10.7457 8.62711 10.6293 8.50656 10.4677L8.18598 10.707ZM8.78376 10.8509C8.08267 11.4502 7.63542 12.3403 7.63542 13.3343H8.03542C8.03542 12.4631 8.42697 11.6821 9.04368 11.1549L8.78376 10.8509ZM7.63542 13.3343C7.63542 15.1373 9.10169 16.6039 10.9044 16.6039V16.2039C9.32268 16.2039 8.03542 14.9164 8.03542 13.3343H7.63542ZM10.9044 16.6039C12.7074 16.6039 14.174 15.1373 14.174 13.3343H13.774C13.774 14.9164 12.4865 16.2039 10.9044 16.2039V16.6039ZM14.174 13.3343C14.174 13.3278 14.1737 13.3223 14.1735 13.3185C14.1733 13.3149 14.173 13.3116 14.173 13.3105C14.1728 13.3088 14.1729 13.3092 14.1729 13.31C14.173 13.3109 14.1731 13.3134 14.1731 13.3168H13.7731C13.7731 13.3231 13.7733 13.3286 13.7735 13.3325C13.7737 13.3362 13.774 13.3396 13.7741 13.3408C13.7742 13.3427 13.7742 13.3423 13.7742 13.3416C13.7741 13.3407 13.774 13.338 13.774 13.3343H14.174ZM13.891 13.4991C14.2494 13.6605 14.6612 13.6979 15.0019 13.6979V13.2979C14.682 13.2979 14.3372 13.2613 14.0552 13.1344L13.891 13.4991ZM15.0019 13.6979C15.1098 13.6979 16.542 13.6281 17.9343 13.5591C18.6333 13.5245 19.3259 13.4899 19.8438 13.4639C20.1028 13.4509 20.3181 13.4401 20.4686 13.4325C20.5439 13.4287 20.603 13.4257 20.6432 13.4237C20.6634 13.4227 20.6788 13.4219 20.6892 13.4214C20.6944 13.4211 20.6983 13.4209 20.701 13.4208C20.7023 13.4207 20.7033 13.4207 20.7039 13.4206C20.7043 13.4206 20.7045 13.4206 20.7047 13.4206C20.7048 13.4206 20.7048 13.4206 20.7049 13.4206C20.7049 13.4206 20.7049 13.4206 20.6949 13.2208C20.6848 13.0211 20.6848 13.0211 20.6847 13.0211C20.6847 13.0211 20.6846 13.0211 20.6845 13.0211C20.6844 13.0211 20.6841 13.0211 20.6838 13.0212C20.6831 13.0212 20.6821 13.0212 20.6808 13.0213C20.6782 13.0214 20.6742 13.0216 20.669 13.0219C20.6586 13.0224 20.6432 13.0232 20.6231 13.0242C20.5828 13.0262 20.5238 13.0292 20.4485 13.033C20.298 13.0406 20.0827 13.0514 19.8238 13.0644C19.3059 13.0904 18.6134 13.125 17.9145 13.1596C16.5109 13.2291 15.0966 13.2979 15.0019 13.2979V13.6979ZM20.6941 13.4208C21.8887 13.4255 23.1777 13.5044 24.4179 13.0594L24.2828 12.6829C23.1257 13.0981 21.9257 13.0257 20.6957 13.0208L20.6941 13.4208ZM24.4179 13.0594C25.9265 12.5183 27.0193 11.7518 27.6338 10.7639L27.2942 10.5526C26.744 11.4371 25.7422 12.1594 24.2828 12.6829L24.4179 13.0594ZM27.634 10.7636C27.6756 10.6966 27.7581 10.6323 27.8958 10.5797C28.0319 10.5276 28.2035 10.4942 28.3949 10.4766C28.7772 10.4414 29.2036 10.4723 29.5019 10.5124L29.5552 10.116C29.2402 10.0736 28.7813 10.0394 28.3582 10.0783C28.1468 10.0977 27.9357 10.1362 27.753 10.206C27.5718 10.2753 27.3994 10.3828 27.294 10.5529L27.634 10.7636ZM29.3286 10.3142V11.1387H29.7286V10.3142H29.3286ZM29.3286 11.1381C29.3267 11.761 29.8978 12.2264 30.5267 12.2285L30.528 11.8285C30.0702 11.827 29.7275 11.4947 29.7286 11.1393L29.3286 11.1381ZM30.5273 12.2285H32.7063V11.8285H30.5273V12.2285ZM32.7063 12.2285H32.7072V11.8285H32.7063V12.2285ZM32.7072 12.2285C32.9815 12.2285 33.204 12.0068 33.205 11.7322L32.805 11.7308C32.8048 11.785 32.7611 11.8285 32.7072 11.8285V12.2285ZM33.205 11.7322C33.206 11.457 32.9833 11.2337 32.7088 11.2327L32.7073 11.6327C32.7616 11.6329 32.8052 11.6771 32.805 11.7308L33.205 11.7322Z" fill="#2CB9EC"/>
</svg>
