<svg width="40" height="26" viewBox="0 0 40 26" fill="none" xmlns="http://www.w3.org/2000/svg">
<path fill-rule="evenodd" clip-rule="evenodd" d="M35.797 24.7119H4.20329C2.8088 24.7119 1.67412 23.577 1.67412 22.1827V14.0722H9.40864L9.4081 14.0764C9.1408 16.176 8.86448 18.3471 8.09536 18.7919C7.83707 18.9411 7.88517 19.3302 8.17657 19.409L11.1031 20.198C11.3005 20.2517 11.4971 20.1193 11.5251 19.9167C11.5415 19.7912 11.9246 16.8165 11.4559 14.4471C11.4294 14.3129 11.413 14.1914 11.3981 14.0722H16.671C17.9441 15.4435 19.3297 16.4895 19.4049 16.5461C19.5653 16.6672 19.798 16.6194 19.8987 16.4446L21.2722 14.0722H38.3259V22.1827C38.3259 23.577 37.1912 24.7119 35.797 24.7119ZM16.1308 12.3614C15.5301 11.5166 14.8599 11.0359 14.1346 10.9281C14.1343 10.8978 14.1291 10.8673 14.1272 10.8371C14.8105 10.7839 15.4544 10.9827 16.0273 11.401C18.1061 12.9176 19.6189 13.7141 20.6359 13.8256L19.5096 15.7718C18.8361 15.2335 17.1825 13.8392 16.1308 12.3614ZM11.6722 12.4886C12.0177 12.6545 12.3669 12.6987 12.7212 12.6352C13.195 12.5502 13.6201 12.2832 13.9003 11.7974H14.5991C15.2394 12.1596 15.498 12.6922 16.0802 13.3982H11.3738C11.4025 12.9879 11.5161 12.6976 11.6722 12.4886ZM5.88315 8.1261C4.69853 9.62797 7.16527 11.093 9.77522 11.2041C9.01956 11.5072 8.25739 11.6637 7.51758 11.6637C4.38573 11.6637 2.36077 8.84593 4.42308 6.80403C6.30517 4.9392 8.89937 7.11269 10.6245 9.11627C9.33431 8.39753 6.73619 7.04115 5.88315 8.1261ZM10.7615 10.4766C10.5397 10.5116 10.3058 10.5362 10.0497 10.5362C8.45013 10.5362 6.67032 9.86932 6.31497 9.13744C6.15493 8.80858 6.32767 8.39101 6.87889 8.39101C7.93746 8.39101 9.82573 9.41441 10.9341 10.0745C10.8603 10.2005 10.8017 10.3347 10.7615 10.4766ZM12.4168 9.88974C12.9239 9.88974 13.3567 10.2523 13.4471 10.7528C13.5505 11.3206 13.1745 11.8696 12.6012 11.9717C12.0207 12.0806 11.4836 11.6875 11.3816 11.1266C11.2658 10.4864 11.7591 9.88974 12.4168 9.88974ZM16.1045 5.32691C16.3666 5.32691 16.6389 5.55839 16.6061 5.95988C16.5158 7.04028 14.7592 8.94766 13.2214 9.42385C13.1621 9.39204 13.1022 9.36295 13.039 9.33819C14.0676 7.25851 15.3728 5.32691 16.1045 5.32691ZM16.1044 4.65257C15.0295 4.65257 13.8059 6.46887 12.9454 8.04739C13.3442 5.44384 14.3849 2.23382 16.9688 2.81359C20.3575 3.57348 19.4474 8.55789 14.751 9.38933C16.0399 8.5074 17.1886 7.08295 17.2774 6.01601C17.3561 5.06743 16.579 4.65257 16.1044 4.65257ZM1.67412 11.7974H5.13256C5.83556 12.1431 6.65484 12.338 7.51755 12.338C8.36505 12.338 9.23449 12.1512 10.0911 11.7974H10.3709C10.0054 12.1957 9.68517 12.7168 9.52091 13.3982H1.67412V11.7974ZM10.7952 14.5771C11.1466 16.3552 10.9852 18.5683 10.8987 19.445L8.92557 18.913C9.58829 17.9969 9.81803 16.1932 10.0761 14.1618C10.1339 13.7185 10.2102 12.8144 11.0801 12.0269C11.0966 12.0474 11.1137 12.0666 11.1313 12.086C10.7766 12.5592 10.5444 13.3103 10.7952 14.5771ZM38.3259 13.3982H21.57C21.5331 13.1768 21.3232 13.0773 21.1447 13.1304C21.067 13.1535 20.9769 13.1653 20.8756 13.1653C20.2203 13.1653 19.1821 12.7034 17.787 11.7974H38.3259V13.3982ZM4.20329 0.782871H35.797C37.1912 0.782871 38.3259 1.91744 38.3259 3.31172V11.1231H16.8011C16.6757 11.0341 16.555 10.9509 16.4251 10.856C15.6606 10.2992 14.8067 10.0784 13.9501 10.1738C13.9462 10.1663 13.9423 10.1589 13.9384 10.1515C20.1832 9.75891 21.4729 3.13247 17.116 2.15521C13.6979 1.39456 12.4073 5.73775 12.1227 9.24221C11.9828 9.26295 11.8403 9.31387 11.7106 9.37239C9.62861 6.70707 6.36419 3.93329 3.94913 6.32479C2.40904 7.85055 2.68134 9.84446 4.12393 11.1231H1.67412V3.31172C1.67412 1.91744 2.8088 0.782871 4.20329 0.782871ZM1 22.1827C1 23.9489 2.43705 25.3858 4.20329 25.3858H35.797C37.5629 25.3858 39.0001 23.9489 39.0001 22.1827V3.31172C39.0001 1.54559 37.5629 0.108643 35.797 0.108643H4.20329C2.43705 0.108643 1 1.54559 1 3.31172V22.1827Z" fill="#26A0D8"/>
<path d="M1.67412 14.0722V13.9722C1.61889 13.9722 1.57412 14.017 1.57412 14.0722H1.67412ZM9.40864 14.0722L9.50779 14.0853C9.51154 14.0567 9.50281 14.0279 9.48382 14.0063C9.46483 13.9846 9.43744 13.9722 9.40864 13.9722V14.0722ZM9.4081 14.0764L9.30895 14.0633L9.3089 14.0637L9.4081 14.0764ZM8.09536 18.7919L8.14538 18.8785L8.14543 18.8785L8.09536 18.7919ZM8.17657 19.409L8.1505 19.5055L8.15054 19.5055L8.17657 19.409ZM11.1031 20.198L11.1293 20.1015L11.1292 20.1015L11.1031 20.198ZM11.5251 19.9167L11.6242 19.9304L11.6243 19.9297L11.5251 19.9167ZM11.4559 14.4471L11.3578 14.4665L11.3578 14.4665L11.4559 14.4471ZM11.3981 14.0722V13.9722C11.3694 13.9722 11.3421 13.9845 11.3231 14.006C11.3042 14.0275 11.2953 14.0562 11.2989 14.0846L11.3981 14.0722ZM16.671 14.0722L16.7443 14.0042C16.7253 13.9838 16.6988 13.9722 16.671 13.9722V14.0722ZM19.4049 16.5461L19.4652 16.4663L19.4651 16.4663L19.4049 16.5461ZM19.8987 16.4446L19.8122 16.3945L19.8121 16.3947L19.8987 16.4446ZM21.2722 14.0722V13.9722C21.2366 13.9722 21.2036 13.9912 21.1857 14.0221L21.2722 14.0722ZM38.3259 14.0722H38.4259C38.4259 14.017 38.3811 13.9722 38.3259 13.9722V14.0722ZM35.797 24.6119C35.7418 24.6119 35.697 24.6567 35.697 24.7119C35.697 24.7671 35.7418 24.8119 35.797 24.8119V24.6119ZM14.1346 10.9281L14.0346 10.9292C14.0351 10.9783 14.0713 11.0198 14.1199 11.027L14.1346 10.9281ZM14.1272 10.8371L14.1195 10.7374C14.065 10.7417 14.0241 10.7888 14.0274 10.8432L14.1272 10.8371ZM16.0273 11.401L15.9684 11.4818L15.9684 11.4818L16.0273 11.401ZM20.6359 13.8256L20.7224 13.8756C20.7393 13.8464 20.7403 13.8106 20.7251 13.7804C20.7098 13.7502 20.6804 13.7298 20.6468 13.7262L20.6359 13.8256ZM19.5096 15.7718L19.4472 15.8499C19.47 15.8681 19.4995 15.8755 19.5281 15.8701C19.5568 15.8647 19.5816 15.8471 19.5962 15.8219L19.5096 15.7718ZM12.7212 12.6352L12.7388 12.7336L12.7388 12.7336L12.7212 12.6352ZM13.9003 11.7974V11.6974C13.8645 11.6974 13.8315 11.7165 13.8136 11.7475L13.9003 11.7974ZM14.5991 11.7974L14.6484 11.7104C14.6334 11.7019 14.6164 11.6974 14.5991 11.6974V11.7974ZM16.0802 13.3982V13.4982C16.1189 13.4982 16.1541 13.4759 16.1706 13.4409C16.1871 13.4059 16.1819 13.3645 16.1573 13.3346L16.0802 13.3982ZM11.3738 13.3982L11.274 13.3913C11.2721 13.4189 11.2818 13.4461 11.3007 13.4664C11.3196 13.4867 11.3461 13.4982 11.3738 13.4982V13.3982ZM9.77522 11.2041L9.81245 11.2969C9.85618 11.2794 9.88173 11.2337 9.87379 11.1872C9.86584 11.1408 9.82655 11.1062 9.77947 11.1042L9.77522 11.2041ZM4.42308 6.80403L4.49344 6.87509L4.49346 6.87506L4.42308 6.80403ZM10.6245 9.11627L10.5758 9.20363C10.6181 9.22722 10.6713 9.21704 10.702 9.17947C10.7326 9.1419 10.7319 9.08776 10.7002 9.05102L10.6245 9.11627ZM6.31497 9.13744L6.40492 9.09377L6.40489 9.09369L6.31497 9.13744ZM10.9341 10.0745L11.0204 10.1251C11.0482 10.0777 11.0325 10.0167 10.9853 9.98861L10.9341 10.0745ZM12.4168 9.78973C12.3616 9.78973 12.3168 9.83451 12.3168 9.88974C12.3168 9.94496 12.3616 9.98974 12.4168 9.98974V9.78973ZM13.4471 10.7528L13.3487 10.7706L13.3487 10.7707L13.4471 10.7528ZM12.6012 11.9717L12.5837 11.8732L12.5828 11.8734L12.6012 11.9717ZM11.3816 11.1266L11.2831 11.1444L11.2832 11.1445L11.3816 11.1266ZM16.1045 5.22691C16.0493 5.22691 16.0045 5.27168 16.0045 5.32691C16.0045 5.38214 16.0493 5.42691 16.1045 5.42691V5.22691ZM16.6061 5.95988L16.7058 5.96821L16.7058 5.96802L16.6061 5.95988ZM13.2214 9.42385L13.1741 9.51197C13.1977 9.52463 13.2254 9.5273 13.251 9.51938L13.2214 9.42385ZM13.039 9.33819L12.9494 9.29386C12.9369 9.31897 12.9356 9.34814 12.9457 9.37426C12.9558 9.40039 12.9764 9.42108 13.0025 9.4313L13.039 9.33819ZM12.9454 8.04739L12.8466 8.03225C12.8392 8.08025 12.8674 8.1266 12.9135 8.14213C12.9595 8.15767 13.01 8.13789 13.0332 8.09525L12.9454 8.04739ZM16.9688 2.81359L16.9469 2.91116L16.9469 2.91117L16.9688 2.81359ZM14.751 9.38933L14.6945 9.3068C14.6556 9.3334 14.6406 9.38352 14.6584 9.42713C14.6762 9.47074 14.722 9.49601 14.7684 9.4878L14.751 9.38933ZM17.2774 6.01601L17.3771 6.02431L17.3771 6.02427L17.2774 6.01601ZM16.1044 4.55257C16.0492 4.55257 16.0044 4.59735 16.0044 4.65257C16.0044 4.7078 16.0492 4.75257 16.1044 4.75257V4.55257ZM1.67412 11.7974V11.6974C1.61889 11.6974 1.57412 11.7422 1.57412 11.7974H1.67412ZM5.13256 11.7974L5.17668 11.7077C5.16295 11.701 5.14786 11.6974 5.13256 11.6974V11.7974ZM10.0911 11.7974V11.6974C10.078 11.6974 10.0651 11.7 10.053 11.705L10.0911 11.7974ZM10.3709 11.7974L10.4446 11.8651C10.4714 11.8358 10.4784 11.7935 10.4625 11.7572C10.4465 11.7209 10.4106 11.6974 10.3709 11.6974V11.7974ZM9.52091 13.3982V13.4982C9.56711 13.4982 9.60729 13.4666 9.61812 13.4217L9.52091 13.3982ZM1.67412 13.3982H1.57412C1.57412 13.4534 1.61889 13.4982 1.67412 13.4982V13.3982ZM10.8987 19.445L10.8727 19.5415C10.9011 19.5492 10.9314 19.544 10.9556 19.5273C10.9798 19.5106 10.9954 19.4841 10.9983 19.4548L10.8987 19.445ZM8.92557 18.913L8.84455 18.8544C8.82528 18.881 8.82033 18.9154 8.83131 18.9464C8.84229 18.9774 8.8678 19.001 8.89954 19.0095L8.92557 18.913ZM10.0761 14.1618L9.97694 14.1489L9.9769 14.1492L10.0761 14.1618ZM11.0801 12.0269L11.158 11.9642C11.1407 11.9427 11.1154 11.9293 11.0879 11.9272C11.0605 11.925 11.0334 11.9342 11.0129 11.9527L11.0801 12.0269ZM11.1313 12.086L11.2113 12.146C11.24 12.1077 11.2376 12.0544 11.2054 12.0189L11.1313 12.086ZM38.3259 13.3982V13.4982C38.3812 13.4982 38.4259 13.4534 38.4259 13.3982H38.3259ZM21.57 13.3982L21.4714 13.4147C21.4794 13.4629 21.5211 13.4982 21.57 13.4982V13.3982ZM21.1447 13.1304L21.1162 13.0345L21.1162 13.0345L21.1447 13.1304ZM17.787 11.7974V11.6974C17.7427 11.6974 17.7037 11.7266 17.6912 11.769C17.6786 11.8115 17.6954 11.8572 17.7326 11.8813L17.787 11.7974ZM38.3259 11.7974H38.4259C38.4259 11.7422 38.3812 11.6974 38.3259 11.6974V11.7974ZM4.20329 0.682871C4.14806 0.682871 4.10329 0.727643 4.10329 0.782871C4.10329 0.8381 4.14806 0.882871 4.20329 0.882871V0.682871ZM38.3259 11.1231V11.2231C38.3811 11.2231 38.4259 11.1783 38.4259 11.1231H38.3259ZM16.8011 11.1231L16.7432 11.2046C16.7601 11.2167 16.7803 11.2231 16.8011 11.2231V11.1231ZM16.4251 10.856L16.484 10.7753L16.4839 10.7752L16.4251 10.856ZM13.9501 10.1738L13.8614 10.22C13.8805 10.2566 13.9201 10.2777 13.9611 10.2731L13.9501 10.1738ZM13.9384 10.1515L13.9321 10.0517C13.8982 10.0538 13.8677 10.073 13.8511 10.1026C13.8345 10.1323 13.8341 10.1683 13.85 10.1983L13.9384 10.1515ZM17.116 2.15521L17.1379 2.05764L17.1377 2.0576L17.116 2.15521ZM12.1227 9.24221L12.1374 9.34113C12.1834 9.33432 12.2186 9.29667 12.2224 9.25031L12.1227 9.24221ZM11.7106 9.37239L11.6318 9.43395C11.6601 9.47028 11.7097 9.4825 11.7517 9.46355L11.7106 9.37239ZM3.94913 6.32479L3.87876 6.25373L3.87875 6.25375L3.94913 6.32479ZM4.12393 11.1231V11.2231C4.16547 11.2231 4.20269 11.1974 4.21742 11.1586C4.23216 11.1197 4.22135 11.0758 4.19026 11.0483L4.12393 11.1231ZM1.67412 11.1231H1.57412C1.57412 11.1783 1.61889 11.2231 1.67412 11.2231V11.1231ZM35.797 24.6119H4.20329V24.8119H35.797V24.6119ZM4.20329 24.6119C2.86404 24.6119 1.77412 23.5218 1.77412 22.1827H1.57412C1.57412 23.6322 2.75357 24.8119 4.20329 24.8119V24.6119ZM1.77412 22.1827V14.0722H1.57412V22.1827H1.77412ZM1.67412 14.1722H9.40864V13.9722H1.67412V14.1722ZM9.30949 14.0592L9.30895 14.0633L9.50725 14.0894L9.50779 14.0853L9.30949 14.0592ZM9.3089 14.0637C9.17505 15.1151 9.03974 16.1773 8.84247 17.0322C8.74385 17.4596 8.6307 17.8308 8.4966 18.1208C8.36147 18.4129 8.21098 18.6096 8.0453 18.7054L8.14543 18.8785C8.3643 18.7519 8.53677 18.5103 8.67812 18.2047C8.8205 17.8969 8.93734 17.5106 9.03735 17.0772C9.23735 16.2105 9.37384 15.1373 9.5073 14.089L9.3089 14.0637ZM8.04535 18.7053C7.71065 18.8987 7.77246 19.4034 8.1505 19.5055L8.20265 19.3124C7.99787 19.2571 7.9635 18.9836 8.14538 18.8785L8.04535 18.7053ZM8.15054 19.5055L11.0771 20.2946L11.1292 20.1015L8.20261 19.3124L8.15054 19.5055ZM11.0769 20.2945C11.3335 20.3643 11.5881 20.1917 11.6242 19.9304L11.4261 19.903C11.4062 20.047 11.2675 20.1391 11.1293 20.1015L11.0769 20.2945ZM11.6243 19.9297C11.6406 19.8048 12.0262 16.815 11.554 14.4277L11.3578 14.4665C11.8229 16.818 11.4424 19.7777 11.426 19.9038L11.6243 19.9297ZM11.554 14.4278C11.5282 14.2971 11.5121 14.1784 11.4973 14.0599L11.2989 14.0846C11.3138 14.2044 11.3306 14.3288 11.3578 14.4665L11.554 14.4278ZM11.3981 14.1722H16.671V13.9722H11.3981V14.1722ZM16.5977 14.1403C17.8769 15.5181 19.2681 16.5683 19.3448 16.626L19.4651 16.4663C19.3912 16.4106 18.0113 15.3689 16.7443 14.0042L16.5977 14.1403ZM19.3447 16.626C19.5533 16.7835 19.8548 16.7211 19.9853 16.4946L19.8121 16.3947C19.7411 16.5178 19.5772 16.5509 19.4652 16.4663L19.3447 16.626ZM19.9852 16.4947L21.3588 14.1223L21.1857 14.0221L19.8122 16.3945L19.9852 16.4947ZM21.2722 14.1722H38.3259V13.9722H21.2722V14.1722ZM38.2259 14.0722V22.1827H38.4259V14.0722H38.2259ZM38.2259 22.1827C38.2259 23.5218 37.136 24.6119 35.797 24.6119V24.8119C37.2464 24.8119 38.4259 23.6322 38.4259 22.1827H38.2259ZM16.2123 12.3034C15.6024 11.4457 14.911 10.9424 14.1493 10.8292L14.1199 11.027C14.8088 11.1294 15.4577 11.5874 16.0493 12.4193L16.2123 12.3034ZM14.2346 10.927C14.2344 10.907 14.2326 10.8878 14.2309 10.8723C14.2292 10.8553 14.2278 10.8434 14.227 10.831L14.0274 10.8432C14.0285 10.8611 14.0306 10.8794 14.032 10.8929C14.0335 10.9077 14.0345 10.919 14.0346 10.9292L14.2346 10.927ZM14.135 10.9368C14.7924 10.8856 15.413 11.0763 15.9684 11.4818L16.0863 11.3203C15.4958 10.8892 14.8285 10.6822 14.1195 10.7374L14.135 10.9368ZM15.9684 11.4818C17.01 12.2417 17.9122 12.823 18.6832 13.2287C19.4529 13.6337 20.0983 13.8672 20.625 13.925L20.6468 13.7262C20.1564 13.6724 19.5369 13.4519 18.7763 13.0517C18.017 12.6522 17.1235 12.0769 16.0863 11.3203L15.9684 11.4818ZM20.5493 13.7755L19.4231 15.7217L19.5962 15.8219L20.7224 13.8756L20.5493 13.7755ZM19.5721 15.6937C18.8994 15.1561 17.2554 13.7691 16.2123 12.3034L16.0493 12.4193C17.1097 13.9094 18.7727 15.3109 19.4472 15.8499L19.5721 15.6937ZM11.6289 12.5788C11.9933 12.7537 12.3638 12.8008 12.7388 12.7336L12.7035 12.5367C12.37 12.5965 12.0421 12.5553 11.7154 12.3985L11.6289 12.5788ZM12.7388 12.7336C13.2402 12.6436 13.6914 12.3599 13.9869 11.8474L13.8136 11.7475C13.5489 12.2065 13.1497 12.4567 12.7035 12.5368L12.7388 12.7336ZM13.9003 11.8974H14.5991V11.6974H13.9003V11.8974ZM14.5499 11.8845C14.8554 12.0573 15.071 12.2709 15.2839 12.5321C15.391 12.6634 15.4965 12.8055 15.6132 12.9612C15.7294 13.1162 15.8559 13.2834 16.003 13.4618L16.1573 13.3346C16.0133 13.16 15.8892 12.9959 15.7732 12.8412C15.6577 12.6871 15.5493 12.541 15.4389 12.4057C15.217 12.1335 14.9831 11.8998 14.6484 11.7104L14.5499 11.8845ZM16.0802 13.2982H11.3738V13.4982H16.0802V13.2982ZM11.4736 13.4052C11.5011 13.0105 11.6097 12.7394 11.7523 12.5484L11.592 12.4288C11.4226 12.6558 11.3038 12.9654 11.274 13.3913L11.4736 13.4052ZM5.80463 8.06417C5.4912 8.46154 5.4126 8.86803 5.52874 9.25385C5.64303 9.63348 5.94108 9.97723 6.34809 10.268C7.16255 10.8499 8.45192 11.2479 9.77097 11.304L9.77947 11.1042C8.48856 11.0493 7.23959 10.6592 6.46435 10.1053C6.0765 9.82818 5.81687 9.51713 5.72025 9.19619C5.6255 8.88144 5.68279 8.54159 5.96166 8.18803L5.80463 8.06417ZM9.73799 11.1113C8.99281 11.4102 8.24325 11.5637 7.51758 11.5637V11.7637C8.27153 11.7637 9.04631 11.6042 9.81245 11.2969L9.73799 11.1113ZM7.51758 11.5637C5.98016 11.5637 4.72453 10.8721 4.10572 9.94409C3.79674 9.48074 3.64686 8.95961 3.69571 8.43403C3.74451 7.90901 3.99237 7.3712 4.49344 6.87509L4.35272 6.73296C3.82264 7.2578 3.55025 7.83792 3.49657 8.41552C3.44294 8.99255 3.60836 9.55872 3.93932 10.055C4.60038 11.0464 5.92315 11.7637 7.51758 11.7637V11.5637ZM4.49346 6.87506C4.94744 6.42525 5.43957 6.22257 5.94853 6.19671C6.46023 6.17071 6.99714 6.32314 7.53721 6.59858C8.61901 7.1503 9.68858 8.18257 10.5487 9.18152L10.7002 9.05102C9.83525 8.0464 8.74517 6.99013 7.62808 6.42041C7.0687 6.13513 6.49635 5.96862 5.93839 5.99697C5.37769 6.02545 4.83976 6.25039 4.3527 6.73299L4.49346 6.87506ZM10.6731 9.02891C10.0279 8.66947 9.04819 8.1462 8.12034 7.84955C7.65675 7.70133 7.19905 7.6073 6.79874 7.62209C6.39711 7.63694 6.042 7.76227 5.80454 8.06429L5.96176 8.18791C6.15082 7.94745 6.44037 7.83547 6.80612 7.82196C7.1732 7.80839 7.6056 7.89495 8.05944 8.04005C8.96644 8.33004 9.93085 8.84433 10.5758 9.20363L10.6731 9.02891ZM10.7459 10.3778C10.5278 10.4123 10.2993 10.4362 10.0497 10.4362V10.6362C10.3124 10.6362 10.5516 10.611 10.7771 10.5753L10.7459 10.3778ZM10.0497 10.4362C9.26255 10.4362 8.42955 10.2718 7.75083 10.0176C7.41159 9.89055 7.11348 9.74198 6.87996 9.58222C6.64492 9.42143 6.48297 9.25451 6.40492 9.09377L6.22501 9.18112C6.32464 9.38631 6.51842 9.57721 6.76703 9.74729C7.01716 9.91841 7.3306 10.0738 7.68068 10.2049C8.3806 10.4671 9.2373 10.6362 10.0497 10.6362V10.4362ZM6.40489 9.09369C6.33806 8.95637 6.34344 8.80699 6.41471 8.69438C6.48448 8.58413 6.62939 8.49101 6.87889 8.49101V8.29101C6.57716 8.29101 6.3601 8.40668 6.24571 8.58743C6.13281 8.76582 6.13183 8.98965 6.22505 9.1812L6.40489 9.09369ZM6.87889 8.49101C7.38443 8.49101 8.10357 8.73793 8.84638 9.07623C9.58459 9.41244 10.3302 9.83126 10.883 10.1604L10.9853 9.98861C10.4296 9.65767 9.67694 9.23474 8.92927 8.89422C8.18619 8.55579 7.43191 8.29101 6.87889 8.29101V8.49101ZM10.8479 10.024C10.77 10.1567 10.7079 10.2987 10.6653 10.4493L10.8577 10.5038C10.8954 10.3706 10.9506 10.2442 11.0204 10.1251L10.8479 10.024ZM12.4168 9.98974C12.8753 9.98974 13.2668 10.3174 13.3487 10.7706L13.5455 10.735C13.4465 10.1871 12.9725 9.78973 12.4168 9.78973V9.98974ZM13.3487 10.7707C13.4423 11.2845 13.102 11.781 12.5837 11.8732L12.6188 12.0702C13.247 11.9583 13.6587 11.3567 13.5455 10.7349L13.3487 10.7707ZM12.5828 11.8734C12.0589 11.9717 11.5725 11.6171 11.4799 11.1087L11.2832 11.1445C11.3948 11.7578 11.9826 12.1895 12.6197 12.07L12.5828 11.8734ZM11.48 11.1088C11.3753 10.5298 11.8216 9.98974 12.4168 9.98974V9.78973C11.6965 9.78973 11.1564 10.4431 11.2831 11.1444L11.48 11.1088ZM16.1045 5.42691C16.3053 5.42691 16.5347 5.60563 16.5064 5.95174L16.7058 5.96802C16.7431 5.51114 16.4279 5.22691 16.1045 5.22691V5.42691ZM16.5065 5.95155C16.4857 6.20001 16.3673 6.50655 16.1695 6.83879C15.9726 7.16934 15.7014 7.51799 15.3843 7.8493C14.7484 8.51368 13.9387 9.09704 13.1918 9.32833L13.251 9.51938C14.0419 9.27448 14.8794 8.66605 15.5288 7.98759C15.8543 7.64747 16.1354 7.28694 16.3413 6.94112C16.5463 6.59698 16.6814 6.25996 16.7058 5.96821L16.5065 5.95155ZM13.2687 9.33574C13.2071 9.30269 13.1434 9.2717 13.0755 9.24508L13.0025 9.4313C13.0609 9.45419 13.1171 9.4814 13.1741 9.51197L13.2687 9.33574ZM13.1286 9.38252C13.6413 8.34593 14.2219 7.34859 14.7637 6.61192C15.0348 6.24328 15.2939 5.94309 15.5278 5.7361C15.7661 5.52515 15.9607 5.42691 16.1045 5.42691V5.22691C15.8825 5.22691 15.6395 5.37012 15.3952 5.58633C15.1464 5.80651 14.8778 6.1192 14.6025 6.49342C14.0516 7.24247 13.4653 8.25077 12.9494 9.29386L13.1286 9.38252ZM16.1044 4.55257C15.8076 4.55257 15.5096 4.67767 15.2211 4.87903C14.932 5.0808 14.645 5.36424 14.368 5.69367C13.8138 6.35258 13.2891 7.20804 12.8576 7.99953L13.0332 8.09525C13.4622 7.30822 13.9795 6.46626 14.521 5.8224C14.7918 5.50044 15.066 5.23115 15.3356 5.04304C15.6057 4.85452 15.8638 4.75257 16.1044 4.75257V4.55257ZM13.0443 8.06253C13.2431 6.76441 13.6007 5.32665 14.2235 4.28818C14.5344 3.76975 14.9079 3.35685 15.3548 3.10803C15.7993 2.86053 16.3236 2.77131 16.9469 2.91116L16.9907 2.71602C16.322 2.56599 15.7472 2.66061 15.2575 2.93329C14.7701 3.20464 14.374 3.64827 14.0519 4.18531C13.4087 5.25779 13.0465 6.72682 12.8466 8.03225L13.0443 8.06253ZM16.9469 2.91117C17.7688 3.09547 18.3216 3.5331 18.6244 4.09231C18.928 4.65323 18.9852 5.34644 18.7953 6.04851C18.4156 7.4516 17.0484 8.88104 14.7336 9.29086L14.7684 9.4878C17.1499 9.06618 18.586 7.58769 18.9883 6.10075C19.1893 5.3578 19.1323 4.61046 18.8002 3.9971C18.4673 3.38204 17.8631 2.91166 16.9907 2.71601L16.9469 2.91117ZM14.8075 9.47186C15.4605 9.02505 16.0777 8.44117 16.5437 7.83286C17.0078 7.22692 17.3304 6.58565 17.3771 6.02431L17.1778 6.00772C17.1357 6.51331 16.8395 7.11774 16.3849 7.71124C15.9321 8.30237 15.3304 8.87169 14.6945 9.3068L14.8075 9.47186ZM17.3771 6.02427C17.4191 5.51796 17.2316 5.1471 16.9658 4.90468C16.7037 4.66566 16.3667 4.55257 16.1044 4.55257V4.75257C16.3167 4.75257 16.6056 4.84691 16.831 5.05246C17.0527 5.25462 17.2144 5.56548 17.1778 6.00776L17.3771 6.02427ZM1.67412 11.8974H5.13256V11.6974H1.67412V11.8974ZM5.08843 11.8872C5.80551 12.2398 6.63993 12.438 7.51755 12.438V12.238C6.66974 12.238 5.8656 12.0465 5.17668 11.7077L5.08843 11.8872ZM7.51755 12.438C8.37978 12.438 9.26217 12.2479 10.1293 11.8899L10.053 11.705C9.20682 12.0544 8.35032 12.238 7.51755 12.238V12.438ZM10.0911 11.8974H10.3709V11.6974H10.0911V11.8974ZM10.2972 11.7298C9.92159 12.1391 9.59239 12.675 9.42369 13.3748L9.61812 13.4217C9.77796 12.7586 10.0891 12.2523 10.4446 11.8651L10.2972 11.7298ZM9.52091 13.2982H1.67412V13.4982H9.52091V13.2982ZM1.77412 13.3982V11.7974H1.57412V13.3982H1.77412ZM10.6971 14.5965C11.0454 16.3589 10.8856 18.5592 10.7992 19.4352L10.9983 19.4548C11.0848 18.5774 11.2478 16.3514 10.8933 14.5577L10.6971 14.5965ZM10.9248 19.3484L8.9516 18.8164L8.89954 19.0095L10.8727 19.5415L10.9248 19.3484ZM9.00659 18.9716C9.35089 18.4957 9.57734 17.7982 9.75043 16.9762C9.92397 16.1521 10.0464 15.189 10.1753 14.1744L9.9769 14.1492C9.84772 15.166 9.72625 16.1204 9.55472 16.935C9.38275 17.7517 9.16297 18.4142 8.84455 18.8544L9.00659 18.9716ZM10.1753 14.1747C10.233 13.7314 10.3069 12.8618 11.1472 12.101L11.0129 11.9527C10.1135 12.7671 10.0347 13.7056 9.97694 14.1489L10.1753 14.1747ZM11.0021 12.0895C11.0206 12.1125 11.0394 12.1335 11.0572 12.1531L11.2054 12.0189C11.188 11.9996 11.1725 11.9823 11.158 11.9642L11.0021 12.0895ZM11.0513 12.026C10.6754 12.5275 10.4423 13.3095 10.6971 14.5965L10.8933 14.5577C10.6465 13.3111 10.8778 12.5909 11.2113 12.146L11.0513 12.026ZM38.3259 13.2982H21.57V13.4982H38.3259V13.2982ZM21.6686 13.3818C21.6207 13.0945 21.3457 12.9663 21.1162 13.0345L21.1732 13.2262C21.3007 13.1883 21.4454 13.2592 21.4714 13.4147L21.6686 13.3818ZM21.1162 13.0345C21.0496 13.0543 20.9693 13.0653 20.8756 13.0653V13.2653C20.9844 13.2653 21.0844 13.2527 21.1732 13.2262L21.1162 13.0345ZM20.8756 13.0653C20.5686 13.0653 20.1604 12.9563 19.6493 12.7297C19.1399 12.5039 18.5365 12.1649 17.8415 11.7136L17.7326 11.8813C18.4326 12.3359 19.0458 12.6809 19.5682 12.9125C20.0888 13.1434 20.5273 13.2653 20.8756 13.2653V13.0653ZM17.787 11.8974H38.3259V11.6974H17.787V11.8974ZM38.2259 11.7974V13.3982H38.4259V11.7974H38.2259ZM4.20329 0.882871H35.797V0.682871H4.20329V0.882871ZM35.797 0.882871C37.136 0.882871 38.2259 1.97267 38.2259 3.31172H38.4259C38.4259 1.86221 37.2464 0.682871 35.797 0.682871V0.882871ZM38.2259 3.31172V11.1231H38.4259V3.31172H38.2259ZM38.3259 11.0231H16.8011V11.2231H38.3259V11.0231ZM16.8589 11.0416C16.7321 10.9515 16.6134 10.8697 16.484 10.7753L16.3661 10.9368C16.4967 11.0321 16.6192 11.1167 16.7432 11.2046L16.8589 11.0416ZM16.4839 10.7752C15.7 10.2041 14.8212 9.9762 13.939 10.0744L13.9611 10.2731C14.7922 10.1807 15.6213 10.3942 16.3662 10.9368L16.4839 10.7752ZM14.0387 10.1275C14.0347 10.1197 14.0306 10.1121 14.0267 10.1047L13.85 10.1983C13.8539 10.2057 13.8577 10.2128 13.8614 10.22L14.0387 10.1275ZM13.9446 10.2513C17.1037 10.0527 19.0265 8.274 19.5984 6.40182C19.8841 5.46694 19.8325 4.5073 19.4246 3.71589C19.0157 2.92258 18.2535 2.30787 17.1379 2.05764L17.0941 2.25279C18.157 2.49118 18.8674 3.07125 19.2468 3.80752C19.6273 4.54568 19.68 5.45042 19.4072 6.34339C18.8623 8.12689 17.0178 9.85771 13.9321 10.0517L13.9446 10.2513ZM17.1377 2.0576C16.2601 1.8623 15.5125 1.99404 14.8833 2.36255C14.2565 2.72959 13.7548 3.32696 13.3566 4.05112C12.5612 5.49797 12.1658 7.47625 12.023 9.23412L12.2224 9.25031C12.3642 7.50371 12.7564 5.55816 13.5319 4.14747C13.9193 3.44286 14.3988 2.87803 14.9843 2.53513C15.5673 2.19371 16.2629 2.0678 17.0943 2.25283L17.1377 2.0576ZM12.1081 9.14329C11.9554 9.16592 11.8035 9.22077 11.6695 9.28123L11.7517 9.46355C11.8771 9.40697 12.0101 9.35999 12.1374 9.34113L12.1081 9.14329ZM11.7894 9.31083C10.7451 7.97399 9.39812 6.60126 8.00145 5.86385C7.30226 5.4947 6.58462 5.28156 5.88283 5.31738C5.17844 5.35334 4.49879 5.63976 3.87876 6.25373L4.01949 6.39585C4.60699 5.81408 5.24105 5.5504 5.89303 5.51712C6.54762 5.48371 7.22903 5.68219 7.90807 6.04071C9.26787 6.75865 10.5941 8.10547 11.6318 9.43395L11.7894 9.31083ZM3.87875 6.25375C3.09005 7.03511 2.76028 7.94264 2.81824 8.82318C2.8761 9.70215 3.31953 10.5438 4.0576 11.1979L4.19026 11.0483C3.48573 10.4238 3.07173 9.62914 3.01781 8.81005C2.964 7.99253 3.26812 7.14023 4.01951 6.39583L3.87875 6.25375ZM4.12393 11.0231H1.67412V11.2231H4.12393V11.0231ZM1.77412 11.1231V3.31172H1.57412V11.1231H1.77412ZM1.77412 3.31172C1.77412 1.97268 2.86402 0.882871 4.20329 0.882871V0.682871C2.75358 0.682871 1.57412 1.8622 1.57412 3.31172H1.77412ZM0.9 22.1827C0.9 24.0041 2.38183 25.4858 4.20329 25.4858V25.2858C2.49227 25.2858 1.1 23.8936 1.1 22.1827H0.9ZM4.20329 25.4858H35.797V25.2858H4.20329V25.4858ZM35.797 25.4858C37.6182 25.4858 39.1001 24.0041 39.1001 22.1827H38.9001C38.9001 23.8936 37.5077 25.2858 35.797 25.2858V25.4858ZM39.1001 22.1827V3.31172H38.9001V22.1827H39.1001ZM39.1001 3.31172C39.1001 1.49035 37.6182 0.00864258 35.797 0.00864258V0.208643C37.5077 0.208643 38.9001 1.60082 38.9001 3.31172H39.1001ZM35.797 0.00864258H4.20329V0.208643H35.797V0.00864258ZM4.20329 0.00864258C2.38183 0.00864258 0.9 1.49035 0.9 3.31172H1.1C1.1 1.60082 2.49227 0.208643 4.20329 0.208643V0.00864258ZM0.9 3.31172V22.1827H1.1V3.31172H0.9Z" fill="#26A0D8"/>
<path fill-rule="evenodd" clip-rule="evenodd" d="M35.8827 16.3893H25.3928C25.2061 16.3893 25.0554 16.5401 25.0554 16.7263C25.0554 16.9127 25.2061 17.0635 25.3928 17.0635H35.8827C36.0689 17.0635 36.2196 16.9127 36.2196 16.7263C36.2196 16.5401 36.0689 16.3893 35.8827 16.3893Z" fill="#26A0D8"/>
<path d="M35.8827 16.3893H25.3928C25.2061 16.3893 25.0554 16.5401 25.0554 16.7263C25.0554 16.9127 25.2061 17.0635 25.3928 17.0635H35.8827C36.0689 17.0635 36.2196 16.9127 36.2196 16.7263C36.2196 16.5401 36.0689 16.3893 35.8827 16.3893" stroke="#26A0D8" stroke-width="0.2" stroke-linecap="round" stroke-linejoin="round"/>
<path fill-rule="evenodd" clip-rule="evenodd" d="M35.8827 18.4114H25.3928C25.2061 18.4114 25.0554 18.5623 25.0554 18.7487C25.0554 18.9349 25.2061 19.0857 25.3928 19.0857H35.8827C36.0689 19.0857 36.2196 18.9349 36.2196 18.7487C36.2196 18.5623 36.0689 18.4114 35.8827 18.4114Z" fill="#26A0D8"/>
<path d="M35.8827 18.4114H25.3928C25.2061 18.4114 25.0554 18.5623 25.0554 18.7487C25.0554 18.9349 25.2061 19.0857 25.3928 19.0857H35.8827C36.0689 19.0857 36.2196 18.9349 36.2196 18.7487C36.2196 18.5623 36.0689 18.4114 35.8827 18.4114" stroke="#26A0D8" stroke-width="0.2" stroke-linecap="round" stroke-linejoin="round"/>
<path fill-rule="evenodd" clip-rule="evenodd" d="M35.8827 20.4336H25.3928C25.2061 20.4336 25.0554 20.5844 25.0554 20.7709C25.0554 20.957 25.2061 21.1079 25.3928 21.1079H35.8827C36.0689 21.1079 36.2196 20.957 36.2196 20.7709C36.2196 20.5844 36.0689 20.4336 35.8827 20.4336Z" fill="#26A0D8"/>
<path d="M35.8827 20.4336H25.3928C25.2061 20.4336 25.0554 20.5844 25.0554 20.7709C25.0554 20.957 25.2061 21.1079 25.3928 21.1079H35.8827C36.0689 21.1079 36.2196 20.957 36.2196 20.7709C36.2196 20.5844 36.0689 20.4336 35.8827 20.4336" stroke="#26A0D8" stroke-width="0.2" stroke-linecap="round" stroke-linejoin="round"/>
</svg>
