<svg width="100" height="96" viewBox="0 0 100 96" fill="none" xmlns="http://www.w3.org/2000/svg">
<path d="M32.8564 59.5335C36.9224 59.5335 40.2186 56.2475 40.2186 52.1941C40.2186 48.1406 36.9224 44.8546 32.8564 44.8546C28.7903 44.8546 25.4941 48.1406 25.4941 52.1941C25.4941 56.2475 28.7903 59.5335 32.8564 59.5335Z" stroke="white" stroke-width="3" stroke-miterlimit="10"/>
<path d="M11.8214 67.9215C15.8875 67.9215 19.1837 64.6355 19.1837 60.582C19.1837 56.5285 15.8875 53.2426 11.8214 53.2426C7.75541 53.2426 4.45923 56.5285 4.45923 60.582C4.45923 64.6355 7.75541 67.9215 11.8214 67.9215Z" stroke="white" stroke-width="3" stroke-miterlimit="10"/>
<path d="M19.1836 95.1823L24.1058 72.3042C24.9261 68.5086 27.5976 66.6004 31.8045 65.8245L44.4255 63.7275L56.9413 52.4667C56.9413 52.4667 61.0851 59.5335 56.4995 63.8533L47.4756 72.7655L33.6767 76.9595" stroke="white" stroke-width="3" stroke-miterlimit="10"/>
<path d="M38.115 95.1823L42.322 74.2124" stroke="white" stroke-width="3" stroke-miterlimit="10"/>
<path d="M80.269 65.8244C84.335 65.8244 87.6312 62.5384 87.6312 58.485C87.6312 54.4315 84.335 51.1455 80.269 51.1455C76.2029 51.1455 72.9067 54.4315 72.9067 58.485C72.9067 62.5384 76.2029 65.8244 80.269 65.8244Z" stroke="white" stroke-width="3" stroke-miterlimit="10"/>
<path d="M97.9804 95.1821L93.2686 78.8466C92.4483 75.051 90.0923 72.1362 83.4243 72.1362C78.8597 72.1362 58.1824 72.1362 58.1824 72.1362C58.1824 72.1362 59.5917 80.5242 66.5963 80.5242H83.4243" stroke="white" stroke-width="3" stroke-miterlimit="10"/>
<path d="M82.4566 95.1823L77.1138 80.5034" stroke="white" stroke-width="3" stroke-miterlimit="10"/>
<path d="M2.06128 95.1823L5.17445 80.6922C5.99481 76.8966 8.66624 74.9883 12.8732 74.2125L23.3907 72.1155" stroke="white" stroke-width="3" stroke-miterlimit="10"/>
<path d="M34.2026 8.63965L5.13232 21.0538L14.7032 28.4352L13.399 40.3251L42.4903 27.9109" stroke="white" stroke-width="3" stroke-miterlimit="10"/>
<path d="M54.1436 55.004L30.8369 0.817871" stroke="white" stroke-width="3" stroke-miterlimit="10"/>
<path d="M61.2327 72.1154L57.4043 62.8467" stroke="white" stroke-width="3" stroke-miterlimit="10"/>
<path d="M70.8035 95.1823L64.7244 80.5244" stroke="white" stroke-width="3" stroke-miterlimit="10"/>
</svg>
