<svg width="29" height="30" viewBox="0 0 29 30" fill="none" xmlns="http://www.w3.org/2000/svg">
<path d="M27.864 28.1392L23.0528 21.9756C22.545 22.5545 21.9863 23.0874 21.3855 23.5692L26.0604 29.559C26.2794 29.8388 26.6077 29.9999 26.9628 29.9999C27.2212 29.9999 27.4656 29.9155 27.6692 29.7545C27.9098 29.5654 28.0625 29.2932 28.0994 28.9877C28.1364 28.6823 28.0523 28.3807 27.864 28.1392Z" fill="#1A75BB"/>
<path d="M23.0527 21.9757C25.1019 19.6435 26.3467 16.5815 26.3467 13.2268C26.3467 5.92205 20.4486 0 13.1733 0C5.89809 0 0 5.92205 0 13.2268C0 20.5316 5.89809 26.4537 13.1733 26.4537C16.2789 26.4537 19.1338 25.3738 21.3853 23.5681C21.9861 23.0875 22.5436 22.5534 23.0527 21.9757ZM13.1733 24.409C7.03214 24.409 2.03646 19.393 2.03646 13.2268C2.03646 7.0607 7.03214 2.04473 13.1733 2.04473C19.3145 2.04473 24.3102 7.0607 24.3102 13.2268C24.3102 19.393 19.3145 24.409 13.1733 24.409Z" fill="#1A75BB"/>
</svg>
