<svg width="43" height="32" viewBox="0 0 43 32" fill="none" xmlns="http://www.w3.org/2000/svg">
<path d="M38.4007 0.152344H3.93987C1.91615 0.152344 0.265137 1.80156 0.265137 3.82708V28.3253C0.265137 30.3439 1.9088 32 3.93987 32H38.4007C40.4193 32 42.0754 30.3564 42.0754 28.3253V3.82708C42.0754 1.80842 40.4318 0.152344 38.4007 0.152344ZM37.8932 2.60216L21.2482 19.2473L4.45915 2.60216H37.8932ZM2.71496 27.818V4.32267L14.5132 16.0198L2.71496 27.818ZM4.44723 29.5502L16.2529 17.7445L20.3896 21.8457C20.8685 22.3204 21.6412 22.3189 22.1181 21.8419L26.1516 17.8085L37.8933 29.5502H4.44723ZM39.6256 27.8179L27.8838 16.0762L39.6256 4.33435V27.8179Z" fill="#1A75BB"/>
</svg>
