<svg width="87" height="93" viewBox="0 0 87 93" fill="none" xmlns="http://www.w3.org/2000/svg">
<path d="M19.145 54.9545V50.7272L6.43806 35.9318L2.56245 29.4641C1.22823 26.0822 2.98602 20.1641 6.43806 19.0227L12.7915 29.5909L21.2628 38.0454C22.6182 39.4404 25.4349 40.1591 27.3621 40.1591H32.0848C34.0121 40.1591 36.8499 39.4404 38.1842 38.0454L46.6554 29.5909L53.0089 19.0227C56.4609 20.1641 58.2187 26.0822 56.8845 29.4641L53.0301 35.9318L40.3232 50.7272V71.8636" stroke="#FDFDFD" stroke-width="3" stroke-miterlimit="10"/>
<path d="M29.7341 19.0227C33.5461 19.0227 36.0875 21.8761 36.0875 25.3847V27.4984C36.0875 31.007 33.5461 33.8604 29.7341 33.8604C25.922 33.8604 23.3806 31.007 23.3806 27.4984V25.3847C23.3806 21.8761 25.922 19.0227 29.7341 19.0227Z" stroke="#FDFDFD" stroke-width="3" stroke-miterlimit="10"/>
<path d="M57.2657 67.6574C53.4536 67.6574 50.9122 64.804 50.9122 61.2954V59.1817C50.9122 55.6731 53.4536 52.8197 57.2657 52.8197C61.0778 52.8197 63.6191 55.6731 63.6191 59.1817V61.2954C63.6191 64.8252 61.0778 67.6574 57.2657 67.6574Z" stroke="#FDFDFD" stroke-width="3" stroke-miterlimit="10"/>
<path d="M44.6436 93V82.4319C44.6436 75.4569 52.1195 73.9773 57.2658 73.9773H59.6377C61.2473 73.9773 63.4498 72.8782 65.737 71.8637L74.2083 67.6364L80.5618 52.8409C84.0138 53.9823 85.7716 62.0141 84.4374 65.3959L80.5618 73.9773L67.9396 84.5455V93" stroke="#FDFDFD" stroke-width="3" stroke-miterlimit="10"/>
<path d="M23.3806 73.9984C27.1926 73.9984 29.734 71.145 29.734 67.6363V65.5227C29.734 62.0141 27.1926 59.1606 23.3806 59.1606C19.5685 59.1606 17.0271 62.0141 17.0271 65.5227V67.6363C17.0271 71.1661 19.5685 73.9984 23.3806 73.9984Z" stroke="#FDFDFD" stroke-width="3" stroke-miterlimit="10"/>
<path d="M10.6737 92.9999V88.7727C10.6737 81.7977 18.2343 80.3181 23.3806 80.3181C28.5269 80.3181 36.0875 81.7977 36.0875 88.7727V92.9999" stroke="#FDFDFD" stroke-width="3" stroke-miterlimit="10"/>
<path d="M29.734 10.5682V0" stroke="#FDFDFD" stroke-width="3" stroke-miterlimit="10"/>
<path d="M38.29 12.6819L44.6435 6.34094" stroke="#FDFDFD" stroke-width="3" stroke-miterlimit="10"/>
<path d="M21.3475 12.6819L14.994 6.34094" stroke="#FDFDFD" stroke-width="3" stroke-miterlimit="10"/>
</svg>
