<svg width="41" height="41" viewBox="0 0 41 41" fill="none" xmlns="http://www.w3.org/2000/svg">
<rect width="41" height="41" rx="20.5" fill="white"/>
<path d="M31.2239 15.5505C31.1717 14.3667 30.9802 13.5528 30.7059 12.8476C30.4229 12.099 29.9876 11.4287 29.4172 10.8716C28.86 10.3058 28.1852 9.86608 27.4451 9.58759C26.7357 9.31335 25.9259 9.1219 24.7418 9.06971C23.5489 9.01309 23.1702 9 20.1446 9C17.119 9 16.7403 9.01309 15.5518 9.06529C14.3677 9.11748 13.5537 9.3091 12.8485 9.58317C12.0996 9.86608 11.4292 10.3013 10.8719 10.8716C10.306 11.4287 9.86642 12.1034 9.5877 12.8433C9.31341 13.5528 9.12193 14.3623 9.06972 15.5461C9.01309 16.7388 9 17.1175 9 20.1425C9 23.1675 9.01309 23.5461 9.0653 24.7344C9.11751 25.9182 9.30916 26.7321 9.58345 27.4374C9.86642 28.186 10.306 28.8562 10.8719 29.4133C11.4292 29.9792 12.104 30.4188 12.844 30.6973C13.5537 30.9716 14.3633 31.163 15.5475 31.2152C16.7359 31.2676 17.1148 31.2805 20.1403 31.2805C23.1659 31.2805 23.5446 31.2676 24.7331 31.2152C25.9172 31.163 26.7312 30.9716 27.4364 30.6973C28.9341 30.1184 30.1182 28.9346 30.6972 27.4374C30.9713 26.7279 31.163 25.9182 31.2152 24.7344C31.2674 23.5461 31.2805 23.1675 31.2805 20.1425C31.2805 17.1175 31.2761 16.7388 31.2239 15.5505ZM29.2171 24.6473C29.1691 25.7354 28.9863 26.323 28.8339 26.7148C28.4595 27.6854 27.689 28.4558 26.7181 28.8302C26.3263 28.9825 25.7344 29.1653 24.6503 29.213C23.4749 29.2654 23.1224 29.2783 20.149 29.2783C17.1756 29.2783 16.8187 29.2654 15.6475 29.213C14.5592 29.1653 13.9715 28.9825 13.5797 28.8302C13.0966 28.6516 12.6568 28.3687 12.2999 27.9988C11.9298 27.6375 11.6469 27.2022 11.4683 26.7192C11.3159 26.3275 11.1331 25.7354 11.0854 24.6517C11.033 23.4766 11.0201 23.1239 11.0201 20.1511C11.0201 17.1783 11.033 16.8214 11.0854 15.6507C11.1331 14.5626 11.3159 13.975 11.4683 13.5832C11.6469 13.1 11.9298 12.6605 12.3043 12.3035C12.6655 11.9335 13.1008 11.6506 13.5841 11.4723C13.9759 11.3199 14.568 11.1372 15.652 11.0892C16.8274 11.037 17.1801 11.0239 20.1533 11.0239C23.1311 11.0239 23.4836 11.037 24.6547 11.0892C25.7431 11.1372 26.3308 11.3199 26.7226 11.4723C27.2057 11.6506 27.6454 11.9335 28.0024 12.3035C28.3724 12.6648 28.6554 13.1 28.8339 13.5832C28.9863 13.975 29.1691 14.5668 29.2171 15.6507C29.2693 16.8259 29.2824 17.1783 29.2824 20.1511C29.2824 23.1239 29.2693 23.4721 29.2171 24.6473Z" fill="#55B4E4"/>
<path d="M20.1404 15.0767C17.3448 15.0767 15.0767 17.3447 15.0767 20.1404C15.0767 22.9361 17.3448 25.2042 20.1404 25.2042C22.9361 25.2042 25.2042 22.9361 25.2042 20.1404C25.2042 17.3447 22.9361 15.0767 20.1404 15.0767ZM20.1404 23.4251C18.3268 23.4251 16.8557 21.9542 16.8557 20.1404C16.8557 18.3266 18.3268 16.8557 20.1404 16.8557C21.9542 16.8557 23.4251 18.3266 23.4251 20.1404C23.4251 21.9542 21.9542 23.4251 20.1404 23.4251Z" fill="#55B4E4"/>
<path d="M-nan -nanL27.2294 14.0638C27.2294 14.623 26.7759 15.0765 26.2165 15.0765C25.6573 15.0765 25.2039 14.623 25.2039 14.0638C25.2039 13.5044 25.6573 13.051 26.2165 13.051C26.7759 13.051 27.2294 13.5044 27.2294 14.0638L-nan -nanZ" fill="#55B4E4"/>
</svg>
