<svg width="41" height="41" viewBox="0 0 41 41" fill="none" xmlns="http://www.w3.org/2000/svg">
<rect width="41" height="41" rx="20.5" fill="white"/>
<path d="M15.4755 29H11.4196V15.7133H15.4755V29ZM13.3776 13.7552C12.1189 13.7552 11 12.7762 11 11.3776C11 9.97902 12.1189 9 13.3776 9C14.6364 9 15.7552 10.1189 15.7552 11.3776C15.7552 12.7762 14.7762 13.7552 13.3776 13.7552ZM31 29H26.9441V22.5664C26.9441 21.028 26.9441 19.0699 24.8462 19.0699C22.6084 19.0699 22.1888 20.7483 22.1888 22.4266V29H18.1329V15.7133H22.049V17.5315C22.6084 16.5524 24.007 15.4336 25.965 15.4336C30.1608 15.4336 30.8601 18.2308 30.8601 21.7273C31 21.7273 31 29 31 29Z" fill="#55B4E4"/>
</svg>
