<svg width="204" height="121" viewBox="0 0 204 121" fill="none" xmlns="http://www.w3.org/2000/svg">
<path d="M32.9948 113.945C36.009 113.945 38.4525 111.5 38.4525 108.483C38.4525 105.467 36.009 103.022 32.9948 103.022C29.9805 103.022 27.537 105.467 27.537 108.483C27.537 111.5 29.9805 113.945 32.9948 113.945Z" fill="white"/>
<path d="M9.79919 85.1483C13.704 85.1483 16.8695 81.9807 16.8695 78.0733C16.8695 74.1659 13.704 70.9983 9.79919 70.9983C5.89436 70.9983 2.72888 74.1659 2.72888 78.0733C2.72888 81.9807 5.89436 85.1483 9.79919 85.1483Z" fill="white"/>
<path d="M18.482 102.029C22.2498 102.029 25.3042 98.9726 25.3042 95.2023C25.3042 91.4319 22.2498 88.3755 18.482 88.3755C14.7142 88.3755 11.6598 91.4319 11.6598 95.2023C11.6598 98.9726 14.7142 102.029 18.482 102.029Z" fill="white"/>
<path d="M7.19434 65.785C11.1677 65.785 14.3887 62.5618 14.3887 58.5859C14.3887 54.6099 11.1677 51.3867 7.19434 51.3867C3.22102 51.3867 0 54.6099 0 58.5859C0 62.5618 3.22102 65.785 7.19434 65.785Z" fill="white"/>
<path d="M11.5358 45.9256C15.1666 45.9256 18.11 42.9803 18.11 39.3471C18.11 35.7139 15.1666 32.7686 11.5358 32.7686C7.90501 32.7686 4.96167 35.7139 4.96167 39.3471C4.96167 42.9803 7.90501 45.9256 11.5358 45.9256Z" fill="white"/>
<path d="M22.0792 28.5482C24.9564 28.5482 27.2889 26.2141 27.2889 23.335C27.2889 20.4558 24.9564 18.1218 22.0792 18.1218C19.202 18.1218 16.8695 20.4558 16.8695 23.335C16.8695 26.2141 19.202 28.5482 22.0792 28.5482Z" fill="white"/>
<path d="M37.8323 14.6464C39.8189 14.6464 41.4295 13.0348 41.4295 11.0468C41.4295 9.05885 39.8189 7.44727 37.8323 7.44727C35.8456 7.44727 34.2351 9.05885 34.2351 11.0468C34.2351 13.0348 35.8456 14.6464 37.8323 14.6464Z" fill="white"/>
<path d="M108.287 11.1713C110.274 11.1713 111.884 9.55972 111.884 7.57173C111.884 5.58375 110.274 3.97217 108.287 3.97217C106.301 3.97217 104.69 5.58375 104.69 7.57173C104.69 9.55972 106.301 11.1713 108.287 11.1713Z" fill="white"/>
<path d="M48.0037 119.655C49.9903 119.655 51.6008 118.043 51.6008 116.055C51.6008 114.067 49.9903 112.456 48.0037 112.456C46.017 112.456 44.4065 114.067 44.4065 116.055C44.4065 118.043 46.017 119.655 48.0037 119.655Z" fill="white"/>
<path d="M38.4525 100.043C41.4668 100.043 43.9103 97.5978 43.9103 94.5815C43.9103 91.5653 41.4668 89.1201 38.4525 89.1201C35.4383 89.1201 32.9948 91.5653 32.9948 94.5815C32.9948 97.5978 35.4383 100.043 38.4525 100.043Z" fill="white"/>
<path d="M28.9014 84.1553C32.5322 84.1553 35.4756 81.21 35.4756 77.5768C35.4756 73.9436 32.5322 70.9983 28.9014 70.9983C25.2706 70.9983 22.3273 73.9436 22.3273 77.5768C22.3273 81.21 25.2706 84.1553 28.9014 84.1553Z" fill="white"/>
<path d="M39.5689 29.0447C43.1997 29.0447 46.143 26.0994 46.143 22.4662C46.143 18.833 43.1997 15.8877 39.5689 15.8877C35.9381 15.8877 32.9948 18.833 32.9948 22.4662C32.9948 26.0994 35.9381 29.0447 39.5689 29.0447Z" fill="white"/>
<path d="M54.8259 15.8878C57.9771 15.8878 60.5317 13.3315 60.5317 10.1782C60.5317 7.02481 57.9771 4.46851 54.8259 4.46851C51.6746 4.46851 49.12 7.02481 49.12 10.1782C49.12 13.3315 51.6746 15.8878 54.8259 15.8878Z" fill="white"/>
<path d="M72.9358 6.95089C74.8539 6.95089 76.4089 5.39488 76.4089 3.47544C76.4089 1.55601 74.8539 0 72.9358 0C71.0176 0 69.4626 1.55601 69.4626 3.47544C69.4626 5.39488 71.0176 6.95089 72.9358 6.95089Z" fill="white"/>
<path d="M29.3976 46.1738C33.4394 46.1738 36.716 42.8951 36.716 38.8506C36.716 34.8061 33.4394 31.5273 29.3976 31.5273C25.3558 31.5273 22.0792 34.8061 22.0792 38.8506C22.0792 42.8951 25.3558 46.1738 29.3976 46.1738Z" fill="white"/>
<path d="M25.8004 65.5367C29.7737 65.5367 32.9948 62.3135 32.9948 58.3376C32.9948 54.3616 29.7737 51.1384 25.8004 51.1384C21.8271 51.1384 18.6061 54.3616 18.6061 58.3376C18.6061 62.3135 21.8271 65.5367 25.8004 65.5367Z" fill="white"/>
<path d="M50.2363 109.973C52.223 109.973 53.8335 108.361 53.8335 106.373C53.8335 104.386 52.223 102.774 50.2363 102.774C48.2497 102.774 46.6392 104.386 46.6392 106.373C46.6392 108.361 48.2497 109.973 50.2363 109.973Z" fill="white"/>
<path d="M47.3834 88.3755C50.3977 88.3755 52.8412 85.9303 52.8412 82.914C52.8412 79.8978 50.3977 77.4526 47.3834 77.4526C44.3692 77.4526 41.9257 79.8978 41.9257 82.914C41.9257 85.9303 44.3692 88.3755 47.3834 88.3755Z" fill="white"/>
<path d="M43.7863 70.502C47.4171 70.502 50.3604 67.5567 50.3604 63.9235C50.3604 60.2903 47.4171 57.345 43.7863 57.345C40.1555 57.345 37.2122 60.2903 37.2122 63.9235C37.2122 67.5567 40.1555 70.502 43.7863 70.502Z" fill="white"/>
<path d="M46.8872 52.1317C50.8605 52.1317 54.0815 48.9085 54.0815 44.9325C54.0815 40.9566 50.8605 37.7334 46.8872 37.7334C42.9139 37.7334 39.6929 40.9566 39.6929 44.9325C39.6929 48.9085 42.9139 52.1317 46.8872 52.1317Z" fill="white"/>
<path d="M55.8182 34.7545C59.7916 34.7545 63.0126 31.5313 63.0126 27.5553C63.0126 23.5794 59.7916 20.3562 55.8182 20.3562C51.8449 20.3562 48.6239 23.5794 48.6239 27.5553C48.6239 31.5313 51.8449 34.7545 55.8182 34.7545Z" fill="white"/>
<path d="M70.827 21.1012C74.3208 21.1012 77.1531 18.2671 77.1531 14.7709C77.1531 11.2748 74.3208 8.44067 70.827 8.44067C67.3333 8.44067 64.501 11.2748 64.501 14.7709C64.501 18.2671 67.3333 21.1012 70.827 21.1012Z" fill="white"/>
<path d="M88.937 12.9085C91.8827 12.9085 94.2707 10.5189 94.2707 7.57117C94.2707 4.62347 91.8827 2.23389 88.937 2.23389C85.9913 2.23389 83.6033 4.62347 83.6033 7.57117C83.6033 10.5189 85.9913 12.9085 88.937 12.9085Z" fill="white"/>
<path d="M55.198 101.781C57.1847 101.781 58.7952 100.169 58.7952 98.1811C58.7952 96.1931 57.1847 94.5815 55.198 94.5815C53.2113 94.5815 51.6008 96.1931 51.6008 98.1811C51.6008 100.169 53.2113 101.781 55.198 101.781Z" fill="white"/>
<path d="M59.1673 80.6801C62.25 80.6801 64.7491 78.1794 64.7491 75.0946C64.7491 72.0098 62.25 69.509 59.1673 69.509C56.0845 69.509 53.5854 72.0098 53.5854 75.0946C53.5854 78.1794 56.0845 80.6801 59.1673 80.6801Z" fill="white"/>
<path d="M141.158 25.8173C143.076 25.8173 144.631 24.2613 144.631 22.3419C144.631 20.4225 143.076 18.8665 141.158 18.8665C139.24 18.8665 137.685 20.4225 137.685 22.3419C137.685 24.2613 139.24 25.8173 141.158 25.8173Z" fill="white"/>
<path d="M122.304 21.8457C125.318 21.8457 127.762 19.4005 127.762 16.3843C127.762 13.368 125.318 10.9229 122.304 10.9229C119.29 10.9229 116.846 13.368 116.846 16.3843C116.846 19.4005 119.29 21.8457 122.304 21.8457Z" fill="white"/>
<path d="M102.705 23.8316C106.268 23.8316 109.156 20.9419 109.156 17.3772C109.156 13.8126 106.268 10.9229 102.705 10.9229C99.1432 10.9229 96.2554 13.8126 96.2554 17.3772C96.2554 20.9419 99.1432 23.8316 102.705 23.8316Z" fill="white"/>
<path d="M85.0918 32.0236C88.9281 32.0236 92.038 28.9116 92.038 25.0727C92.038 21.2338 88.9281 18.1218 85.0918 18.1218C81.2555 18.1218 78.1455 21.2338 78.1455 25.0727C78.1455 28.9116 81.2555 32.0236 85.0918 32.0236Z" fill="white"/>
<path d="M70.7031 45.4291C74.5394 45.4291 77.6494 42.3171 77.6494 38.4782C77.6494 34.6394 74.5394 31.5273 70.7031 31.5273C66.8668 31.5273 63.7568 34.6394 63.7568 38.4782C63.7568 42.3171 66.8668 45.4291 70.7031 45.4291Z" fill="white"/>
<path d="M61.4001 61.8133C65.0309 61.8133 67.9742 58.868 67.9742 55.2348C67.9742 51.6016 65.0309 48.6562 61.4001 48.6562C57.7693 48.6562 54.8259 51.6016 54.8259 55.2348C54.8259 58.868 57.7693 61.8133 61.4001 61.8133Z" fill="white"/>
<path d="M62.6404 94.8297C64.6271 94.8297 66.2376 93.2182 66.2376 91.2302C66.2376 89.2422 64.6271 87.6306 62.6404 87.6306C60.6537 87.6306 59.0432 89.2422 59.0432 91.2302C59.0432 93.2182 60.6537 94.8297 62.6404 94.8297Z" fill="white"/>
<path d="M169.687 53.6212C171.742 53.6212 173.408 51.9541 173.408 49.8975C173.408 47.841 171.742 46.1738 169.687 46.1738C167.632 46.1738 165.966 47.841 165.966 49.8975C165.966 51.9541 167.632 53.6212 169.687 53.6212Z" fill="white"/>
<path d="M154.43 43.9393C157.65 43.9393 160.26 41.3274 160.26 38.1055C160.26 34.8836 157.65 32.2717 154.43 32.2717C151.21 32.2717 148.6 34.8836 148.6 38.1055C148.6 41.3274 151.21 43.9393 154.43 43.9393Z" fill="white"/>
<path d="M135.824 38.4781C139.455 38.4781 142.398 35.5328 142.398 31.8996C142.398 28.2663 139.455 25.321 135.824 25.321C132.193 25.321 129.25 28.2663 129.25 31.8996C129.25 35.5328 132.193 38.4781 135.824 38.4781Z" fill="white"/>
<path d="M116.474 39.7193C120.516 39.7193 123.792 36.4405 123.792 32.396C123.792 28.3515 120.516 25.0728 116.474 25.0728C112.432 25.0728 109.156 28.3515 109.156 32.396C109.156 36.4405 112.432 39.7193 116.474 39.7193Z" fill="white"/>
<path d="M98.364 46.9182C102.406 46.9182 105.682 43.6395 105.682 39.595C105.682 35.5505 102.406 32.2717 98.364 32.2717C94.3222 32.2717 91.0457 35.5505 91.0457 39.595C91.0457 43.6395 94.3222 46.9182 98.364 46.9182Z" fill="white"/>
<path d="M83.9753 59.579C87.8802 59.579 91.0456 56.4114 91.0456 52.504C91.0456 48.5965 87.8802 45.429 83.9753 45.429C80.0705 45.429 76.905 48.5965 76.905 52.504C76.905 56.4114 80.0705 59.579 83.9753 59.579Z" fill="white"/>
<path d="M74.4242 75.2184C77.5755 75.2184 80.1301 72.6621 80.1301 69.5087C80.1301 66.3554 77.5755 63.7991 74.4242 63.7991C71.273 63.7991 68.7184 66.3554 68.7184 69.5087C68.7184 72.6621 71.273 75.2184 74.4242 75.2184Z" fill="white"/>
<path d="M70.827 89.12C72.8137 89.12 74.4242 87.5085 74.4242 85.5205C74.4242 83.5325 72.8137 81.9209 70.827 81.9209C68.8404 81.9209 67.2299 83.5325 67.2299 85.5205C67.2299 87.5085 68.8404 89.12 70.827 89.12Z" fill="white"/>
<path d="M94.8289 78.2917H89.8871V76.4348H101.807V78.2917H96.8656V91.3668H94.8264V78.2917H94.8289Z" fill="white"/>
<path d="M111.341 84.5429V91.3697H109.468V89.8752C108.808 90.9005 107.595 91.4962 105.886 91.4962C103.415 91.4962 101.85 90.1309 101.85 88.1673C101.85 86.3551 102.981 84.8606 106.236 84.8606H109.364V84.456C109.364 82.7282 108.396 81.7253 106.439 81.7253C105.142 81.7253 103.824 82.1944 102.981 82.9417L102.157 81.405C103.288 80.4667 104.916 79.9553 106.667 79.9553C109.654 79.9553 111.341 81.4498 111.341 84.5429ZM109.366 87.9116V86.3327H106.32C104.365 86.3327 103.807 87.1221 103.807 88.0828C103.807 89.2124 104.712 89.9174 106.216 89.9174C107.697 89.9174 108.87 89.2148 109.366 87.9116Z" fill="white"/>
<path d="M132.631 84.8629V91.3694H130.654V85.0987C130.654 82.8794 129.625 81.7921 127.834 81.7921C125.856 81.7921 124.559 83.0929 124.559 85.5456V91.3694H122.582V85.0987C122.582 82.8794 121.552 81.7921 119.761 81.7921C117.784 81.7921 116.486 83.0929 116.486 85.5456V91.3694H114.509V80.0643H116.402V81.7499C117.183 80.5981 118.523 79.9575 120.17 79.9575C121.837 79.9575 123.239 80.6402 123.959 82.0477C124.782 80.7668 126.305 79.9575 128.159 79.9575C130.82 79.955 132.631 81.5339 132.631 84.8629Z" fill="white"/>
<path d="M147.087 85.7146C147.087 89.1925 144.76 91.4962 141.57 91.4962C140.027 91.4962 138.667 90.8782 137.762 89.6618V95.5055H135.785V80.062H137.677V81.8544C138.563 80.5958 139.962 79.9553 141.57 79.9553C144.76 79.9553 147.087 82.259 147.087 85.7146ZM145.09 85.7146C145.09 83.3264 143.505 81.7476 141.404 81.7476C139.325 81.7476 137.739 83.3264 137.739 85.7146C137.739 88.125 139.325 89.7039 141.404 89.7039C143.505 89.7039 145.09 88.125 145.09 85.7146Z" fill="white"/>
<path d="M157.876 84.5429V91.3697H156.003V89.8752C155.343 90.9005 154.13 91.4962 152.421 91.4962C149.95 91.4962 148.385 90.1309 148.385 88.1673C148.385 86.3551 149.516 84.8606 152.771 84.8606H155.899V84.456C155.899 82.7282 154.931 81.7253 152.974 81.7253C151.677 81.7253 150.359 82.1944 149.516 82.9417L148.692 81.405C149.823 80.4667 151.451 79.9553 153.202 79.9553C156.189 79.9553 157.876 81.4498 157.876 84.5429ZM155.899 87.9116V86.3327H152.852C150.898 86.3327 150.339 87.1221 150.339 88.0828C150.339 89.2124 151.245 89.9174 152.748 89.9174C154.232 89.9174 155.405 89.2148 155.899 87.9116Z" fill="white"/>
<path d="M178.774 87.3377C178.774 89.8971 176.901 91.3692 173.257 91.3692H166.38V76.4373H172.845C176.16 76.4373 178.013 77.887 178.013 80.2974C178.013 81.9185 177.209 83.0505 176.078 83.6264C177.705 84.0932 178.774 85.3517 178.774 87.3377ZM168.439 78.165V82.9438H172.659C174.758 82.9438 175.954 82.1345 175.954 80.5556C175.954 78.9768 174.761 78.1675 172.659 78.1675H168.439V78.165ZM176.696 87.1664C176.696 85.4386 175.46 84.6716 173.175 84.6716H168.439V89.6414H173.175C175.46 89.6414 176.696 88.8942 176.696 87.1664Z" fill="white"/>
<path d="M189.834 84.5429V91.3697H187.958V89.8752C187.299 90.9005 186.085 91.4962 184.376 91.4962C181.905 91.4962 180.34 90.1309 180.34 88.1673C180.34 86.3551 181.471 84.8606 184.726 84.8606H187.857V84.456C187.857 82.7282 186.889 81.7253 184.932 81.7253C183.634 81.7253 182.317 82.1944 181.474 82.9417L180.65 81.405C181.781 80.4667 183.409 79.9553 185.16 79.9553C188.144 79.9553 189.834 81.4498 189.834 84.5429ZM187.857 87.9116V86.3327H184.81C182.855 86.3327 182.297 87.1221 182.297 88.0828C182.297 89.2124 183.203 89.9174 184.706 89.9174C186.19 89.9174 187.363 89.2148 187.857 87.9116Z" fill="white"/>
<path d="M202.454 80.062L197.162 92.4991C196.195 94.8873 194.939 95.6346 193.27 95.6346C192.22 95.6346 191.149 95.272 190.469 94.5893L191.312 93.0527C191.848 93.5864 192.528 93.8844 193.267 93.8844C194.215 93.8844 194.81 93.4351 195.346 92.1343L195.696 91.3448L190.878 80.0596H192.937L196.745 89.1032L200.514 80.0596H202.454V80.062Z" fill="white"/>
<path d="M89.5299 104.586H84.0151V120.648H77.5427V104.586H72.0278V99.3877H89.5299V104.586Z" fill="white"/>
<path d="M110.699 99.3877V120.648H104.226V112.863H97.5802V120.648H91.1078V99.3877H97.5802V107.667H104.226V99.3877H110.699Z" fill="white"/>
<path d="M124.948 120.648L121.522 114.228H119.548V120.648H113.075V99.3877H123.177C125.809 99.3877 127.801 100.041 129.156 101.349C130.51 102.655 131.188 104.579 131.188 107.113C131.188 110.464 130.027 112.505 127.705 113.242L131.972 120.65H124.948V120.648ZM124.152 108.622C124.569 108.255 124.777 107.714 124.777 106.996C124.777 105.39 123.964 104.586 122.339 104.586H119.553V109.176H122.339C123.13 109.176 123.735 108.992 124.152 108.622Z" fill="white"/>
<path d="M139.523 120.648H133.051V99.3877H139.523V120.648Z" fill="white"/>
<path d="M141.233 99.3877H148.142L153.309 112.632L158.477 99.3877H165.386L156.388 120.648H150.235L141.233 99.3877Z" fill="white"/>
<path d="M173.696 104.586V107.404H182.955V112.602H173.696V115.449H184.146V120.648H167.224V99.3877H184.146V104.586H173.696Z" fill="white"/>
<path d="M186.989 113.707C187.899 114.248 189.04 114.7 190.415 115.057C191.789 115.417 193.084 115.594 194.304 115.594C195.155 115.594 195.751 115.512 196.091 115.348C196.428 115.184 196.599 114.839 196.599 114.318C196.599 113.893 196.448 113.605 196.15 113.461C195.85 113.315 195.284 113.176 194.453 113.039L193.439 112.865C191.407 112.478 189.772 112.004 188.534 111.443C187.296 110.882 186.386 110.179 185.805 109.338C185.225 108.496 184.934 107.473 184.934 106.274C184.934 103.797 185.617 101.982 186.981 100.828C188.346 99.676 190.566 99.1001 193.642 99.1001C195.327 99.1001 196.932 99.3235 198.46 99.7679C199.988 100.212 201.342 100.803 202.523 101.54L199.968 106.101C199.117 105.636 198.085 105.259 196.877 104.969C195.666 104.678 194.54 104.532 193.496 104.532C192.761 104.532 192.233 104.619 191.913 104.792C191.593 104.966 191.434 105.266 191.434 105.693C191.434 106.024 191.521 106.274 191.695 106.448C191.868 106.622 192.111 106.748 192.421 106.825C192.732 106.902 193.282 107.009 194.076 107.146C196.262 107.476 198.008 107.905 199.316 108.439C200.623 108.973 201.581 109.658 202.188 110.502C202.799 111.344 203.104 112.404 203.104 113.682C203.104 116.219 202.427 118.073 201.072 119.243C199.718 120.414 197.502 121 194.426 121C192.548 121 190.759 120.772 189.058 120.318C187.353 119.863 185.895 119.191 184.674 118.299L186.989 113.707Z" fill="white"/>
</svg>
