<svg width="235" height="67" viewBox="0 0 235 67" fill="none" xmlns="http://www.w3.org/2000/svg">
<path fill-rule="evenodd" clip-rule="evenodd" d="M49.1016 28.702C49.3223 28.2125 49.4795 27.8478 49.65 27.4895C49.7736 27.229 49.7806 26.8392 50.1241 26.7862C50.5091 26.7287 50.9171 26.7314 51.3021 26.7916C51.6271 26.8428 51.582 27.2146 51.6421 27.4517C52.0748 29.17 52.4845 30.8936 52.903 32.6155C53.1159 33.493 53.3172 34.3732 53.5538 35.2445C53.6421 35.5705 53.5821 35.761 53.2607 35.8526C53.1971 35.8705 53.1318 35.8813 53.0699 35.9038C51.809 36.343 51.8063 36.3457 51.1485 35.1735C50.072 33.255 48.6813 31.6212 46.9073 30.3394C44.5964 28.6706 42.0497 28.1972 39.3035 28.8664C38.3312 29.1017 37.4526 29.5634 36.7179 30.2676C35.0163 31.8996 35.0358 34.2304 36.763 35.8301C37.5074 36.5181 38.3992 36.943 39.3317 37.2915C41.4333 38.0765 43.6012 38.6442 45.7452 39.2873C47.4539 39.8001 49.0936 40.4738 50.6955 41.2651C55.463 43.6184 55.8427 49.5034 52.5507 52.9237C50.7458 54.7982 48.5638 55.8374 46.0366 56.1788C44.5584 56.3773 43.0767 56.3593 41.6046 56.1177C39.677 55.8024 37.986 54.9339 36.4204 53.7797C36.1351 53.5695 35.8994 53.2704 35.4693 53.1824C35.215 53.9054 34.928 54.6168 34.7205 55.3506C34.5192 56.0611 33.9823 55.718 33.5796 55.797C33.1178 55.8877 33.0463 55.559 32.9827 55.2114C32.4926 52.5141 31.9981 49.8177 31.5072 47.1204C31.4824 46.9884 31.4727 46.8537 31.448 46.7216C31.1804 45.2872 31.1857 45.3205 32.5818 45.0483C33.0763 44.9531 33.2008 45.1435 33.3536 45.536C33.8004 46.6902 34.3629 47.7905 35.0808 48.7983C36.7736 51.1776 38.9114 52.9461 41.7662 53.6539C44.5213 54.3366 47.0644 53.8758 49.28 51.9941C50.1648 51.2423 50.7855 50.3135 50.9127 49.1082C51.099 47.3423 50.4774 45.9591 48.9983 44.9998C47.7947 44.2184 46.4596 43.7396 45.1015 43.3292C43.0846 42.7202 41.0598 42.1408 39.0438 41.5274C37.6213 41.0953 36.2446 40.5313 35.0137 39.6744C32.9792 38.2561 31.818 36.3322 31.8807 33.7616C31.9319 31.6445 32.8547 29.955 34.4759 28.6832C37.0252 26.6829 39.9498 25.9868 43.1226 26.3155C45.2904 26.5401 47.2887 27.2523 49.1016 28.702Z" fill="#2CB9EC"/>
<path fill-rule="evenodd" clip-rule="evenodd" d="M17.7129 40.8399C17.7129 44.1892 17.7129 47.5386 17.7138 50.8889C17.7138 51.4242 17.7129 51.9595 17.8312 52.4877C18.0405 53.4137 18.4397 53.8161 19.3589 53.9311C19.8154 53.9886 20.2808 54.0083 20.74 53.9894C21.2292 53.967 21.3899 54.1888 21.3492 54.6478C21.3342 54.814 21.3272 54.9855 21.3501 55.1499C21.4287 55.7059 21.1612 55.8119 20.6684 55.8092C17.4401 55.7912 14.2117 55.7975 10.9833 55.8002C10.299 55.8011 10.291 55.8281 10.3034 55.0646C10.306 54.8634 10.3105 54.6631 10.3052 54.4619C10.2954 54.1143 10.4765 53.9966 10.7952 53.9966C11.2235 53.9966 11.6527 53.9894 12.0792 53.9553C13.0735 53.8763 13.5477 53.4299 13.7446 52.4302C13.8435 51.9353 13.8673 51.4359 13.8673 50.9311C13.8664 44.0985 13.8682 37.2659 13.8647 30.4325C13.8638 28.9289 13.7578 28.8813 12.2964 28.8229C8.62386 28.6756 6.29089 30.5735 4.78355 33.7881C4.17956 35.0779 4.18132 35.0618 2.85413 34.5013C2.50003 34.3513 2.42144 34.2085 2.5539 33.8321C3.44134 31.3145 4.32084 28.7923 5.16502 26.2585C5.32485 25.778 5.61449 25.7502 5.99154 25.7762C6.35535 25.8014 6.82954 25.6172 6.90371 26.2361C6.96376 26.7355 7.3002 26.7543 7.69315 26.7534C13.0629 26.7472 18.4326 26.7472 23.8023 26.7543C24.2438 26.7543 24.5953 26.722 24.6041 26.1481C24.6085 25.8481 24.8319 25.7987 25.0854 25.7717C26.0602 25.6648 26.1892 25.7367 26.5203 26.6735C27.3212 28.9397 28.1292 31.2031 28.9168 33.4755C29.2338 34.3899 29.361 34.2767 28.3499 34.6351C27.2788 35.0133 27.4148 35.1776 26.9291 34.0405C26.6404 33.3642 26.2819 32.7238 25.8889 32.1031C24.5529 29.9977 22.6235 28.963 20.1907 28.8498C19.6326 28.8247 19.0719 28.8543 18.5112 28.8507C18.022 28.848 17.788 29.1247 17.7474 29.5873C17.7173 29.9196 17.7138 30.2555 17.7138 30.5905C17.712 34.0073 17.7129 37.4231 17.7129 40.8399Z" fill="#2CB9EC"/>
<path fill-rule="evenodd" clip-rule="evenodd" d="M68.5804 55.7995C65.4174 55.7995 62.2543 55.8022 59.0913 55.7977C58.3584 55.7959 58.3575 55.7851 58.3496 55.0288C58.3478 54.8276 58.3549 54.6255 58.3522 54.4252C58.3478 54.1288 58.5006 54.0121 58.7796 54.0076C59.2732 54.0004 59.7695 54.0049 60.2613 53.9627C61.1806 53.8818 61.6 53.4911 61.834 52.5758C61.9356 52.1815 61.9391 51.78 61.9391 51.3794C61.9409 44.6466 61.9471 37.9128 61.9356 31.1799C61.932 29.018 61.5152 28.6156 59.4083 28.5329C59.071 28.5195 58.58 28.7404 58.4238 28.3479C58.2736 27.9716 58.3628 27.4937 58.3593 27.0608C58.3584 26.8623 58.4891 26.7689 58.6745 26.7599C58.8723 26.75 59.0701 26.7491 59.2679 26.7491C62.3638 26.7491 65.4615 26.7437 68.5583 26.7581C68.8559 26.759 69.3045 26.5578 69.4184 26.9862C69.5367 27.4263 69.5226 27.9186 69.4025 28.3748C69.3557 28.5491 69.1358 28.5275 68.9742 28.5365C68.4161 28.5689 67.8528 28.5671 67.3 28.6407C66.424 28.7575 66.0125 29.1742 65.8845 30.0464C65.8209 30.4748 65.7997 30.9131 65.7988 31.3461C65.7935 37.946 65.7944 44.5451 65.798 51.1441C65.798 51.5788 65.8068 52.0163 65.8562 52.4483C65.9445 53.2225 66.19 53.4785 67.0183 53.5145C68.4003 53.5737 69.784 53.5998 71.1659 53.4704C75.2173 53.0923 77.9723 50.8881 79.7172 47.2325C80.3397 45.9265 80.3556 45.9543 81.6784 46.5148C82.0608 46.6765 82.0661 46.8705 81.9495 47.2037C80.9923 49.9109 80.0316 52.6172 79.107 55.3351C78.9216 55.8812 78.549 55.7977 78.1675 55.7986C74.9718 55.8004 71.7761 55.7995 68.5804 55.7995Z" fill="#2CB9EC"/>
<path fill-rule="evenodd" clip-rule="evenodd" d="M88.7419 55.7988C87.1277 55.7997 85.5135 55.7781 83.9002 55.8113C83.3704 55.8221 83.1912 55.6416 83.2521 55.1287C83.2795 54.897 83.2609 54.6599 83.2592 54.4263C83.2565 54.1299 83.4084 54.0132 83.6874 54.0078C84.1484 54.0006 84.612 54.0069 85.0685 53.9584C86.0443 53.8542 86.5449 53.3799 86.7021 52.3874C86.7807 51.8934 86.8107 51.3886 86.8116 50.8874C86.8187 44.4914 86.816 38.0953 86.816 31.6984C86.8169 31.128 86.7984 30.5586 86.6783 29.999C86.5034 29.187 86.0972 28.7693 85.2963 28.6481C84.8098 28.5744 84.3126 28.5439 83.8208 28.5466C83.3996 28.5484 83.2406 28.4029 83.2486 27.961C83.2751 26.4897 83.1682 26.7592 84.3727 26.7547C87.4024 26.7421 90.4329 26.7475 93.4635 26.7529C94.2017 26.7538 94.2017 26.7664 94.2105 27.5298C94.2132 27.6978 94.1999 27.8658 94.2132 28.0319C94.2441 28.4352 94.0436 28.5475 93.6798 28.5439C93.286 28.5412 92.8886 28.5708 92.4983 28.6247C91.4961 28.764 91.0069 29.2499 90.7694 30.2675C90.6537 30.7624 90.6396 31.2636 90.6396 31.7648C90.6369 38.1941 90.6369 44.6252 90.6369 51.0554C90.6369 51.2216 90.6396 51.3904 90.6475 51.5566C90.7376 53.3377 91.3433 53.9476 93.0741 54.0033C94.3033 54.0419 94.2821 54.041 94.222 55.3128C94.2026 55.7314 94.0339 55.806 93.6825 55.8042C92.0356 55.7934 90.3888 55.7988 88.7419 55.7988Z" fill="#2CB9EC"/>
<path fill-rule="evenodd" clip-rule="evenodd" d="M0.410889 19.384L73.3529 0L125.76 28.5743L123.953 31.9165L73.0244 4.34458L1.72484 23.5615L0.410889 19.384Z" fill="#2CB9EC"/>
<path fill-rule="evenodd" clip-rule="evenodd" d="M112.371 13.6949V10.9446H119.928V13.6922H112.371" fill="#2CB9EC"/>
<path fill-rule="evenodd" clip-rule="evenodd" d="M113.439 57.396V13.3682H119.27V57.4004H113.439" fill="#2CB9EC"/>
<path fill-rule="evenodd" clip-rule="evenodd" d="M0 60.6067H125.309V59.7085H0V60.6067Z" fill="#2CB9EC"/>
<path fill-rule="evenodd" clip-rule="evenodd" d="M0 66.8735H125.309V65.9753H0V66.8735Z" fill="#2CB9EC"/>
<path fill-rule="evenodd" clip-rule="evenodd" d="M3.03491 61.8281V61.4814H4.94138V61.8281H4.16519V65.0203H3.81022V61.8281H3.03491Z" fill="#2CB9EC"/>
<path fill-rule="evenodd" clip-rule="evenodd" d="M5.26294 62.4028H5.60114V62.7854C5.70181 62.6345 5.80865 62.5223 5.9208 62.4477C6.03206 62.3732 6.14862 62.3354 6.27048 62.3354C6.36143 62.3354 6.45945 62.3651 6.56365 62.4244L6.39057 62.7091C6.3217 62.6786 6.26342 62.6624 6.21573 62.6624C6.10535 62.6624 5.99939 62.7091 5.89696 62.8007C5.79453 62.8932 5.71594 63.036 5.66295 63.231C5.62145 63.3801 5.60114 63.6809 5.60114 64.1354V65.0202H5.26294V62.4028Z" fill="#2CB9EC"/>
<path fill-rule="evenodd" clip-rule="evenodd" d="M8.08534 62.6606C7.90167 62.6606 7.73124 62.7064 7.57495 62.798C7.41953 62.8905 7.29503 63.0199 7.20319 63.1869C7.11135 63.3531 7.06544 63.5292 7.06544 63.7151C7.06544 63.8992 7.11135 64.0753 7.20407 64.2441C7.29679 64.4121 7.42218 64.5432 7.57848 64.6366C7.73566 64.7309 7.90343 64.7768 8.08357 64.7768C8.2646 64.7768 8.4359 64.7309 8.59838 64.6375C8.75998 64.545 8.88537 64.4193 8.97279 64.2603C9.06021 64.1013 9.10348 63.9235 9.10348 63.725C9.10348 63.4223 9.00546 63.169 8.80943 62.966C8.61339 62.7621 8.37233 62.6606 8.08534 62.6606ZM9.40901 62.4028V65.0202H9.08229V64.5702C8.94365 64.7417 8.78735 64.8711 8.61516 64.9582C8.44297 65.0435 8.254 65.0875 8.04826 65.0875C7.68445 65.0875 7.37362 64.9537 7.11577 64.6842C6.85793 64.4157 6.729 64.0896 6.729 63.7043C6.729 63.3271 6.85969 63.0055 7.1193 62.7369C7.3798 62.4693 7.69239 62.3354 8.05797 62.3354C8.26901 62.3354 8.46063 62.3813 8.63194 62.4729C8.80237 62.5645 8.95248 62.701 9.08229 62.8842V62.4028H9.40901Z" fill="#2CB9EC"/>
<path fill-rule="evenodd" clip-rule="evenodd" d="M10.1536 62.4028H10.4847V62.8717C10.6172 62.692 10.7637 62.5582 10.9245 62.4693C11.0852 62.3804 11.26 62.3354 11.449 62.3354C11.6415 62.3354 11.8119 62.3848 11.9611 62.4845C12.1104 62.5842 12.2199 62.719 12.2914 62.886C12.362 63.0549 12.3982 63.3172 12.3982 63.6729V65.0202H12.0671V63.7717C12.0671 63.4699 12.0539 63.2696 12.03 63.1681C11.9912 62.9947 11.9179 62.8645 11.8093 62.7774C11.6998 62.6893 11.5585 62.6462 11.3836 62.6462C11.1832 62.6462 11.0039 62.7136 10.845 62.8483C10.6869 62.983 10.5818 63.1492 10.5315 63.3486C10.5006 63.478 10.4847 63.716 10.4847 64.0609V65.0202H10.1536V62.4028Z" fill="#2CB9EC"/>
<path fill-rule="evenodd" clip-rule="evenodd" d="M14.4011 62.6895L14.1883 62.9132C14.0117 62.738 13.8378 62.6509 13.6691 62.6509C13.5614 62.6509 13.4695 62.6868 13.3927 62.7587C13.3159 62.8305 13.2779 62.915 13.2779 63.0111C13.2779 63.0964 13.3097 63.1772 13.3724 63.2545C13.436 63.3335 13.5684 63.4251 13.7706 63.5311C14.017 63.6614 14.1848 63.7862 14.2731 63.9057C14.3605 64.0278 14.4029 64.1661 14.4029 64.317C14.4029 64.5326 14.3287 64.7149 14.1804 64.864C14.0329 65.0131 13.8466 65.0877 13.6241 65.0877C13.4757 65.0877 13.3344 65.0545 13.1993 64.9889C13.0642 64.9224 12.9521 64.8326 12.8638 64.7167L13.0722 64.476C13.2417 64.67 13.421 64.767 13.6099 64.767C13.7424 64.767 13.8554 64.7248 13.949 64.6377C14.0426 64.5506 14.0885 64.4491 14.0885 64.3323C14.0885 64.2362 14.0576 64.15 13.9967 64.0745C13.9349 64.0009 13.7954 63.9075 13.579 63.7952C13.3468 63.6739 13.1887 63.5536 13.1057 63.435C13.0218 63.3155 12.9794 63.1808 12.9794 63.0281C12.9794 62.8296 13.0466 62.6644 13.1799 62.5323C13.3132 62.4012 13.4819 62.3347 13.6859 62.3347C13.9225 62.3347 14.1609 62.4533 14.4011 62.6895Z" fill="#2CB9EC"/>
<path fill-rule="evenodd" clip-rule="evenodd" d="M14.9375 65.0197H15.2686V62.4024H14.9375V65.0197ZM15.1026 61.3254C15.1768 61.3254 15.2422 61.3533 15.2951 61.4072C15.3481 61.462 15.3755 61.5275 15.3755 61.6048C15.3755 61.6802 15.3481 61.7449 15.2951 61.7997C15.2422 61.8536 15.1768 61.8805 15.1026 61.8805C15.0285 61.8805 14.9649 61.8536 14.911 61.7997C14.858 61.7449 14.8315 61.6802 14.8315 61.6048C14.8315 61.5275 14.858 61.462 14.911 61.4072C14.9649 61.3533 15.0285 61.3254 15.1026 61.3254Z" fill="#2CB9EC"/>
<path fill-rule="evenodd" clip-rule="evenodd" d="M16.2456 61.4309H16.5767V62.4028H17.1012V62.6938H16.5767V65.0201H16.2456V62.6938H15.7935V62.4028H16.2456V61.4309Z" fill="#2CB9EC"/>
<path fill-rule="evenodd" clip-rule="evenodd" d="M17.5485 65.0197H17.8796V62.4024H17.5485V65.0197ZM17.7127 61.3254C17.7878 61.3254 17.8523 61.3533 17.9052 61.4072C17.9591 61.462 17.9856 61.5275 17.9856 61.6048C17.9856 61.6802 17.9591 61.7449 17.9052 61.7997C17.8523 61.8536 17.7878 61.8805 17.7127 61.8805C17.6394 61.8805 17.575 61.8536 17.522 61.7997C17.469 61.7449 17.4417 61.6802 17.4417 61.6048C17.4417 61.5275 17.469 61.462 17.522 61.4072C17.575 61.3533 17.6394 61.3254 17.7127 61.3254Z" fill="#2CB9EC"/>
<path fill-rule="evenodd" clip-rule="evenodd" d="M19.7846 62.6651C19.5091 62.6651 19.2724 62.7684 19.0746 62.9759C18.8768 63.1824 18.7779 63.4321 18.7779 63.7268C18.7779 63.9154 18.823 64.0914 18.9139 64.2558C19.004 64.4184 19.125 64.545 19.2786 64.6339C19.4323 64.7229 19.6009 64.7678 19.7846 64.7678C19.9683 64.7678 20.136 64.7229 20.2897 64.6339C20.4433 64.545 20.5652 64.4184 20.6553 64.2558C20.7453 64.0914 20.7904 63.9154 20.7904 63.7268C20.7904 63.4321 20.6915 63.1824 20.4928 62.9759C20.2941 62.7684 20.0583 62.6651 19.7846 62.6651ZM19.7855 62.3354C20.182 62.3354 20.5104 62.4819 20.7709 62.7738C21.0076 63.0396 21.1268 63.3549 21.1268 63.7187C21.1268 64.0842 21.0014 64.4049 20.7506 64.677C20.5007 64.951 20.1784 65.0875 19.7855 65.0875C19.3908 65.0875 19.0676 64.951 18.8177 64.677C18.5678 64.4049 18.4424 64.0842 18.4424 63.7187C18.4424 63.3567 18.5607 63.0423 18.7974 62.7756C19.0579 62.4828 19.3872 62.3354 19.7855 62.3354Z" fill="#2CB9EC"/>
<path fill-rule="evenodd" clip-rule="evenodd" d="M21.739 62.4028H22.0702V62.8717C22.2026 62.692 22.3492 62.5582 22.5099 62.4693C22.6706 62.3804 22.8455 62.3354 23.0344 62.3354C23.2269 62.3354 23.3973 62.3848 23.5466 62.4845C23.6958 62.5842 23.8053 62.719 23.8768 62.886C23.9475 63.0549 23.9837 63.3172 23.9837 63.6729V65.0202H23.6525V63.7717C23.6525 63.4699 23.6393 63.2696 23.6155 63.1681C23.5766 62.9947 23.5033 62.8645 23.3947 62.7774C23.2852 62.6893 23.1439 62.6462 22.9691 62.6462C22.7686 62.6462 22.5894 62.7136 22.4304 62.8483C22.2724 62.983 22.1673 63.1492 22.117 63.3486C22.086 63.478 22.0702 63.716 22.0702 64.0609V65.0202H21.739V62.4028Z" fill="#2CB9EC"/>
<path fill-rule="evenodd" clip-rule="evenodd" d="M25.933 62.6606C25.7493 62.6606 25.5789 62.7064 25.4226 62.798C25.2672 62.8905 25.1427 63.0199 25.0508 63.1869C24.959 63.3531 24.9131 63.5292 24.9131 63.7151C24.9131 63.8992 24.959 64.0753 25.0517 64.2441C25.1444 64.4121 25.2698 64.5432 25.4261 64.6366C25.5833 64.7309 25.7511 64.7768 25.9312 64.7768C26.1123 64.7768 26.2836 64.7309 26.446 64.6375C26.6076 64.545 26.733 64.4193 26.8204 64.2603C26.9079 64.1013 26.9511 63.9235 26.9511 63.725C26.9511 63.4223 26.8531 63.169 26.6571 62.966C26.461 62.7621 26.22 62.6606 25.933 62.6606ZM27.2567 62.4028V65.0202H26.9299V64.5702C26.7913 64.7417 26.635 64.8711 26.4628 64.9582C26.2906 65.0435 26.1017 65.0875 25.8959 65.0875C25.5321 65.0875 25.2213 64.9537 24.9634 64.6842C24.7056 64.4157 24.5767 64.0896 24.5767 63.7043C24.5767 63.3271 24.7073 63.0055 24.967 62.7369C25.2275 62.4693 25.54 62.3354 25.9056 62.3354C26.1167 62.3354 26.3083 62.3813 26.4796 62.4729C26.65 62.5645 26.8001 62.701 26.9299 62.8842V62.4028H27.2567Z" fill="#2CB9EC"/>
<path fill-rule="evenodd" clip-rule="evenodd" d="M27.9515 65.0197H28.2826V61.3918H27.9515V65.0197Z" fill="#2CB9EC"/>
<path fill-rule="evenodd" clip-rule="evenodd" d="M30.0066 64.3613L30.3024 64.1807C30.5099 64.5697 30.751 64.7646 31.0238 64.7646C31.1404 64.7646 31.2499 64.7376 31.3523 64.6819C31.4548 64.6272 31.5334 64.5526 31.5863 64.4592C31.6402 64.3667 31.6667 64.2679 31.6667 64.1637C31.6667 64.0442 31.627 63.9293 31.5484 63.8152C31.4398 63.658 31.2411 63.4685 30.9523 63.2475C30.6627 63.0248 30.4825 62.8631 30.411 62.7643C30.2883 62.5963 30.2265 62.4167 30.2265 62.2227C30.2265 62.0682 30.2627 61.9281 30.3351 61.8014C30.4084 61.6748 30.5099 61.5742 30.6415 61.5014C30.7731 61.4287 30.9161 61.3918 31.0706 61.3918C31.2349 61.3918 31.3877 61.4341 31.5307 61.5167C31.6738 61.5993 31.8248 61.7511 31.9837 61.9721L31.6994 62.1912C31.5696 62.0152 31.4574 61.8984 31.3656 61.8418C31.2729 61.7862 31.1722 61.7583 31.0636 61.7583C30.9232 61.7583 30.8084 61.8014 30.7201 61.8877C30.6309 61.9748 30.5859 62.0817 30.5859 62.2083C30.5859 62.2847 30.6018 62.3592 30.6335 62.432C30.6653 62.5038 30.7227 62.5829 30.8057 62.6673C30.8517 62.7122 31.0009 62.8308 31.2552 63.0212C31.5563 63.2475 31.7629 63.4478 31.8751 63.6248C31.9872 63.8017 32.0429 63.9787 32.0429 64.1556C32.0429 64.4134 31.9466 64.6361 31.755 64.8257C31.5643 65.0152 31.3311 65.1086 31.0565 65.1086C30.8455 65.1086 30.6539 65.052 30.4825 64.937C30.3104 64.823 30.1514 64.6307 30.0066 64.3613Z" fill="#2CB9EC"/>
<path fill-rule="evenodd" clip-rule="evenodd" d="M34.8906 63.4465C34.8464 63.2678 34.782 63.1241 34.6972 63.0163C34.6133 62.9085 34.5012 62.8223 34.3625 62.7558C34.2239 62.6902 34.0773 62.6579 33.9246 62.6579C33.672 62.6579 33.4548 62.7405 33.2729 62.9049C33.1404 63.0262 33.0406 63.2058 32.9726 63.4465H34.8906ZM34.8906 64.1516L35.1696 64.3007C35.0778 64.483 34.9718 64.6312 34.8526 64.7435C34.7325 64.8558 34.5974 64.9411 34.4482 64.9995C34.2981 65.0579 34.1277 65.0875 33.9387 65.0875C33.5192 65.0875 33.1908 64.9474 32.9541 64.6672C32.7174 64.3878 32.5991 64.0717 32.5991 63.7187C32.5991 63.3872 32.6989 63.0908 32.8994 62.8304C33.1537 62.5007 33.4936 62.3354 33.9193 62.3354C34.3581 62.3354 34.7087 62.5043 34.9709 62.8429C35.1564 63.0827 35.2518 63.3809 35.2544 63.7375H32.94C32.9453 64.042 33.0415 64.2908 33.2261 64.4857C33.4106 64.6797 33.6393 64.7767 33.9104 64.7767C34.0411 64.7767 34.1692 64.7543 34.2928 64.7076C34.4164 64.6618 34.5224 64.5998 34.6089 64.5226C34.6954 64.4462 34.789 64.3232 34.8906 64.1516Z" fill="#2CB9EC"/>
<path fill-rule="evenodd" clip-rule="evenodd" d="M35.7463 62.4028H36.0845V62.7854C36.1852 62.6345 36.2921 62.5223 36.4042 62.4477C36.5155 62.3732 36.632 62.3354 36.7539 62.3354C36.8448 62.3354 36.9428 62.3651 37.047 62.4244L36.874 62.7091C36.8051 62.6786 36.7468 62.6624 36.6991 62.6624C36.5888 62.6624 36.4828 62.7091 36.3804 62.8007C36.2779 62.8932 36.1993 63.036 36.1464 63.231C36.1048 63.3801 36.0845 63.6809 36.0845 64.1354V65.0202H35.7463V62.4028Z" fill="#2CB9EC"/>
<path fill-rule="evenodd" clip-rule="evenodd" d="M37.0852 62.4028H37.4375L38.3011 64.3106L39.1541 62.4028H39.5091L38.3312 65.0202H38.2702L37.0852 62.4028Z" fill="#2CB9EC"/>
<path fill-rule="evenodd" clip-rule="evenodd" d="M39.9624 65.0197H40.2935V62.4024H39.9624V65.0197ZM40.1275 61.3254C40.2026 61.3254 40.2671 61.3533 40.32 61.4072C40.3739 61.462 40.4004 61.5275 40.4004 61.6048C40.4004 61.6802 40.3739 61.7449 40.32 61.7997C40.2671 61.8536 40.2026 61.8805 40.1275 61.8805C40.0534 61.8805 39.9898 61.8536 39.9368 61.7997C39.8838 61.7449 39.8564 61.6802 39.8564 61.6048C39.8564 61.5275 39.8838 61.462 39.9368 61.4072C39.9898 61.3533 40.0534 61.3254 40.1275 61.3254Z" fill="#2CB9EC"/>
<path fill-rule="evenodd" clip-rule="evenodd" d="M43.48 62.9464L43.2177 63.1126C42.9908 62.8063 42.6809 62.6527 42.2888 62.6527C41.9753 62.6527 41.7148 62.7551 41.5082 62.9608C41.3016 63.1655 41.1983 63.4143 41.1983 63.7081C41.1983 63.8985 41.2451 64.0781 41.3404 64.2461C41.4358 64.414 41.5665 64.5443 41.7325 64.6377C41.8985 64.7302 42.0848 64.7769 42.2914 64.7769C42.6694 64.7769 42.9784 64.6233 43.2177 64.317L43.48 64.4931C43.3564 64.6817 43.1913 64.8281 42.9846 64.9314C42.7771 65.0356 42.5413 65.0877 42.2764 65.0877C41.8694 65.0877 41.532 64.9557 41.2636 64.6925C40.996 64.4293 40.8618 64.1096 40.8618 63.7332C40.8618 63.4799 40.9245 63.2446 41.0499 63.0272C41.1753 62.8099 41.3475 62.6401 41.5665 62.5179C41.7864 62.3967 42.031 62.3347 42.302 62.3347C42.4725 62.3347 42.6367 62.3626 42.7957 62.4147C42.9537 62.4676 43.0879 62.5368 43.1983 62.6221C43.3087 62.7066 43.4023 62.8153 43.48 62.9464Z" fill="#2CB9EC"/>
<path fill-rule="evenodd" clip-rule="evenodd" d="M46.2819 63.4465C46.2378 63.2678 46.1733 63.1241 46.0886 63.0163C46.0047 62.9085 45.8925 62.8223 45.7539 62.7558C45.6153 62.6902 45.4687 62.6579 45.3159 62.6579C45.0634 62.6579 44.8461 62.7405 44.6642 62.9049C44.5318 63.0262 44.432 63.2058 44.364 63.4465H46.2819ZM46.2819 64.1516L46.561 64.3007C46.4691 64.483 46.3632 64.6312 46.244 64.7435C46.1239 64.8558 45.9888 64.9411 45.8395 64.9995C45.6894 65.0579 45.519 65.0875 45.33 65.0875C44.9106 65.0875 44.5821 64.9474 44.3455 64.6672C44.1088 64.3878 43.9905 64.0717 43.9905 63.7187C43.9905 63.3872 44.0903 63.0908 44.2907 62.8304C44.545 62.5007 44.885 62.3354 45.3106 62.3354C45.7495 62.3354 46.1 62.5043 46.3623 62.8429C46.5477 63.0827 46.6431 63.3809 46.6458 63.7375H44.3313C44.3366 64.042 44.4329 64.2908 44.6174 64.4857C44.802 64.6797 45.0307 64.7767 45.3018 64.7767C45.4325 64.7767 45.5605 64.7543 45.6841 64.7076C45.8078 64.6618 45.9137 64.5998 46.0003 64.5226C46.0868 64.4462 46.1804 64.3232 46.2819 64.1516Z" fill="#2CB9EC"/>
<path fill-rule="evenodd" clip-rule="evenodd" d="M48.5569 62.6895L48.3441 62.9132C48.1675 62.738 47.9935 62.6509 47.8249 62.6509C47.7171 62.6509 47.6253 62.6868 47.5485 62.7587C47.4716 62.8305 47.4337 62.915 47.4337 63.0111C47.4337 63.0964 47.4655 63.1772 47.5282 63.2545C47.5917 63.3335 47.7242 63.4251 47.9264 63.5311C48.1728 63.6614 48.3405 63.7862 48.4289 63.9057C48.5163 64.0278 48.5587 64.1661 48.5587 64.317C48.5587 64.5326 48.4845 64.7149 48.3361 64.864C48.1887 65.0131 48.0023 65.0877 47.7798 65.0877C47.6315 65.0877 47.4902 65.0545 47.3551 64.9889C47.22 64.9224 47.1078 64.8326 47.0195 64.7167L47.2279 64.476C47.3975 64.67 47.5767 64.767 47.7657 64.767C47.8981 64.767 48.0112 64.7248 48.1048 64.6377C48.1984 64.5506 48.2443 64.4491 48.2443 64.3323C48.2443 64.2362 48.2134 64.15 48.1525 64.0745C48.0907 64.0009 47.9511 63.9075 47.7348 63.7952C47.5026 63.6739 47.3445 63.5536 47.2615 63.435C47.1776 63.3155 47.1352 63.1808 47.1352 63.0281C47.1352 62.8296 47.2023 62.6644 47.3357 62.5323C47.469 62.4012 47.6377 62.3347 47.8416 62.3347C48.0783 62.3347 48.3167 62.4533 48.5569 62.6895Z" fill="#2CB9EC"/>
<path fill-rule="evenodd" clip-rule="evenodd" d="M51.7009 62.6651C51.4254 62.6651 51.1887 62.7684 50.9909 62.9759C50.7931 63.1824 50.6942 63.4321 50.6942 63.7268C50.6942 63.9154 50.7392 64.0914 50.8302 64.2558C50.9203 64.4184 51.0412 64.545 51.1949 64.6339C51.3485 64.7229 51.5172 64.7678 51.7009 64.7678C51.8845 64.7678 52.0523 64.7229 52.206 64.6339C52.3596 64.545 52.4815 64.4184 52.5715 64.2558C52.6616 64.0914 52.7066 63.9154 52.7066 63.7268C52.7066 63.4321 52.6077 63.1824 52.4091 62.9759C52.2104 62.7684 51.9746 62.6651 51.7009 62.6651ZM51.7017 62.3354C52.0982 62.3354 52.4267 62.4819 52.6872 62.7738C52.9239 63.0396 53.0431 63.3549 53.0431 63.7187C53.0431 64.0842 52.9177 64.4049 52.6669 64.677C52.417 64.951 52.0947 65.0875 51.7017 65.0875C51.307 65.0875 50.9838 64.951 50.7339 64.677C50.484 64.4049 50.3586 64.0842 50.3586 63.7187C50.3586 63.3567 50.477 63.0423 50.7136 62.7756C50.9741 62.4828 51.3035 62.3354 51.7017 62.3354Z" fill="#2CB9EC"/>
<path fill-rule="evenodd" clip-rule="evenodd" d="M54.7149 61.3922V61.7218C54.5931 61.6697 54.4898 61.6427 54.4023 61.6427C54.3379 61.6427 54.2849 61.6562 54.2416 61.6823C54.1992 61.7092 54.1727 61.7398 54.1613 61.7739C54.1507 61.808 54.1445 61.8996 54.1445 62.0487V62.4026H54.6814V62.6936H54.1445L54.1427 65.02H53.8116V62.6936H53.4734V62.4026H53.8116V61.9939C53.8116 61.8062 53.8284 61.6724 53.8628 61.5924C53.8964 61.5125 53.9538 61.4478 54.035 61.3984C54.1162 61.3499 54.2143 61.3257 54.329 61.3257C54.4368 61.3257 54.5648 61.3472 54.7149 61.3922Z" fill="#2CB9EC"/>
<path fill-rule="evenodd" clip-rule="evenodd" d="M56.5737 65.0202V61.4822H56.6497L58.965 64.1938V61.4822H59.3076V65.0202H59.2299L56.9331 62.3409V65.0202H56.5737Z" fill="#2CB9EC"/>
<path fill-rule="evenodd" clip-rule="evenodd" d="M62.2663 63.4465C62.2222 63.2678 62.1577 63.1241 62.0729 63.0163C61.989 62.9085 61.8769 62.8223 61.7383 62.7558C61.5996 62.6902 61.453 62.6579 61.3003 62.6579C61.0477 62.6579 60.8305 62.7405 60.6486 62.9049C60.5161 63.0262 60.4164 63.2058 60.3484 63.4465H62.2663ZM62.2663 64.1516L62.5454 64.3007C62.4535 64.483 62.3476 64.6312 62.2283 64.7435C62.1083 64.8558 61.9732 64.9411 61.8239 64.9995C61.6738 65.0579 61.5034 65.0875 61.3144 65.0875C60.895 65.0875 60.5665 64.9474 60.3298 64.6672C60.0932 64.3878 59.9749 64.0717 59.9749 63.7187C59.9749 63.3872 60.0746 63.0908 60.2751 62.8304C60.5294 62.5007 60.8694 62.3354 61.295 62.3354C61.7339 62.3354 62.0844 62.5043 62.3467 62.8429C62.5321 63.0827 62.6266 63.3809 62.6301 63.7375H60.3157C60.321 64.042 60.4173 64.2908 60.6018 64.4857C60.7864 64.6797 61.0151 64.7767 61.2862 64.7767C61.4168 64.7767 61.5449 64.7543 61.6685 64.7076C61.7921 64.6618 61.8981 64.5998 61.9846 64.5226C62.0712 64.4462 62.1648 64.3232 62.2663 64.1516Z" fill="#2CB9EC"/>
<path fill-rule="evenodd" clip-rule="evenodd" d="M62.9001 62.4028H63.241L64.0287 64.3034L64.8499 62.4028H64.9099L65.7364 64.3034L66.54 62.4028H66.8853L65.7665 65.0202H65.7055L64.8826 63.1465L64.0605 65.0202H63.9986L62.9001 62.4028Z" fill="#2CB9EC"/>
<path fill-rule="evenodd" clip-rule="evenodd" d="M68.394 61.4817H68.7941L69.6842 62.9413L70.5601 61.4817H70.9619L69.8599 63.3293V65.0197H69.5164V63.3293L68.394 61.4817Z" fill="#2CB9EC"/>
<path fill-rule="evenodd" clip-rule="evenodd" d="M72.6971 62.6651C72.4216 62.6651 72.1849 62.7684 71.9871 62.9759C71.7902 63.1824 71.6904 63.4321 71.6904 63.7268C71.6904 63.9154 71.7355 64.0914 71.8264 64.2558C71.9156 64.4184 72.0384 64.545 72.192 64.6339C72.3456 64.7229 72.5134 64.7678 72.6971 64.7678C72.8808 64.7678 73.0485 64.7229 73.2022 64.6339C73.3558 64.545 73.4777 64.4184 73.5678 64.2558C73.6578 64.0914 73.7038 63.9154 73.7038 63.7268C73.7038 63.4321 73.604 63.1824 73.4053 62.9759C73.2066 62.7684 72.9708 62.6651 72.6971 62.6651ZM72.698 62.3354C73.0945 62.3354 73.423 62.4819 73.6835 62.7738C73.921 63.0396 74.0393 63.3549 74.0393 63.7187C74.0393 64.0842 73.9139 64.4049 73.664 64.677C73.4132 64.951 73.0909 65.0875 72.698 65.0875C72.3033 65.0875 71.9801 64.951 71.7302 64.677C71.4803 64.4049 71.354 64.0842 71.354 63.7187C71.354 63.3567 71.4732 63.0423 71.7108 62.7756C71.9712 62.4828 72.3006 62.3354 72.698 62.3354Z" fill="#2CB9EC"/>
<path fill-rule="evenodd" clip-rule="evenodd" d="M74.5261 62.4028H74.8652V62.7854C74.9659 62.6345 75.0718 62.5223 75.184 62.4477C75.2961 62.3732 75.4127 62.3354 75.5345 62.3354C75.6255 62.3354 75.7226 62.3651 75.8277 62.4244L75.6546 62.7091C75.5849 62.6786 75.5275 62.6624 75.4798 62.6624C75.3694 62.6624 75.2626 62.7091 75.1601 62.8007C75.0586 62.8932 74.98 63.036 74.9261 63.231C74.8846 63.3801 74.8652 63.6809 74.8652 64.1354V65.0202H74.5261V62.4028Z" fill="#2CB9EC"/>
<path fill-rule="evenodd" clip-rule="evenodd" d="M76.106 61.3923H76.4371V63.4591L77.6301 62.4028H78.1157L76.702 63.6522L78.1987 65.0201H77.7334L76.4371 63.8426V65.0201H76.106V61.3923Z" fill="#2CB9EC"/>
<path fill-rule="evenodd" clip-rule="evenodd" d="M80.9394 61.3922V61.7218C80.8184 61.6697 80.7142 61.6427 80.6268 61.6427C80.5623 61.6427 80.5094 61.6562 80.467 61.6823C80.4246 61.7092 80.3972 61.7398 80.3866 61.7739C80.3751 61.808 80.369 61.8996 80.369 62.0487V62.4026H80.9067V62.6936H80.369L80.3681 65.02H80.0369V62.6936H79.6987V62.4026H80.0369V61.9939C80.0369 61.8062 80.0528 61.6724 80.0873 61.5924C80.1208 61.5125 80.1791 61.4478 80.2595 61.3984C80.3407 61.3499 80.4396 61.3257 80.5535 61.3257C80.6621 61.3257 80.7902 61.3472 80.9394 61.3922Z" fill="#2CB9EC"/>
<path fill-rule="evenodd" clip-rule="evenodd" d="M82.6175 62.6651C82.342 62.6651 82.1053 62.7684 81.9075 62.9759C81.7106 63.1824 81.6108 63.4321 81.6108 63.7268C81.6108 63.9154 81.6559 64.0914 81.7468 64.2558C81.836 64.4184 81.9588 64.545 82.1124 64.6339C82.2661 64.7229 82.4338 64.7678 82.6175 64.7678C82.8012 64.7678 82.969 64.7229 83.1226 64.6339C83.2762 64.545 83.3981 64.4184 83.4882 64.2558C83.5782 64.0914 83.6242 63.9154 83.6242 63.7268C83.6242 63.4321 83.5244 63.1824 83.3257 62.9759C83.127 62.7684 82.8912 62.6651 82.6175 62.6651ZM82.6184 62.3354C83.0149 62.3354 83.3434 62.4819 83.6039 62.7738C83.8414 63.0396 83.9597 63.3549 83.9597 63.7187C83.9597 64.0842 83.8343 64.4049 83.5844 64.677C83.3336 64.951 83.0113 65.0875 82.6184 65.0875C82.2237 65.0875 81.9005 64.951 81.6506 64.677C81.4007 64.4049 81.2744 64.0842 81.2744 63.7187C81.2744 63.3567 81.3936 63.0423 81.6312 62.7756C81.8917 62.4828 82.221 62.3354 82.6184 62.3354Z" fill="#2CB9EC"/>
<path fill-rule="evenodd" clip-rule="evenodd" d="M84.4465 62.4028H84.7856V62.7854C84.8863 62.6345 84.9922 62.5223 85.1044 62.4477C85.2165 62.3732 85.3331 62.3354 85.455 62.3354C85.5459 62.3354 85.643 62.3651 85.7481 62.4244L85.575 62.7091C85.5053 62.6786 85.4479 62.6624 85.4002 62.6624C85.2898 62.6624 85.183 62.7091 85.0805 62.8007C84.979 62.8932 84.9004 63.036 84.8465 63.231C84.805 63.3801 84.7856 63.6809 84.7856 64.1354V65.0202H84.4465V62.4028Z" fill="#2CB9EC"/>
<path fill-rule="evenodd" clip-rule="evenodd" d="M87.4241 61.4817H87.772V64.6793H89.1098V65.0197H87.4241V61.4817Z" fill="#2CB9EC"/>
<path fill-rule="evenodd" clip-rule="evenodd" d="M90.8236 62.6651C90.5481 62.6651 90.3114 62.7684 90.1136 62.9759C89.9167 63.1824 89.8169 63.4321 89.8169 63.7268C89.8169 63.9154 89.8619 64.0914 89.9529 64.2558C90.0421 64.4184 90.1648 64.545 90.3185 64.6339C90.4721 64.7229 90.6399 64.7678 90.8236 64.7678C91.0072 64.7678 91.175 64.7229 91.3287 64.6339C91.4823 64.545 91.6042 64.4184 91.6942 64.2558C91.7843 64.0914 91.8302 63.9154 91.8302 63.7268C91.8302 63.4321 91.7304 63.1824 91.5318 62.9759C91.3331 62.7684 91.0973 62.6651 90.8236 62.6651ZM90.8244 62.3354C91.2209 62.3354 91.5494 62.4819 91.8099 62.7738C92.0474 63.0396 92.1658 63.3549 92.1658 63.7187C92.1658 64.0842 92.0404 64.4049 91.7905 64.677C91.5397 64.951 91.2174 65.0875 90.8244 65.0875C90.4297 65.0875 90.1065 64.951 89.8566 64.677C89.6067 64.4049 89.4805 64.0842 89.4805 63.7187C89.4805 63.3567 89.5997 63.0423 89.8372 62.7756C90.0977 62.4828 90.4271 62.3354 90.8244 62.3354Z" fill="#2CB9EC"/>
<path fill-rule="evenodd" clip-rule="evenodd" d="M92.7783 62.4028H93.1095V62.8717C93.241 62.692 93.3876 62.5582 93.5492 62.4693C93.7099 62.3804 93.8848 62.3354 94.0746 62.3354C94.2671 62.3354 94.4375 62.3848 94.5859 62.4845C94.7351 62.5842 94.8455 62.719 94.9161 62.886C94.9868 63.0549 95.0221 63.3172 95.0221 63.6729V65.0202H94.691V63.7717C94.691 63.4699 94.6786 63.2696 94.6548 63.1681C94.6159 62.9947 94.5426 62.8645 94.434 62.7774C94.3254 62.6893 94.1832 62.6462 94.0084 62.6462C93.8079 62.6462 93.6287 62.7136 93.4697 62.8483C93.3117 62.983 93.2066 63.1492 93.1571 63.3486C93.1254 63.478 93.1095 63.716 93.1095 64.0609V65.0202H92.7783V62.4028Z" fill="#2CB9EC"/>
<path fill-rule="evenodd" clip-rule="evenodd" d="M96.9735 62.6606C96.7854 62.6606 96.6115 62.7064 96.4508 62.798C96.29 62.8914 96.1638 63.0181 96.0719 63.1807C95.981 63.3441 95.9351 63.5202 95.9351 63.7088C95.9351 63.9962 96.0295 64.2333 96.2194 64.4211C96.4075 64.6088 96.653 64.7022 96.955 64.7022C97.2578 64.7022 97.5033 64.6097 97.6888 64.4238C97.8742 64.2378 97.966 63.9926 97.966 63.6899C97.966 63.4932 97.9237 63.3163 97.838 63.1618C97.7541 63.0073 97.6331 62.8852 97.4768 62.7944C97.3214 62.7055 97.1528 62.6606 96.9735 62.6606ZM97.9493 62.4028H98.2804V64.4884C98.2804 64.8558 98.2495 65.1244 98.1859 65.295C98.0994 65.5348 97.9484 65.7199 97.7347 65.8501C97.5201 65.9794 97.2623 66.045 96.9612 66.045C96.7404 66.045 96.5426 66.0127 96.3669 65.9498C96.1903 65.886 96.0472 65.8007 95.9368 65.6938C95.8265 65.5869 95.7249 65.4306 95.6322 65.2241H95.9916C96.0896 65.3983 96.2159 65.5258 96.3704 65.6094C96.5249 65.6929 96.7174 65.7342 96.9461 65.7342C97.1722 65.7342 97.362 65.692 97.5175 65.6058C97.6729 65.5214 97.7841 65.4127 97.8504 65.2842C97.9166 65.154 97.9493 64.9456 97.9493 64.6573V64.5217C97.8256 64.6824 97.6729 64.8055 97.4927 64.8908C97.3135 64.977 97.1219 65.0202 96.9196 65.0202C96.6839 65.0202 96.4605 64.9609 96.253 64.8414C96.0437 64.722 95.8839 64.5603 95.7699 64.3591C95.656 64.1561 95.5986 63.9342 95.5986 63.6917C95.5986 63.4501 95.6587 63.2247 95.777 63.0154C95.8944 62.8061 96.0587 62.6408 96.268 62.5187C96.4773 62.3965 96.698 62.3354 96.9294 62.3354C97.1219 62.3354 97.3011 62.3768 97.4689 62.4567C97.6349 62.5375 97.7956 62.6723 97.9493 62.8582V62.4028Z" fill="#2CB9EC"/>
<path fill-rule="evenodd" clip-rule="evenodd" d="M100.335 65.0197H100.683V61.4817H100.335V65.0197Z" fill="#2CB9EC"/>
<path fill-rule="evenodd" clip-rule="evenodd" d="M102.72 62.6895L102.507 62.9132C102.331 62.738 102.157 62.6509 101.988 62.6509C101.88 62.6509 101.788 62.6868 101.712 62.7587C101.635 62.8305 101.597 62.915 101.597 63.0111C101.597 63.0964 101.629 63.1772 101.691 63.2545C101.754 63.3335 101.888 63.4251 102.09 63.5311C102.336 63.6614 102.504 63.7862 102.592 63.9057C102.679 64.0278 102.723 64.1661 102.723 64.317C102.723 64.5326 102.649 64.7149 102.499 64.864C102.351 65.0131 102.166 65.0877 101.943 65.0877C101.795 65.0877 101.654 65.0545 101.518 64.9889C101.382 64.9224 101.271 64.8326 101.183 64.7167L101.391 64.476C101.561 64.67 101.74 64.767 101.929 64.767C102.062 64.767 102.175 64.7248 102.268 64.6377C102.362 64.5506 102.408 64.4491 102.408 64.3323C102.408 64.2362 102.377 64.15 102.316 64.0745C102.254 64.0009 102.114 63.9075 101.898 63.7952C101.667 63.6739 101.508 63.5536 101.424 63.435C101.341 63.3155 101.299 63.1808 101.299 63.0281C101.299 62.8296 101.366 62.6644 101.499 62.5323C101.633 62.4012 101.801 62.3347 102.004 62.3347C102.242 62.3347 102.481 62.4533 102.72 62.6895Z" fill="#2CB9EC"/>
<path fill-rule="evenodd" clip-rule="evenodd" d="M103.257 65.0197H103.588V61.3918H103.257V65.0197Z" fill="#2CB9EC"/>
<path fill-rule="evenodd" clip-rule="evenodd" d="M105.516 62.6606C105.332 62.6606 105.162 62.7064 105.006 62.798C104.85 62.8905 104.726 63.0199 104.634 63.1869C104.541 63.3531 104.496 63.5292 104.496 63.7151C104.496 63.8992 104.542 64.0753 104.635 64.2441C104.727 64.4121 104.853 64.5432 105.01 64.6366C105.166 64.7309 105.334 64.7768 105.513 64.7768C105.694 64.7768 105.867 64.7309 106.029 64.6375C106.192 64.545 106.315 64.4193 106.403 64.2603C106.491 64.1013 106.534 63.9235 106.534 63.725C106.534 63.4223 106.436 63.169 106.24 62.966C106.044 62.7621 105.803 62.6606 105.516 62.6606ZM106.84 62.4028V65.0202H106.513V64.5702C106.374 64.7417 106.219 64.8711 106.047 64.9582C105.873 65.0435 105.684 65.0875 105.48 65.0875C105.115 65.0875 104.804 64.9537 104.546 64.6842C104.289 64.4157 104.16 64.0896 104.16 63.7043C104.16 63.3271 104.289 63.0055 104.55 62.7369C104.81 62.4693 105.124 62.3354 105.49 62.3354C105.701 62.3354 105.891 62.3813 106.063 62.4729C106.233 62.5645 106.383 62.701 106.513 62.8842V62.4028H106.84Z" fill="#2CB9EC"/>
<path fill-rule="evenodd" clip-rule="evenodd" d="M107.585 62.4028H107.916V62.8717C108.047 62.692 108.194 62.5582 108.356 62.4693C108.516 62.3804 108.691 62.3354 108.881 62.3354C109.074 62.3354 109.244 62.3848 109.392 62.4845C109.542 62.5842 109.652 62.719 109.723 62.886C109.793 63.0549 109.828 63.3172 109.828 63.6729V65.0202H109.497V63.7717C109.497 63.4699 109.485 63.2696 109.461 63.1681C109.422 62.9947 109.349 62.8645 109.24 62.7774C109.132 62.6893 108.99 62.6462 108.815 62.6462C108.614 62.6462 108.435 62.7136 108.276 62.8483C108.118 62.983 108.013 63.1492 107.964 63.3486C107.932 63.478 107.916 63.716 107.916 64.0609V65.0202H107.585V62.4028Z" fill="#2CB9EC"/>
<path fill-rule="evenodd" clip-rule="evenodd" d="M111.783 62.6606C111.599 62.6606 111.429 62.7064 111.273 62.798C111.117 62.8905 110.992 63.0199 110.901 63.1869C110.808 63.3531 110.763 63.5291 110.763 63.7151C110.763 63.8992 110.808 64.0752 110.902 64.2441C110.995 64.4121 111.119 64.5432 111.276 64.6366C111.434 64.7309 111.601 64.7767 111.781 64.7767C111.962 64.7767 112.133 64.7309 112.296 64.6375C112.458 64.545 112.582 64.4193 112.67 64.2603C112.758 64.1013 112.801 63.9234 112.801 63.7249C112.801 63.4223 112.703 63.169 112.507 62.966C112.311 62.7621 112.069 62.6606 111.783 62.6606ZM113.106 61.3923V65.0202H112.78V64.5702C112.642 64.7417 112.485 64.8711 112.313 64.9582C112.14 65.0435 111.951 65.0875 111.746 65.0875C111.382 65.0875 111.071 64.9537 110.813 64.6842C110.555 64.4157 110.427 64.0896 110.427 63.7043C110.427 63.3271 110.557 63.0055 110.816 62.7369C111.077 62.4693 111.39 62.3354 111.756 62.3354C111.967 62.3354 112.159 62.3812 112.329 62.4729C112.5 62.5645 112.65 62.701 112.78 62.8842V61.3923H113.106Z" fill="#2CB9EC"/>
<path fill-rule="evenodd" clip-rule="evenodd" d="M114.185 64.3711L114.504 64.5247L114.024 65.4346L113.79 65.3331L114.185 64.3711Z" fill="#2CB9EC"/>
<path fill-rule="evenodd" clip-rule="evenodd" d="M116.543 65.0197H116.891V61.4817H116.543V65.0197Z" fill="#2CB9EC"/>
<path fill-rule="evenodd" clip-rule="evenodd" d="M117.634 62.4028H117.965V62.8717C118.096 62.692 118.243 62.5582 118.404 62.4693C118.565 62.3804 118.74 62.3354 118.93 62.3354C119.122 62.3354 119.293 62.3848 119.441 62.4845C119.59 62.5842 119.701 62.719 119.771 62.886C119.842 63.0549 119.877 63.3172 119.877 63.6729V65.0202H119.546V63.7717C119.546 63.4699 119.534 63.2696 119.51 63.1681C119.471 62.9947 119.398 62.8645 119.289 62.7774C119.181 62.6893 119.038 62.6462 118.864 62.6462C118.663 62.6462 118.484 62.7136 118.325 62.8483C118.167 62.983 118.062 63.1492 118.012 63.3486C117.981 63.478 117.965 63.716 117.965 64.0609V65.0202H117.634V62.4028Z" fill="#2CB9EC"/>
<path fill-rule="evenodd" clip-rule="evenodd" d="M123.084 62.9464L122.821 63.1126C122.594 62.8063 122.286 62.6527 121.893 62.6527C121.58 62.6527 121.32 62.7551 121.113 62.9608C120.905 63.1655 120.802 63.4143 120.802 63.7081C120.802 63.8985 120.85 64.0781 120.945 64.2461C121.041 64.414 121.171 64.5443 121.337 64.6377C121.503 64.7302 121.689 64.7769 121.896 64.7769C122.274 64.7769 122.583 64.6233 122.821 64.317L123.084 64.4931C122.961 64.6817 122.796 64.8281 122.588 64.9314C122.381 65.0356 122.146 65.0877 121.881 65.0877C121.474 65.0877 121.136 64.9557 120.868 64.6925C120.6 64.4293 120.466 64.1096 120.466 63.7332C120.466 63.4799 120.529 63.2446 120.654 63.0272C120.78 62.8099 120.952 62.6401 121.171 62.5179C121.39 62.3967 121.635 62.3347 121.906 62.3347C122.077 62.3347 122.241 62.3626 122.4 62.4147C122.558 62.4676 122.692 62.5368 122.803 62.6221C122.913 62.7066 123.007 62.8153 123.084 62.9464Z" fill="#2CB9EC"/>
<path fill-rule="evenodd" clip-rule="evenodd" d="M124.085 64.4912C124.165 64.4912 124.234 64.52 124.29 64.5775C124.348 64.6349 124.375 64.7059 124.375 64.7894C124.375 64.8712 124.348 64.9412 124.29 64.9996C124.234 65.058 124.165 65.0876 124.085 65.0876C124.004 65.0876 123.935 65.058 123.88 64.9996C123.822 64.9412 123.794 64.8712 123.794 64.7894C123.794 64.7059 123.822 64.6349 123.88 64.5775C123.935 64.52 124.004 64.4912 124.085 64.4912Z" fill="#2CB9EC"/>
<path fill-rule="evenodd" clip-rule="evenodd" d="M133.469 61.3381H134.965V61.5755H134.773C134.544 61.5755 134.477 61.6959 134.477 61.9108V63.0876H136.485V61.9108C136.485 61.7022 136.416 61.5755 136.217 61.5755H136V61.3381H137.48V61.5755H137.349C137.127 61.5755 137.008 61.6267 137.008 61.8695V64.7517C137.008 64.9828 137.081 65.034 137.315 65.034H137.48V65.2713H136V65.034H136.2C136.468 65.034 136.485 64.9423 136.485 64.7283V63.3942H134.477V64.7517C134.477 64.9648 134.539 65.034 134.767 65.034H134.965V65.2713H133.469V65.034H133.652C133.891 65.034 133.953 64.9828 133.953 64.6825V61.8811C133.953 61.6852 133.862 61.5755 133.697 61.5755H133.469V61.3381Z" fill="#2CB9EC"/>
<path fill-rule="evenodd" clip-rule="evenodd" d="M139.978 64.0572H140.815L140.397 62.8723L139.978 64.0572ZM140.317 62.5154H140.64L141.48 64.8187C141.556 65.0245 141.62 65.1054 141.775 65.1054H141.824V65.2718H140.855V65.1054C140.975 65.101 141.122 65.118 141.122 64.9841C141.122 64.9355 141.094 64.8546 141.07 64.7818L140.89 64.2478H139.907L139.695 64.8465C139.684 64.8744 139.663 64.9319 139.663 64.976C139.663 65.118 139.815 65.101 139.939 65.1054V65.2718H139.125V65.1054C139.333 65.1054 139.376 65.0524 139.472 64.798L140.317 62.5154Z" fill="#2CB9EC"/>
<path fill-rule="evenodd" clip-rule="evenodd" d="M142.561 62.5156H143.553V62.6819H143.422C143.322 62.6819 143.266 62.7179 143.266 62.7907C143.266 62.8393 143.286 62.9004 143.302 62.9454L144.023 64.8549L144.754 62.9454C144.769 62.9004 144.789 62.8276 144.789 62.7907C144.789 62.6972 144.721 62.6819 144.59 62.6819H144.501V62.5156H145.343V62.6819H145.311C145.132 62.6819 145.084 62.7593 145.009 62.9454L144.083 65.2711H143.808L142.896 62.9454C142.832 62.7826 142.8 62.6819 142.561 62.6819V62.5156Z" fill="#2CB9EC"/>
<path fill-rule="evenodd" clip-rule="evenodd" d="M146.491 62.5156H148.699L148.954 63.2402L148.783 63.305C148.623 62.868 148.376 62.7296 147.954 62.7296H147.201V63.7419H147.523C147.81 63.7419 147.954 63.6124 147.954 63.3373V63.2402H148.141V64.4494H147.954V64.293C147.954 64.0655 147.826 63.9316 147.587 63.9316H147.201V64.907C147.201 65.0167 147.224 65.0572 147.332 65.0572H147.818C148.348 65.0572 148.667 64.907 148.907 64.3442L149.086 64.4063L148.783 65.2711H146.491V65.1057H146.631C146.766 65.1057 146.834 65.0374 146.834 64.8917V62.8797C146.834 62.7422 146.763 62.6819 146.611 62.6819H146.491V62.5156Z" fill="#2CB9EC"/>
<path fill-rule="evenodd" clip-rule="evenodd" d="M150.293 62.5156H151.126L152.361 64.5798V62.9481C152.361 62.779 152.274 62.6819 152.13 62.6819H152.019V62.5156H152.932V62.6819H152.82C152.669 62.6819 152.601 62.8024 152.601 62.9454V65.2711H152.361L150.875 62.7871V64.8387C150.875 65.0895 150.994 65.1057 151.214 65.1057V65.2711H150.293V65.1057H150.382C150.575 65.1057 150.637 65.0248 150.637 64.7533V62.9364C150.637 62.7215 150.584 62.6819 150.361 62.6819H150.293V62.5156Z" fill="#2CB9EC"/>
<path fill-rule="evenodd" clip-rule="evenodd" d="M157.476 61.3381H158.971V61.5755H158.779C158.551 61.5755 158.482 61.6959 158.482 61.9108V63.0876H160.491V61.9108C160.491 61.7022 160.422 61.5755 160.223 61.5755H160.006V61.3381H161.486V61.5755H161.355C161.134 61.5755 161.014 61.6267 161.014 61.8695V64.7517C161.014 64.9828 161.087 65.034 161.321 65.034H161.486V65.2713H160.006V65.034H160.206C160.474 65.034 160.491 64.9423 160.491 64.7283V63.3942H158.482V64.7517C158.482 64.9648 158.545 65.034 158.773 65.034H158.971V65.2713H157.476V65.034H157.658C157.897 65.034 157.959 64.9828 157.959 64.6825V61.8811C157.959 61.6852 157.868 61.5755 157.703 61.5755H157.476V61.3381Z" fill="#2CB9EC"/>
<path fill-rule="evenodd" clip-rule="evenodd" d="M163.752 63.9158C163.752 64.6647 164.163 65.1214 164.72 65.1214C165.307 65.1214 165.681 64.5919 165.681 63.879C165.681 63.5517 165.589 63.2317 165.462 63.0411C165.294 62.7903 165.071 62.6815 164.752 62.6815C164.131 62.6815 163.752 63.1634 163.752 63.9158ZM166.104 63.879C166.104 64.7286 165.53 65.3201 164.717 65.3201C163.883 65.3201 163.329 64.7007 163.329 63.8961C163.329 63.0492 163.952 62.4675 164.757 62.4675C165.486 62.4675 166.104 63.0375 166.104 63.879Z" fill="#2CB9EC"/>
<path fill-rule="evenodd" clip-rule="evenodd" d="M167.414 62.5156H168.462V62.6819H168.327C168.187 62.6819 168.124 62.7503 168.124 62.8923V64.2633C168.124 64.5519 168.179 64.7416 168.375 64.9034C168.506 65.0122 168.689 65.0778 168.87 65.0778C169.056 65.0778 169.264 65.0005 169.403 64.8827C169.598 64.7173 169.65 64.5222 169.65 64.2354V62.9328C169.65 62.7665 169.571 62.6819 169.431 62.6819H169.308V62.5156H170.22V62.6819H170.156C169.957 62.6819 169.89 62.7386 169.89 62.9651V64.2885C169.89 64.907 169.451 65.3197 168.817 65.3197C168.223 65.3197 167.757 64.9322 167.757 64.3649V62.9651C167.757 62.7341 167.701 62.6819 167.509 62.6819H167.414V62.5156Z" fill="#2CB9EC"/>
<path fill-rule="evenodd" clip-rule="evenodd" d="M171.554 64.2801L171.737 64.2433C171.938 64.789 172.351 65.1009 172.77 65.1009C173.122 65.1009 173.436 64.8708 173.436 64.5831C173.436 64.3125 173.216 64.183 172.85 64.0769L172.364 63.9358C171.877 63.7946 171.618 63.5591 171.618 63.195C171.618 62.7788 172.041 62.4668 172.559 62.4668C172.827 62.4668 173.069 62.5477 173.257 62.7059L173.34 62.5153H173.48L173.686 63.3649L173.508 63.418C173.288 62.9559 172.93 62.6817 172.534 62.6817C172.188 62.6817 171.957 62.8875 171.957 63.1105C171.957 63.3532 172.18 63.4827 172.519 63.5843L173.025 63.7335C173.535 63.8837 173.787 64.13 173.787 64.4986C173.787 64.9355 173.372 65.3158 172.77 65.3158C172.42 65.3158 172.204 65.2061 171.962 65.0083L171.873 65.2717H171.737L171.554 64.2801Z" fill="#2CB9EC"/>
<path fill-rule="evenodd" clip-rule="evenodd" d="M175.098 62.5156H177.306L177.561 63.2402L177.39 63.305C177.23 62.868 176.983 62.7296 176.561 62.7296H175.808V63.7419H176.13C176.417 63.7419 176.561 63.6124 176.561 63.3373V63.2402H176.748V64.4494H176.561V64.293C176.561 64.0655 176.433 63.9316 176.194 63.9316H175.808V64.907C175.808 65.0167 175.831 65.0572 175.939 65.0572H176.425C176.956 65.0572 177.274 64.907 177.514 64.3442L177.693 64.4063L177.39 65.2711H175.098V65.1057H175.238C175.373 65.1057 175.441 65.0374 175.441 64.8917V62.8797C175.441 62.7422 175.37 62.6819 175.218 62.6819H175.098V62.5156Z" fill="#2CB9EC"/>
<path fill-rule="evenodd" clip-rule="evenodd" d="M181.511 61.1362L179.616 66.5303H179.201L181.09 61.1362H181.511Z" fill="#2CB9EC"/>
<path fill-rule="evenodd" clip-rule="evenodd" d="M184.753 63.36V64.7454C184.753 64.8839 184.77 64.9648 184.963 64.9648H185.601C185.988 64.9648 186.294 64.9423 186.494 64.8263C186.732 64.6888 186.88 64.4334 186.88 64.1449C186.88 63.903 186.766 63.6945 186.574 63.556C186.312 63.3717 185.965 63.36 185.498 63.36H184.753ZM184.753 61.6447V63.0876H185.578C186.34 63.0876 186.727 62.8683 186.727 62.3145C186.727 62.1059 186.658 61.9558 186.506 61.829C186.289 61.6555 186.033 61.6447 185.714 61.6447H184.753ZM183.74 65.2713V65.034H183.871C184.109 65.034 184.229 64.9648 184.229 64.6996V61.8928C184.229 61.6555 184.139 61.5755 183.939 61.5755H183.74V61.3381H185.669C186.186 61.3381 186.596 61.3561 186.925 61.5809C187.176 61.7544 187.307 62.0025 187.307 62.2965C187.307 62.7307 187.028 63.0535 186.488 63.1973C186.682 63.2324 186.875 63.2791 187.057 63.4005C187.313 63.5731 187.461 63.8509 187.461 64.1682C187.461 64.4856 187.318 64.7742 187.051 64.9711C186.715 65.2192 186.272 65.2713 185.68 65.2713H183.74Z" fill="#2CB9EC"/>
<path fill-rule="evenodd" clip-rule="evenodd" d="M189.985 62.7298V63.7655H190.584C191.045 63.7655 191.293 63.6198 191.293 63.2351C191.293 62.9204 191.102 62.7298 190.742 62.7298H189.985ZM189.276 62.5159H190.762C191.372 62.5159 191.703 62.7829 191.703 63.2117C191.703 63.6522 191.38 63.948 190.754 63.9561L191.473 64.8461C191.58 64.9801 191.679 65.1059 191.898 65.1059H191.946V65.2714H191.329L190.332 63.9561H189.985V64.8668C189.985 65.0898 190.073 65.1059 190.249 65.1059H190.316V65.2714H189.276V65.1059H189.408C189.591 65.1059 189.618 65.0169 189.618 64.8138V62.8997C189.618 62.7586 189.555 62.6813 189.423 62.6813H189.276V62.5159Z" fill="#2CB9EC"/>
<path fill-rule="evenodd" clip-rule="evenodd" d="M193.062 62.5156H194.102V62.6819H194.022C193.791 62.6819 193.767 62.7871 193.767 63.029V64.8063C193.767 65.0446 193.819 65.1057 194.022 65.1057H194.102V65.2711H193.062V65.1057H193.185C193.38 65.1057 193.401 64.9843 193.401 64.8063V62.9157C193.401 62.762 193.34 62.6819 193.201 62.6819H193.062V62.5156Z" fill="#2CB9EC"/>
<path fill-rule="evenodd" clip-rule="evenodd" d="M196.112 65.0571H196.694C197.041 65.0571 197.287 64.9879 197.48 64.7856C197.671 64.5834 197.774 64.2759 197.774 63.8911C197.774 63.5027 197.666 63.2115 197.427 62.993C197.185 62.77 196.941 62.7296 196.614 62.7296H196.112V65.0571ZM195.399 62.681V62.5156H196.46C196.707 62.5156 196.841 62.5237 197.085 62.5525C197.706 62.6244 198.197 63.1998 198.197 63.9235C198.197 64.3164 198.045 64.685 197.81 64.9196C197.559 65.1704 197.228 65.2711 196.786 65.2711H195.399V65.1057H195.546C195.689 65.1057 195.746 65.0284 195.746 64.8746V62.8959C195.746 62.717 195.657 62.681 195.51 62.681H195.399Z" fill="#2CB9EC"/>
<path fill-rule="evenodd" clip-rule="evenodd" d="M201.783 65.0326C201.536 65.2142 201.209 65.3158 200.89 65.3158C200.173 65.3158 199.554 64.7287 199.554 63.8953C199.554 63.0584 200.184 62.4668 200.902 62.4668C201.181 62.4668 201.412 62.5432 201.612 62.6969L201.68 62.5153H201.823L202.046 63.3658L201.871 63.4261C201.655 62.928 201.364 62.6817 200.95 62.6817C200.407 62.6817 199.978 63.195 199.978 63.863C199.978 64.575 200.436 65.1009 201.006 65.1009C201.256 65.1009 201.516 64.9724 201.619 64.851C201.691 64.7656 201.715 64.673 201.715 64.5633V64.3332C201.715 64.1102 201.616 64.0374 201.417 64.0374H201.301V63.8711H202.405V64.0374H202.265C202.137 64.0374 202.082 64.1102 202.082 64.2478V65.2717H201.887L201.783 65.0326Z" fill="#2CB9EC"/>
<path fill-rule="evenodd" clip-rule="evenodd" d="M203.683 62.5156H205.892L206.147 63.2402L205.976 63.305C205.815 62.868 205.568 62.7296 205.146 62.7296H204.393V63.7419H204.716C205.002 63.7419 205.146 63.6124 205.146 63.3373V63.2402H205.334V64.4494H205.146V64.293C205.146 64.0655 205.018 63.9316 204.779 63.9316H204.393V64.907C204.393 65.0167 204.416 65.0572 204.524 65.0572H205.01C205.541 65.0572 205.86 64.907 206.1 64.3442L206.278 64.4063L205.976 65.2711H203.683V65.1057H203.823C203.958 65.1057 204.027 65.0374 204.027 64.8917V62.8797C204.027 62.7422 203.955 62.6819 203.804 62.6819H203.683V62.5156Z" fill="#2CB9EC"/>
<path fill-rule="evenodd" clip-rule="evenodd" d="M207.545 64.2801L207.728 64.2433C207.928 64.789 208.342 65.1009 208.761 65.1009C209.112 65.1009 209.427 64.8708 209.427 64.5831C209.427 64.3125 209.207 64.183 208.84 64.0769L208.354 63.9358C207.868 63.7946 207.609 63.5591 207.609 63.195C207.609 62.7788 208.032 62.4668 208.55 62.4668C208.817 62.4668 209.06 62.5477 209.248 62.7059L209.331 62.5153H209.471L209.677 63.3649L209.498 63.418C209.279 62.9559 208.921 62.6817 208.525 62.6817C208.179 62.6817 207.948 62.8875 207.948 63.1105C207.948 63.3532 208.171 63.4827 208.51 63.5843L209.016 63.7335C209.526 63.8837 209.777 64.13 209.777 64.4986C209.777 64.9355 209.363 65.3158 208.761 65.3158C208.411 65.3158 208.195 65.2061 207.952 65.0083L207.864 65.2717H207.728L207.545 64.2801Z" fill="#2CB9EC"/>
<path fill-rule="evenodd" clip-rule="evenodd" d="M211.358 66.109C211.727 65.8025 211.927 65.5426 211.927 65.3116C211.927 65.2828 211.927 65.2603 211.921 65.2307C211.881 65.2487 211.823 65.2711 211.745 65.2711C211.551 65.2711 211.454 65.121 211.454 64.9601C211.454 64.7803 211.597 64.6301 211.784 64.6301C212.029 64.6301 212.245 64.8504 212.245 65.1794C212.245 65.6703 211.875 65.9769 211.506 66.2933L211.358 66.109Z" fill="#2CB9EC"/>
<path fill-rule="evenodd" clip-rule="evenodd" d="M217.495 61.3381H218.98V61.5755H218.865C218.536 61.5755 218.501 61.7256 218.501 62.0717V64.6079C218.501 64.9486 218.576 65.034 218.865 65.034H218.98V65.2713H217.495V65.034H217.671C217.95 65.034 217.978 64.8614 217.978 64.6079V61.9108C217.978 61.6914 217.893 61.5755 217.694 61.5755H217.495V61.3381Z" fill="#2CB9EC"/>
<path fill-rule="evenodd" clip-rule="evenodd" d="M220.737 62.5156H221.57L222.805 64.5798V62.9481C222.805 62.779 222.717 62.6819 222.574 62.6819H222.462V62.5156H223.375V62.6819H223.264C223.112 62.6819 223.044 62.8024 223.044 62.9454V65.2711H222.805L221.318 62.7871V64.8387C221.318 65.0895 221.438 65.1057 221.657 65.1057V65.2711H220.737V65.1057H220.825C221.019 65.1057 221.08 65.0248 221.08 64.7533V62.9364C221.08 62.7215 221.028 62.6819 220.805 62.6819H220.737V62.5156Z" fill="#2CB9EC"/>
<path fill-rule="evenodd" clip-rule="evenodd" d="M227.206 63.434L227.022 63.4834C226.911 63.2353 226.815 63.0087 226.592 62.8433C226.444 62.7345 226.268 62.6815 226.081 62.6815C225.531 62.6815 225.105 63.1715 225.105 63.8637C225.105 64.5829 225.559 65.0774 226.129 65.0774C226.48 65.0774 226.862 64.867 227.129 64.502L227.285 64.6126C226.982 65.0648 226.548 65.3201 226.038 65.3201C225.248 65.3201 224.682 64.6926 224.682 63.9033C224.682 63.078 225.304 62.4675 226.049 62.4675C226.317 62.4675 226.535 62.5439 226.755 62.6977L226.819 62.5161H226.958L227.206 63.434Z" fill="#2CB9EC"/>
<path fill-rule="evenodd" clip-rule="evenodd" d="M229.631 64.9649C229.631 65.1555 229.472 65.3182 229.279 65.3182C229.086 65.3182 228.932 65.1555 228.932 64.9649C228.932 64.7743 229.086 64.6125 229.279 64.6125C229.472 64.6125 229.631 64.7743 229.631 64.9649Z" fill="#2CB9EC"/>
<path fill-rule="evenodd" clip-rule="evenodd" d="M203.917 33.9586C203.917 35.4519 203.917 36.9452 203.918 38.4384C203.92 39.4525 203.847 39.3401 204.853 39.3446C205.756 39.3482 206.659 39.3491 207.561 39.3446C209.468 39.3338 211.374 39.3941 213.274 39.1603C214.456 39.0147 215.558 38.6569 216.537 37.9637C218.408 36.6395 218.903 34.7309 218.571 32.5813C218.261 30.5873 216.923 29.4878 215.085 28.9268C214.727 28.818 214.368 28.7758 214.002 28.7416C210.83 28.4422 207.651 28.6517 204.476 28.5789C204.026 28.569 203.907 28.7479 203.911 29.1731C203.928 30.768 203.918 32.3638 203.917 33.9586ZM203.917 47.0186C203.917 48.0714 203.916 49.1241 203.918 50.1769C203.921 50.8224 203.912 51.4688 203.941 52.1125C203.981 52.9719 204.241 53.2434 205.079 53.3621C205.245 53.3855 205.412 53.3927 205.58 53.3927C207.688 53.3855 209.797 53.416 211.904 53.3513C213.235 53.3109 214.58 53.2389 215.867 52.8074C218.266 52.0001 219.812 49.8191 219.807 47.2524C219.801 44.7612 218.316 42.7969 215.831 42.0003C215.159 41.7855 214.467 41.6785 213.768 41.6021C210.697 41.2676 207.615 41.4699 204.539 41.4007C204.064 41.3899 203.9 41.5283 203.908 42.0273C203.935 43.6905 203.918 45.3555 203.917 47.0186ZM217.245 40.1789C218.068 40.4136 218.708 40.57 219.331 40.7786C224.408 42.475 225.896 48.6369 222.167 52.5269C220.666 54.0939 218.784 54.9201 216.689 55.2725C215.137 55.5341 213.568 55.6753 211.994 55.678C207.041 55.6879 202.091 55.6888 197.138 55.6816C196.864 55.6816 196.422 55.8524 196.35 55.4802C196.258 55.0019 196.189 54.4688 196.413 53.9905C196.49 53.8278 196.711 53.8782 196.875 53.8719C197.276 53.8584 197.679 53.8683 198.079 53.8305C199.231 53.7226 199.813 53.1275 199.927 51.9498C199.96 51.6126 199.959 51.2719 199.959 50.9321C199.961 44.3782 199.962 37.8244 199.958 31.2705C199.958 30.7608 199.952 30.2502 199.904 29.7449C199.801 28.6958 199.35 28.2328 198.326 28.1195C197.828 28.0647 197.325 28.044 196.824 28.0458C196.439 28.0467 196.296 27.8983 196.301 27.5037C196.324 25.9681 196.184 26.2244 197.494 26.2307C202.981 26.254 208.47 26.1399 213.956 26.3071C215.5 26.3547 217.03 26.5327 218.474 27.1306C220.584 28.0044 222.217 29.3781 222.839 31.7057C223.674 34.8361 222.233 37.8505 219.192 39.3716C218.626 39.6539 218.022 39.8589 217.245 40.1789Z" fill="#2CB9EC"/>
<path fill-rule="evenodd" clip-rule="evenodd" d="M154.126 26.3142C154.149 26.3771 154.188 26.44 154.193 26.5047C154.281 27.9549 154.28 27.954 152.867 28.0672C152.6 28.0897 152.333 28.1194 152.068 28.1544C151.27 28.2596 150.807 28.7406 150.65 29.5192C150.584 29.85 150.565 30.1943 150.564 30.5323C150.555 33.2168 150.553 35.9004 150.557 38.584C150.558 39.3122 150.57 39.3283 151.256 39.3292C155.775 39.3328 160.294 39.3328 164.813 39.3292C165.547 39.3283 165.557 39.3149 165.559 38.521C165.562 35.9058 165.556 33.2896 165.555 30.6735C165.555 30.571 165.553 30.4694 165.547 30.3678C165.471 28.6993 164.997 28.1931 163.382 28.0609C163.182 28.0448 162.98 28.0376 162.78 28.0421C161.82 28.0618 161.913 28.0142 161.911 27.1484C161.908 26.2314 161.908 26.2261 162.846 26.2261C165.959 26.2234 169.072 26.2279 172.186 26.2234C173.226 26.2216 173.05 26.2944 173.059 27.108C173.061 27.277 173.051 27.4478 173.059 27.6168C173.074 27.9261 172.914 28.0286 172.633 28.0403C172.099 28.0609 171.561 28.0663 171.032 28.1392C170.14 28.2623 169.733 28.6741 169.608 29.5713C169.538 30.0738 169.505 30.5854 169.505 31.0924C169.498 37.7182 169.498 44.3431 169.505 50.9679C169.506 51.5091 169.547 52.0548 169.619 52.5916C169.726 53.3854 170.065 53.7234 170.852 53.8088C171.382 53.8655 171.921 53.87 172.456 53.8628C172.86 53.8574 173.051 53.9635 173.071 54.4291C173.124 55.6896 173.147 55.6887 171.865 55.6887C168.786 55.6887 165.706 55.6923 162.626 55.6815C162.386 55.6806 161.992 55.8343 161.947 55.4648C161.888 54.9748 161.781 54.4462 162.032 53.9724C162.114 53.8169 162.335 53.8789 162.497 53.8727C163.065 53.8511 163.637 53.8655 164.202 53.8052C165.066 53.7126 165.382 53.3881 165.486 52.5304C165.539 52.0935 165.554 51.6494 165.555 51.208C165.562 48.3212 165.559 45.4336 165.561 42.5459C165.562 41.5939 165.621 41.6262 164.723 41.6262C160.27 41.6289 155.819 41.6262 151.365 41.6289C150.565 41.6298 150.556 41.6388 150.556 42.4623C150.553 45.4857 150.545 48.51 150.564 51.5334C150.576 53.5184 150.876 53.8007 152.85 53.8556C152.984 53.8592 153.118 53.861 153.252 53.8646C154.212 53.887 154.212 53.887 154.202 54.8903C154.195 55.6734 154.195 55.686 153.464 55.6869C150.217 55.6914 146.97 55.6923 143.722 55.6869C142.973 55.6851 142.972 55.6725 142.964 54.8966C142.962 54.7267 142.973 54.5559 142.963 54.3878C142.938 53.9787 143.151 53.8619 143.517 53.8664C143.985 53.8744 144.454 53.8646 144.922 53.8349C145.984 53.7711 146.413 53.3602 146.531 52.2805C146.576 51.8759 146.583 51.4669 146.583 51.0587C146.586 44.3997 146.587 37.7416 146.582 31.0825C146.581 30.5737 146.572 30.0595 146.499 29.5578C146.371 28.6903 145.916 28.2479 145.047 28.1302C144.552 28.0627 144.046 28.0421 143.546 28.0475C143.126 28.0511 142.948 27.9135 142.957 27.4613C142.983 25.9959 142.861 26.2323 144.099 26.2279C147.212 26.2189 150.325 26.2243 153.438 26.227C153.67 26.227 153.909 26.1856 154.126 26.3142Z" fill="#2CB9EC"/>
<path fill-rule="evenodd" clip-rule="evenodd" d="M173.894 31.4783C175.531 31.3219 175.459 32.3881 175.459 32.3881C175.459 32.3881 175.366 50.3262 175.181 50.8908C174.995 51.4554 173.729 50.9538 173.729 50.9538V52.1027C173.729 52.242 173.813 52.3661 173.942 52.4165L178.714 54.2891C178.931 54.3745 179.166 54.2118 179.166 53.9745V52.9738C179.166 52.8192 179.054 52.6898 178.906 52.6502C177.271 52.216 177.271 51.0796 177.271 51.0796V42.5506C177.271 42.3645 177.42 42.2144 177.602 42.2144H186.374C186.556 42.2144 186.704 42.3582 186.705 42.5434C186.717 44.3613 186.777 53.1483 186.702 54.2154C186.641 55.1036 185.16 54.7485 184.411 54.5103C184.199 54.4428 183.985 54.6074 183.985 54.833V56.1303C183.985 56.2732 184.073 56.4009 184.206 56.4477L193.777 59.8693C193.993 59.9466 194.219 59.7839 194.219 59.5529V57.9023C194.219 57.7305 194.087 57.593 193.92 57.5714C190.937 57.1929 190.494 54.8717 190.453 54.6146C190.451 54.5993 190.451 54.5894 190.451 54.5732C190.448 53.8162 190.389 28.9755 190.451 27.3491C190.503 25.9422 193.322 24.8984 194.155 24.6206C194.292 24.5748 194.384 24.4471 194.384 24.3015V22.908C194.384 22.6707 194.149 22.5079 193.931 22.5942L184.567 26.3036C184.439 26.3548 184.355 26.478 184.355 26.6173V27.5451C184.355 27.7267 184.504 27.8706 184.683 27.8787C186.962 27.9776 186.867 29.1049 186.867 29.1049V39.3016C186.867 39.4805 186.729 39.6288 186.553 39.6378L177.66 40.0846C177.471 40.0945 177.313 39.9417 177.313 39.7493V31.6563C177.313 30.5811 178.447 29.977 178.92 29.772C179.044 29.7181 179.124 29.5976 179.124 29.4609V28.2059L174.113 29.9689C173.981 30.0156 173.893 30.1406 173.891 30.2826L173.873 31.4891" fill="#2CB9EC"/>
<path fill-rule="evenodd" clip-rule="evenodd" d="M184.313 54.6077C184.268 54.6077 184.223 54.6221 184.185 54.65C184.128 54.6931 184.095 54.7597 184.095 54.8325V56.1298C184.095 56.2251 184.154 56.3105 184.243 56.3419L193.814 59.7627C193.884 59.7897 193.958 59.778 194.015 59.7348C194.075 59.6917 194.109 59.626 194.109 59.5523V57.9017C194.109 57.792 194.021 57.6985 193.906 57.6833C190.851 57.2949 190.386 54.9035 190.345 54.632C190.341 54.6068 190.34 54.5933 190.34 54.5736C190.34 54.3245 190.277 29.0127 190.34 27.345C190.394 25.8697 193.247 24.8053 194.12 24.5131C194.212 24.4834 194.273 24.3971 194.273 24.3009V22.9075C194.273 22.8319 194.238 22.7654 194.177 22.7223C194.114 22.68 194.04 22.6719 193.971 22.6989L184.607 26.4082C184.521 26.4424 184.466 26.5251 184.466 26.6168V27.5446C184.466 27.6633 184.563 27.7613 184.688 27.7666C185.673 27.8089 186.357 28.0444 186.722 28.4652C187.001 28.7879 186.979 29.1017 186.978 29.1152V39.3019C186.978 39.5411 186.794 39.738 186.558 39.7506L177.666 40.1974C177.538 40.1965 177.427 40.1596 177.339 40.0742C177.25 39.9888 177.202 39.8728 177.202 39.7497V31.6567C177.202 30.5176 178.373 29.8865 178.876 29.6681C178.961 29.6321 179.014 29.5521 179.014 29.4604V28.3645L174.149 30.0753C174.062 30.1059 174.002 30.1904 174.001 30.2839L173.985 31.3582C174.58 31.3178 175.015 31.4337 175.29 31.7043C175.592 32.0037 175.57 32.3795 175.569 32.3957C175.56 34.2261 175.471 50.3608 175.286 50.9262C175.245 51.0503 175.162 51.1429 175.04 51.2004C174.697 51.3668 174.119 51.2067 173.839 51.1123V52.1031C173.839 52.1939 173.896 52.2784 173.981 52.3116L178.755 54.1843C178.824 54.2113 178.898 54.2032 178.959 54.16C179.019 54.1178 179.055 54.0503 179.055 53.9748V52.9742C179.055 52.8744 178.982 52.7863 178.878 52.7584C177.179 52.308 177.16 51.1294 177.16 51.0791V42.551C177.16 42.3029 177.358 42.1024 177.603 42.1024H186.373C186.62 42.1024 186.814 42.2957 186.815 42.542C186.829 44.305 186.887 53.1549 186.813 54.2229C186.798 54.4441 186.705 54.6149 186.539 54.73C186.069 55.0563 185.105 54.8487 184.378 54.6176C184.356 54.6104 184.334 54.6077 184.313 54.6077ZM193.888 60.0009C193.838 60.0009 193.788 59.9919 193.74 59.9758L184.169 56.5541C183.992 56.4912 183.874 56.3204 183.874 56.1298V54.8325C183.874 54.6877 183.939 54.5547 184.055 54.4693C184.169 54.3839 184.311 54.3605 184.443 54.4028C185.391 54.703 186.106 54.7543 186.414 54.5448C186.523 54.4684 186.581 54.3587 186.591 54.2077C186.666 53.1477 186.607 44.3059 186.594 42.5438C186.593 42.4215 186.496 42.3271 186.373 42.3271H177.603C177.48 42.3271 177.381 42.4269 177.381 42.551V51.0791C177.382 51.1213 177.409 52.1363 178.934 52.5409C179.135 52.5948 179.276 52.7728 179.276 52.9742V53.9748C179.276 54.1232 179.204 54.2616 179.084 54.3452C178.964 54.4288 178.81 54.4468 178.675 54.3938L173.901 52.5211C173.732 52.4546 173.618 52.2874 173.618 52.1031V50.9541C173.618 50.9173 173.637 50.8813 173.667 50.8606C173.697 50.8408 173.735 50.8346 173.769 50.8489C173.995 50.9379 174.648 51.1393 174.946 50.9973C175.013 50.9649 175.054 50.92 175.075 50.8543C175.223 50.3761 175.322 37.361 175.348 32.3867C175.349 32.3687 175.362 32.0882 175.131 31.8626C174.894 31.6297 174.487 31.5398 173.925 31.5884C173.909 31.5965 173.892 31.601 173.873 31.601H173.871C173.811 31.6001 173.761 31.5497 173.762 31.4868L173.78 30.2803C173.782 30.0924 173.901 29.9252 174.077 29.8632L179.088 28.1002C179.121 28.0867 179.159 28.093 179.189 28.1146C179.218 28.1362 179.235 28.1703 179.235 28.2063V29.4604C179.235 29.6411 179.128 29.8029 178.963 29.8749C178.501 30.0762 177.423 30.6525 177.423 31.6567V39.7497C177.423 39.8108 177.448 39.8683 177.491 39.9106C177.535 39.9537 177.588 39.9708 177.654 39.9726L186.547 39.5258C186.665 39.5195 186.757 39.4206 186.757 39.302V29.1053C186.758 29.0864 186.769 28.8563 186.549 28.6063C186.325 28.3528 185.819 28.04 184.679 27.9914C184.435 27.9806 184.245 27.7846 184.245 27.5446V26.6168C184.245 26.4316 184.355 26.268 184.525 26.1988L193.89 22.4894C194.029 22.4355 194.181 22.4526 194.302 22.5371C194.422 22.6207 194.494 22.7591 194.494 22.9075V24.3009C194.494 24.4951 194.371 24.6668 194.189 24.728C192.46 25.3033 190.601 26.2968 190.562 27.354C190.502 28.921 190.556 53.0066 190.562 54.5736C190.562 54.5853 190.563 54.5907 190.564 54.6023C190.603 54.8514 191.039 57.0926 193.934 57.4603C194.16 57.4882 194.33 57.6788 194.33 57.9017V59.5523C194.33 59.6971 194.26 59.8337 194.144 59.9182C194.067 59.9731 193.978 60.0009 193.888 60.0009Z" fill="#2CB9EC"/>
<path fill-rule="evenodd" clip-rule="evenodd" d="M186.237 41.1288C186.237 42.5843 185.349 43.7648 184.253 43.7648C183.156 43.7648 182.267 42.5843 182.267 41.1288C182.267 39.6733 183.156 38.4929 184.253 38.4929C185.349 38.4929 186.237 39.6733 186.237 41.1288Z" fill="#2CB9EC"/>
<path fill-rule="evenodd" clip-rule="evenodd" d="M129.757 26.7032C129.757 26.7032 155.834 19.5156 181.287 4.66021C181.828 4.34555 182.492 4.35814 183.015 4.70067C187.841 7.8733 213.267 22.8312 235 27.222C235 27.222 215.615 25.2154 182.683 8.62128C182.188 8.37226 181.606 8.38125 181.111 8.62848C176.501 10.9237 152.085 22.7305 129.757 26.7032Z" fill="#2CB9EC"/>
<path fill-rule="evenodd" clip-rule="evenodd" d="M130.176 60.6217H234.581V59.7227H130.176V60.6217Z" fill="#2CB9EC"/>
<path fill-rule="evenodd" clip-rule="evenodd" d="M130.176 67.0001H234.581V66.1011H130.176V67.0001Z" fill="#2CB9EC"/>
</svg>
