<svg width="62" height="55" viewBox="0 0 62 55" fill="none" xmlns="http://www.w3.org/2000/svg">
<path fill-rule="evenodd" clip-rule="evenodd" d="M26.7907 4.86415C26.7962 4.85838 26.8021 4.85262 26.7907 4.86415V4.86415ZM31.9304 23.5534C31.4004 24.015 30.5993 24.0323 30.0518 23.5592L28.329 22.0878C26.7212 20.7088 24.9349 20.0798 23.2465 20.0798C22.267 20.0798 21.3161 20.2876 20.4575 20.6856C19.5931 21.0896 18.8096 21.6781 18.1584 22.4398C17.0058 23.7899 16.2796 25.6883 16.2796 28.0195C16.2796 34.8396 22.8719 39.6289 30.1844 44.943C30.4266 45.1161 30.6744 45.295 31.0085 45.5431C31.3543 45.295 31.5963 45.1161 31.8383 44.943C39.1508 39.6289 45.7429 34.8396 45.7429 28.0195C45.7429 25.9652 45.1437 24.2169 44.1755 22.8899C43.5187 21.9897 42.6889 21.28 41.7554 20.7953C40.8335 20.3106 39.8135 20.0567 38.7589 20.0567C37.3588 20.0567 35.8893 20.5126 34.5177 21.5166C34.5062 21.5223 33.6188 22.2263 32.864 22.8206C32.501 23.1033 32.1839 23.3572 31.9304 23.5534ZM28.5075 47.2856L28.496 47.2741C20.5611 41.5097 13.3983 36.3052 13.3983 28.0195C13.3983 24.9671 14.3952 22.4224 15.9798 20.5645C16.896 19.4855 18.0141 18.6431 19.2529 18.0718C20.4918 17.4949 21.8519 17.1948 23.2463 17.1948C25.5859 17.1948 28.0291 18.043 30.1957 19.901L31.0198 20.6048L31.0889 20.553C31.8266 19.9702 32.7255 19.2662 32.8176 19.1971C34.7192 17.8065 36.7765 17.1718 38.7588 17.1718C40.28 17.1718 41.7552 17.541 43.0863 18.2333C44.4001 18.9201 45.57 19.924 46.4919 21.1877C47.8115 22.9937 48.6241 25.3248 48.6241 28.0195C48.6241 36.3052 41.4614 41.5097 33.5265 47.2741L33.515 47.2856C35.4973 48.5781 37.4795 49.6744 39.5368 50.4938C42.1298 51.5267 44.8668 52.1268 47.8979 52.1151C48.9351 52.1151 49.7592 52.0171 50.4218 51.8266C50.9866 51.6708 51.4188 51.4342 51.7702 51.1227C52.0872 50.84 52.3523 50.4938 52.5309 50.0091C52.6923 49.5764 52.8017 49.0166 52.8478 48.2897C52.842 48.226 52.8363 48.1626 52.8363 48.0992V28.5502C52.8363 26.9231 53.2627 25.7807 54.081 25.0016C54.9051 24.2112 56.0114 23.9053 57.4003 23.9226C57.9418 23.9284 58.3452 23.8419 58.616 23.6803C58.8235 23.5534 58.9618 23.3572 59.0367 23.1149C59.1808 22.6359 59.1175 22.2724 58.9273 21.9724C58.6448 21.5339 58.1032 21.1126 57.4924 20.6914C56.5532 20.0509 56.7491 20.1837 56.9853 20.3452C56.5359 20.0394 56.046 19.7047 55.5965 19.3874L54.3403 18.4931C54.3057 18.4642 54.2712 18.4411 54.2366 18.4122C54.1733 18.3719 54.1155 18.3314 54.0522 18.2796C53.9889 18.2276 54.0119 18.245 53.9138 18.1699C52.6635 17.1486 52.0412 16.6409 52.0412 12.4056V6.37013C52.0412 6.29519 52.0182 6.23745 51.9777 6.19709C51.9546 6.17404 51.9201 6.15665 51.8913 6.15665H46.7973C46.7627 6.15665 46.734 6.17404 46.7109 6.19709C46.6706 6.23745 46.6476 6.29519 46.6476 6.37013V7.84729C46.6476 7.88189 46.6476 7.91658 46.6418 7.95117C46.6533 9.13402 46.5553 10.0688 45.5585 10.5997C44.7575 11.0324 43.7087 10.842 42.0778 9.71685C42.0548 9.70524 42.0375 9.68794 42.0145 9.67641L35.8371 5.30853L35.1629 4.82379C33.4285 3.58903 32.4432 2.88506 31.0083 2.88506H31.0025H30.991C29.5504 2.88506 28.5535 3.60058 26.7903 4.86415C26.744 4.89306 26.7729 4.87567 26.7903 4.86415C26.7613 4.88154 26.6231 4.97964 26.1737 5.30266C23.6382 7.10296 21.385 8.72433 19.1262 10.3515C14.2396 13.8712 9.34151 17.3968 4.51269 20.6914C3.89609 21.1126 3.36007 21.5339 3.07775 21.9724C2.88759 22.2724 2.81848 22.6359 2.9684 23.1149C3.03747 23.3572 3.17585 23.5534 3.38906 23.6803C3.65984 23.8419 4.05748 23.9284 4.60479 23.9226C5.99364 23.9053 7.09998 24.2112 7.92404 25.0016C8.74238 25.7807 9.16283 26.9231 9.16283 28.5502V48.0992V48.1338C9.20335 48.9417 9.31849 49.5418 9.49139 50.0091C9.67008 50.4938 9.93509 50.84 10.2519 51.1227C10.6035 51.4342 11.0357 51.6708 11.6005 51.8266C12.2632 52.0171 13.0872 52.1151 14.1243 52.1151C17.1553 52.1268 19.8925 51.5267 22.4856 50.4938C24.5429 49.6744 26.5251 48.5781 28.5075 47.2856ZM30.9911 0H31.0026H31.0084C33.3537 0 34.6157 0.9002 36.8284 2.48112C36.9265 2.5504 37.0474 2.63697 37.4911 2.95431L43.6684 7.31644C43.703 7.34535 43.7376 7.36843 43.7663 7.39149V6.37013C43.7663 5.52778 44.1006 4.76038 44.6365 4.20061C45.1898 3.62939 45.956 3.27169 46.7974 3.27169H51.8914C52.7328 3.27169 53.4935 3.62939 54.0466 4.20061C54.5883 4.76038 54.9224 5.52778 54.9224 6.37013V12.4056C54.9224 15.2791 55.1875 15.4984 55.7292 15.9369L55.8791 16.0638L55.8906 16.0753C55.9309 16.0985 55.9712 16.1216 56.0058 16.1504L57.262 17.0448C57.9074 17.5006 58.3568 17.8064 58.7603 18.0776C59.469 18.5623 57.723 17.3678 59.1118 18.3141C59.9992 18.92 60.8058 19.572 61.3475 20.4203C61.9757 21.4011 62.2119 22.5378 61.7797 23.9515C61.4975 24.8805 60.9499 25.6363 60.1028 26.1441C59.3884 26.5769 58.4779 26.8134 57.3657 26.7961C56.7319 26.7904 56.2823 26.8712 56.0633 27.0847C55.8328 27.2982 55.7177 27.7654 55.7177 28.5502V47.1933C55.7407 47.2971 55.7522 47.4011 55.7522 47.5106C55.7522 48.982 55.5621 50.1071 55.2222 51.013C54.8533 52.0055 54.3231 52.7094 53.6834 53.2749C53.0093 53.875 52.2084 54.3135 51.2115 54.602C50.3068 54.8558 49.2292 54.9886 47.898 54.9886C44.4753 55.0002 41.398 54.3308 38.4765 53.1652C35.895 52.1325 33.4516 50.7245 31.0084 49.0685C28.5708 50.7245 26.1278 52.1325 23.5462 53.1652C20.6245 54.3308 17.5473 55.0002 14.1244 54.9886C12.7935 54.9886 11.7159 54.8558 10.8111 54.602C9.81409 54.3135 9.01323 53.875 8.33908 53.2749C7.69943 52.7094 7.16938 52.0055 6.80053 51.013C6.46046 50.1071 6.27028 48.982 6.27028 47.5106C6.27028 47.4414 6.27602 47.372 6.28181 47.3086V28.5502C6.28181 27.7654 6.16645 27.2982 5.94174 27.0847C5.71702 26.8712 5.27353 26.7904 4.63945 26.7961C3.52178 26.8134 2.61689 26.5769 1.9024 26.1441C1.05536 25.6363 0.502254 24.8805 0.219761 23.9515C-0.212411 22.5378 0.0238162 21.4011 0.657679 20.4203C1.19949 19.572 2.00625 18.92 2.89364 18.3141C7.84356 14.9329 12.6494 11.4709 17.4494 8.02043C19.8926 6.26061 22.336 4.50065 24.5084 2.95431C25.0502 2.57345 24.5947 2.89081 25.1133 2.51581C27.3607 0.911727 28.6228 0 30.9911 0Z" fill="#2CB9EC"/>
</svg>
