<svg width="30" height="32" viewBox="0 0 30 32" fill="none" xmlns="http://www.w3.org/2000/svg">
<path fill-rule="evenodd" clip-rule="evenodd" d="M16.1215 1.70652L24.43 10.3583H22.9251C22.5108 10.3583 22.1737 10.6954 22.1737 11.1097L22.1945 18.8851H18.2873V13.9524C18.2873 13.4555 17.8829 13.0512 17.386 13.0512H14.8575C14.3606 13.0512 13.9564 13.4555 13.9564 13.9524V18.8851H10.0701V11.1097C10.0701 10.6954 9.73312 10.3583 9.31878 10.3583H7.77481L16.1215 1.70652ZM20.442 2.97441C20.442 2.91178 20.5341 2.84183 20.6573 2.84183H21.4508C21.5735 2.84183 21.6651 2.91178 21.6651 2.97441V6.57208L20.442 5.29841V2.97441ZM14.5847 18.8851V13.9524C14.5847 13.8019 14.7071 13.6795 14.8575 13.6795H17.386C17.5365 13.6795 17.6589 13.8019 17.6589 13.9524V18.8851H14.5847ZM7.16827 10.9867H9.31878C9.38644 10.9867 9.44181 11.042 9.44181 11.1097V19.1024C9.44181 19.3328 9.64339 19.5135 9.90065 19.5135H22.1945C22.5292 19.5135 22.8019 19.2419 22.8021 18.9079L22.802 11.1097C22.802 11.0418 22.8571 10.9867 22.925 10.9867H24.9111C25.2842 10.9867 25.4749 10.5391 25.2164 10.2701L22.2935 7.22633V2.97441C22.2935 2.55484 21.9155 2.2135 21.4508 2.2135H20.6573C20.1922 2.2135 19.8137 2.55484 19.8137 2.97441V4.64416L16.4271 1.11762C16.2755 0.960847 15.9683 0.96069 15.8164 1.11777L6.90167 10.3585C6.79807 10.4657 6.76881 10.6236 6.82709 10.7608C6.88525 10.898 7.01916 10.9867 7.16827 10.9867Z" fill="#2CB9EC"/>
<path d="M16.1215 1.70652L16.2658 1.56799L16.1219 1.41812L15.9776 1.56766L16.1215 1.70652ZM24.43 10.3583V10.5583H24.8994L24.5743 10.2198L24.43 10.3583ZM22.1737 11.1097H21.9737L21.9737 11.1102L22.1737 11.1097ZM22.1945 18.8851V19.0851H22.3951L22.3945 18.8846L22.1945 18.8851ZM18.2873 18.8851H18.0873V19.0851H18.2873V18.8851ZM13.9564 18.8851V19.0851H14.1564V18.8851H13.9564ZM10.0701 18.8851H9.87014V19.0851H10.0701V18.8851ZM7.77481 10.3583L7.63087 10.2195L7.30396 10.5583H7.77481V10.3583ZM21.6651 6.57208L21.5209 6.71061L21.8651 7.0691V6.57208H21.6651ZM20.442 5.29841H20.242V5.37889L20.2978 5.43694L20.442 5.29841ZM14.5847 18.8851H14.3847V19.0851H14.5847V18.8851ZM17.6589 18.8851V19.0851H17.8589V18.8851H17.6589ZM22.8021 18.9079L23.0021 18.908V18.9079L22.8021 18.9079ZM22.802 11.1097H22.602V11.1097L22.802 11.1097ZM25.2164 10.2701L25.0721 10.4086L25.0722 10.4087L25.2164 10.2701ZM22.2935 7.22633H22.0935V7.30681L22.1492 7.36486L22.2935 7.22633ZM19.8137 4.64416L19.6695 4.78269L20.0137 5.14117V4.64416H19.8137ZM16.4271 1.11762L16.5714 0.979085L16.5709 0.978573L16.4271 1.11762ZM15.8164 1.11777L15.6726 0.978744L15.6724 0.978913L15.8164 1.11777ZM6.90167 10.3585L7.04549 10.4975L7.0456 10.4974L6.90167 10.3585ZM6.82709 10.7608L7.01122 10.6828L7.01119 10.6827L6.82709 10.7608ZM15.9773 1.84505L24.2858 10.4969L24.5743 10.2198L16.2658 1.56799L15.9773 1.84505ZM24.43 10.1583H22.9251V10.5583H24.43V10.1583ZM22.9251 10.1583C22.4004 10.1583 21.9737 10.5849 21.9737 11.1097H22.3737C22.3737 10.8059 22.6213 10.5583 22.9251 10.5583V10.1583ZM21.9737 11.1102L21.9945 18.8857L22.3945 18.8846L22.3737 11.1092L21.9737 11.1102ZM22.1945 18.6851H18.2873V19.0851H22.1945V18.6851ZM18.4873 18.8851V13.9524H18.0873V18.8851H18.4873ZM18.4873 13.9524C18.4873 13.3451 17.9933 12.8512 17.386 12.8512V13.2512C17.7724 13.2512 18.0873 13.566 18.0873 13.9524H18.4873ZM17.386 12.8512H14.8575V13.2512H17.386V12.8512ZM14.8575 12.8512C14.2501 12.8512 13.7564 13.3451 13.7564 13.9524H14.1564C14.1564 13.5659 14.4711 13.2512 14.8575 13.2512V12.8512ZM13.7564 13.9524V18.8851H14.1564V13.9524H13.7564ZM13.9564 18.6851H10.0701V19.0851H13.9564V18.6851ZM10.2701 18.8851V11.1097H9.87014V18.8851H10.2701ZM10.2701 11.1097C10.2701 10.5849 9.84359 10.1583 9.31878 10.1583V10.5583C9.62266 10.5583 9.87014 10.8058 9.87014 11.1097H10.2701ZM9.31878 10.1583H7.77481V10.5583H9.31878V10.1583ZM7.91875 10.4972L16.2655 1.84538L15.9776 1.56766L7.63087 10.2195L7.91875 10.4972ZM20.642 2.97441C20.642 3.00831 20.6298 3.03096 20.6232 3.04051C20.6165 3.05023 20.6117 3.05285 20.6135 3.05163C20.6173 3.04917 20.6323 3.04183 20.6573 3.04183V2.64183C20.559 2.64183 20.4665 2.66947 20.3934 2.71764C20.3288 2.76022 20.242 2.84651 20.242 2.97441H20.642ZM20.6573 3.04183H21.4508V2.64183H20.6573V3.04183ZM21.4508 3.04183C21.4754 3.04183 21.4901 3.04908 21.4936 3.0514C21.4953 3.05255 21.4904 3.04987 21.4838 3.04014C21.4772 3.03057 21.4651 3.00805 21.4651 2.97441H21.8651C21.8651 2.84698 21.7791 2.76068 21.7144 2.71787C21.6414 2.66956 21.549 2.64183 21.4508 2.64183V3.04183ZM21.4651 2.97441V6.57208H21.8651V2.97441H21.4651ZM21.8094 6.43355L20.5863 5.15988L20.2978 5.43694L21.5209 6.71061L21.8094 6.43355ZM20.642 5.29841V2.97441H20.242V5.29841H20.642ZM14.7847 18.8851V13.9524H14.3847V18.8851H14.7847ZM14.7847 13.9524C14.7847 13.9123 14.8177 13.8795 14.8575 13.8795V13.4795C14.5966 13.4795 14.3847 13.6915 14.3847 13.9524H14.7847ZM14.8575 13.8795H17.386V13.4795H14.8575V13.8795ZM17.386 13.8795C17.4261 13.8795 17.4589 13.9124 17.4589 13.9524H17.8589C17.8589 13.6914 17.6469 13.4795 17.386 13.4795V13.8795ZM17.4589 13.9524V18.8851H17.8589V13.9524H17.4589ZM17.6589 18.6851H14.5847V19.0851H17.6589V18.6851ZM7.16827 11.1867H9.31878V10.7867H7.16827V11.1867ZM9.31878 11.1867C9.27598 11.1867 9.24181 11.1525 9.24181 11.1097H9.64181C9.64181 10.9316 9.4969 10.7867 9.31878 10.7867V11.1867ZM9.24181 11.1097V19.1024H9.64181V11.1097H9.24181ZM9.24181 19.1024C9.24181 19.4633 9.55414 19.7135 9.90065 19.7135V19.3135C9.73264 19.3135 9.64181 19.2022 9.64181 19.1024H9.24181ZM9.90065 19.7135H22.1945V19.3135H9.90065V19.7135ZM22.1945 19.7135C22.6391 19.7135 23.0018 19.353 23.0021 18.908L22.6021 18.9077C22.6019 19.1309 22.4194 19.3135 22.1945 19.3135V19.7135ZM23.0021 18.9079L23.002 11.1097L22.602 11.1097L22.6021 18.9079L23.0021 18.9079ZM23.002 11.1097C23.002 11.1522 22.9676 11.1867 22.925 11.1867V10.7867C22.7466 10.7867 22.602 10.9313 22.602 11.1097H23.002ZM22.925 11.1867H24.9111V10.7867H22.925V11.1867ZM24.9111 11.1867C25.4603 11.1867 25.7413 10.5277 25.3606 10.1315L25.0722 10.4087C25.2084 10.5505 25.108 10.7867 24.9111 10.7867V11.1867ZM25.3606 10.1316L22.4377 7.0878L22.1492 7.36486L25.0721 10.4086L25.3606 10.1316ZM22.4935 7.22633V2.97441H22.0935V7.22633H22.4935ZM22.4935 2.97441C22.4935 2.42568 22.0063 2.0135 21.4508 2.0135V2.4135C21.8247 2.4135 22.0935 2.684 22.0935 2.97441H22.4935ZM21.4508 2.0135H20.6573V2.4135H21.4508V2.0135ZM20.6573 2.0135C20.1016 2.0135 19.6137 2.42548 19.6137 2.97441H20.0137C20.0137 2.68421 20.2827 2.4135 20.6573 2.4135V2.0135ZM19.6137 2.97441V4.64416H20.0137V2.97441H19.6137ZM19.958 4.50563L16.5714 0.979086L16.2829 1.25615L19.6695 4.78269L19.958 4.50563ZM16.5709 0.978573C16.4491 0.852619 16.2775 0.8 16.1219 0.8C15.9662 0.8 15.7946 0.852635 15.6726 0.978744L15.9602 1.2568C15.9901 1.22583 16.0481 1.2 16.1219 1.2C16.1957 1.2 16.2536 1.22584 16.2834 1.25666L16.5709 0.978573ZM15.6724 0.978913L6.75773 10.2197L7.0456 10.4974L15.9603 1.25663L15.6724 0.978913ZM6.75784 10.2195C6.59843 10.3845 6.55336 10.6278 6.64299 10.839L7.01119 10.6827C6.98427 10.6193 6.99771 10.5469 7.04549 10.4975L6.75784 10.2195ZM6.64297 10.8389C6.73249 11.05 6.93892 11.1867 7.16827 11.1867V10.7867C7.0994 10.7867 7.03802 10.7459 7.01122 10.6828L6.64297 10.8389Z" fill="#2CB9EC"/>
<path fill-rule="evenodd" clip-rule="evenodd" d="M15.3098 7.64163C15.3098 7.24402 15.6334 6.92051 16.031 6.92051H16.2126C16.6103 6.92051 16.9336 7.24402 16.9336 7.64163V9.27105H15.3098V7.64163ZM15.0633 9.89938H17.1803C17.3907 9.89938 17.5619 9.7282 17.5619 9.51771V7.64163C17.5619 6.89749 16.9566 6.29218 16.2126 6.29218H16.031C15.2869 6.29218 14.6815 6.89749 14.6815 7.64163V9.51771C14.6815 9.7282 14.8529 9.89938 15.0633 9.89938Z" fill="#2CB9EC"/>
<path d="M16.9336 9.27105V9.47105H17.1336V9.27105H16.9336ZM15.3098 9.27105H15.1098V9.47105H15.3098V9.27105ZM15.5098 7.64163C15.5098 7.35448 15.7438 7.12051 16.031 7.12051V6.72051C15.5229 6.72051 15.1098 7.13356 15.1098 7.64163H15.5098ZM16.031 7.12051H16.2126V6.72051H16.031V7.12051ZM16.2126 7.12051C16.4998 7.12051 16.7336 7.35443 16.7336 7.64163H17.1336C17.1336 7.13361 16.7208 6.72051 16.2126 6.72051V7.12051ZM16.7336 7.64163V9.27105H17.1336V7.64163H16.7336ZM16.9336 9.07105H15.3098V9.47105H16.9336V9.07105ZM15.5098 9.27105V7.64163H15.1098V9.27105H15.5098ZM15.0633 10.0994H17.1803V9.69938H15.0633V10.0994ZM17.1803 10.0994C17.5012 10.0994 17.7619 9.83867 17.7619 9.51771H17.3619C17.3619 9.61773 17.2803 9.69938 17.1803 9.69938V10.0994ZM17.7619 9.51771V7.64163H17.3619V9.51771H17.7619ZM17.7619 7.64163C17.7619 6.78705 17.0671 6.09218 16.2126 6.09218V6.49218C16.8462 6.49218 17.3619 7.00794 17.3619 7.64163H17.7619ZM16.2126 6.09218H16.031V6.49218H16.2126V6.09218ZM16.031 6.09218C15.1764 6.09218 14.4815 6.78703 14.4815 7.64163H14.8815C14.8815 7.00795 15.3973 6.49218 16.031 6.49218V6.09218ZM14.4815 7.64163V9.51771H14.8815V7.64163H14.4815ZM14.4815 9.51771C14.4815 9.83875 14.7425 10.0994 15.0633 10.0994V9.69938C14.9632 9.69938 14.8815 9.61765 14.8815 9.51771H14.4815Z" fill="#2CB9EC"/>
<path fill-rule="evenodd" clip-rule="evenodd" d="M18.2536 29.6564C14.665 30.4817 6.99814 29.6098 5.24564 29.2661V22.7356C5.90547 22.2821 9.05246 20.279 11.4121 21.5624C12.7488 22.2889 14.4804 22.2263 16.0088 22.1713C18.0358 22.0971 19.1879 22.1097 19.2906 23.1982C19.3192 23.5013 19.2256 23.7636 19.0044 23.9999C17.9477 25.1295 14.3953 25.2875 13.1141 25.2513C12.9394 25.2495 12.7961 25.3832 12.7915 25.5569C12.7868 25.7302 12.9234 25.8748 13.0969 25.8797C13.1248 25.8803 13.2415 25.883 13.4258 25.883C14.5528 25.883 18.203 25.7763 19.463 24.4294C19.4998 24.3901 19.5333 24.3496 19.5658 24.3091C20.1224 24.029 23.8321 22.1207 24.9366 20.4692C26.0105 18.864 27.3448 17.6746 27.9122 17.8123C28.2083 17.8853 28.3092 18.4326 28.343 18.7527C28.7265 22.3812 21.1917 28.9802 18.2536 29.6564ZM28.9679 18.6864C28.8771 17.8276 28.5726 17.3282 28.0629 17.2024C26.6272 16.8456 24.5038 19.986 24.4144 20.1201C23.6111 21.3209 21.1392 22.7549 19.9183 23.4142C19.9242 23.3243 19.9251 23.2332 19.9162 23.1393C19.7527 21.4074 17.9243 21.4743 15.986 21.5433C14.5387 21.5955 12.8981 21.655 11.7121 21.0101C9.32382 19.7129 6.40232 21.2518 5.24564 21.9817V21.5056C5.24564 20.9674 4.80785 20.5297 4.26973 20.5297H1.31413C1.14064 20.5297 0.999969 20.6702 0.999969 20.8438C0.999969 21.0175 1.14064 21.158 1.31413 21.158H4.26973C4.46137 21.158 4.61731 21.3139 4.61731 21.5056V30.2725C4.61731 30.4642 4.46137 30.6201 4.26973 30.6201H1.31413C1.14064 30.6201 0.999969 30.7606 0.999969 30.9342C0.999969 31.1079 1.14064 31.2484 1.31413 31.2484H4.26973C4.80785 31.2484 5.24564 30.8106 5.24564 30.2725V29.9061C6.71217 30.1783 10.608 30.6324 14.0857 30.6324C15.7121 30.6324 17.2464 30.5329 18.3944 30.2688C21.2775 29.6055 29.4211 22.9752 28.9679 18.6864Z" fill="#2CB9EC"/>
<path d="M5.24564 29.2661H5.04564V29.4307L5.20715 29.4624L5.24564 29.2661ZM5.24564 22.7356L5.13236 22.5707L5.04564 22.6303V22.7356H5.24564ZM11.4121 21.5624L11.3166 21.7381L11.3166 21.7381L11.4121 21.5624ZM16.0088 22.1713L16.0159 22.3712L16.0161 22.3712L16.0088 22.1713ZM19.2906 23.1982L19.4897 23.1795L19.4897 23.1794L19.2906 23.1982ZM19.0044 23.9999L18.8584 23.8632L18.8583 23.8633L19.0044 23.9999ZM13.1141 25.2513L13.1197 25.0514L13.1162 25.0513L13.1141 25.2513ZM12.7915 25.5569L12.9914 25.5623L12.9914 25.5622L12.7915 25.5569ZM13.0969 25.8797L13.0913 26.0796L13.0924 26.0796L13.0969 25.8797ZM19.463 24.4294L19.3171 24.2926L19.317 24.2928L19.463 24.4294ZM19.5658 24.3091L19.4759 24.1305L19.4371 24.15L19.4099 24.1839L19.5658 24.3091ZM24.9366 20.4692L24.7703 20.358L24.7703 20.358L24.9366 20.4692ZM27.9122 17.8123L27.9601 17.6181L27.9594 17.6179L27.9122 17.8123ZM28.343 18.7527L28.1441 18.7736L28.1441 18.7737L28.343 18.7527ZM28.0629 17.2024L28.0147 17.3965L28.015 17.3965L28.0629 17.2024ZM24.4144 20.1201L24.5806 20.2313L24.5808 20.231L24.4144 20.1201ZM19.9183 23.4142L19.7187 23.4012L19.6952 23.762L20.0133 23.5902L19.9183 23.4142ZM19.9162 23.1393L19.7171 23.1581L19.7171 23.1581L19.9162 23.1393ZM15.986 21.5433L15.9789 21.3434L15.9788 21.3434L15.986 21.5433ZM11.7121 21.0101L11.8077 20.8344L11.8076 20.8343L11.7121 21.0101ZM5.24564 21.9817H5.04564V22.3444L5.35237 22.1509L5.24564 21.9817ZM5.24564 29.9061L5.28213 29.7095L5.04564 29.6656V29.9061H5.24564ZM18.3944 30.2688L18.4393 30.4637L18.3944 30.2688ZM18.2088 29.4615C16.4455 29.867 13.6577 29.8578 11.0733 29.7C8.49391 29.5425 6.1486 29.2394 5.28413 29.0699L5.20715 29.4624C6.09518 29.6365 8.45954 29.9412 11.0489 30.0993C13.6331 30.257 16.4731 30.2711 18.2985 29.8513L18.2088 29.4615ZM5.44564 29.2661V22.7356H5.04564V29.2661H5.44564ZM5.35892 22.9004C5.68217 22.6782 6.61663 22.0755 7.756 21.6869C8.9004 21.2967 10.2099 21.1362 11.3166 21.7381L11.5077 21.3867C10.2547 20.7052 8.81086 20.9046 7.62689 21.3084C6.43789 21.7139 5.46894 22.3394 5.13236 22.5707L5.35892 22.9004ZM11.3166 21.7381C12.7105 22.4957 14.5023 22.4256 16.0159 22.3712L16.0016 21.9715C14.4586 22.0269 12.7871 22.082 11.5076 21.3866L11.3166 21.7381ZM16.0161 22.3712C17.0385 22.3338 17.8032 22.321 18.3257 22.4435C18.5826 22.5037 18.7603 22.5925 18.8786 22.71C18.9934 22.824 19.0693 22.982 19.0915 23.217L19.4897 23.1794C19.4605 22.8702 19.3539 22.6184 19.1605 22.4262C18.9706 22.2375 18.7143 22.1237 18.417 22.054C17.831 21.9166 17.0061 21.9347 16.0014 21.9715L16.0161 22.3712ZM19.0915 23.217C19.1143 23.4592 19.0432 23.6658 18.8584 23.8632L19.1504 24.1366C19.408 23.8614 19.524 23.5435 19.4897 23.1795L19.0915 23.217ZM18.8583 23.8633C18.6271 24.1105 18.2432 24.3189 17.7532 24.488C17.2673 24.6557 16.6972 24.7779 16.1139 24.865C14.9473 25.0391 13.7509 25.0692 13.1197 25.0514L13.1084 25.4512C13.7585 25.4696 14.9789 25.4388 16.173 25.2606C16.7701 25.1715 17.3663 25.0447 17.8837 24.8662C18.397 24.689 18.8534 24.4541 19.1505 24.1365L18.8583 23.8633ZM13.1162 25.0513C12.8363 25.0484 12.5991 25.2647 12.5915 25.5516L12.9914 25.5622C12.993 25.5017 13.0424 25.4506 13.112 25.4513L13.1162 25.0513ZM12.5915 25.5515C12.5838 25.8351 12.8075 26.0715 13.0913 26.0796L13.1026 25.6797C13.0394 25.678 12.9897 25.6253 12.9914 25.5623L12.5915 25.5515ZM13.0924 26.0796C13.1211 26.0803 13.2395 26.083 13.4258 26.083V25.683C13.2436 25.683 13.1285 25.6803 13.1014 25.6797L13.0924 26.0796ZM13.4258 26.083C13.9938 26.083 15.2002 26.0562 16.4263 25.8587C17.0394 25.76 17.6628 25.6177 18.2163 25.4122C18.7674 25.2076 19.2642 24.9347 19.6091 24.566L19.317 24.2928C19.0319 24.5975 18.5999 24.8431 18.077 25.0372C17.5564 25.2306 16.9606 25.3675 16.3627 25.4638C15.167 25.6564 13.9847 25.683 13.4258 25.683V26.083ZM19.609 24.5661C19.6511 24.5212 19.6883 24.476 19.7218 24.4344L19.4099 24.1839C19.3783 24.2232 19.3486 24.259 19.3171 24.2926L19.609 24.5661ZM19.6557 24.4878C19.9366 24.3464 21.0097 23.796 22.1527 23.0724C22.7241 22.7107 23.3158 22.3039 23.8357 21.8818C24.3535 21.4614 24.8103 21.0177 25.1028 20.5804L24.7703 20.358C24.5105 20.7465 24.0894 21.1606 23.5836 21.5713C23.08 21.9802 22.5023 22.3777 21.9387 22.7345C20.8116 23.448 19.7515 23.9918 19.4759 24.1305L19.6557 24.4878ZM25.1028 20.5804C25.6321 19.7892 26.2235 19.104 26.7475 18.6364C27.01 18.4021 27.2501 18.2274 27.4524 18.1204C27.6637 18.0087 27.7973 17.9902 27.865 18.0066L27.9594 17.6179C27.7434 17.5655 27.4975 17.6441 27.2654 17.7668C27.0244 17.8943 26.7574 18.0914 26.4812 18.3379C25.9277 18.8319 25.3149 19.544 24.7703 20.358L25.1028 20.5804ZM27.8643 18.0065C27.8818 18.0108 27.9082 18.0245 27.9416 18.0676C27.9756 18.1114 28.0084 18.1753 28.0376 18.2572C28.0961 18.4209 28.1278 18.6193 28.1441 18.7736L28.5419 18.7317C28.5244 18.566 28.4887 18.3307 28.4143 18.1225C28.3771 18.0184 28.327 17.9118 28.2577 17.8225C28.1879 17.7324 28.0907 17.6503 27.9601 17.6181L27.8643 18.0065ZM28.1441 18.7737C28.2329 19.6137 27.8626 20.659 27.171 21.7876C26.4835 22.9093 25.4973 24.083 24.403 25.1697C23.3093 26.2559 22.113 27.2499 21.0097 28.0132C19.9008 28.7805 18.9047 29.3013 18.2088 29.4615L18.2985 29.8513C19.0716 29.6734 20.1192 29.1158 21.2373 28.3422C22.3612 27.5646 23.5755 26.5553 24.6848 25.4536C25.7936 24.3525 26.8027 23.1538 27.512 21.9966C28.217 20.8462 28.6448 19.7059 28.5419 18.7316L28.1441 18.7737ZM29.1668 18.6653C29.0736 17.7841 28.7492 17.1657 28.1108 17.0082L28.015 17.3965C28.3961 17.4906 28.6806 17.8711 28.769 18.7074L29.1668 18.6653ZM28.1111 17.0083C27.6741 16.8997 27.2137 17.0621 26.7953 17.3183C26.3717 17.5776 25.9551 17.9549 25.589 18.3392C24.8556 19.1089 24.295 19.9386 24.248 20.0091L24.5808 20.231C24.6232 20.1674 25.1689 19.3599 25.8786 18.6151C26.2339 18.2421 26.623 17.8928 27.0041 17.6594C27.3904 17.4229 27.7338 17.3267 28.0147 17.3965L28.1111 17.0083ZM24.2481 20.0089C23.8702 20.5739 23.0811 21.214 22.2107 21.8047C21.3475 22.3904 20.4309 22.9101 19.8233 23.2382L20.0133 23.5902C20.6266 23.259 21.5564 22.7321 22.4353 22.1357C23.3068 21.5443 24.1553 20.867 24.5806 20.2313L24.2481 20.0089ZM20.1179 23.4272C20.1242 23.3299 20.1254 23.2278 20.1153 23.1205L19.7171 23.1581C19.7247 23.2387 19.7241 23.3187 19.7187 23.4012L20.1179 23.4272ZM20.1153 23.1205C20.0709 22.6506 19.9111 22.2856 19.6506 22.0117C19.3924 21.7403 19.0504 21.5742 18.668 21.4727C17.913 21.2722 16.9374 21.3093 15.9789 21.3434L15.9931 21.7432C16.9729 21.7083 17.8806 21.6774 18.5653 21.8593C18.9027 21.9489 19.1696 22.0864 19.3608 22.2874C19.5496 22.486 19.6797 22.7621 19.7171 23.1581L20.1153 23.1205ZM15.9788 21.3434C15.253 21.3696 14.4928 21.3969 13.767 21.3387C13.041 21.2806 12.3658 21.1379 11.8077 20.8344L11.6166 21.1858C12.2443 21.5272 12.9824 21.6772 13.7351 21.7375C14.488 21.7978 15.2717 21.7692 15.9932 21.7432L15.9788 21.3434ZM11.8076 20.8343C10.5512 20.152 9.1654 20.2216 7.96535 20.5426C6.76453 20.8637 5.72566 21.4423 5.13891 21.8126L5.35237 22.1509C5.9223 21.7912 6.92253 21.2355 8.06869 20.929C9.21564 20.6223 10.4847 20.5711 11.6167 21.1858L11.8076 20.8343ZM5.44564 21.9817V21.5056H5.04564V21.9817H5.44564ZM5.44564 21.5056C5.44564 20.857 4.91831 20.3297 4.26973 20.3297V20.7297C4.69739 20.7297 5.04564 21.0779 5.04564 21.5056H5.44564ZM4.26973 20.3297H1.31413V20.7297H4.26973V20.3297ZM1.31413 20.3297C1.03025 20.3297 0.799969 20.5596 0.799969 20.8438H1.19997C1.19997 20.7807 1.25103 20.7297 1.31413 20.7297V20.3297ZM0.799969 20.8438C0.799969 21.128 1.03025 21.358 1.31413 21.358V20.958C1.25103 20.958 1.19997 20.907 1.19997 20.8438H0.799969ZM1.31413 21.358H4.26973V20.958H1.31413V21.358ZM4.26973 21.358C4.35094 21.358 4.41731 21.4243 4.41731 21.5056H4.81731C4.81731 21.2034 4.57179 20.958 4.26973 20.958V21.358ZM4.41731 21.5056V30.2725H4.81731V21.5056H4.41731ZM4.41731 30.2725C4.41731 30.3537 4.35094 30.4201 4.26973 30.4201V30.8201C4.57179 30.8201 4.81731 30.5747 4.81731 30.2725H4.41731ZM4.26973 30.4201H1.31413V30.8201H4.26973V30.4201ZM1.31413 30.4201C1.03024 30.4201 0.799969 30.6501 0.799969 30.9342H1.19997C1.19997 30.8711 1.25103 30.8201 1.31413 30.8201V30.4201ZM0.799969 30.9342C0.799969 31.2184 1.03025 31.4484 1.31413 31.4484V31.0484C1.25103 31.0484 1.19997 30.9974 1.19997 30.9342H0.799969ZM1.31413 31.4484H4.26973V31.0484H1.31413V31.4484ZM4.26973 31.4484C4.91831 31.4484 5.44564 30.9211 5.44564 30.2725H5.04564C5.04564 30.7001 4.69739 31.0484 4.26973 31.0484V31.4484ZM5.44564 30.2725V29.9061H5.04564V30.2725H5.44564ZM5.20915 30.1028C6.68753 30.3771 10.5956 30.8324 14.0857 30.8324V30.4324C10.6204 30.4324 6.7368 29.9794 5.28213 29.7095L5.20915 30.1028ZM14.0857 30.8324C15.7167 30.8324 17.269 30.733 18.4393 30.4637L18.3496 30.0739C17.2238 30.3329 15.7075 30.4324 14.0857 30.4324V30.8324ZM18.4393 30.4637C19.1974 30.2893 20.2722 29.733 21.4382 28.9482C22.6102 28.1595 23.8935 27.1269 25.0717 25.9805C26.2493 24.8346 27.3273 23.5698 28.0837 22.3155C28.8373 21.0657 29.2868 19.8013 29.1668 18.6654L28.769 18.7074C28.8756 19.7158 28.4771 20.8885 27.7411 22.1089C27.008 23.3247 25.9549 24.563 24.7928 25.6938C23.6314 26.8239 22.3666 27.8413 21.2149 28.6164C20.0573 29.3954 19.033 29.9166 18.3496 30.0739L18.4393 30.4637Z" fill="#2CB9EC"/>
<path fill-rule="evenodd" clip-rule="evenodd" d="M3.56394 28.7188V27.9797C3.56394 27.806 3.42327 27.6655 3.24977 27.6655C3.07631 27.6655 2.93561 27.806 2.93561 27.9797V28.7188C2.93561 28.8924 3.07631 29.0329 3.24977 29.0329C3.42327 29.0329 3.56394 28.8924 3.56394 28.7188Z" fill="#2CB9EC"/>
<path d="M3.56394 28.7188V27.9797C3.56394 27.806 3.42327 27.6655 3.24977 27.6655C3.07631 27.6655 2.93561 27.806 2.93561 27.9797V28.7188C2.93561 28.8924 3.07631 29.0329 3.24977 29.0329C3.42327 29.0329 3.56394 28.8924 3.56394 28.7188" stroke="#2CB9EC" stroke-width="0.4"/>
</svg>
