<svg width="80" height="54" viewBox="0 0 80 54" fill="none" xmlns="http://www.w3.org/2000/svg">
<g opacity="0.3565">
<path fill-rule="evenodd" clip-rule="evenodd" d="M59.2211 51.7298C60.8618 49.3833 63.0151 45.1764 63.9181 38.4846C62.0389 38.8246 60.0713 38.8984 58.0434 38.6464C48.8777 37.5071 41.7174 29.9292 41.1125 20.7069C40.3711 9.40128 49.3162 0 60.4553 0C71.1617 0 79.841 8.68499 79.841 19.3981C79.841 19.3981 82.3029 48.4053 60.484 53.5617C59.4205 53.813 58.5947 52.6258 59.2211 51.7298Z" fill="#26A0D8"/>
<path fill-rule="evenodd" clip-rule="evenodd" d="M18.1517 51.7298C19.7924 49.3833 21.9458 45.1764 22.8488 38.4846C20.9628 38.8258 18.9874 38.8989 16.9528 38.6436C7.78225 37.4931 0.62792 29.8976 0.0405406 20.6679C-0.677855 9.37977 8.25958 0 19.3858 0C30.0922 0 38.7716 8.68499 38.7716 19.3981C38.7716 19.3981 41.2335 48.4053 19.4145 53.5617C18.351 53.813 17.5252 52.6258 18.1517 51.7298Z" fill="#26A0D8"/>
</g>
</svg>
