<svg width="25" height="29" viewBox="0 0 25 29" fill="none" xmlns="http://www.w3.org/2000/svg">
<path fill-rule="evenodd" clip-rule="evenodd" d="M9.41303 5.11419C9.46128 4.30821 9.47507 4.03764 9.45841 3.92073C9.43658 3.76591 9.29899 3.66136 9.13987 3.68032C8.98505 3.69927 8.87389 3.84318 8.8894 3.99886C8.89859 4.08876 8.86987 4.57017 8.83942 5.08001C8.71907 7.10357 8.49502 10.8704 9.06518 12.2071C9.11172 12.3163 9.21742 12.3815 9.32915 12.3815C9.36678 12.3815 9.40527 12.374 9.44232 12.3585C9.58795 12.2962 9.65574 12.1276 9.59341 11.9817C9.07639 10.7693 9.30359 6.94962 9.41303 5.11419Z" fill="#26A0D8"/>
<path d="M9.41303 5.11419C9.46128 4.30821 9.47507 4.03764 9.45841 3.92073C9.43658 3.76591 9.29899 3.66136 9.13987 3.68032C8.98505 3.69927 8.87389 3.84318 8.8894 3.99886C8.89859 4.08876 8.86987 4.57017 8.83942 5.08001C8.71907 7.10357 8.49502 10.8704 9.06518 12.2071C9.11172 12.3163 9.21742 12.3815 9.32915 12.3815C9.36678 12.3815 9.40527 12.374 9.44232 12.3585C9.58795 12.2962 9.65574 12.1276 9.59341 11.9817C9.07639 10.7693 9.30359 6.94962 9.41303 5.11419" stroke="#26A0D8" stroke-width="0.5" stroke-linecap="round" stroke-linejoin="round"/>
<path fill-rule="evenodd" clip-rule="evenodd" d="M16.1117 25.515H9.76184C9.603 25.515 9.47461 25.6434 9.47461 25.8022C9.47461 25.9611 9.603 26.0895 9.76184 26.0895H16.1117C16.2706 26.0895 16.399 25.9611 16.399 25.8022C16.399 25.6434 16.2706 25.515 16.1117 25.515Z" fill="#26A0D8"/>
<path d="M16.1117 25.515H9.76184C9.603 25.515 9.47461 25.6434 9.47461 25.8022C9.47461 25.9611 9.603 26.0895 9.76184 26.0895H16.1117C16.2706 26.0895 16.399 25.9611 16.399 25.8022C16.399 25.6434 16.2706 25.515 16.1117 25.515" stroke="#26A0D8" stroke-width="0.5" stroke-linecap="round" stroke-linejoin="round"/>
<path fill-rule="evenodd" clip-rule="evenodd" d="M12.876 16.395C9.75803 16.3882 7.22118 13.8525 7.21572 10.7322V2.47052C7.21457 1.9759 7.60061 1.57549 8.09466 1.57435H17.657C18.151 1.57549 18.5371 1.9759 18.5359 2.47052V10.7322C18.5304 13.8525 15.9936 16.3882 12.876 16.395ZM17.8689 23.787H7.88089C10.7452 22.0346 10.8173 18.3752 10.6515 16.5539C11.3426 16.8199 12.0915 16.9678 12.875 16.9695C13.6583 16.9678 14.4071 16.8199 15.0982 16.5539C14.9325 18.3752 15.0046 22.0346 17.8689 23.787ZM19.8983 24.3615C20.3315 24.3615 20.6842 24.7142 20.6842 25.1474V27.1298C20.6842 27.1922 20.6334 27.243 20.571 27.243H5.18133C5.119 27.243 5.06816 27.1922 5.06816 27.1298V25.1474C5.06816 24.7142 5.42088 24.3615 5.85403 24.3615H19.8983ZM1.57449 3.66283C1.57334 3.37789 1.80026 3.15069 2.08405 3.15011L6.64101 3.14236V10.7334C6.64216 11.2702 6.7111 11.7913 6.83978 12.2887C2.13316 10.5171 1.58483 5.70448 1.57449 3.66283ZM19.1106 10.7334V3.14236L23.6675 3.15011C23.9513 3.15069 24.1782 3.37789 24.1771 3.66283C24.1667 5.70448 23.6184 10.5171 18.9118 12.2887C19.0405 11.7913 19.1094 11.2702 19.1106 10.7334ZM15.7024 16.2839C17.0607 15.5873 18.1324 14.4082 18.6887 12.9735C24.1198 11.2156 24.7396 5.88946 24.7511 3.66598C24.754 3.06452 24.2709 2.57622 23.6682 2.57564L19.1101 2.56789V2.47167C19.1113 1.65937 18.4699 1.0016 17.6576 0.999878H8.09354C7.28124 1.0016 6.63985 1.65937 6.641 2.47167V2.56789L2.08288 2.57564C1.48027 2.57622 0.997425 3.06452 1.00001 3.66598C1.0115 5.88946 1.63164 11.2156 7.06237 12.9735C7.61874 14.4082 8.69041 15.5873 10.0487 16.2839C10.0505 16.308 10.0533 16.3416 10.0591 16.3948C10.2547 18.1854 10.2995 22.4801 6.53874 23.787H5.8534C5.10344 23.787 4.49306 24.3971 4.49306 25.1474V27.1298C4.49306 27.5087 4.80155 27.8175 5.1807 27.8175H20.5704C20.9496 27.8175 21.2581 27.5087 21.2581 27.1298V25.1474C21.2581 24.3971 20.6477 23.787 19.8977 23.787H19.2127C15.4516 22.4801 15.4964 18.1854 15.692 16.3948C15.6978 16.3416 15.7006 16.308 15.7024 16.2839Z" fill="#26A0D8"/>
<path d="M7.21572 10.7322H6.96572L6.96572 10.7327L7.21572 10.7322ZM7.21572 2.47052H7.46572L7.46572 2.46994L7.21572 2.47052ZM8.09466 1.57435V1.32435L8.09408 1.32435L8.09466 1.57435ZM17.657 1.57435L17.6575 1.32435H17.657V1.57435ZM18.5359 2.47052L18.2859 2.46994V2.47052H18.5359ZM18.5359 10.7322L18.7859 10.7327V10.7322H18.5359ZM7.88089 23.787L7.75042 23.5738C7.6549 23.6322 7.6099 23.747 7.64025 23.8548C7.6706 23.9626 7.76892 24.037 7.88089 24.037V23.787ZM10.6515 16.5539L10.7413 16.3206C10.6607 16.2895 10.5698 16.3023 10.5008 16.3544C10.4319 16.4065 10.3947 16.4905 10.4026 16.5765L10.6515 16.5539ZM12.875 16.9695L12.8745 17.2195L12.8756 17.2195L12.875 16.9695ZM15.0982 16.5539L15.3472 16.5765C15.355 16.4905 15.3179 16.4065 15.2489 16.3544C15.18 16.3023 15.0891 16.2895 15.0084 16.3206L15.0982 16.5539ZM2.08405 3.15011L2.08362 2.90011L2.08354 2.90011L2.08405 3.15011ZM6.64101 3.14236H6.89101C6.89101 3.07598 6.86462 3.01233 6.81764 2.96543C6.77066 2.91853 6.70697 2.89224 6.64059 2.89236L6.64101 3.14236ZM6.64101 10.7334H6.39101L6.39102 10.7339L6.64101 10.7334ZM6.83978 12.2887L6.75171 12.5227C6.83905 12.5556 6.93744 12.5371 7.00686 12.4747C7.07628 12.4123 7.10519 12.3165 7.08181 12.2261L6.83978 12.2887ZM19.1106 3.14236L19.111 2.89236C19.0446 2.89224 18.9809 2.91853 18.9339 2.96543C18.887 3.01233 18.8606 3.07598 18.8606 3.14236H19.1106ZM23.6675 3.15011L23.668 2.90011L23.6679 2.90011L23.6675 3.15011ZM24.1771 3.66283L24.4271 3.66409L24.4271 3.66383L24.1771 3.66283ZM18.9118 12.2887L18.6698 12.2261C18.6464 12.3165 18.6753 12.4123 18.7447 12.4747C18.8141 12.5371 18.9125 12.5556 18.9999 12.5227L18.9118 12.2887ZM18.6887 12.9735L18.6118 12.7357C18.5402 12.7588 18.4829 12.813 18.4557 12.8831L18.6887 12.9735ZM24.7511 3.66598L25.0011 3.66728V3.66718L24.7511 3.66598ZM23.6682 2.57564L23.6678 2.82564L23.668 2.82564L23.6682 2.57564ZM19.1101 2.56789H18.8601C18.8601 2.70579 18.9718 2.81765 19.1097 2.81789L19.1101 2.56789ZM19.1101 2.47167L18.8601 2.47131V2.47167H19.1101ZM17.6576 0.999878L17.6581 0.749878H17.6576V0.999878ZM8.09354 0.999878V0.749877L8.09301 0.749878L8.09354 0.999878ZM6.641 2.47167H6.891L6.891 2.47131L6.641 2.47167ZM6.641 2.56789L6.64143 2.81789C6.77933 2.81765 6.891 2.70579 6.891 2.56789H6.641ZM2.08288 2.57564L2.08312 2.82564L2.08331 2.82564L2.08288 2.57564ZM1.00001 3.66598L0.750013 3.66706L0.750014 3.66728L1.00001 3.66598ZM7.06237 12.9735L7.29546 12.8831C7.26826 12.813 7.21093 12.7588 7.13936 12.7357L7.06237 12.9735ZM10.0487 16.2839L10.2981 16.2661C10.2919 16.1789 10.2406 16.1013 10.1628 16.0614L10.0487 16.2839ZM10.0591 16.3948L9.81053 16.4216L9.81056 16.4219L10.0591 16.3948ZM6.53874 23.787V24.037C6.56668 24.037 6.59442 24.0323 6.62081 24.0232L6.53874 23.787ZM19.2127 23.787L19.1306 24.0232C19.157 24.0323 19.1847 24.037 19.2127 24.037V23.787ZM15.692 16.3948L15.9406 16.4219L15.9406 16.4216L15.692 16.3948ZM12.8765 16.1451C9.8962 16.1385 7.47094 13.7143 7.46572 10.7318L6.96572 10.7327C6.97142 13.9906 9.61986 16.6379 12.8754 16.645L12.8765 16.1451ZM7.46572 10.7322V2.47052H6.96572V10.7322H7.46572ZM7.46572 2.46994C7.46488 2.10865 7.74396 1.82516 8.09524 1.82435L8.09408 1.32435C7.45727 1.32583 6.96426 1.84315 6.96572 2.4711L7.46572 2.46994ZM8.09466 1.82435H17.657V1.32435H8.09466V1.82435ZM17.6564 1.82435C18.0077 1.82516 18.2867 2.10865 18.2859 2.46994L18.7859 2.4711C18.7874 1.84315 18.2944 1.32583 17.6575 1.32435L17.6564 1.82435ZM18.2859 2.47052V10.7322H18.7859V2.47052H18.2859ZM18.2859 10.7318C18.2807 13.7143 15.8554 16.1385 12.8754 16.1451L12.8765 16.645C16.1318 16.6379 18.7802 13.9906 18.7859 10.7327L18.2859 10.7318ZM17.8689 23.537H7.88089V24.037H17.8689V23.537ZM8.01136 24.0003C9.51467 23.0805 10.2782 21.6627 10.6444 20.2594C11.0099 18.859 10.9847 17.4568 10.9005 16.5312L10.4026 16.5765C10.4841 17.4723 10.5058 18.8105 10.1606 20.1332C9.81612 21.453 9.1114 22.7411 7.75042 23.5738L8.01136 24.0003ZM10.5618 16.7872C11.2805 17.0638 12.0595 17.2177 12.8745 17.2195L12.8756 16.7195C12.1234 16.7179 11.4048 16.5759 10.7413 16.3206L10.5618 16.7872ZM12.8756 17.2195C13.6903 17.2177 14.4693 17.0638 15.188 16.7872L15.0084 16.3206C14.345 16.5759 13.6264 16.7179 12.8745 16.7195L12.8756 17.2195ZM14.8492 16.5312C14.765 17.4568 14.7399 18.859 15.1054 20.2594C15.4716 21.6627 16.2351 23.0805 17.7384 24.0003L17.9993 23.5738C16.6384 22.7411 15.9336 21.453 15.5892 20.1332C15.244 18.8105 15.2657 17.4723 15.3472 16.5765L14.8492 16.5312ZM19.8983 24.6115C20.1934 24.6115 20.4342 24.8523 20.4342 25.1474H20.9342C20.9342 24.5761 20.4696 24.1115 19.8983 24.1115V24.6115ZM20.4342 25.1474V27.1298H20.9342V25.1474H20.4342ZM20.4342 27.1298C20.4342 27.0541 20.4953 26.993 20.571 26.993V27.493C20.7714 27.493 20.9342 27.3302 20.9342 27.1298H20.4342ZM20.571 26.993H5.18133V27.493H20.571V26.993ZM5.18133 26.993C5.25707 26.993 5.31816 27.0541 5.31816 27.1298H4.81816C4.81816 27.3302 4.98093 27.493 5.18133 27.493V26.993ZM5.31816 27.1298V25.1474H4.81816V27.1298H5.31816ZM5.31816 25.1474C5.31816 24.8523 5.55895 24.6115 5.85403 24.6115V24.1115C5.28281 24.1115 4.81816 24.5761 4.81816 25.1474H5.31816ZM5.85403 24.6115H19.8983V24.1115H5.85403V24.6115ZM1.82449 3.66182C1.8239 3.51547 1.9387 3.40041 2.08455 3.40011L2.08354 2.90011C1.66181 2.90097 1.32279 3.2403 1.3245 3.66383L1.82449 3.66182ZM2.08447 3.40011L6.64144 3.39236L6.64059 2.89236L2.08362 2.90011L2.08447 3.40011ZM6.39101 3.14236V10.7334H6.89101V3.14236H6.39101ZM6.39102 10.7339C6.39221 11.2919 6.46387 11.8338 6.59775 12.3514L7.08181 12.2261C6.95833 11.7487 6.89212 11.2485 6.89101 10.7328L6.39102 10.7339ZM6.92785 12.0548C2.3824 10.3438 1.83477 5.69151 1.82449 3.66156L1.3245 3.66409C1.3349 5.71746 1.88392 10.6904 6.75171 12.5227L6.92785 12.0548ZM19.3606 10.7334V3.14236H18.8606V10.7334H19.3606ZM19.1101 3.39236L23.6671 3.40011L23.6679 2.90011L19.111 2.89236L19.1101 3.39236ZM23.667 3.40011C23.8129 3.40041 23.9277 3.51547 23.9271 3.66182L24.4271 3.66383C24.4288 3.2403 24.0898 2.90097 23.668 2.90011L23.667 3.40011ZM23.9271 3.66156C23.9168 5.69151 23.3692 10.3438 18.8237 12.0548L18.9999 12.5227C23.8676 10.6904 24.4167 5.71746 24.4271 3.66409L23.9271 3.66156ZM19.1538 12.3514C19.2877 11.8338 19.3594 11.2919 19.3606 10.7339L18.8606 10.7328C18.8595 11.2485 18.7932 11.7487 18.6698 12.2261L19.1538 12.3514ZM15.8164 16.5063C17.2288 15.7821 18.3431 14.5563 18.9218 13.0639L18.4557 12.8831C17.9216 14.2602 16.8926 15.3926 15.5883 16.0614L15.8164 16.5063ZM18.7657 13.2114C24.3673 11.3983 24.9895 5.90401 25.0011 3.66728L24.5011 3.66469C24.4897 5.87492 23.8723 11.033 18.6118 12.7357L18.7657 13.2114ZM25.0011 3.66718C25.0046 2.92781 24.4101 2.32635 23.6685 2.32564L23.668 2.82564C24.1316 2.82609 24.5033 3.20122 24.5011 3.66479L25.0011 3.66718ZM23.6687 2.32564L19.1105 2.31789L19.1097 2.81789L23.6678 2.82564L23.6687 2.32564ZM19.3601 2.56789V2.47167H18.8601V2.56789H19.3601ZM19.3601 2.47202C19.3615 1.52487 18.6115 0.751901 17.6581 0.749878L17.657 1.24988C18.3282 1.2513 18.8611 1.79386 18.8601 2.47131L19.3601 2.47202ZM17.6576 0.749878H8.09354V1.24988H17.6576V0.749878ZM8.09301 0.749878C7.13958 0.751901 6.38966 1.52487 6.391 2.47202L6.891 2.47131C6.89004 1.79386 7.42291 1.2513 8.09407 1.24988L8.09301 0.749878ZM6.391 2.47167V2.56789H6.891V2.47167H6.391ZM6.64057 2.31789L2.08246 2.32564L2.08331 2.82564L6.64143 2.81789L6.64057 2.31789ZM2.08264 2.32564C1.34093 2.32635 0.746836 2.9279 0.750013 3.66706L1.25001 3.66491C1.24801 3.20114 1.6196 2.82609 2.08312 2.82564L2.08264 2.32564ZM0.750014 3.66728C0.761572 5.90402 1.38413 11.3983 6.98538 13.2114L7.13936 12.7357C1.87914 11.033 1.26143 5.87491 1.25001 3.66469L0.750014 3.66728ZM6.82928 13.0639C7.408 14.5563 8.52231 15.7821 9.93467 16.5063L10.1628 16.0614C8.85852 15.3926 7.82949 14.2602 7.29546 12.8831L6.82928 13.0639ZM9.79938 16.3017C9.80136 16.3294 9.80453 16.3661 9.81053 16.4216L10.3076 16.3679C10.3022 16.3172 10.2996 16.2866 10.2981 16.2661L9.79938 16.3017ZM9.81056 16.4219C9.90683 17.3032 9.96363 18.7863 9.54292 20.201C9.12478 21.6071 8.24147 22.9306 6.45668 23.5509L6.62081 24.0232C8.59678 23.3365 9.57144 21.8592 10.0222 20.3435C10.4703 18.8365 10.4069 17.277 10.3076 16.3676L9.81056 16.4219ZM6.53874 23.537H5.8534V24.037H6.53874V23.537ZM5.8534 23.537C4.9654 23.537 4.24306 24.259 4.24306 25.1474H4.74306C4.74306 24.5352 5.24147 24.037 5.8534 24.037V23.537ZM4.24306 25.1474V27.1298H4.74306V25.1474H4.24306ZM4.24306 27.1298C4.24306 27.6467 4.66341 28.0675 5.1807 28.0675V27.5675C4.93969 27.5675 4.74306 27.3707 4.74306 27.1298H4.24306ZM5.1807 28.0675H20.5704V27.5675H5.1807V28.0675ZM20.5704 28.0675C21.0877 28.0675 21.5081 27.6467 21.5081 27.1298H21.0081C21.0081 27.3707 20.8114 27.5675 20.5704 27.5675V28.0675ZM21.5081 27.1298V25.1474H21.0081V27.1298H21.5081ZM21.5081 25.1474C21.5081 24.259 20.7857 23.537 19.8977 23.537V24.037C20.5096 24.037 21.0081 24.5352 21.0081 25.1474H21.5081ZM19.8977 23.537H19.2127V24.037H19.8977V23.537ZM19.2947 23.5509C17.5098 22.9306 16.6264 21.6071 16.2082 20.201C15.7875 18.7863 15.8443 17.3032 15.9406 16.4219L15.4435 16.3676C15.3442 17.277 15.2808 18.8365 15.729 20.3435C16.1798 21.8592 17.1545 23.3365 19.1306 24.0232L19.2947 23.5509ZM15.9406 16.4216C15.9466 16.3661 15.9498 16.3294 15.9517 16.3017L15.453 16.2661C15.4515 16.2866 15.449 16.3172 15.4435 16.3679L15.9406 16.4216Z" fill="#26A0D8"/>
</svg>
