<svg width="128" height="226" viewBox="0 0 128 226" fill="none" xmlns="http://www.w3.org/2000/svg">
<g opacity="0.213053">
<path fill-rule="evenodd" clip-rule="evenodd" d="M126.325 54.3733C116.369 53.4382 116.805 59.8114 116.805 59.8114C116.805 59.8114 117.371 167.037 118.496 170.412C119.627 173.786 127.327 170.782 127.327 170.782V177.65C127.327 178.483 126.815 179.224 126.035 179.531L97.0115 190.719C95.6923 191.229 94.2654 190.257 94.2654 188.843V182.862C94.2654 181.933 94.9438 181.159 95.8431 180.923C105.788 178.327 105.788 171.535 105.788 171.535V120.555C105.788 119.448 104.884 118.545 103.775 118.545H50.4346C49.3254 118.545 48.4261 119.405 48.4208 120.512C48.3454 131.378 47.9846 183.9 48.4369 190.278C48.8084 195.587 57.8169 193.47 62.3723 192.041C63.6592 191.643 64.9623 192.626 64.9623 193.97V201.724C64.9623 202.578 64.4238 203.341 63.6161 203.621L5.41383 224.078C4.10538 224.535 2.72691 223.562 2.72691 222.181V212.315C2.72691 211.294 3.52922 210.467 4.54691 210.338C22.6877 208.076 25.38 194.206 25.6277 192.664C25.6385 192.573 25.6438 192.519 25.6438 192.422C25.66 187.892 26.0154 39.4184 25.6438 29.6921C25.3261 21.2824 8.18153 15.049 3.12 13.3885C2.28538 13.1144 1.72538 12.346 1.72538 11.4755V3.14634C1.72538 1.7277 3.15229 0.755067 4.47691 1.27094L61.4246 23.448C62.2 23.7489 62.7115 24.4904 62.7115 25.3234V30.8636C62.7115 31.9544 61.8069 32.8142 60.7138 32.8572C46.8592 33.4483 47.4354 40.1922 47.4354 40.1922V101.135C47.4354 102.209 48.2754 103.091 49.3469 103.144L103.425 105.821C104.572 105.88 105.535 104.961 105.535 103.811V55.4372C105.535 49.0104 98.6377 45.3993 95.7623 44.1741C95.0084 43.8517 94.5184 43.1316 94.5184 42.3202V34.8186L124.99 45.3509C125.792 45.6303 126.331 46.3827 126.342 47.2263L126.449 54.4377" fill="#2166B1"/>
<mask id="mask0" style="mask-type:alpha" maskUnits="userSpaceOnUse" x="1" y="0" width="127" height="225">
<path fill-rule="evenodd" clip-rule="evenodd" d="M128 0.462769H1.05446V224.861H128V0.462769Z" fill="white"/>
</mask>
<g mask="url(#mask0)">
<path fill-rule="evenodd" clip-rule="evenodd" d="M62.9614 192.624C63.236 192.624 63.5106 192.716 63.7421 192.882C64.0921 193.14 64.2914 193.538 64.2914 193.968V201.722C64.2914 202.291 63.9306 202.802 63.3921 202.99L5.18982 223.442C4.78059 223.603 4.31752 223.533 3.96752 223.27C3.60675 223.012 3.39674 222.62 3.39674 222.179V212.313C3.39674 211.658 3.92982 211.099 4.62983 211.007C23.2175 208.681 26.0337 194.392 26.2867 192.769C26.3083 192.619 26.3137 192.549 26.3137 192.425C26.3191 190.937 26.7014 39.6312 26.3137 29.6685C25.9852 20.8504 8.63598 14.4933 3.33214 12.7469C2.77213 12.5696 2.4006 12.0537 2.4006 11.4734V3.14421C2.4006 2.69282 2.6106 2.29517 2.98213 2.03724C3.36444 1.78468 3.81675 1.73631 4.23675 1.89752L61.1791 24.0745C61.696 24.2734 62.0352 24.7731 62.0352 25.3212V30.8615C62.0352 31.5761 61.4483 32.1619 60.6891 32.1887C54.7014 32.4413 50.5391 33.8492 48.3206 36.3641C46.6191 38.2932 46.7537 40.174 46.7591 40.2546V101.138C46.7591 102.567 47.8791 103.744 49.3167 103.819L103.389 106.495C104.159 106.533 104.832 106.27 105.371 105.759C105.914 105.243 106.211 104.556 106.211 103.814V55.4405C106.211 48.6321 99.0868 44.8598 96.0283 43.554C95.5168 43.339 95.1883 42.8554 95.1883 42.3181V35.7676L124.771 45.9883C125.304 46.171 125.665 46.6761 125.671 47.2349L125.768 53.6564C122.149 53.42 119.5 54.1078 117.836 55.7253C116 57.5147 116.129 59.7609 116.134 59.8576C116.194 70.7983 116.732 167.244 117.858 170.624C118.105 171.366 118.611 171.914 119.354 172.263C121.444 173.241 124.965 172.301 126.656 171.737V177.653C126.656 178.207 126.317 178.701 125.789 178.905L96.766 190.093C96.346 190.249 95.8937 190.206 95.5221 189.948C95.156 189.696 94.9406 189.293 94.9406 188.847V182.866C94.9406 182.269 95.3821 181.737 96.0175 181.571C106.345 178.878 106.464 171.834 106.464 171.533V120.558C106.464 119.075 105.252 117.877 103.771 117.877H50.4368C48.9398 117.877 47.7552 119.032 47.7498 120.505C47.6691 131.042 47.3137 183.94 47.766 190.324C47.8575 191.646 48.4229 192.667 49.4352 193.36C52.2998 195.316 58.1583 194.07 62.5737 192.683C62.7029 192.646 62.8321 192.624 62.9614 192.624ZM4.74828 224.861C5.04982 224.861 5.34598 224.812 5.63675 224.716L63.8444 204.258C64.916 203.882 65.6375 202.861 65.6375 201.722V193.968C65.6375 193.108 65.2391 192.312 64.5391 191.802C63.8444 191.297 62.9775 191.152 62.1752 191.399C56.4298 193.199 52.0575 193.516 50.1944 192.248C49.5267 191.797 49.1714 191.136 49.1121 190.233C48.6598 183.897 49.0152 131.048 49.096 120.515C49.1014 119.784 49.6883 119.22 50.4368 119.22H103.771C104.514 119.22 105.118 119.817 105.118 120.558V171.533C105.112 171.785 104.951 177.852 95.6729 180.27C94.4506 180.593 93.5944 181.657 93.5944 182.866V188.846C93.5944 189.728 94.0306 190.555 94.7629 191.055C95.4952 191.555 96.4268 191.657 97.2506 191.345L126.279 180.157C127.324 179.749 128.002 178.766 128.002 177.653V170.786C128.002 170.565 127.889 170.35 127.706 170.227C127.523 170.114 127.291 170.071 127.081 170.157C125.708 170.694 121.74 171.887 119.925 171.044C119.516 170.856 119.268 170.587 119.139 170.195C118.24 167.336 117.637 89.5362 117.481 59.8039C117.475 59.6964 117.394 58.0198 118.8 56.671C120.243 55.2793 122.714 54.7365 126.134 55.0321C126.231 55.0805 126.338 55.1073 126.451 55.1073H126.457C126.828 55.1019 127.13 54.801 127.124 54.4249L127.017 47.2134C127.006 46.0904 126.279 45.0909 125.213 44.7201L94.736 34.1877C94.526 34.1071 94.3052 34.1447 94.1275 34.2737C93.9498 34.4027 93.8421 34.6069 93.8421 34.8218V42.3181C93.8421 43.3928 94.4937 44.36 95.4952 44.7899C98.3114 45.9936 104.864 49.4381 104.864 55.4405V103.814C104.864 104.185 104.714 104.529 104.444 104.781C104.175 105.039 103.852 105.147 103.459 105.152L49.3814 102.476C48.6652 102.438 48.1052 101.847 48.1052 101.138V40.1955C48.0998 40.0826 48.0298 38.7016 49.3706 37.2077C50.7329 35.6924 53.8075 33.8223 60.7429 33.5322C62.2183 33.473 63.3814 32.3016 63.3814 30.8615V25.3212C63.3814 24.225 62.6921 23.2201 61.6691 22.8225L4.72675 0.645465C3.88136 0.317672 2.96059 0.430519 2.2229 0.930268C1.49059 1.43002 1.05444 2.25756 1.05444 3.14421V11.4734C1.05444 12.6394 1.80289 13.6658 2.91212 14.0312C13.4229 17.4703 24.7306 23.4028 24.9675 29.7222C25.3552 39.6635 24.9729 190.931 24.9675 192.425C24.7144 194.08 22.076 207.477 4.4629 209.675C3.08982 209.841 2.05059 210.981 2.05059 212.313V222.179C2.05059 223.06 2.4706 223.856 3.18675 224.366C3.64444 224.694 4.19905 224.861 4.74828 224.861Z" fill="#2166B1"/>
</g>
<path fill-rule="evenodd" clip-rule="evenodd" d="M51.2665 112.056C51.2665 120.756 56.6673 127.817 63.3335 127.817C69.9996 127.817 75.4058 120.756 75.4058 112.056C75.4058 103.356 69.9996 96.3005 63.3335 96.3005C56.6673 96.3005 51.2665 103.356 51.2665 112.056Z" fill="#2166B1"/>
</g>
</svg>
