<svg width="47" height="49" viewBox="0 0 47 49" fill="none" xmlns="http://www.w3.org/2000/svg">
<path fill-rule="evenodd" clip-rule="evenodd" d="M46.3826 27.4532C46.2355 26.0611 45.7418 25.2512 44.9156 25.0469C42.5869 24.4631 39.1446 29.5602 38.9995 29.7776C37.6974 31.725 33.69 34.0491 31.7099 35.118C31.7194 34.9726 31.7208 34.8246 31.7064 34.673C31.4414 31.8647 28.4773 31.974 25.3344 32.0854C22.9872 32.1698 20.328 32.2666 18.4052 31.2213C14.5327 29.1165 9.79607 31.6121 7.92052 32.7956V32.0242C7.92052 31.1517 7.21089 30.4417 6.33861 30.4417H1.54646C1.26502 30.4417 1.03687 30.6697 1.03687 30.9513C1.03687 31.2328 1.26502 31.4604 1.54646 31.4604H6.33861C6.64929 31.4604 6.90206 31.7133 6.90206 32.0242V46.2385C6.90206 46.5488 6.64929 46.8018 6.33861 46.8018H1.54646C1.26502 46.8018 1.03687 47.0296 1.03687 47.3112C1.03687 47.5928 1.26502 47.8204 1.54646 47.8204H6.33861C7.21089 47.8204 7.92052 47.1104 7.92052 46.2385V45.644C10.2986 46.0855 16.6148 46.822 22.2539 46.822C24.8907 46.822 27.3783 46.6608 29.2396 46.2322C33.9143 45.157 47.1178 34.4068 46.3826 27.4532ZM29.0113 45.2395C23.1928 46.5777 10.7622 45.1633 7.92037 44.6067V34.0178C8.99027 33.283 14.0929 30.0363 17.9188 32.1167C20.0856 33.2941 22.8926 33.1922 25.3713 33.1035C28.6583 32.9849 30.5259 33.0034 30.6926 34.7685C30.7389 35.2602 30.5871 35.6852 30.2287 36.069C28.5153 37.9003 22.7563 38.1557 20.6779 38.0974C20.3905 38.0859 20.1624 38.3115 20.155 38.5925C20.1472 38.8738 20.3691 39.1081 20.65 39.116C23.5414 39.1795 29.3428 38.8229 31.1395 36.5693C32.0425 36.1141 38.0559 33.0206 39.8461 30.3437C41.5877 27.7414 43.7525 25.8148 44.6716 26.0359C45.1508 26.1544 45.3146 27.0418 45.3692 27.5607C45.9913 33.444 33.7756 44.1428 29.0113 45.2395Z" fill="#2CB9EC"/>
<path d="M46.3826 27.4532L46.1837 27.4742L46.1837 27.4742L46.3826 27.4532ZM44.9156 25.0469L44.867 25.2409L44.8676 25.2411L44.9156 25.0469ZM38.9995 29.7776L39.1658 29.8888L39.1659 29.8886L38.9995 29.7776ZM31.7099 35.118L31.5103 35.1051C31.5056 35.1777 31.5407 35.2471 31.6019 35.2864C31.6632 35.3257 31.7409 35.3286 31.8049 35.294L31.7099 35.118ZM31.7064 34.673L31.5073 34.6918L31.5073 34.692L31.7064 34.673ZM25.3344 32.0854L25.3273 31.8856L25.3272 31.8856L25.3344 32.0854ZM18.4052 31.2213L18.5007 31.0456L18.5007 31.0456L18.4052 31.2213ZM7.92052 32.7956H7.72051C7.72051 32.8685 7.76014 32.9356 7.82394 32.9708C7.88774 33.0059 7.96563 33.0036 8.02725 32.9648L7.92052 32.7956ZM7.92052 45.644L7.95702 45.4474C7.89859 45.4365 7.83835 45.4522 7.79265 45.4902C7.74695 45.5282 7.72051 45.5846 7.72051 45.644H7.92052ZM29.2396 46.2322L29.1948 46.0373L29.1948 46.0373L29.2396 46.2322ZM29.0113 45.2395L29.0562 45.4344L29.0562 45.4344L29.0113 45.2395ZM7.92037 44.6067H7.72038C7.72038 44.7023 7.78808 44.7846 7.88193 44.803L7.92037 44.6067ZM7.92037 34.0178L7.80715 33.8529C7.75283 33.8902 7.72038 33.9519 7.72038 34.0178H7.92037ZM17.9188 32.1167L17.8232 32.2924L17.8233 32.2924L17.9188 32.1167ZM25.3713 33.1035L25.3784 33.3034L25.3785 33.3034L25.3713 33.1035ZM30.6926 34.7685L30.8917 34.7498L30.8917 34.7497L30.6926 34.7685ZM30.2287 36.069L30.3748 36.2056L30.3749 36.2055L30.2287 36.069ZM20.6779 38.0974L20.6699 38.2972L20.6723 38.2973L20.6779 38.0974ZM20.155 38.5925L20.3549 38.5981L20.3549 38.5978L20.155 38.5925ZM20.65 39.116L20.6443 39.3159L20.6456 39.316L20.65 39.116ZM31.1395 36.5693L31.0495 36.3907C31.0237 36.4037 31.0011 36.4221 30.9831 36.4446L31.1395 36.5693ZM39.8461 30.3437L39.6799 30.2324L39.6799 30.2325L39.8461 30.3437ZM44.6716 26.0359L44.7196 25.8418L44.7184 25.8415L44.6716 26.0359ZM45.3692 27.5607L45.1703 27.5816L45.1703 27.5817L45.3692 27.5607ZM46.5815 27.4321C46.432 26.0176 45.9184 25.0888 44.9636 24.8528L44.8676 25.2411C45.5653 25.4136 46.039 26.1046 46.1837 27.4742L46.5815 27.4321ZM44.9643 24.8529C44.3039 24.6874 43.5934 24.9296 42.9248 25.3386C42.2511 25.7508 41.5842 26.354 40.9939 26.9739C39.8122 28.2148 38.9079 29.5546 38.8332 29.6666L39.1659 29.8886C39.2363 29.7832 40.1256 28.4658 41.2836 27.2497C41.8631 26.6412 42.5024 26.066 43.1336 25.6798C43.7699 25.2905 44.363 25.1146 44.867 25.2409L44.9643 24.8529ZM38.8333 29.6665C38.2059 30.6047 36.9083 31.654 35.4967 32.6117C34.0924 33.5644 32.6021 34.4091 31.6149 34.9421L31.8049 35.294C32.7978 34.758 34.3013 33.9061 35.7213 32.9427C37.1339 31.9843 38.4911 30.8979 39.1658 29.8888L38.8333 29.6665ZM31.9095 35.131C31.9194 34.9783 31.9212 34.8191 31.9055 34.6541L31.5073 34.692C31.5205 34.83 31.5193 34.9669 31.5103 35.1051L31.9095 35.131ZM31.9055 34.6542C31.8358 33.9152 31.586 33.351 31.1859 32.9304C30.7881 32.5123 30.2569 32.2519 29.6509 32.091C28.4488 31.7719 26.8881 31.8302 25.3273 31.8856L25.3415 32.2853C26.9236 32.2292 28.4163 32.1772 29.5483 32.4776C30.1093 32.6266 30.5653 32.8584 30.896 33.2061C31.2245 33.5514 31.4445 34.0267 31.5073 34.6918L31.9055 34.6542ZM25.3272 31.8856C24.1514 31.9278 22.9116 31.9725 21.7266 31.8776C20.5414 31.7828 19.4273 31.5493 18.5007 31.0456L18.3097 31.397C19.3059 31.9386 20.4828 32.1794 21.6947 32.2764C22.9068 32.3734 24.1701 32.3274 25.3416 32.2853L25.3272 31.8856ZM18.5007 31.0456C16.5022 29.9593 14.2916 30.0663 12.3623 30.5821C10.4323 31.0982 8.75996 32.0294 7.81378 32.6265L8.02725 32.9648C8.95663 32.3783 10.5904 31.47 12.4657 30.9685C14.3418 30.4669 16.4357 30.3784 18.3097 31.397L18.5007 31.0456ZM8.12051 32.7956V32.0242H7.72051V32.7956H8.12051ZM8.12051 32.0242C8.12051 31.0413 7.32142 30.2417 6.33861 30.2417V30.6417C7.10036 30.6417 7.72051 31.2621 7.72051 32.0242H8.12051ZM6.33861 30.2417H1.54646V30.6417H6.33861V30.2417ZM1.54646 30.2417C1.15461 30.2417 0.836865 30.5592 0.836865 30.9513H1.23687C1.23687 30.7802 1.37543 30.6417 1.54646 30.6417V30.2417ZM0.836865 30.9513C0.836865 31.3435 1.15485 31.6604 1.54646 31.6604V31.2604C1.37519 31.2604 1.23687 31.122 1.23687 30.9513H0.836865ZM1.54646 31.6604H6.33861V31.2604H1.54646V31.6604ZM6.33861 31.6604C6.53871 31.6604 6.70206 31.8236 6.70206 32.0242H7.10206C7.10206 31.603 6.75988 31.2604 6.33861 31.2604V31.6604ZM6.70206 32.0242V46.2385H7.10206V32.0242H6.70206ZM6.70206 46.2385C6.70206 46.4384 6.53884 46.6018 6.33861 46.6018V47.0018C6.75975 47.0018 7.10206 46.6593 7.10206 46.2385H6.70206ZM6.33861 46.6018H1.54646V47.0018H6.33861V46.6018ZM1.54646 46.6018C1.1547 46.6018 0.836865 46.919 0.836865 47.3112H1.23687C1.23687 47.1402 1.37533 47.0018 1.54646 47.0018V46.6018ZM0.836865 47.3112C0.836865 47.7035 1.1548 48.0204 1.54646 48.0204V47.6204C1.37524 47.6204 1.23687 47.4821 1.23687 47.3112H0.836865ZM1.54646 48.0204H6.33861V47.6204H1.54646V48.0204ZM6.33861 48.0204C7.32138 48.0204 8.12051 47.2209 8.12051 46.2385H7.72051C7.72051 47 7.1004 47.6204 6.33861 47.6204V48.0204ZM8.12051 46.2385V45.644H7.72051V46.2385H8.12051ZM7.88401 45.8406C10.274 46.2843 16.6024 47.022 22.2539 47.022V46.622C16.6272 46.622 10.3233 45.8867 7.95702 45.4474L7.88401 45.8406ZM22.2539 47.022C24.8953 47.022 27.4009 46.8608 29.2845 46.4271L29.1948 46.0373C27.3557 46.4608 24.8861 46.622 22.2539 46.622V47.022ZM29.2845 46.4272C30.4905 46.1497 32.2174 45.2587 34.1054 43.9882C35.9992 42.7136 38.0742 41.0442 39.9793 39.1904C41.8837 37.3373 43.6237 35.2947 44.8428 33.273C46.0592 31.2558 46.772 29.2343 46.5815 27.4321L46.1837 27.4742C46.3608 29.1488 45.6989 31.0787 44.5003 33.0665C43.3044 35.0497 41.5892 37.0657 39.7003 38.9037C37.8121 40.7411 35.7556 42.3954 33.8821 43.6563C32.0026 44.9211 30.3261 45.7771 29.1948 46.0373L29.2845 46.4272ZM28.9665 45.0446C26.0883 45.7066 21.5521 45.6899 17.3618 45.434C13.1766 45.1784 9.368 44.6864 7.95882 44.4104L7.88193 44.803C9.31459 45.0836 13.1422 45.5771 17.3374 45.8333C21.5275 46.0892 26.1158 46.1107 29.0562 45.4344L28.9665 45.0446ZM8.12037 44.6067V34.0178H7.72038V44.6067H8.12037ZM8.0336 34.1827C8.56191 33.8198 10.0878 32.8359 11.9506 32.2009C13.8185 31.5641 15.9835 31.292 17.8232 32.2924L18.0143 31.941C16.0282 30.861 13.729 31.172 11.8216 31.8223C9.90912 32.4742 8.34874 33.481 7.80715 33.8529L8.0336 34.1827ZM17.8233 32.2924C20.0473 33.5009 22.9146 33.3915 25.3784 33.3034L25.3641 32.9036C22.8707 32.9928 20.1239 33.0873 18.0143 31.941L17.8233 32.2924ZM25.3785 33.3034C27.031 33.2438 28.2895 33.2213 29.1565 33.4244C29.5856 33.5248 29.8981 33.6764 30.1121 33.889C30.3227 34.098 30.4553 34.3832 30.4935 34.7873L30.8917 34.7497C30.8465 34.2713 30.6832 33.8923 30.394 33.6051C30.1082 33.3214 29.7172 33.1448 29.2477 33.0349C28.3174 32.817 26.9986 32.8447 25.364 32.9037L25.3785 33.3034ZM30.4935 34.7872C30.534 35.2179 30.4048 35.5874 30.0826 35.9325L30.3749 36.2055C30.7695 35.7829 30.9437 35.3024 30.8917 34.7498L30.4935 34.7872ZM30.0827 35.9323C29.6872 36.355 29.0423 36.7011 28.2406 36.9776C27.443 37.2528 26.5106 37.4523 25.5606 37.594C23.6607 37.8774 21.7133 37.9263 20.6835 37.8974L20.6723 38.2973C21.7209 38.3267 23.6922 38.2771 25.6197 37.9896C26.5834 37.8458 27.542 37.6417 28.371 37.3558C29.196 37.0712 29.9135 36.6986 30.3748 36.2056L30.0827 35.9323ZM20.6859 37.8975C20.2824 37.8814 19.9653 38.1995 19.9551 38.5873L20.3549 38.5978C20.3595 38.4234 20.4987 38.2904 20.6699 38.2972L20.6859 37.8975ZM19.9551 38.587C19.9442 38.9787 20.2532 39.3048 20.6443 39.3159L20.6556 38.9161C20.485 38.9113 20.3502 38.7689 20.3549 38.5981L19.9551 38.587ZM20.6456 39.316C22.0998 39.3479 24.287 39.2744 26.3403 38.9085C27.367 38.7255 28.3662 38.4684 29.2258 38.1116C30.0832 37.7558 30.8172 37.2944 31.2959 36.694L30.9831 36.4446C30.5634 36.971 29.8985 37.3993 29.0724 37.7422C28.2486 38.0841 27.2798 38.3347 26.2701 38.5147C24.2508 38.8745 22.0916 38.9476 20.6544 38.9161L20.6456 39.316ZM31.2295 36.7479C31.6835 36.519 33.4192 35.6285 35.2671 34.4586C36.191 33.8737 37.1457 33.2172 37.9835 32.537C38.8191 31.8586 39.5485 31.1485 40.0124 30.4548L39.6799 30.2325C39.2487 30.8773 38.555 31.5578 37.7314 32.2265C36.9099 32.8934 35.9692 33.5407 35.0531 34.1207C33.221 35.2806 31.4984 36.1644 31.0495 36.3907L31.2295 36.7479ZM40.0124 30.4549C40.8755 29.1652 41.8414 28.0465 42.7004 27.2803C43.1304 26.8968 43.5282 26.6066 43.8683 26.4266C44.2174 26.2419 44.469 26.1929 44.6248 26.2304L44.7184 25.8415C44.4146 25.7684 44.051 25.8774 43.6812 26.073C43.3025 26.2734 42.8779 26.586 42.4342 26.9818C41.5457 27.7742 40.5584 28.9199 39.6799 30.2324L40.0124 30.4549ZM44.6236 26.2301C44.6868 26.2457 44.7516 26.2892 44.817 26.3736C44.883 26.4589 44.9414 26.5758 44.9913 26.7154C45.091 26.9947 45.1436 27.3279 45.1703 27.5816L45.5681 27.5397C45.5402 27.2746 45.4836 26.9046 45.368 26.5809C45.3102 26.419 45.2344 26.2594 45.1332 26.1287C45.0314 25.9973 44.896 25.8854 44.7196 25.8418L44.6236 26.2301ZM45.1703 27.5817C45.3187 28.9854 44.7007 30.7097 43.5752 32.5463C42.4539 34.376 40.8478 36.2867 39.0692 38.0532C37.2912 39.819 35.346 41.4353 33.5508 42.6774C31.75 43.9234 30.119 44.7793 28.9665 45.0446L29.0562 45.4344C30.2858 45.1514 31.9684 44.2587 33.7784 43.0063C35.5942 41.75 37.5574 40.1183 39.3511 38.337C41.1441 36.5562 42.7731 34.6206 43.9162 32.7553C45.0551 30.8969 45.7307 29.0776 45.5681 27.5396L45.1703 27.5817Z" fill="#2CB9EC"/>
<path fill-rule="evenodd" clip-rule="evenodd" d="M5.19393 43.7196V42.5208C5.19393 42.2393 4.96597 42.0117 4.68452 42.0117C4.40326 42.0117 4.17529 42.2393 4.17529 42.5208V43.7196C4.17529 44.0011 4.40326 44.229 4.68452 44.229C4.96597 44.229 5.19393 44.0011 5.19393 43.7196Z" fill="#2CB9EC"/>
<path fill-rule="evenodd" clip-rule="evenodd" d="M5.19393 43.7196V42.5208C5.19393 42.2393 4.96597 42.0117 4.68452 42.0117C4.40326 42.0117 4.17529 42.2393 4.17529 42.5208V43.7196C4.17529 44.0011 4.40326 44.229 4.68452 44.229C4.96597 44.229 5.19393 44.0011 5.19393 43.7196Z" stroke="#2CB9EC" stroke-width="0.4" stroke-linecap="round" stroke-linejoin="round"/>
<path fill-rule="evenodd" clip-rule="evenodd" d="M32.4105 14.2364C36.0491 14.2364 39.0097 11.276 39.0097 7.63678C39.0097 3.9978 36.0491 1.03699 32.4105 1.03699C28.7713 1.03699 25.811 3.9978 25.811 7.63678C25.811 11.276 28.7713 14.2364 32.4105 14.2364ZM32.4106 2.05581C35.4884 2.05581 37.9914 4.5594 37.9914 7.63679C37.9914 10.7142 35.4884 13.2176 32.4106 13.2176C29.3334 13.2176 26.8302 10.7142 26.8302 7.63679C26.8302 4.5594 29.3334 2.05581 32.4106 2.05581Z" fill="#2CB9EC"/>
<path d="M32.4105 14.4364C36.1595 14.4364 39.2097 11.3864 39.2097 7.63678H38.8097C38.8097 11.1655 35.9386 14.0364 32.4105 14.0364V14.4364ZM39.2097 7.63678C39.2097 3.88736 36.1596 0.836987 32.4105 0.836987V1.23699C35.9386 1.23699 38.8097 4.10824 38.8097 7.63678H39.2097ZM32.4105 0.836987C28.6608 0.836987 25.611 3.88736 25.611 7.63678H26.011C26.011 4.10824 28.8818 1.23699 32.4105 1.23699V0.836987ZM25.611 7.63678C25.611 11.3864 28.6608 14.4364 32.4105 14.4364V14.0364C28.8818 14.0364 26.011 11.1655 26.011 7.63678H25.611ZM32.4106 2.25581C35.3779 2.25581 37.7914 4.66984 37.7914 7.63679H38.1914C38.1914 4.44896 35.5988 1.85581 32.4106 1.85581V2.25581ZM37.7914 7.63679C37.7914 10.6037 35.3779 13.0176 32.4106 13.0176V13.4176C35.5988 13.4176 38.1914 10.8246 38.1914 7.63679H37.7914ZM32.4106 13.0176C29.4439 13.0176 27.0302 10.6037 27.0302 7.63679H26.6302C26.6302 10.8246 29.2229 13.4176 32.4106 13.4176V13.0176ZM27.0302 7.63679C27.0302 4.66983 29.4439 2.25581 32.4106 2.25581V1.85581C29.2229 1.85581 26.6302 4.44896 26.6302 7.63679H27.0302Z" fill="#2CB9EC"/>
<path fill-rule="evenodd" clip-rule="evenodd" d="M23.505 19.2925C23.7198 19.4738 24.0418 19.4468 24.2229 19.2316C25.6285 17.5642 28.0841 16.5689 30.7911 16.5689H34.0304C35.7838 16.5689 37.4353 16.9835 38.8064 17.7687C39.9777 18.4389 40.7055 19.7371 40.7055 21.1571V24.1511C40.7055 24.4327 40.934 24.6603 41.2147 24.6603C41.4961 24.6603 41.7243 24.4327 41.7243 24.1511V21.1571C41.7243 19.373 40.7998 17.7352 39.3127 16.884C37.7876 16.0115 35.9614 15.55 34.0304 15.55H30.7911C27.7879 15.55 25.041 16.6805 23.4441 18.5751C23.2626 18.7899 23.2899 19.1113 23.505 19.2925Z" fill="#2CB9EC"/>
<path fill-rule="evenodd" clip-rule="evenodd" d="M23.505 19.2925C23.7198 19.4738 24.0418 19.4468 24.2229 19.2316C25.6285 17.5642 28.0841 16.5689 30.7911 16.5689H34.0304C35.7838 16.5689 37.4353 16.9835 38.8064 17.7687C39.9777 18.4389 40.7055 19.7371 40.7055 21.1571V24.1511C40.7055 24.4327 40.934 24.6603 41.2147 24.6603C41.4961 24.6603 41.7243 24.4327 41.7243 24.1511V21.1571C41.7243 19.373 40.7998 17.7352 39.3127 16.884C37.7876 16.0115 35.9614 15.55 34.0304 15.55H30.7911C27.7879 15.55 25.041 16.6805 23.4441 18.5751C23.2626 18.7899 23.2899 19.1113 23.505 19.2925Z" stroke="#2CB9EC" stroke-width="0.4" stroke-linecap="round" stroke-linejoin="round"/>
<path fill-rule="evenodd" clip-rule="evenodd" d="M17.4844 18.9961C21.1234 18.9961 24.0842 16.036 24.0842 12.397C24.0842 8.75787 21.1234 5.79724 17.4844 5.79724C13.8455 5.79724 10.885 8.75787 10.885 12.397C10.885 16.036 13.8455 18.9961 17.4844 18.9961ZM17.4846 6.81607C20.5619 6.81607 23.0655 9.31946 23.0655 12.397C23.0655 15.4742 20.5619 17.9776 17.4846 17.9776C14.4075 17.9776 11.904 15.4742 11.904 12.397C11.904 9.31946 14.4075 6.81607 17.4846 6.81607Z" fill="#2CB9EC"/>
<path d="M17.4844 19.1961C21.2339 19.1961 24.2842 16.1465 24.2842 12.397H23.8842C23.8842 15.9255 21.013 18.7961 17.4844 18.7961V19.1961ZM24.2842 12.397C24.2842 8.64741 21.2339 5.59724 17.4844 5.59724V5.99724C21.013 5.99724 23.8842 8.86833 23.8842 12.397H24.2842ZM17.4844 5.59724C13.735 5.59724 10.685 8.64743 10.685 12.397H11.085C11.085 8.86832 13.9559 5.99724 17.4844 5.99724V5.59724ZM10.685 12.397C10.685 16.1465 13.735 19.1961 17.4844 19.1961V18.7961C13.9559 18.7961 11.085 15.9256 11.085 12.397H10.685ZM17.4846 7.01607C20.4515 7.01607 22.8655 9.42993 22.8655 12.397H23.2655C23.2655 9.209 20.6724 6.61607 17.4846 6.61607V7.01607ZM22.8655 12.397C22.8655 15.3638 20.4515 17.7776 17.4846 17.7776V18.1776C20.6724 18.1776 23.2655 15.5847 23.2655 12.397H22.8655ZM17.4846 17.7776C14.518 17.7776 12.104 15.3638 12.104 12.397H11.704C11.704 15.5847 14.2971 18.1776 17.4846 18.1776V17.7776ZM12.104 12.397C12.104 9.42992 14.518 7.01607 17.4846 7.01607V6.61607C14.2971 6.61607 11.704 9.20901 11.704 12.397H12.104Z" fill="#2CB9EC"/>
<path fill-rule="evenodd" clip-rule="evenodd" d="M7.69429 29.1039C7.97573 29.1039 8.20388 28.8761 8.20388 28.5943V26.7768C8.20388 23.7599 11.6404 21.3059 15.8647 21.3059H19.1042C21.3322 21.3059 23.4487 22.0019 24.9105 23.2163C25.847 23.994 26.3834 25.1925 26.3834 26.5046V28.6113C26.3834 28.8927 26.6116 29.1205 26.8929 29.1205C27.1743 29.1205 27.4021 28.8927 27.4021 28.6113V26.5046C27.4021 24.8885 26.7313 23.4037 25.5613 22.4319C23.9196 21.0691 21.5661 20.2873 19.1042 20.2873H15.8647C11.0788 20.2873 7.18506 23.1981 7.18506 26.7768V28.5943C7.18506 28.8761 7.41284 29.1039 7.69429 29.1039Z" fill="#2CB9EC"/>
<path fill-rule="evenodd" clip-rule="evenodd" d="M7.69429 29.1039C7.97573 29.1039 8.20388 28.8761 8.20388 28.5943V26.7768C8.20388 23.7599 11.6404 21.3059 15.8647 21.3059H19.1042C21.3322 21.3059 23.4487 22.0019 24.9105 23.2163C25.847 23.994 26.3834 25.1925 26.3834 26.5046V28.6113C26.3834 28.8927 26.6116 29.1205 26.8929 29.1205C27.1743 29.1205 27.4021 28.8927 27.4021 28.6113V26.5046C27.4021 24.8885 26.7313 23.4037 25.5613 22.4319C23.9196 21.0691 21.5661 20.2873 19.1042 20.2873H15.8647C11.0788 20.2873 7.18506 23.1981 7.18506 26.7768V28.5943C7.18506 28.8761 7.41284 29.1039 7.69429 29.1039Z" stroke="#2CB9EC" stroke-width="0.4" stroke-linecap="round" stroke-linejoin="round"/>
</svg>
