<svg width="41" height="41" viewBox="0 0 41 41" fill="none" xmlns="http://www.w3.org/2000/svg">
<rect width="41" height="41" rx="20.5" fill="white"/>
<path d="M31.3541 13.1502C30.5228 13.5148 29.6371 13.7565 28.7136 13.8739C29.6636 13.3067 30.3887 12.4153 30.7296 11.3409C29.8438 11.869 28.8658 12.2421 27.8236 12.4502C26.9825 11.5547 25.7838 11 24.476 11C21.9389 11 19.8962 13.0594 19.8962 15.584C19.8962 15.9473 19.927 16.2965 20.0024 16.6291C16.1924 16.4432 12.8212 14.6172 10.5564 11.8355C10.161 12.5215 9.92909 13.3067 9.92909 14.1519C9.92909 15.7391 10.7464 17.146 11.9647 17.9605C11.2284 17.9465 10.5061 17.7328 9.89417 17.3961C9.89417 17.41 9.89417 17.4282 9.89417 17.4464C9.89417 19.6734 11.4827 21.5232 13.5658 21.9493C13.1928 22.0513 12.7862 22.1002 12.3643 22.1002C12.0709 22.1002 11.7747 22.0835 11.4967 22.022C12.0905 23.8369 13.7754 25.1711 15.7789 25.2144C14.2197 26.4341 12.24 27.169 10.0968 27.169C9.72092 27.169 9.36046 27.1523 9 27.1062C11.03 28.4153 13.4359 29.1627 16.0304 29.1627C24.4635 29.1627 29.074 22.1771 29.074 16.1219C29.074 15.9193 29.067 15.7237 29.0573 15.5295C29.9668 14.884 30.731 14.0779 31.3541 13.1502Z" fill="#55B4E4"/>
</svg>
