<svg width="53" height="44" viewBox="0 0 53 44" fill="none" xmlns="http://www.w3.org/2000/svg">
<path fill-rule="evenodd" clip-rule="evenodd" d="M48.9306 21.9574H5.42543H5.42451H4.44461C3.0777 21.9574 1.96615 20.846 1.96615 19.4791C1.96615 18.1141 3.0806 17.0008 4.44461 17.0008H24.2304C23.877 18.0179 24.281 19.1782 25.2477 19.7372L25.3198 19.7786C26.4195 20.4128 27.8218 20.0278 28.4507 18.9393L29.5698 17.0008H48.9306C50.2973 17.0008 51.409 18.1123 51.409 19.4791C51.409 20.8406 50.2973 21.9574 48.9306 21.9574ZM40.4892 41.4829C40.3991 41.7368 40.1949 41.9009 39.9687 41.9009H14.8171C14.0811 41.9009 13.4282 41.4131 13.2286 40.7153L6.12843 22.9237H47.3477L40.4892 41.4829ZM33.5938 2.6282C33.9599 1.99515 34.7724 1.77766 35.4055 2.14375L35.4773 2.18483C36.1099 2.55046 36.3275 3.36282 35.9623 3.99603L27.6138 18.4562C27.248 19.089 26.4352 19.3072 25.8025 18.9413L25.7304 18.8998C25.0976 18.5341 24.8795 17.7216 25.2453 17.0886L33.5938 2.6282ZM48.9306 16.0344H30.128L36.7991 4.47925C37.4305 3.38466 37.0545 1.98003 35.9599 1.34728L35.8883 1.30635C34.7944 0.674971 33.389 1.05099 32.7569 2.14512L24.7381 16.0344H4.44461C2.54606 16.0344 1 17.5811 1 19.4791C1 21.3787 2.54499 22.9237 4.44461 22.9237H5.0882L12.3066 41.0055C12.6322 42.1027 13.6606 42.8673 14.8171 42.8673H39.9687C40.6095 42.8673 41.1708 42.4506 41.3979 41.8122L48.3786 22.9237H48.9306C50.8325 22.9237 52.3753 21.3733 52.3753 19.4791C52.3753 17.5796 50.8302 16.0344 48.9306 16.0344Z" fill="#2CB9EC"/>
<path d="M24.2304 17.0008L24.4194 17.0664C24.4406 17.0052 24.4309 16.9376 24.3934 16.8848C24.3559 16.8321 24.2952 16.8008 24.2304 16.8008V17.0008ZM25.2477 19.7372L25.1476 19.9103L25.1482 19.9106L25.2477 19.7372ZM25.3198 19.7786L25.4198 19.6053L25.4194 19.6051L25.3198 19.7786ZM28.4507 18.9393L28.6239 19.0394L28.624 19.0393L28.4507 18.9393ZM29.5698 17.0008V16.8008C29.4983 16.8008 29.4323 16.8389 29.3966 16.9008L29.5698 17.0008ZM48.9306 21.7574C48.8201 21.7574 48.7306 21.8469 48.7306 21.9574C48.7306 22.0678 48.8201 22.1574 48.9306 22.1574V21.7574ZM40.4892 41.4829L40.3015 41.4136L40.3007 41.416L40.4892 41.4829ZM13.2286 40.7153L13.4209 40.6603C13.419 40.6538 13.4168 40.6475 13.4143 40.6412L13.2286 40.7153ZM6.12843 22.9237V22.7237C6.06209 22.7237 6.00007 22.7566 5.96286 22.8115C5.92565 22.8664 5.91809 22.9362 5.94267 22.9978L6.12843 22.9237ZM47.3477 22.9237L47.5353 22.993C47.558 22.9316 47.5492 22.863 47.5118 22.8094C47.4744 22.7557 47.4131 22.7237 47.3477 22.7237V22.9237ZM33.5938 2.6282L33.4207 2.52808L33.4206 2.5282L33.5938 2.6282ZM35.4055 2.14375L35.3054 2.31689L35.3061 2.31733L35.4055 2.14375ZM35.4773 2.18483L35.5773 2.01167L35.5766 2.01125L35.4773 2.18483ZM35.9623 3.99603L36.1355 4.09602L36.1356 4.09594L35.9623 3.99603ZM27.6138 18.4562L27.7869 18.5563L27.787 18.5562L27.6138 18.4562ZM25.8025 18.9413L25.9026 18.7682L25.9023 18.768L25.8025 18.9413ZM25.7304 18.8998L25.6303 19.0729L25.6305 19.073L25.7304 18.8998ZM25.2453 17.0886L25.4185 17.1886L25.4185 17.1886L25.2453 17.0886ZM30.128 16.0344L29.9548 15.9345C29.9191 15.9963 29.9191 16.0726 29.9548 16.1344C29.9905 16.1963 30.0565 16.2344 30.128 16.2344V16.0344ZM36.7991 4.47925L36.9723 4.57925L36.9724 4.57918L36.7991 4.47925ZM35.9599 1.34728L36.06 1.17412L36.0591 1.17363L35.9599 1.34728ZM35.8883 1.30635L35.7883 1.47956L35.789 1.47999L35.8883 1.30635ZM32.7569 2.14512L32.5837 2.04507L32.5837 2.04513L32.7569 2.14512ZM24.7381 16.0344V16.2344C24.8095 16.2344 24.8756 16.1963 24.9113 16.1344L24.7381 16.0344ZM5.0882 22.9237L5.27395 22.8495C5.24361 22.7735 5.17003 22.7237 5.0882 22.7237V22.9237ZM12.3066 41.0055L12.4983 40.9486C12.4966 40.9428 12.4946 40.937 12.4923 40.9314L12.3066 41.0055ZM41.3979 41.8122L41.2103 41.7429L41.2095 41.7452L41.3979 41.8122ZM48.3786 22.9237V22.7237C48.2949 22.7237 48.22 22.7758 48.191 22.8543L48.3786 22.9237ZM48.9306 15.8344C48.8201 15.8344 48.7306 15.924 48.7306 16.0344C48.7306 16.1449 48.8201 16.2344 48.9306 16.2344V15.8344ZM48.9306 21.7574H5.42543V22.1574H48.9306V21.7574ZM5.42543 21.7574H5.42451V22.1574H5.42543V21.7574ZM5.42451 21.7574H4.44461V22.1574H5.42451V21.7574ZM4.44461 21.7574C3.18814 21.7574 2.16615 20.7355 2.16615 19.4791H1.76615C1.76615 20.9564 2.96726 22.1574 4.44461 22.1574V21.7574ZM2.16615 19.4791C2.16615 18.2247 3.191 17.2008 4.44461 17.2008V16.8008C2.97021 16.8008 1.76615 18.0036 1.76615 19.4791H2.16615ZM4.44461 17.2008H24.2304V16.8008H4.44461V17.2008ZM24.0415 16.9351C23.6573 18.0408 24.096 19.3022 25.1476 19.9103L25.3479 19.564C24.466 19.0541 24.0967 17.995 24.4194 17.0664L24.0415 16.9351ZM25.1482 19.9106L25.2202 19.952L25.4194 19.6051L25.3473 19.5637L25.1482 19.9106ZM25.2199 19.9518C26.4158 20.6416 27.9401 20.2228 28.6239 19.0394L28.2776 18.8393C27.7035 19.8328 26.4231 20.1841 25.4198 19.6053L25.2199 19.9518ZM28.624 19.0393L29.743 17.1007L29.3966 16.9008L28.2775 18.8393L28.624 19.0393ZM29.5698 17.2008H48.9306V16.8008H29.5698V17.2008ZM48.9306 17.2008C50.1869 17.2008 51.209 18.2228 51.209 19.4791H51.609C51.609 18.0018 50.4078 16.8008 48.9306 16.8008V17.2008ZM51.209 19.4791C51.209 20.7304 50.1866 21.7574 48.9306 21.7574V22.1574C50.408 22.1574 51.609 20.9508 51.609 19.4791H51.209ZM40.3007 41.416C40.2318 41.61 40.0909 41.701 39.9687 41.701V42.1009C40.2988 42.1009 40.5663 41.8636 40.6776 41.5498L40.3007 41.416ZM39.9687 41.701H14.8171V42.1009H39.9687V41.701ZM14.8171 41.701C14.1688 41.701 13.5955 41.2708 13.4209 40.6603L13.0363 40.7703C13.2609 41.5555 13.9934 42.1009 14.8171 42.1009V41.701ZM13.4143 40.6412L6.31418 22.8495L5.94267 22.9978L13.0428 40.7895L13.4143 40.6412ZM6.12843 23.1237H47.3477V22.7237H6.12843V23.1237ZM47.1601 22.8543L40.3016 41.4136L40.6768 41.5523L47.5353 22.993L47.1601 22.8543ZM33.767 2.72832C34.0778 2.1908 34.768 2.00614 35.3054 2.31688L35.5056 1.97061C34.7768 1.54918 33.842 1.79949 33.4207 2.52808L33.767 2.72832ZM35.3061 2.31733L35.3779 2.35841L35.5766 2.01125L35.5048 1.97017L35.3061 2.31733ZM35.3772 2.35799C35.9142 2.66836 36.0991 3.35849 35.7891 3.89611L36.1356 4.09594C36.5559 3.36715 36.3055 2.43256 35.5773 2.01168L35.3772 2.35799ZM35.7891 3.89603L27.4406 18.3562L27.787 18.5562L36.1355 4.09602L35.7891 3.89603ZM27.4406 18.3561C27.13 18.8935 26.4395 19.0787 25.9026 18.7682L25.7023 19.1144C26.4309 19.5358 27.366 19.2845 27.7869 18.5563L27.4406 18.3561ZM25.9023 18.768L25.8302 18.7265L25.6305 19.073L25.7026 19.1146L25.9023 18.768ZM25.8304 18.7266C25.2932 18.4162 25.108 17.7259 25.4185 17.1886L25.0721 16.9885C24.651 17.7173 24.902 18.6521 25.6303 19.0729L25.8304 18.7266ZM25.4185 17.1886L33.767 2.7282L33.4206 2.5282L25.0721 16.9886L25.4185 17.1886ZM48.9306 15.8344H30.128V16.2344H48.9306V15.8344ZM30.3012 16.1344L36.9723 4.57925L36.6259 4.37926L29.9548 15.9345L30.3012 16.1344ZM36.9724 4.57918C37.6589 3.38897 37.2501 1.86212 36.06 1.17412L35.8598 1.52043C36.8588 2.09793 37.2021 3.38034 36.6259 4.37932L36.9724 4.57918ZM36.0591 1.17363L35.9875 1.1327L35.789 1.47999L35.8607 1.52092L36.0591 1.17363ZM35.9882 1.13313C34.7988 0.446566 33.2711 0.855295 32.5837 2.04507L32.9301 2.24518C33.5069 1.24668 34.7901 0.903376 35.7883 1.47956L35.9882 1.13313ZM32.5837 2.04513L24.5649 15.9344L24.9113 16.1344L32.9301 2.24512L32.5837 2.04513ZM24.7381 15.8344H4.44461V16.2344H24.7381V15.8344ZM4.44461 15.8344C2.43558 15.8344 0.8 17.4707 0.8 19.4791H1.2C1.2 17.6915 2.65654 16.2344 4.44461 16.2344V15.8344ZM0.8 19.4791C0.8 21.4891 2.43453 23.1237 4.44461 23.1237V22.7237C2.65545 22.7237 1.2 21.2682 1.2 19.4791H0.8ZM4.44461 23.1237H5.0882V22.7237H4.44461V23.1237ZM4.90246 22.9978L12.1208 41.0797L12.4923 40.9314L5.27395 22.8495L4.90246 22.9978ZM12.1148 41.0624C12.4659 42.2454 13.573 43.0673 14.8171 43.0673V42.6673C13.7483 42.6673 12.7985 41.96 12.4983 40.9486L12.1148 41.0624ZM14.8171 43.0673H39.9687V42.6673H14.8171V43.0673ZM39.9687 43.0673C40.7012 43.0673 41.3333 42.5905 41.5863 41.8792L41.2095 41.7452C41.0083 42.3108 40.5178 42.6673 39.9687 42.6673V43.0673ZM41.5855 41.8815L48.5662 22.993L48.191 22.8543L41.2103 41.7429L41.5855 41.8815ZM48.3786 23.1237H48.9306V22.7237H48.3786V23.1237ZM48.9306 23.1237C50.9432 23.1237 52.5753 21.4835 52.5753 19.4791H52.1753C52.1753 21.2632 50.7217 22.7237 48.9306 22.7237V23.1237ZM52.5753 19.4791C52.5753 17.4691 50.9406 15.8344 48.9306 15.8344V16.2344C50.7197 16.2344 52.1753 17.6901 52.1753 19.4791H52.5753Z" fill="#2CB9EC"/>
<path fill-rule="evenodd" clip-rule="evenodd" d="M25.7817 28.1243C25.7817 27.6248 26.1878 27.2185 26.6876 27.2185C27.1871 27.2185 27.5934 27.6248 27.5934 28.1243V36.6998C27.5934 37.1994 27.1871 37.6056 26.6876 37.6056C26.1878 37.6056 25.7817 37.1994 25.7817 36.6998V28.1243ZM26.6876 38.5719C27.7197 38.5719 28.5595 37.7321 28.5595 36.6998V28.1243C28.5595 27.092 27.7197 26.2522 26.6876 26.2522C25.6553 26.2522 24.8154 27.092 24.8154 28.1243V36.6998C24.8154 37.7321 25.6553 38.5719 26.6876 38.5719Z" fill="#2CB9EC"/>
<path d="M26.6876 38.3719C26.5771 38.3719 26.4876 38.4615 26.4876 38.5719C26.4876 38.6824 26.5771 38.7719 26.6876 38.7719V38.3719ZM25.9817 28.1243C25.9817 27.7352 26.2983 27.4185 26.6876 27.4185V27.0185C26.0774 27.0185 25.5817 27.5143 25.5817 28.1243H25.9817ZM26.6876 27.4185C27.0767 27.4185 27.3934 27.7352 27.3934 28.1243H27.7934C27.7934 27.5143 27.2976 27.0185 26.6876 27.0185V27.4185ZM27.3934 28.1243V36.6998H27.7934V28.1243H27.3934ZM27.3934 36.6998C27.3934 37.0889 27.0767 37.4056 26.6876 37.4056V37.8056C27.2976 37.8056 27.7934 37.3098 27.7934 36.6998H27.3934ZM26.6876 37.4056C26.2983 37.4056 25.9817 37.0889 25.9817 36.6998H25.5817C25.5817 37.3098 26.0774 37.8056 26.6876 37.8056V37.4056ZM25.9817 36.6998V28.1243H25.5817V36.6998H25.9817ZM26.6876 38.7719C27.8302 38.7719 28.7595 37.8425 28.7595 36.6998H28.3595C28.3595 37.6216 27.6092 38.3719 26.6876 38.3719V38.7719ZM28.7595 36.6998V28.1243H28.3595V36.6998H28.7595ZM28.7595 28.1243C28.7595 26.9816 27.8302 26.0522 26.6876 26.0522V26.4522C27.6092 26.4522 28.3595 27.2025 28.3595 28.1243H28.7595ZM26.6876 26.0522C25.5448 26.0522 24.6154 26.9816 24.6154 28.1243H25.0154C25.0154 27.2025 25.7657 26.4522 26.6876 26.4522V26.0522ZM24.6154 28.1243V36.6998H25.0154V28.1243H24.6154ZM24.6154 36.6998C24.6154 37.8426 25.5448 38.7719 26.6876 38.7719V38.3719C25.7657 38.3719 25.0154 37.6216 25.0154 36.6998H24.6154Z" fill="#2CB9EC"/>
<path fill-rule="evenodd" clip-rule="evenodd" d="M34.8402 28.1243C34.8402 27.6248 35.2464 27.2185 35.7462 27.2185C36.2457 27.2185 36.6518 27.6248 36.6518 28.1243V36.6998C36.6518 37.1994 36.2457 37.6056 35.7462 37.6056C35.2464 37.6056 34.8402 37.1994 34.8402 36.6998V28.1243ZM35.7462 38.5719C36.7783 38.5719 37.6181 37.7321 37.6181 36.6998V28.1243C37.6181 27.092 36.7783 26.2522 35.7462 26.2522C34.7137 26.2522 33.874 27.092 33.874 28.1243V36.6998C33.874 37.7321 34.7137 38.5719 35.7462 38.5719Z" fill="#2CB9EC"/>
<path d="M35.7462 38.3719C35.6357 38.3719 35.5462 38.4615 35.5462 38.5719C35.5462 38.6824 35.6357 38.7719 35.7462 38.7719V38.3719ZM35.0402 28.1243C35.0402 27.7352 35.3569 27.4185 35.7462 27.4185V27.0185C35.136 27.0185 34.6402 27.5143 34.6402 28.1243H35.0402ZM35.7462 27.4185C36.1352 27.4185 36.4518 27.7352 36.4518 28.1243H36.8518C36.8518 27.5143 36.3562 27.0185 35.7462 27.0185V27.4185ZM36.4518 28.1243V36.6998H36.8518V28.1243H36.4518ZM36.4518 36.6998C36.4518 37.089 36.1352 37.4056 35.7462 37.4056V37.8056C36.3562 37.8056 36.8518 37.3098 36.8518 36.6998H36.4518ZM35.7462 37.4056C35.3569 37.4056 35.0402 37.0889 35.0402 36.6998H34.6402C34.6402 37.3099 35.136 37.8056 35.7462 37.8056V37.4056ZM35.0402 36.6998V28.1243H34.6402V36.6998H35.0402ZM35.7462 38.7719C36.8888 38.7719 37.8181 37.8425 37.8181 36.6998H37.4181C37.4181 37.6216 36.6678 38.3719 35.7462 38.3719V38.7719ZM37.8181 36.6998V28.1243H37.4181V36.6998H37.8181ZM37.8181 28.1243C37.8181 26.9816 36.8888 26.0522 35.7462 26.0522V26.4522C36.6678 26.4522 37.4181 27.2025 37.4181 28.1243H37.8181ZM35.7462 26.0522C34.6033 26.0522 33.674 26.9816 33.674 28.1243H34.074C34.074 27.2025 34.8242 26.4522 35.7462 26.4522V26.0522ZM33.674 28.1243V36.6998H34.074V28.1243H33.674ZM33.674 36.6998C33.674 37.8425 34.6033 38.7719 35.7462 38.7719V38.3719C34.8242 38.3719 34.074 37.6216 34.074 36.6998H33.674Z" fill="#2CB9EC"/>
<path fill-rule="evenodd" clip-rule="evenodd" d="M16.9862 28.1243C16.9862 27.6248 17.3924 27.2185 17.8922 27.2185C18.3917 27.2185 18.7978 27.6248 18.7978 28.1243V36.6998C18.7978 37.1994 18.3917 37.6056 17.8922 37.6056C17.3924 37.6056 16.9862 37.1994 16.9862 36.6998V28.1243ZM17.8922 38.5719C18.9243 38.5719 19.7641 37.7321 19.7641 36.6998V28.1243C19.7641 27.092 18.9243 26.2522 17.8922 26.2522C16.8599 26.2522 16.02 27.092 16.02 28.1243V36.6998C16.02 37.7321 16.8599 38.5719 17.8922 38.5719Z" fill="#2CB9EC"/>
<path d="M17.8922 38.3719C17.7817 38.3719 17.6922 38.4615 17.6922 38.5719C17.6922 38.6824 17.7817 38.7719 17.8922 38.7719V38.3719ZM17.1862 28.1243C17.1862 27.7352 17.5029 27.4185 17.8922 27.4185V27.0185C17.282 27.0185 16.7862 27.5143 16.7862 28.1243H17.1862ZM17.8922 27.4185C18.2812 27.4185 18.5978 27.7352 18.5978 28.1243H18.9978C18.9978 27.5143 18.5022 27.0185 17.8922 27.0185V27.4185ZM18.5978 28.1243V36.6998H18.9978V28.1243H18.5978ZM18.5978 36.6998C18.5978 37.089 18.2812 37.4056 17.8922 37.4056V37.8056C18.5022 37.8056 18.9978 37.3098 18.9978 36.6998H18.5978ZM17.8922 37.4056C17.5029 37.4056 17.1862 37.0889 17.1862 36.6998H16.7862C16.7862 37.3099 17.282 37.8056 17.8922 37.8056V37.4056ZM17.1862 36.6998V28.1243H16.7862V36.6998H17.1862ZM17.8922 38.7719C19.0347 38.7719 19.9641 37.8425 19.9641 36.6998H19.5641C19.5641 37.6216 18.8138 38.3719 17.8922 38.3719V38.7719ZM19.9641 36.6998V28.1243H19.5641V36.6998H19.9641ZM19.9641 28.1243C19.9641 26.9816 19.0347 26.0522 17.8922 26.0522V26.4522C18.8138 26.4522 19.5641 27.2025 19.5641 28.1243H19.9641ZM17.8922 26.0522C16.7494 26.0522 15.82 26.9816 15.82 28.1243H16.22C16.22 27.2025 16.9703 26.4522 17.8922 26.4522V26.0522ZM15.82 28.1243V36.6998H16.22V28.1243H15.82ZM15.82 36.6998C15.82 37.8426 16.7494 38.7719 17.8922 38.7719V38.3719C16.9703 38.3719 16.22 37.6216 16.22 36.6998H15.82Z" fill="#2CB9EC"/>
<path fill-rule="evenodd" clip-rule="evenodd" d="M26.6659 18.0476C27.0433 18.0476 27.3505 17.7405 27.3505 17.3631C27.3505 16.9851 27.0433 16.6781 26.6659 16.6781C26.2879 16.6781 25.981 16.9851 25.981 17.3631C25.981 17.7405 26.2879 18.0476 26.6659 18.0476Z" fill="#2CB9EC"/>
<path d="M26.6659 18.0476C27.0433 18.0476 27.3505 17.7405 27.3505 17.3631C27.3505 16.9851 27.0433 16.6781 26.6659 16.6781C26.2879 16.6781 25.981 16.9851 25.981 17.3631C25.981 17.7405 26.2879 18.0476 26.6659 18.0476" stroke="#2CB9EC" stroke-width="0.4" stroke-linecap="round" stroke-linejoin="round"/>
</svg>
